<svg id="Group_134" data-name="Group 134" xmlns="http://www.w3.org/2000/svg" xmlns:xlink="http://www.w3.org/1999/xlink" width="345.465" height="624.482" viewBox="0 0 345.465 624.482">
  <defs>
    <clipPath id="clip-path">
      <rect id="Rectangle_182" data-name="Rectangle 182" width="345.465" height="624.482" fill="none"/>
    </clipPath>
  </defs>
  <g id="Group_133" data-name="Group 133" clip-path="url(#clip-path)">
    <path id="Path_1813" data-name="Path 1813" d="M160.275,6.311C152.838,3.439,117.05,17.5,109.893,22.383c-4.6,3.139-13.051,8.393-16.87,12.243C80.064,47.694,79.594,45.244,82.7,55.412c.985,3.226,5.607,15.392,7.329,16.724a5.924,5.924,0,0,1,.376.525c.094.144.249.342.358.517,6.954,11.191,1.071,4.02,11.252,13.57.1.092.254.191.35.289,1.651,1.68,1-.27,1.583,2.816l0,0c2.828.951,1.5.082,2.528,2.528l-.63,0c2.656.9,1.489-.176,2.08,2.529l-.181,0c1.994.649,1.246-.1,1.9,1.9l0,.636c1.922.68,1.151-.371,1.848,1.9-.409,2.213-.814-.006,2.584,5.061,1.226,1.828,2.257,3.344,3.627,5.234,4.372,6.033,15.685,26.4,18.952,32.944,1.056,2.114,1.5,3.572,2.522,5.7.615,1.292.906,1.964,1.4,3.03l11.4,27.838c1.456,4,2.859,8.9,4.5,12.59,1.629,1.556,1.028-1.684,1.348,1.573-.017-20.143-5.6-48.7-9.426-68.139-1.927-9.779-8-38.477-11.337-47.567-1.8-4.9-4.9-9.6-6.208-14.117,4.206.956,14.476,9.236,17.872,12.588,1.065,1.051,1.458,1.779,2.357,2.624l2.5,2.4a3.061,3.061,0,0,1,.359.514l-.629.636c1.745,1.376.505-1.6,1.861,2.529-.612,1.96,4,15.019,5.367,21.883.791,3.974,1.324,8.316,2.139,11.784,1.9,8.068,1.976,21.649,2.8,25.679l9.174,18.672c1.378,3.47,2.521,7.513,3.972,10.609,1.469.518.91-.741,1.263,1.24l-.629.636c1.2-.885.134-1.705.187-4.263l4.4-35.538c1.662-24.106-1.98-33-1.74-42.773-1.293,2.143-3.909,15.811-4.97,20.327-.551,2.346-.939,4.5-2.478,6.235-4.751-19.354-12.205-50.106,5.1-64.98,3.133-2.693,11.1-8.8,15.876-10.853-2.114.428-.209.186-1.193-1.061-3.573-.132-10.934-1.308-16.526-.751-8.319.831-14.25.051-24.617,3.913-8.9,3.316-8.055,1.758-9.062,4.861-.706,2.174-.815,11.495.2,14.127L143.188,66.2c-2.12-2.451-6.123-13.664-7.452-17.651-2.709-8.128-3.511-13.419.948-20.266,3.956-6.075,13.55-14.1,19.728-18.239,1.931-1.293,6.15-3.339,7.556-5h-.8c-1,.926.581,1.089-2.889,1.262M111.453,102.1c.99.562.832.159.368,1.245,1.288.238.907-1,1.044.745l.578,1.025-.578-1.025-1.044-.745-.368-1.245-.131-.222Z" fill="#ffc800" fill-rule="evenodd"/>
    <path id="Path_1814" data-name="Path 1814" d="M224.831,323.382c.694,3.931-1.789,3.43-3.49,1.651-1.4-1.462-1.91-3.749-2.474-5.788-3.476-12.586-11.983-28.526-13.331-35.419,1.651.265.266-.293,2.779,2.815l3.367,4.085c.083-.13.319.26.488.376-1.009-1.976-1.238-.452,0-1.895,2.655,5.017,5.078,5.366,9.676,16.9,2.463,6.183,4.942,14.208,5.513,21.067-1.017-1.464-.568-2.345-2.528-3.8m-12.939-32.277c.516,3.268-.217,1.1,1.544,1.9Zm-1.621-3.8c-2.344,2.007.146.325.155.344.273.58,1.053-1.378-.155-.344m47.917-3.8,1.7-1.263c-2.529,0-.965-.38-1.7,1.263l-2.337-1.289c1.352-5.108,8.091-6.445,8.214-12-5.435,0-9.981-3.293-12.824-6.161-5.74-5.788-6.02-7.384-7.552-8.927-1.355-1.365-.113-.3-1.625-1.367-.255,2.213-5.333,7.786-7.132,10.1-3.752,4.829-5.419,8.574-8.512,6.72a16.865,16.865,0,0,1,.706-2.265c-.373.235-3.2,1.349-2.648-2.762.6-4.407,3.513-12.069,3.513-18.123a56.932,56.932,0,0,1-6.76,1.47c-7.242,1.084-18.346-1.7-23.823-2.1,2.676,2.335,2.194,4.651,2.266,8.866.092,5.348-3.517,21.772-6.482,25.97-3.076,4.357-5.975,8.435-10.206,11.28L170.643,300.6c-1.432-1.642-.5-.57-2.141-1.169l1.581,2.136c7.626,10.015,5.381,10.908,5.381,24.345,2.395.558,3.508,1.505,5.439,2.787,1.76,1.169,3.279,2.076,5.124,3.1,20.481,11.413,19.216,5.583,42.6,5.481,7.691-.033,3.371.168,12.57,3.9,4.3,1.744,7.015,3.706,13.357,3.74,6.77.035,8.787-.817,12.492-4.007,5.742-4.944,2.459-4.248,12.841-4.248-.23-2.765-1.916-4.788-1.913-8.86s2.183-6.553,1.283-9.82c1.655.429,1.263.77,1.263-.911-1.55,0-1.263-.446-1.263.911-2.77-.343-4.554-.936-4.5-4.074a10.945,10.945,0,0,1,1.061-3.46c1.188-1.857.5-1.463,2.8-1.692-1.161-1.934,2.644-3.745,4.636-4.8,2.437-1.29,5.28-1.987,6.756-4-1.246-1.7-2.845-2.091-4.589-3.639-8.124-7.214-8.2-11.032-10.988-14.015-.1-.108-.3-.269-.384-.355a4.1,4.1,0,0,0-.393-.345l.535,1.924c-2.381-2.434-9.993,4.219-14.508,3.129-1.838-.444-2.725-1.939-1.5-3.157m-28.927-1.9c1.929.943.475-.6,1.9,1.363-3.432-.517-.764.2-1.9-1.363m29.111,28.48c2.787,1.911,1.736,2.289,3.795,3.8-.54-6.482-9.751-15.091-14.076-19.466a29.419,29.419,0,0,0-4.459-3.769l-14.652-9.682a2.31,2.31,0,0,0,.278.689c-3.5-.721-.663.187-1.9-1.314l0,.411c-6.895-3.115-3.708-3.85-7.558-4.221.628,3.4,7.58,8.144,9.876,10.355l19.584,21.555c3.014,3.607,5.486,10.805,10.923,7.389.47-2.519.613-.842-.09-3.005L259.018,311c-.093-.14-.242-.341-.32-.454a5.4,5.4,0,0,1-.326-.456m-23.419-24.319c-3.255-.669-1.094.172-1.9-1.629.2.119.443.243.6.361Zm-2.531-1.632c-1.684,0-1.263.421-1.263-1.263,1.684,0,1.263-.421,1.263,1.263" fill="#585858" fill-rule="evenodd"/>
    <path id="Path_1815" data-name="Path 1815" d="M131.8,395.967c.139-.13.311-.3.417-.391s.288-.269.417-.374l1.222-.906a16.907,16.907,0,0,1,2.169-.959c10.167-4.006,24.42-6.272,34.967-5.384-2.1,32.718-3.561,33.457,14.635,62.63,2.13,3.414,9.312,13.1,10.348,15.827l-16.878,5.037c-5.252,1.082-12.533,2.644-17.552,2.681,3.473,3.983,26.188,2.77,30.415,2.446,20.022-1.536,24.017-2.306,34.77-22.187,8.508-15.729,6.761-14.986-1.906-31.636-1.239-2.379-2.7-5.181-3.781-7.61-3.412-7.672-8.236-17.558-8.236-25.94-8.508-1.982-11.83-8.861-40.5-8.861-27.46,0-33.264,7.573-41.137,8.228.062,2.774.633,3.772.633,7.4" fill="#e25800" fill-rule="evenodd"/>
    <path id="Path_1816" data-name="Path 1816" d="M131.8,395.967a68.225,68.225,0,0,1-1.3,9.655c-.693,3.051-1.865,5.677-1.865,9.526H128c0-5.8,1.775-9.766,1.046-15.188l.439-3.989c-.179,0-2.727,0-2.745.006-1.586.274-.866.114-1.9,1-1.958,7.246-2.531,8.459-2.531,18.171,7.033,1.64,12.133,1.146,14.959,9.723L147,451.844c.63,1.728,1.174,2.76,1.82,4.508,1.9,5.131,6.669,19.365,12.725,17.776,5.019-.037,12.3-1.6,17.552-2.681l16.878-5.037c-1.036-2.73-8.218-12.413-10.348-15.827-18.2-29.173-16.739-29.912-14.635-62.63-10.547-.888-24.8,1.378-34.967,5.384a16.907,16.907,0,0,0-2.169.959l-1.222.906c-.129.105-.313.284-.417.374s-.278.261-.417.391" fill="#fa8a00" fill-rule="evenodd"/>
    <path id="Path_1817" data-name="Path 1817" d="M67.24,18.335c0,1.088.2.633-1.262.633-4,2.124-15.258,24.975-17.711,30.391-2.324,5.13-12.663,32.059-10.139,38.6-.386,3.168.437,7.08-3.49,6.579-4.307-.549-13.371-8.6-15.908-12.492-3.77-5.777-6.354-23.3-5.916-31.545,0,5.032.254,1.01-1.263,2.647C9.213,69.481,9.746,80.087,13.7,95.926a77.165,77.165,0,0,0,2.981,9.043,57.116,57.116,0,0,0,3.59,8.435c2.19,3.749,6.405,12.758,10.261,13.788.951-1.983,1.1-1.874.636-3.8.649-1.995-.1-1.247,1.9-1.9l0,.63c.107-.182.472-.878.525-1.03.921-2.683.481-5.222,1.005-8.805l2.9-9.148c1.078.949.539,1.491.825,3.566.113.82.421,2.962.7,4.4a35.4,35.4,0,0,0,2.269,7.228c1.55,0,1.262-.445,1.262.913,1.614.285,4.357-1.9,6.232-2.907C59.43,110.6,90.716,97.412,94.262,93.758,82.9,85.691,76.827,74.7,71.63,69.406c1.322,6.265,7.142,15.282,7.573,21.5-3.847-2.162-7.9-9.289-10.42-13.984-6.488-12.1-7.762-28.151-5.689-41.764,1.385-9.094,6.5-21.3,4.146-16.827" fill="#ffc800" fill-rule="evenodd"/>
    <path id="Path_1818" data-name="Path 1818" d="M33.665,481.993l-.377-1.017c0-1.334.368-1.061-.852-1.061,0,1.326-.366,1.049.852,1.061l.377,1.017c1.488,4.014,13.526,17.669,17.487,20.762,1.824,1.424,2.577,2.265,4.512,3.715,8.452,6.337,14.662,6.128,25.5,6.141,11.339.014,11.533-.529,19.623-12.02,1.328-1.887,5.524-8.125,5.69-10.131-4.222.1-7.168,2.438-11.39,2.532,1.241-4.65,15.939-6.866,22.782-17.088-.474-1.78-2.356-3.925-3.632-5.228-6.7-6.846-14.851-16.475-24.957-21.241-3.054-1.44-6.583-3.445-10.118-3.883L75.284,446a2.055,2.055,0,0,0-.446.22l4.622-.01c-1.6,5.406-3.18,10.494-4.761,16.187-.974,3.505-2.967,13.509-5.879,15.134-17.709,9.878-21.623.647-35.155,4.458" fill="#e25800" fill-rule="evenodd"/>
    <path id="Path_1819" data-name="Path 1819" d="M184.321,72.766c-1.875,1.481-1.221.754-2.531,5.7L180.1,83.729a3.335,3.335,0,0,1-.205.428c0-15.755,8.1-25.412,18.816-35.61,2.089-1.99,3.269-1.644,3.967-4.26a25.342,25.342,0,0,0-8.224-1.9c.985,1.247-.921,1.489,1.193,1.061C190.872,45.5,182.9,51.609,179.771,54.3c-17.31,14.874-9.856,45.626-5.1,64.98,1.538-1.734,1.927-3.889,2.478-6.235,1.061-4.516,3.677-18.184,4.97-20.327-.24,9.771,3.4,18.667,1.74,42.773l-4.4,35.538c-.053,2.558,1.008,3.378-.188,4.263a23.176,23.176,0,0,1,.633,4.427c3.079-.256,2.159-.594,3.4-3.557,9.433-22.443,14.95-51.583,14.949-75.552,0-5.239.275-8.99.633-13.29l1.25,5.712c.183,3.182.649,4.117.649,6.945a29.212,29.212,0,0,1,7.2,1.665l6.216,2.644c6.489,3.351,3.183,5.821,3.042,12.146,2.868-.239,5.4-2.284,8.848-3.177,2.984-.774,7-1.317,9.506-2.519-.767-2.87-4.385-6.591-6.329-9.493a38.527,38.527,0,0,0-9.493,1.266c2.96-4.041,13.06-5.063,18.353-5.063-.071-3.189-.035-2.724-2.3-3.8-.756.6.077.624-2.251.23a12.772,12.772,0,0,1-2.962-.938C222.844,89.517,208.063,76.13,197.38,75.1c2.027,4.862,7.15,7.062,10.813,10.744L183.347,75.406Zm-4.43,101.892c-1.621-.493-1.263.9-1.263-1.24,1.469.518.91-.741,1.263,1.24" fill="#e49600" fill-rule="evenodd"/>
    <path id="Path_1820" data-name="Path 1820" d="M157.562,247.438c-3.359,1.412-1.415-.4-1.889,1.895-2.507-1.067-1.21-1.067-1.727.633l1.727-.633,1.412-1.427c.116-.116.315-.315.477-.468M142.7,260.732c4.054-.66,4.988-3.513,7.843-5.952l5.9-5.482c.1-.1.243-.225.34-.323l.658-.725c.075-.085.265-.167.319-.4s.225-.265.317-.412l1.181-1.641c3.649-3.374,3.431-2.427,10.042-8.956,7.7-7.6,5.687-10.142,5.552-13.8a3.633,3.633,0,0,1-.02-.5c-1.676.288-1.263.646-1.263-1.046,1.6,0,1.263-.436,1.263,1.046l.428.883c-1.278-4.85-3.68-8.677-5.848-12.333l-7.238-11.4c0,3.827.336,1.207-1.262,2.176,0-3.025-.4-1.3,1.262-2.176-3.645-8.057,12.028-7.764,12.028-28.2h1.9c.631,2.706,1.535,4.319,2.161,7.333.666,3.209.125,5.02,2.27,6.591,2.437-1.785,8.016-17.086,8.227-19.619l2.531.862c2.2,1.791,3.121,3.57,6.158,5.634,2.037,1.383,5.281,3.719,7.793,4.409L202.68,169.6c.148.116.309.293.412.384,2.844,2.531,1.805,1.964,4.015,2.147-4.287-6.4-.668-7.071.633-12.657-2.247,1.505-1.381,2.278-4.43,2.531a18.847,18.847,0,0,1,.22-4.211c.472-2.332,2.047-2.215.413-3.383l-1.693,2.369c-.091.1-.343.511-.412.394s-.277.274-.424.4c3.4-14.842,17.5.69,16.455,7.463l.1-8.1c1.086.781,1.345-.84,1.207,5.705a36.34,36.34,0,0,1-2.867,14.255c-3.837,8.146-6.449,8.569-12.391,10.434-3.891,1.22-.529.117-1.7,2.756-.638,1.439-3.4,2.171-6.421,10.6-5.5,15.36,2.933,17.967-12.253,33.313-9.379,9.481-14,13.048-25.041,20.526-3.505,2.373-11.763,7.917-15.806,6.205-1.138,1.259,1.555,1.321-2.68,1.357-4.186.035-1.652-.209-2.527-1.357Z" fill="#ecb482" fill-rule="evenodd"/>
    <path id="Path_1821" data-name="Path 1821" d="M108.377,186.049c-1.624,4.2.107,4.723-.1,8.147-.131,2.146-.572.961-.357,3.747.086,1.119.462,1.07.462,3.3,1.325,1.59,1.249-2.368,1.265,3.143,1.855-.649,15.245-10.708,19.619-8,4.448,2.749-.992,6.067-1.054,7.719-.223,6.012.216-1.207.426,2.223l-1.9.556c-1.793-.325-.558-.287-2.164.4-1.59.682-.356.341-2.059,1.115-3.9,1.769-13.981,3.836-15.4-1.461-5.365.447-.412,4.316-11.409,10.741-7.7,4.5-8.833,2.549-18.336,2.549l8.492,16.823c3.719,6.721,4.882,9.061,12.19,13.125,6.4,3.558,32.374,13.289,39.441,10.559H142.7c4.054-.66,4.987-3.512,7.842-5.952l5.9-5.482c.1-.1.243-.225.34-.322l.657-.726c.076-.084.265-.167.319-.4s.225-.265.317-.412h-.511c-.161.154-.36.352-.476.469l-1.412,1.427-1.727.633c-1.219-.075-.1-.23-1.68.252-7.9,2.41-15.515,10.315-27-3.845l-13.723-17.926a26.276,26.276,0,0,1-2.225-2.932c-.438-1.519-.536-.665.174-1.623,1.621-2.182.679-.953,1.418.126,2.829-.952,1.5-.082,2.529-2.528-1.317-.9-1.715,1.02-.627-1.266,1.221-2.021-.318-.168,1.066-1.493.953-.911.192-.185,1.463-.738,2.427-.021,1.946-1.173,6.837-4.222,5.411-3.372,17.468-11.29,23.784-9.644,4.615,1.2,11.529,5.15,15.382,7.434,8.338,4.942,9.519,8.5,12.221,9.932,1.6,0,1.262-.436,1.262,1.046l.428.882c-1.277-4.849-3.679-8.676-5.847-12.333l-7.239-11.4c0,3.827.336,1.207-1.262,2.177l-1.739,2.051a12.281,12.281,0,0,1-2.691-5.845c-2.341.194-10.983,4.352-20.055.435-2.008-.867-3.828-1.977-5.892-2.113-3-.386-1.564.186-2.529-2.12-1.214-2.288-3.445-3.476-5.337-5.425-1.772-1.823-3.229-5.393-4.792-6.6-1.355-.054-8.956,2.8-9.5,3.8" fill="#fedeb6" fill-rule="evenodd"/>
    <path id="Path_1822" data-name="Path 1822" d="M241.282,245.542l2.283,4.065c1.1,1.63,1.694,2.136,2.774,3.532A67.535,67.535,0,0,0,252.2,259.3c4.728,4.773,14.19,8.766,15.665,8.385,1.554-1.042,2.316-2.482,3.637-3.958A54.016,54.016,0,0,0,275,259c2.545-3.435,4.6-5.711,7.04-9.415,6.337-9.6,7.5-10.034,12.746-19.969.074-.14.185-.359.293-.531-1.439.572-1.146-.295-1.36.63,1.878-12.29-16.014-28.854-29.043-15.218-5.359,5.609-12.965,17.25-17.111,24.672-.894,1.6-3.46,7.591-4.187,8.27-.137-.16-.521-.68-.628-.782Z" fill="#ecb482" fill-rule="evenodd"/>
    <path id="Path_1823" data-name="Path 1823" d="M107.928,94.916c-.591-2.7.576-1.627-2.079-2.529-.823-.02-.488,1.02-1.02-.313-.721-1.806-1.353.84.383-1.585a3.4,3.4,0,0,0,.082.573l1.184,1.322c-1.024-2.446.3-1.577-2.528-2.528-.844.839-.843.841,0,0-.585-3.086.067-1.137-1.584-2.817-.1-.1-.251-.2-.35-.289-10.181-9.549-4.3-2.379-11.252-13.569-.108-.175-.264-.373-.358-.518a5.54,5.54,0,0,0-.376-.525c.937,2.251.39,2.1,0,2.529l-5.373-9.816c-.781-1.567-1.02-2.348-1.8-3.9-7.435-14.811-6.937-30-6.1-45.758.17-3.2,1.18-6.446,1.248-9.511-3.433.285-9.651,9.1-10.09,10.083-.079.177-.283.715-.342.907l-.33,1.664c-1.614-.8-1.262-1.133-1.262.633,1.458,0,1.262.455,1.262-.633,2.356-4.469-2.761,7.733-4.146,16.827-2.073,13.613-.8,29.662,5.689,41.764C71.3,81.621,75.356,88.748,79.2,90.91c-.431-6.222-6.251-15.239-7.573-21.5,5.2,5.3,11.273,16.285,22.632,24.352C90.716,97.412,59.43,110.6,48.79,116.341c-1.875,1.012-4.618,3.192-6.232,2.907,0-1.358.288-.913-1.262-.913,0,1.706-.4,1.373,1.262.913-1.076,2.583.549,2.08,1.269,4.78l14.1-7.423c16.183-6.695,28.117-11.319,45.233-14.944,5.438-1.152,4.094-.066,4.592.451,3.1-.122.882.179,1.72-.868a12.852,12.852,0,0,0-.048-1.793c-.445-1.658-1.893-2.63-3.57-5.8Zm1.715,1.9a5.374,5.374,0,0,1-.574-.371l-.951-.951c-.108-.332-.25-.38-.371-.573,1.995.648,1.247-.1,1.9,1.9m1.85,2.532-1.848-1.9c1.923.68,1.151-.371,1.848,1.9m-9.442-10.759c.068-.068.266.015.267.111,0,.04.114.045.11.044-.022-.009-1.543,1.011-.377-.155" fill="#e49600" fill-rule="evenodd"/>
    <path id="Path_1824" data-name="Path 1824" d="M273.559,274.022l.705,1.8c1.47,3.63,5.437,9.276,7.878,12.394a36.4,36.4,0,0,0,12.3,9.848c1.293.146,29.086-16.363,31.8-19.619h-.159l3.162-2.69-2.267,1.683c4.818-4.6,12.677-11.52,6.253-20.7-4.211-6.017-11.144-10.8-20.943-6.009-10.669,5.219-29.431,17.943-37.5,25.074.065-3.636.212-.324-1.241-1.785" fill="#ecb482" fill-rule="evenodd"/>
    <path id="Path_1825" data-name="Path 1825" d="M133.062,334.774c0-1.618,1-.1.376,0-.007,0-.376,1.767-.376,0m-5.7,40.5-.088,6.108,4.426-1.819a229.5,229.5,0,0,1,1.587-24.926l3.473-16.657a6.908,6.908,0,0,0-2.434-3.846c-1.911-3.532-.183-.642-5.163-4.327-1.765-1.306-3.164-3.061-5.6-3.264-2.419,5.041.749,7.6-8.167,9.553a143.475,143.475,0,0,0-13.9,3.821c-6.913,2.279-4.475-2.026-9.929,16.652-1.747,5.982-5.019,16.025-4.786,21.955.2,5.027.992,1.847,10.114-1.438,6.584-2.371,20.153-7.508,28.566-7.508,0-4.5,5.316-30.919,7.595-33.542-.6,7.173-8.013,33.247-5.7,39.238" fill="#8c8c8c" fill-rule="evenodd"/>
    <path id="Path_1826" data-name="Path 1826" d="M50.155,148.845c1.619.9-.494.978,2.1.114l4.908-3.335c2.409-1.54,4.684-2.717,7.293-4.081,18.413-9.629,38.1-14.236,47.632-20.048-3.675-9.194-10.937-14.645-11.963-17.719-3.983.339-6.791,1.862-10.354,2.9-7.618,2.229-43.272,15.073-45.538,21.561-1.079,3.09,4.65,17.617,5.927,20.6" fill="#fa8a00" fill-rule="evenodd"/>
    <path id="Path_1827" data-name="Path 1827" d="M157.743,361.912c3.262-.288,5.461,1.328,8.006,2.827,5.957,3.509,5.227,2.888,5.454,5.8-10.075,1.445-15.467.162-26.5,4.993-3.114,1.364-4.41,3.284-7.215,2.581,0,3.318.426,3.537.633,6.022l8.856-3.168c3.268-1.219,6.392-1.495,10.4-2.262,4.071-.779,7.2-.631,11.393-1.264,5.8-.877,21.636,1.21,27.594,2.883,1.852.52,2.618.99,4.65,1.678,3.815,1.293,5.451,2.183,9,3.66,3.179,1.323,5.12,3.447,9.121,3.536,5.479-3.669,8.587-12.395,3.821-19.01-6.391-8.87-28.969-15.336-41.432-13.537-2.309.333-4.137.168-6.328.633l-11.6,2.323c-3.726.7-4.35.388-5.852,2.3" fill="#585858" fill-rule="evenodd"/>
    <path id="Path_1828" data-name="Path 1828" d="M199.812,244.906c11.257,0,10.217,2,23.474-.276,5.989-1.031,5.608.648,6.385-3.741,2.019-11.4,4.65-30.474,4.65-42.105-1,1.439-1.007-2.157-1.09,2.97-1.3-3.157-1.646-4.921-6.318-4.682-6.634.339-17.038,4.58-20.919,11.269-3.932,6.776-6.736,27.529-6.182,36.565" fill="#ecb482" fill-rule="evenodd"/>
    <path id="Path_1829" data-name="Path 1829" d="M156.478,191.748a2.619,2.619,0,0,1,.192.653l.984,3.3c.772,2.213.423,1.862,1.988,3.008,2.308-4.809,2.5-23.347,3.338-29.571,1.528-11.392-2.64-49.556-4.417-60.483l-4.3-20.383c-.246-.826-1.5-3.563-1.274-4.963.325-2.057-1.078-.334.954-1.681a3.067,3.067,0,0,0-.359-.513l-2.5-2.4c-.9-.845-1.292-1.572-2.357-2.624-3.4-3.352-13.666-11.632-17.873-12.588,1.3,4.514,4.408,9.214,6.209,14.117,3.338,9.09,9.41,37.788,11.337,47.568,3.83,19.439,9.408,48,9.426,68.138-.321-3.257.28-.017-1.348-1.572m-1.3-106.958c-1.963-1.479-.061.282-1.268-1.258a1.3,1.3,0,0,1-.31-.609,2.48,2.48,0,0,0-.283-.662c1.746,1.376.5-1.6,1.861,2.529" fill="#e49600" fill-rule="evenodd"/>
    <path id="Path_1830" data-name="Path 1830" d="M71.04,211.365c0-1.619,1-.1.377,0-.008,0-.377,1.766-.377,0m12.025-52.529a44.2,44.2,0,0,0-7.594-1.266L65.194,200.455c-1.422,6.879-3.908,5.068,1.858,10.467,2.429,2.274,1.464.433,4.848,3.38,2.417,2.1,8.083,4.024,12.431,4.024,1.365,0,2.578-8.343,3.53-11.659l7.493-31.111c.546-2.482,1.115-4.364,1.634-6.594-2.077-3.1-8-8.473-12.657-8.86-.322,3.861-1.862,8.641-2.9,12.287-.64,2.245-.888,4.291-1.444,6.15L75.1,197.071c-.531,2.455-.937,4.367-1.356,6.238-.76,3.39-1.438,3.206-1.438,6.79h-.633a24.074,24.074,0,0,1,1.049-6.546l7.443-31.795c.836-4.29,2.843-10.374,2.9-12.922" fill="#fefefe" fill-rule="evenodd"/>
    <path id="Path_1831" data-name="Path 1831" d="M141.289,343c1.207-1.449.89,2.148,1.266-2.431,11.6.542,3.336,3.844,25.678.221-.913,7.642-4.774,9.3-9.182,14.275-1.139,1.285-2.332,3.575-3.452,3.908-2,0-1.649-.586-1.649,1.118,1.654,0,1.124.4,1.649-1.118,1.808.581,10.532-2.253,14.439-3.043,13.5-2.729,25.584-3.407,38.46,2.136,1.038.447,1.018.38,1.847.685,2.579.95,4.176,2.38,6.888,2.605,0-6.064,1.9-14.3,1.9-18.986-15.86,0-16.505,3.584-34.781-7.621-3.53-2.165-6.693-5.257-8.255-6.3-3.245.756-4.27,1.721-7.338,2.788a75.177,75.177,0,0,1-26.2,4.174,11.177,11.177,0,0,1-.336,3.389l-.8,3.486c-.043.218-.1.475-.126.716" fill="#585858" fill-rule="evenodd"/>
    <path id="Path_1832" data-name="Path 1832" d="M126.733,322.752c.11.169.255.226.317.514a1.013,1.013,0,0,0,.316.49l2,1.97c6.644,4.867,8.892,5.9,18.9,5.9,7.738,0,19.046-3.072,24.036-5.713-2.555-10.966,4.638-15.836-8.225-24.682.89,1.745,2.368,1.865,3.362,2.25-1.054,1.044-.643.931-3.6,1.4-9.615,1.534-10.549,3.112-26.192,4.865-5.4.606-11.606.516-11.949,5.491-.219,3.192,2.237,7.025,3.886,9.134,1.11,1.417.211.269,1.49,1.542Z" fill="#ecb482" fill-rule="evenodd"/>
    <path id="Path_1833" data-name="Path 1833" d="M94.457,425.147l4.943,3.412c8.866,5.3,31.666,20.882,33.662,28.359,2.62-.218,1.417.083,5.511-4.614,4.429-5.08,2.935-5.683-.357-14.463l-5.337-14.915c-2.232-3.948-13.65-6.347-18.2-7.084-2.763-.448-2.481-.249-3.769-1.864-3.817,1.3-6.156,3.364-8.91,5.575-2.322,1.865-4.873,5.1-7.544,5.594" fill="#e25800" fill-rule="evenodd"/>
    <path id="Path_1834" data-name="Path 1834" d="M32.435,479.914c1.22,0,.852-.273.852,1.062l.377,1.016c13.532-3.811,17.446,5.421,35.156-4.458,2.912-1.624,4.9-11.628,5.878-15.133,1.581-5.694,3.166-10.782,4.761-16.187l-4.622.009a15.306,15.306,0,0,0-6.942,2.486c-13.28,7.855-17.341,11.028-28.768,19.963-2.318,1.812-9.644,7.434-6.692,11.242" fill="#fa8a00" fill-rule="evenodd"/>
    <path id="Path_1835" data-name="Path 1835" d="M319.376,332.875c3.579-6.756,8.407-15.906-3.649-18.089-6.914-1.252-20.424-2.015-27.612-1.951-.687-.82-1.9,1.344,0-1.478-1.683,1.059-1.1-.385-3.25,5.608-.694,1.938-1.266,4.651-1.91,6.958-.978,3.505-.384,6.607,1.207,10.376.873,2.068.823.75,1.425,3.006,5.841,0,13.312.41,18.955-.031,4.542-.355,12.29-1.849,14.838-4.4" fill="#ecb482" fill-rule="evenodd"/>
    <path id="Path_1836" data-name="Path 1836" d="M33.071,122.129c1.115,1.988,1.331.361,0,1.9,1.177-.553,1.541.231,1.038-.63,1.917,20.749,10.607,33.524,12.611,48.955,1.321,10.174-2.606,45.659-7.953,51.722a11.865,11.865,0,0,0-.633,4.38c3.4-.283,1.727-.5,5.788-5.6a58.869,58.869,0,0,0,4.608-7.418c11.354-19.15,6.131-17.107,4.767-24.925-3.423-19.627,5.317-24.268,5.722-29.138-3.872-4.082-5.64.307-10.732-9.52-1.007-1.944-1.817-5.011-2.75-7.375-1.019-2.579-1.549-5.2-2.344-7.782-4.81-15.616,2.353-3.731-2.961-14.756-2.79-5.788-2.731-10.5-2.731-18.788l-2.9,9.149c-.524,3.582-.085,6.121-1.006,8.8-.052.152-.417.848-.524,1.03m-1.9,1.266c.649-1.994-.1-1.247,1.9-1.895Z" fill="#e49600" fill-rule="evenodd"/>
    <path id="Path_1837" data-name="Path 1837" d="M14.267,295.536c3.881,4.518-3.015,3.31-7.183,10.9l-1.862-1.408.7,1.8c.066.161.139.346.21.516l6.445,9.946c.089.1.215.234.3.328s.223.226.315.318l11.817,10.367c2.564,2.078,4.6.953,7.154-.761,6.544-4.386,6.871-5.1,10.94-10.581,1.572-2.12,3.174-4.016,3.252-7.506-1.937-.929-5.249-1.266-8.227-1.266,2.173-2.967.554,1.6,3.664-3.93.069-.123.151-.29.226-.407a16.694,16.694,0,0,1,1.532-1.632c4.664-3.771,7.51-5.335,10.83-11.953,1.109-2.21,3.151-6.067,3.367-8.658-3.507-.292-2.349-1.174-5.064-1.9a11.956,11.956,0,0,1-3.607,8.417c-2.89,2.647-5.135,2.342-10.316,2.342,0,12.484-6.191,12.581-9.493,17.087,1.16,4.344,2.807,1.611,1.266,8.228a3.489,3.489,0,0,1-.658-1.241c-1.909-4.758.237-.991-2.506-5.088-1.7.038-6.712,2.016-9.06-4.248a5.9,5.9,0,0,1-.543-2.61c-.257-2.607.82-4.325-3.5-7.065" fill="#585858" fill-rule="evenodd"/>
    <path id="Path_1838" data-name="Path 1838" d="M46.355,318.952c-.724,1.731-.546,2.276-2.191,3.488-2.219,1.634-8.152,3.1-.457,9.292,4.186,3.369,7.537,6.505,13.575,8.55,20.956,7.1,30.386-3.063,21.989-11.837-3.255-6.137-21.114-17.542-29.116-17.72-1.358,5.833-3.724,5.176-3.8,8.227" fill="#fedeb6" fill-rule="evenodd"/>
    <path id="Path_1839" data-name="Path 1839" d="M271.646,605.517c9.4-2.443,32.158-17.917,35.012-27.509a25.665,25.665,0,0,0,.624-9.758c-.4-4.272-.986-5.646-4.726-3.955-7.346,3.322-20.455,12.088-25.148,16.718-3.49,3.443-6.483,6.234-9.35,11.549-4.278,7.929-.493,8.594,3.588,12.955" fill="#fedeb6" fill-rule="evenodd"/>
    <path id="Path_1840" data-name="Path 1840" d="M79.271,328.445c8.4,8.774-1.033,18.935-21.988,11.837-6.038-2.045-9.389-5.181-13.576-8.55-7.695-6.193-1.762-7.658.457-9.292,1.645-1.212,1.467-1.757,2.191-3.488-.157.112-.375.1-.447.368l-2.041,2.229c-.088.1-.208.237-.3.333l-.639.615c-4.794,4.58-6.07,5.767-12.393,9.112,2.223,3.321,10.23,7.668,13.922,10.128,10.406,6.934,35.54,18.342,45.181,7.839,2.251-2.453,3.973-4.22,4.817-7.841-1.7-2.541-2.7-2.3-2.592-6.95.092-4,1.326-4.871,1.326-8.871-6.046-4.049-8.753-6.329-17.088-6.329.13,1.554,3.724,7.319,5.063,8.86-.736.452.715.671-1.895,0" fill="#ecb482" fill-rule="evenodd"/>
    <path id="Path_1841" data-name="Path 1841" d="M107.747,102.112c-2.04-.255-6.12.961-7.627,1.664,1.026,3.074,8.288,8.525,11.964,17.719-9.534,5.811-29.219,10.418-47.633,20.048-2.608,1.364-4.883,2.54-7.292,4.08l-4.908,3.336c-2.59.864-.476.783-2.1-.114a19.956,19.956,0,0,0,3.164,6.193c3.128-.26,11.261-6.286,16.028-8.654A206.262,206.262,0,0,1,121.3,129.353c7.638-1.352,8.618,2.919-4.176-18.5-1.356-2.27-2.475-3.617-3.68-5.739l-.578-1.026-1.044-.745-.368-1.245-.131-.222-1.856-.633c-.837,1.047,1.38.746-1.719.868" fill="#e25800" fill-rule="evenodd"/>
    <path id="Path_1842" data-name="Path 1842" d="M241.282,245.542l1.465,1.117c.107.1.491.622.628.782.727-.679,3.293-6.67,4.187-8.27,4.146-7.422,11.752-19.063,17.111-24.672,13.029-13.636,30.921,2.928,29.043,15.218.214-.925-.079-.058,1.36-.63,2.053-1.588,4.8-9.385,4.444-13.909-.35-4.431-4.6-8.537-7.794-11.222a58.887,58.887,0,0,0-11.305-7.683c-11.717-5.75-18.387,10.084-25.3,19.431l-7.308,11.679c-1.315,2.218-2.238,3.718-3.562,5.931-2.934,4.9-7.1,10.037-2.964,12.228" fill="#fedeb6" fill-rule="evenodd"/>
    <path id="Path_1843" data-name="Path 1843" d="M223.22,529.065c3.254,2.573,14.815-1.42,22.723,3.573,1.541.973,11.456,12.44,11.794,14.244l-.536.657-.608.573-1.384.575-.621.633-.572,1.263c1.707,0,1.348.323.572-1.263,1.677.845,1.456,1.041.621-.633,1.641.32,1.116,1.539,1.384-.575l.608-.573.536-.657c6.35-4.882,11.783-9.59,20.885-9.59v-1.9c-2.857-.763-5.2-2.952-7.123-4.9-1.2-1.216-1.988-1.926-3.179-3.149-1.761-1.808-1.3-1.644-2.642-3.687l-7.288-11.7c-1.063-2.073-.748-2.493-3.184-3.144-1.647,6.167-13.575,12.977-19.689,15.752-4.745,2.154-11.053,3.689-12.3,4.5" fill="#585858" fill-rule="evenodd"/>
    <path id="Path_1844" data-name="Path 1844" d="M97.174,400.474l-.131.3-.569,1.181-.615.633-.614.641c0,.909.225.679-.688.679l-.624.615-.633.614-.742.579c-2.234,1.349-16.9,14.592-17.72,17.656,4.068-.091,4.926-1.848,10.692-1.208,3.971.44,5.6,2.525,8.927,2.979,2.67-.5,5.221-3.729,7.544-5.594,2.753-2.211,5.092-4.27,8.91-5.575,2.7.89,4.621.423,7.577.7,4.088.388,3.343.537,2.773-3.443-.9-6.282,1.064-9.571.978-14.443-.242-1.314.091-.724-.569-1.42-9.455.5-16.21,4.214-24.5,5.1" fill="#fa8a00" fill-rule="evenodd"/>
    <path id="Path_1845" data-name="Path 1845" d="M273.559,274.021c1.454,1.461,1.306-1.85,1.242,1.785,8.062-7.131,26.825-19.855,37.493-25.074,9.8-4.793,16.733-.007,20.944,6.009,6.425,9.18-1.436,16.1-6.254,20.7l2.267-1.683c1.836-.264,1.83-.455,4.06-2.742l.31-.324c7.285-7.7,9.811-13.947,4.207-24.339a20.471,20.471,0,0,0-6.683-7.239c-13.912-8.833-34.692,10.625-46.455,18.721l-8.108,6.447c-1.919,1.677-3.625,2.636-4.922,4.572.409,1.753.464,2.407,1.9,3.167m52.69,4.427h0Z" fill="#fedeb6" fill-rule="evenodd"/>
    <path id="Path_1846" data-name="Path 1846" d="M271.646,605.518c-4.082-4.361-7.866-5.026-3.589-12.955,2.867-5.315,5.86-8.106,9.351-11.55,4.694-4.63,17.8-13.4,25.148-16.717,3.74-1.692,4.324-.317,4.725,3.955a25.665,25.665,0,0,1-.623,9.758c-2.853,9.591-25.616,25.065-35.012,27.509m-11.378-5.571c0,5.771,6.339,8.86,13.291,8.86,4.424,0,9.2-3.09,12.148-4.939L306.2,588.282c.716-.681.555-.5,1.292-1.239a11.67,11.67,0,0,0,2.046-2.384c5.324-7.823,1.979-20.313.1-28.38-3.518.078-12.383,5.587-15.388,7.4-11.071,6.657-10.268,5.614-20.78,14.028a31.882,31.882,0,0,0-5.883,6.142c-2.943,3.923-7.314,10.832-7.314,16.1" fill="#ecb482" fill-rule="evenodd"/>
    <path id="Path_1847" data-name="Path 1847" d="M78.093,155.672c4.9.434,11.287,4.035,14.476,6.318,5.18,3.707,8.292,9.434,10.115,10.77,4.725-1.262,2.821-3.8,10.759-3.8,0-9.762,1.053-18.171,6.879-25.384,1.559-1.93,1.381-.675,1.981-3.327a197.48,197.48,0,0,0-25.7,6.153c-4.538,1.394-20.856,7.857-22.953,8a9.172,9.172,0,0,1,2.434.137l1.539.772c.1-.147.33.215.468.354" fill="#fedeb6" fill-rule="evenodd"/>
    <path id="Path_1848" data-name="Path 1848" d="M172.248,271.414c-1.636.1-1.214-.331-1.214,1.335,1.668,0,1.214.4,1.214-1.335.886-.521-.1-.264.949.428a7.291,7.291,0,0,0,2.465,1.339,45.276,45.276,0,0,1,5.232,1.9l-.415,1.033-1.214.442-.633.633-.633.632c-1.088,0-.633-.2-.633,1.263,1.766,0,1.438.352.633-1.263l.633-.632c1.683.839,1.472,1.05.633-.633,1.559.3,1.326,1.466,1.214-.442.976-.278.75.021.415-1.033.147-.059.353-.357.407-.243l2.175-2.3c2.925-3.361,9.4-10.757,9.734-14.987.177-2.242-1.333-7.379-1.3-13.266.028-5.064.008-10.132.008-15.2-1.953.522-5.747,5.431-9.019,8.7-3.042,3.043-5.518,6.366-9.334,8.385,0,9.882.743,5.8,1.9,10.76-3.377-.9-2.531-4.046-2.531-8.228-2.119.177-2.561.747-3.912,1.784-1.385,1.062-2.295,1.717-3.683,2.646,0,8.463,7.187,10.8,9.493,10.126,2.489-1.666,4.4-4.358,6.957-6.334,1.589-1.228,6.632-5,7.6-6.323,1.216.868.931-.007-3.323,4.271-7.106,7.149-10.19,7.813-8.269,13.634,1.29,3.911,1.055,1.127,4.631,3.612-4.854,0-6.329-1.475-6.329-6.329l-2.8,2.3c-1.438,1.929-1.493,1.286-1.048,3.324" fill="#585858" fill-rule="evenodd"/>
    <path id="Path_1849" data-name="Path 1849" d="M127.366,472.107c0,3.666,7.756,1.794,2.748,20.468-.8,2.99-2.115,7.265-2.115,10.542,7.407,0,12.006-2.526,15.366-9.316,6.123-12.373,7.672-18.685,1.948-30.149-1.979-3.964-3.249-5.036-7.821-6.1Z" fill="#585858" fill-rule="evenodd"/>
    <path id="Path_1850" data-name="Path 1850" d="M233.055,502.481a9.245,9.245,0,0,1,3.284,6.309c-.184,4.083-6.86,8.988-9.275,11.1-1.815,1.588-3.819,3.694-5.219,4.784h-5.877c1.108,1.625-1.784,1.022,2.54,1.362,3.811.3,2.615-.61,3.337-1.362,5.93,2.342,36.983-11.979,35.265-32.291-.439-5.18-5.383-12.849-9.5-13.947-2.661,5.546-5.531,14.009-9.949,18.529-2.68,2.742-3.375,2.491-4.607,5.516" fill="#585858" fill-rule="evenodd"/>
    <path id="Path_1851" data-name="Path 1851" d="M199.812,244.906c-.554-9.036,2.25-29.789,6.182-36.565,3.881-6.689,14.285-10.93,20.919-11.269,4.672-.239,5.022,1.525,6.318,4.682.083-5.127.089-1.531,1.09-2.97,0-10.414-3.178-11.278-15.2-10.227-7.132.622-14.29,2.515-17.926,9.3-2.654,4.948-4.267,15.52-4.794,22.419-.354,4.614-.969,8.09-1.282,12.009-.178,2.235.091,4.692-.029,6.932-.153,2.865-.636,2.993-.636,6.326,2.458-.205,2.212-.633,5.362-.633" fill="#fedeb6" fill-rule="evenodd"/>
    <path id="Path_1852" data-name="Path 1852" d="M184.321,72.765l-.974,2.641,24.846,10.435c-3.663-3.682-8.786-5.882-10.813-10.744,10.683,1.032,25.464,14.419,33.221,17.844a12.724,12.724,0,0,0,2.962.938c2.328.394,1.495.369,2.251-.229C234.526,85,196.4,59.415,191.286,60.741c-1.99,1.332-2.91,3.106-4.311,5.182a20.556,20.556,0,0,0-1.949,3.151Z" fill="#ffc800" fill-rule="evenodd"/>
    <path id="Path_1853" data-name="Path 1853" d="M259.929,549.587l-.657.657.045.609-.524,1.383-.608.645c0,1.022.2.633-1.081.633-3.4,3-7.683,11.515-8.177,15.489-.429,3.45.6,8.082,1.208,10.7.7,3.01,1,7.261,3.172,8.853,1.3-.95,6.885-12.656,13.752-19.789,1.278-1.329,2.191-2.162,3.493-3.469l6.806-6.487c0-1.495-.453-1.262.755-1.262-.866-3.675-2.7-4.588-6.819-5.917-3.468-1.118-8.4-3.028-11.365-2.044" fill="#8c8c8c" fill-rule="evenodd"/>
    <path id="Path_1854" data-name="Path 1854" d="M33.068,124.025c-2.569,5.776.512,18.762,1.361,23.957,4.489,27.438,4.933,33.876,4.968,62.75.006,5.393-.633,8.519-.633,13.34,5.347-6.063,9.274-41.548,7.953-51.721-2-15.432-10.694-28.206-12.611-48.956.5.861.139.077-1.038.63" fill="#ffc800" fill-rule="evenodd"/>
    <path id="Path_1855" data-name="Path 1855" d="M78.093,155.672c-.138-.139-.37-.5-.468-.354l-1.539-.772a9.172,9.172,0,0,0-2.434-.137c2.1-.148,18.415-6.611,22.953-8a197.48,197.48,0,0,1,25.7-6.153c2.9-1.252,4.082-3.865,8.228-4.831-.459-5.5-3.392-3.835-7.715-3.289-13.447,1.7-26.193,6.237-38.58,10.788l-17,7.681c-2.426,1.261-5.635,3.837-8.219,4.439,0,3.515.541,3.669,1.9,5.7,6.6-3.491,6.843-5.063,17.178-5.063" fill="#ecb482" fill-rule="evenodd"/>
    <path id="Path_1856" data-name="Path 1856" d="M191.286,166.659c2.2,1.791,3.12,3.572,6.157,5.634,2.038,1.384,5.281,3.719,7.793,4.41l-2.555-7.109c.42-1.728.246-.607-.084-2.427a9.312,9.312,0,0,1-.523-2.646c-.262-3.13.494-3.965-.659-6.951,3.4-14.843,17.5.689,16.455,7.462l.1-8.1c1.46-4.488-1.645-12.417-3.361-15.1-6.837-10.667-17.529-4.082-20.33,7.96-1.864,8.012-2.992,5.4-2.992,16.857" fill="#fedeb6" fill-rule="evenodd"/>
    <path id="Path_1857" data-name="Path 1857" d="M163.164,5.048c-4.744,0-1.76-.218-2.889,1.263,3.47-.173,1.889-.336,2.889-1.263M144.45,64.538,143.188,66.2c-2.12-2.451-6.123-13.664-7.452-17.652-2.709-8.127-3.511-13.418.948-20.265,3.956-6.075,13.55-14.1,19.728-18.239,1.931-1.294,6.15-3.34,7.556-5h3.9c-.733,2.744-3.327,4.269-5.231,6.162-7.728,7.683-17.661,24.235-19.834,35.255a28.843,28.843,0,0,0-.537,8.813c.7,5.305-.851,7.25,2.182,9.26" fill="#e49600" fill-rule="evenodd"/>
    <path id="Path_1858" data-name="Path 1858" d="M168.5,299.433c1.642.6.709-.473,2.141,1.169l12.343-7.681c4.231-2.845,7.13-6.923,10.206-11.28,2.965-4.2,6.574-20.623,6.482-25.971-.072-4.214.41-6.53-2.266-8.865-1.545-.912-.494-.578-2.958-.634,0,3.587-.009,7.175,0,10.761,0,1.391.6,6.672-.417,6.975a2.973,2.973,0,0,1-.651-.108c-.947-.206.885-.283-1.464-.54-5.6,10.576-6.439,10.7-12.384,18.627-3.523,4.7-11.156,12.2-17.36,13.65a7.842,7.842,0,0,0,2.625,2.456Z" fill="#8c8c8c" fill-rule="evenodd"/>
    <path id="Path_1859" data-name="Path 1859" d="M148.883,291.735c1.094-1.095,1-.951,1.486-3.667.2-1.1.337-2.1.542-3.244,1.1-6.178,3.738-11.444,11.472-10.406.53,2.958,1.057,5.694,1.608,8.54,1.036,5.355,1.993,4.954,1.983,6.882,3.334-1.109,7.531-5.3,9.49-8.227-4.788-2.3-10.033-3.357-5.723-11.415,1.267-2.368,2.342-2.428,2.559-5.04-9.04-2.106-1.187-7.289-13.737,2.086-3.063,2.288-5.479,2.571-5.882,7.407-1.523-1.605-1.019-1.3-3.107-.69-6.042,1.754-7.04,0-13.981-.576-.333,4.006-3.065,6.244-4.9,8.379l-1.739,3.631c-1.106-.712-1.066-1.176-.815.148-1.038-.177-.826-.391-.633.645-1.033-.193-.807-.409-.693.633-.956-.194-.734-.389-.669.585-.911-.13-.721-.322-.56.584-1.007-.064-.807-.294-.6.694-1.053-.146-.762-.374-.875.681-2.008-.339-.85-.43-.551,1.105-1.614-.8-1.263-1.133-1.263.633,1.458,0,1.263.455,1.263-.633l.551-1.105c1.092,0,.875.305.875-.681l.6-.694.56-.584.669-.585.693-.633.633-.645.815-.148a52.8,52.8,0,0,1,5.981-1.937c.47-.137,2.606-.784,3.024-.828,2.9-.306,1.349-.677,1.793.881,1.524-1.69.933-3.549,2.8-5.695-.206,2.48-.846,3.034-1.266,5.693,1.283-1.067,1.46-1.266,3.165-1.045,1.3,1.9-1.723,9.715-1.657,13.072L141,296.8c3.025-.057,3.177-.633,6.619-.633-.278-3.338-.786-1.573-.093-5.105l4.29-15.38c.047-.085.145-.273.233-.4-.31,3.733-3.052,9.447-3.165,16.451m-6.328-15.818.189.189c-.013-.012-.252-.126-.189-.189" fill="#585858" fill-rule="evenodd"/>
    <path id="Path_1860" data-name="Path 1860" d="M131.782,249.512l.5.036c.2,1.417-.2,1.054,1.246,1.054,0-1.483.34-1.054-1.246-1.054l-.5-.036c2.02-7.839,24.632-21.337,35.458-15.018l.023,1.023-.555.545-.721.591-.675.654-.611.185c-1.545,0-1.19-.4-1.19,1.086,1.55,0,1.2.4,1.19-1.086.78.554.65.768.611-.185l.675-.654.721-.591.555-.545c1.07-.184.7.029-.023-1.023,2-.512.661.03,1.926-.932,5.442-4.139,3.089-12.406-1.065-14.2-5.761-2.491-16.024,2.981-19.233,4.645l-7.214,4.812c-4.819,3.306-8.09,7.921-11.267,12.786-2.892,4.43-2.112,4.885,1.4,7.909" fill="#c52900" fill-rule="evenodd"/>
    <path id="Path_1861" data-name="Path 1861" d="M86.862,434.138c1.492,2.373-.433.071,1.124,1.279.967.751,6.332,2.773,10.368,5.578,1.849,1.285,3.191,2.307,5.218,3.643,3.69,2.434,16.153,13.261,18.825,16.616,1.632,2.049,2.117,3.038,4.336,4.524,2.072-1.388,4.8-3.809,5.063-6.962-.454-5.083-20.72-20.578-27.459-25.069-3.265-2.177-8.086-5.25-11.56-6.574-.46,1.97-1.277,1.835-2.754,3.795-1.369,1.817-.9,2.779-3.161,3.17" fill="#b8b8b8" fill-rule="evenodd"/>
    <path id="Path_1862" data-name="Path 1862" d="M258.37,598.048c1.836-3.827,1.651-7.95,7.847-16.2,10.967-14.606,39.685-26.317,42.15-30-1.184-5.079-3.441-4.251-7.6-2.536-10.616,4.38-10.567,2.939-22.06,11.482l-4.448,3.781c-.093.09-.226.222-.319.313L265.33,574c-2.933,3.789-8.93,11.595-10.717,15.939-1.1,2.664,1.287,7.218,3.757,8.112" fill="#585858" fill-rule="evenodd"/>
    <path id="Path_1863" data-name="Path 1863" d="M284.318,609.315c1.347,1.036.719,1.775,1.084,4.182.145.952.428,1.872.554,2.648.427,2.638.157,1.316-.058,1.585l-1.859,1.2c2.563,0,.944.373,1.859-1.2,1.347.35.222.256,1.684-.005a6.675,6.675,0,0,0,1.874-.565A49.972,49.972,0,0,0,311.8,600.219c2.887-3.826,6.241-9.3,7.582-14.569.751-2.946.379-7.7-.069-9.944a44.578,44.578,0,0,0-1.117-4.578c-.722-2.526-.022-2.589-2.871-2.825,2.75,11.8-3.292,20.045-9.751,25.057l-20.529,15.124c-.114.112-.275.312-.366.407a3.779,3.779,0,0,0-.364.424" fill="#585858" fill-rule="evenodd"/>
    <path id="Path_1864" data-name="Path 1864" d="M11.55,53.143c1.517-1.637,1.263,2.386,1.263-2.646-.437,8.248,2.147,25.767,5.916,31.545,2.537,3.886,11.6,11.942,15.908,12.492,3.927.5,3.1-3.412,3.49-6.58-2.333,1.843-.226-1-1.045,1.374a5.835,5.835,0,0,0-.217,2.424h-.633A46.612,46.612,0,0,1,37.5,79.094C26.707,76.581,19.261,60.073,15.8,50.8c-1.055-2.822-.466-3.942-2.981-4.614Z" fill="#e49600" fill-rule="evenodd"/>
    <path id="Path_1865" data-name="Path 1865" d="M103.317,263.889c1.957.049,1.888,1.176,3.352,2.973a46.855,46.855,0,0,0,3.451,3.517c1.31,1.307,2.159,2.206,3.47,3.492,1.41,1.384,2.717,2.037,3.65,3.311-2.24-.007-1.837.038-3.5-.633a.907.907,0,0,1,.384.536c.056.269.58.687.769.78-3.6,1.232-3.389,3.5-5.877,3.1,2.346,2.734,5.174,2.553,8.892.678,4.324-2.181,19.719-12.874,20.853-17.12-4.73-.1-14.581-2.143-18.663-3.487-3.246-1.069-5.886-1.71-8.649-2.742l-8.759-3.263c.973,1.375-1.075,1.427,1.069,1.143a5.859,5.859,0,0,0-1.926,5.777c.571,1.722.244.971,1.487,1.936m.633,1c-1.295,0-.96.318-.96-1,1.294,0,.96-.318.96,1" fill="#585858" fill-rule="evenodd"/>
    <path id="Path_1866" data-name="Path 1866" d="M141.289,343c-.447,3.121-1.357,7.06-1.792,10.236-.645,4.71-1.373,6.551-1.373,11.918l15.826-5.063c0-1.7-.35-1.118,1.649-1.118,1.12-.333,2.313-2.623,3.452-3.908,4.408-4.974,8.269-6.633,9.182-14.275-22.342,3.623-14.075.321-25.678-.221-.376,4.579-.059.982-1.266,2.431" fill="#8c8c8c" fill-rule="evenodd"/>
    <path id="Path_1867" data-name="Path 1867" d="M136.855,539.824c-.573,2.358,1.678,5.793,3.688,7.074,5.52,3.521,27.49.644,29.861-2.011.963-1.588-1.565-1.263,1.993-1.263-3.447-2.911-3.021-8.26-4.186-13.494-8.533.278-27.849,9.4-31.588,8.083Z" fill="#fedeb6" fill-rule="evenodd"/>
    <path id="Path_1868" data-name="Path 1868" d="M84.964,398.049c2.663-1.447,4.288-3.569,7.558-5.705,8.662-5.656,20.51-8.785,31.229-9.984l.451-5.062c.921-2.132.633-2.906.633-5.817l-14.413,3.307c-1.888.582-4.35,1.367-6.72,2.141l-15.764,7.019c-1.122.77-2.059,1.38-3,2.061-4.071,2.94-4.257,9.224.028,12.04" fill="#8c8c8c" fill-rule="evenodd"/>
    <path id="Path_1869" data-name="Path 1869" d="M144.453,499.32c4.428-.1,4.64-2.532,22.783-2.532,8.31,0,4.168,3.35,3.8-11.4-.077-3.115-.578-2.934-.639-5.69-11.7-.261-14.444-4.79-17.721-5.063,0,10.105-8.011,22.085-8.227,24.682" fill="#585858" fill-rule="evenodd"/>
    <path id="Path_1870" data-name="Path 1870" d="M81.943,443.628l2.264,1.378a82.484,82.484,0,0,1,23.8,16.082l11.764,12.918a39.47,39.47,0,0,0,5.7-6.329c-4.755-7.1-26.792-26.31-37.379-30.282l-4.378-1.361.985.9a2.834,2.834,0,0,0,.721.362,16.06,16.06,0,0,0-3.473,6.329" fill="#b8b8b8" fill-rule="evenodd"/>
    <path id="Path_1871" data-name="Path 1871" d="M254.016,550.583l.572-1.262.621-.633,1.384-.576.608-.572.536-.657c-.338-1.8-10.253-13.272-11.794-14.245-7.908-4.992-19.469-1-22.723-3.573-1.81.385-1.113-.405-1.556,1.266,3.854,2.04,12.592,9.047,16.178,12.3l1.254,1.277c.624.713,1.112,1.36,1.709,2.087,6.821,8.316,4.385,11.841,7.439,14.079l5.291-7.974c.629-1.3.376-.457.481-1.519" fill="#8c8c8c" fill-rule="evenodd"/>
    <path id="Path_1872" data-name="Path 1872" d="M126.733,322.752l4.335,3.164c-1.279-1.273-.38-.125-1.49-1.542-1.649-2.109-4.105-5.942-3.886-9.134.343-4.975,6.55-4.885,11.949-5.491,15.643-1.753,16.577-3.331,26.192-4.865,2.961-.472,2.55-.359,3.6-1.4-.994-.385-2.472-.5-3.362-2.25-.511-.963-1.046-1.186-1.985-1.769-4.769-2.959-5.2-1.665-11.57-.39-5.769,1.154-11.325,2.538-17.454,2.8-11.877.5-13.117.664-12.7,7.588.277,4.62,3.283,11.66,6.367,13.3" fill="#fedeb6" fill-rule="evenodd"/>
    <path id="Path_1873" data-name="Path 1873" d="M122.3,182.885c0,1.046,2.511,3.868,3.347,4.88,1.389,1.676,2.231,3.127,4.88,3.347.711-3.052,1.581-5.84,2.38-8.379.959-3.047,1.664-5.948,2.687-8.7.91-2.45,5.059-14.809,5.059-17.093,0-2.429-2.617-7.065-4.028-10.528-.975-2.395-1.153-2.346-2.3-2.762l-5.772,19.543c-.824,2.867-6.252,18.34-6.252,19.695" fill="#fefefe" fill-rule="evenodd"/>
    <path id="Path_1874" data-name="Path 1874" d="M215.968,524.675h5.877c1.4-1.09,3.4-3.2,5.22-4.784,2.414-2.113,9.091-7.017,9.274-11.1a9.239,9.239,0,0,0-3.284-6.308c-3.028-.186-13.085,8.863-29.112,8.863.3,3.533,4.874,9.027,7.41,11.582,1.694,1.706,2.064,2.56,4.615,1.748" fill="#8c8c8c" fill-rule="evenodd"/>
    <path id="Path_1875" data-name="Path 1875" d="M5.222,305.032l1.862,1.408c4.168-7.593,11.064-6.386,7.183-10.9.511-4.825-1.62-3.852,1.978-9.862,2.32-3.876.58-6.165,3.122-10.168.015-.024,1.379-1.73,1.408-1.757,4.089-3.824,1.718.041,3.279-6.214A11.654,11.654,0,0,1,29.9,260.1a63.1,63.1,0,0,1,.633-7.6c-3.74.871-8.917,5.385-11.574,8.045-3.019,3.022-1.616,2.374-2.606,6.887L9.826,280.52c-1.56,3.433-.209,5.347-1.172,8.955-1.683,6.31-4.065,4.2-4.065,15.554Z" fill="#8c8c8c" fill-rule="evenodd"/>
    <path id="Path_1876" data-name="Path 1876" d="M179.894,543.73c.769,2.083-.988,2.91,1.269,5.115l-.342.535c-1.344,0-.924-.293-.924,1.2,1.677,0,1.377.407.924-1.2,1.484.87,1.1.8.342-.535,3.041-.344,4.19-2.686,5.078-5.838,2.155-7.644.84-22.836-.282-30.766-1.274-9-2.209-19.083-5.227-28.315-1.078-3.3-1.044-2.906-2.246-3.45a34.314,34.314,0,0,0-4.921-.775c0,2.771.682,16.4,1.2,17.783,1.5,3.961,4.617,1.034,7.1,12.515a52.288,52.288,0,0,1,1.217,8.3c.3,8.194-1.263,4.063-1.329,8.846-.089,6.446,2.742,8.938-1.867,16.589" fill="#585858" fill-rule="evenodd"/>
    <path id="Path_1877" data-name="Path 1877" d="M136.855,539.824l-.232-1.611c3.739,1.315,23.055-7.8,31.588-8.083,1.165,5.234.739,10.583,4.186,13.494-3.558,0-1.03-.325-1.993,1.263,3.03,0,1.363.39,1.993-1.263,3.074,1.1,6.894-2.8,7.392-5.833.639-3.883-1.161-9.152-1.161-13.156-4.744-1.1-7.227-1.989-13.774-1.117-7.515,1-26.222,10.808-28.488,13.422-2.453,2.831.137,2.616.489,2.884" fill="#ecb482" fill-rule="evenodd"/>
    <path id="Path_1878" data-name="Path 1878" d="M259.929,549.587l-.657.657.045.609c-1.3.5-1.075.056-.524,1.383-1.409-.517-1.2-.731-.608.645-1.388-.512-1.081-.8-1.081.633,1.276,0,1.081.389,1.081-.633l.608-.645.524-1.383-.045-.609.657-.657c2.961-.984,7.9.926,11.365,2.044,4.122,1.329,5.953,2.242,6.819,5.917-1.208,0-.755-.233-.755,1.262,1.735,0,1.415.376.755-1.262,2.156-.035.392.489,2.882-.785,2.779-1.423,12.759-9.288,21.043-9.977-.579-2.166-1.691-2.288-3.787-3.175L290.4,540.7c-3.45-1.349-5.779-1.29-10.057-.425-4.643.939-7.684,1.2-11.592,2.964-3.548,1.6-5.6,3.754-8.821,6.344" fill="#585858" fill-rule="evenodd"/>
    <path id="Path_1879" data-name="Path 1879" d="M163.672,513.876l1.95-2.532a4.844,4.844,0,0,0-2.945-1.758c-7.074-2-19.985-3.569-26.451-1.409-3.23,2.5-2.532,14.683-2.532,20.888h1.9c1.683-6.3,22.036-13.171,28.079-15.189" fill="#8c8c8c" fill-rule="evenodd"/>
    <path id="Path_1880" data-name="Path 1880" d="M81.943,443.628a16.06,16.06,0,0,1,3.473-6.329,2.834,2.834,0,0,1-.721-.362l-.985-.9c-1.411-1.787-8.548-3.135-13.741-.439C53.461,444.166,51.407,446.4,40.76,461.469c-.862,1.219-3.866,5.235-.174,3.73,1.21-.492,3.3-3.066,4.771-4.219,2.021-1.584,2.9-2.331,5.052-3.808,2-1.373,3.662-2.565,5.538-3.955,3.623-2.686,12.578-8.433,17.544-9.686,3.709-.937,4.564.1,8.452.1" fill="#fefefe" fill-rule="evenodd"/>
    <path id="Path_1881" data-name="Path 1881" d="M136.226,508.177c6.467-2.16,19.378-.593,26.452,1.409a4.847,4.847,0,0,1,2.945,1.758l-1.951,2.532c3.749-.247,4.472-1.734,9.254-1.29,3.9.362,3.709,2.319,6.968,3.189-.083-3.75-2.088-11.114-3.933-13.155-4.867-5.386-29.807-3.184-37.413,2.772-2.494,1.953-1.1-.006-2.322,2.785" fill="#585858" fill-rule="evenodd"/>
    <path id="Path_1882" data-name="Path 1882" d="M128.958,285.395l-.815.149-.633.644-.693.633-.669.585-.56.584-.6.694c0,.986.217.681-.875.681l-.551,1.105c0,1.088.195.633-1.262.633-1.466.216-3.966,2.192-5.152,3.079a29.563,29.563,0,0,1-5.588,3.271c-6.818,3.355-8.394.058-10.145,7.577,3.922,0,6.2-1.014,9.533-1.227,6.9-.443,3.891,1.121,8.021-2.738,2.785-2.6,14.716-3.545,18.52-3.63.106-4.758,2.807-10.179,2.265-13.923-.444-1.559,1.1-1.188-1.793-.881-.418.043-2.554.69-3.025.827a52.8,52.8,0,0,0-5.981,1.937" fill="#8c8c8c" fill-rule="evenodd"/>
    <path id="Path_1883" data-name="Path 1883" d="M131.782,249.512l.5.036c1.586,0,1.246-.429,1.246,1.054,3.932,3.253,13.666-1.026,17.055-2.734,3.51-1.768,11.158-6.5,12.931-9.29,0-1.489-.355-1.086,1.19-1.086l.611-.185.675-.654.721-.591.555-.545-.023-1.023c-10.826-6.319-33.438,7.179-35.458,15.018" fill="#e13333" fill-rule="evenodd"/>
    <path id="Path_1884" data-name="Path 1884" d="M131.8,191.745c0,3.253,8.494,5.013,10.759,5.063.091-4.081,1.7-7.7,2.669-11.253.457-1.664.789-3.487,1.389-5.574,2.469-8.594,1.835-5,.715-7.566l-3.637-9.653c-.748-1.9-.568-2.455-3.035-2.661-.675,8.117-8.86,28.663-8.86,31.644" fill="#fefefe" fill-rule="evenodd"/>
    <path id="Path_1885" data-name="Path 1885" d="M288.112,311.358c-1.9,2.822-.683.657,0,1.477,7.189-.063,20.7.7,27.613,1.952,12.056,2.183,7.228,11.333,3.649,18.089,4.7-1.558,15.278-18.949,4.834-23.439-7.188-3.09-24.073-2.509-34.83-2.509-.739,2.766-.271.03-1.026,2.162-.61,1.719-.672.5-.243,2.268" fill="#fedeb6" fill-rule="evenodd"/>
    <path id="Path_1886" data-name="Path 1886" d="M137.492,378.115c2.8.7,4.1-1.217,7.214-2.581,11.03-4.83,16.422-3.548,26.5-4.992-.227-2.916.5-2.294-5.455-5.8-2.545-1.5-4.744-3.115-8.006-2.827-2.709-.886-7.813,1.129-10.205,1.9-3.42,1.1-7.162,1.717-10.046,3.243Z" fill="#8c8c8c" fill-rule="evenodd"/>
    <path id="Path_1887" data-name="Path 1887" d="M258.373,310.092c.073-1.184.374-.147-.3-1.627-1.368-2.983-17.64-20.028-21.963-22.236-1.118-.57-.151-.158-1.151-.456-3.255-.669-1.1.172-1.895-1.629l-.636,0c-1.684,0-1.263.421-1.263-1.262l0,.1c-3.432-.517-.764.2-1.9-1.362l0,.048c-3.495-.721-.662.187-1.9-1.314l0,.411c-6.9-3.115-3.708-3.85-7.559-4.221.628,3.4,7.581,8.144,9.876,10.356l19.585,21.554c3.014,3.607,5.485,10.805,10.922,7.389.471-2.519.613-.842-.089-3L259.018,311c-.093-.14-.242-.34-.319-.454a5.191,5.191,0,0,1-.326-.456" fill="#8c8c8c" fill-rule="evenodd"/>
    <path id="Path_1888" data-name="Path 1888" d="M179.9,550.583c0-1.495-.42-1.2.923-1.2l.343-.536c-2.257-2.2-.5-3.031-1.269-5.114-1.759.751-1.879,1.111-3.62,1.963a64.054,64.054,0,0,1-24.212,5.538c-4.652-.009-7.581-.649-11.406-.649.621,2.325,4.53,6.706,6.569,7.987,8.071,5.068,31.181-5.175,32.672-7.987" fill="#8c8c8c" fill-rule="evenodd"/>
    <path id="Path_1889" data-name="Path 1889" d="M94.457,336.3c7.048-5.795,16.372-4.307,20.42-12.109,2.051-3.953,3.458-5.965,3-7.767.361-1.3,1.079.028,0-1.9-4.605,0-17.428,1.455-19.228,3.555-2.011,2.345-4.188,13.284-4.188,18.22" fill="#8c8c8c" fill-rule="evenodd"/>
    <path id="Path_1890" data-name="Path 1890" d="M212.17,121.5c-2.439-1.145,2.191-9.007-9.294-16.715-1.967-1.32-2.58-.413-.832-1.478-.653-.984,1.029-.8-1.266-.8a171.32,171.32,0,0,1-1.425,20.725c-1.16,8.815-4.739,10.285,9.653,10.285Z" fill="#e25800" fill-rule="evenodd"/>
    <path id="Path_1891" data-name="Path 1891" d="M87.23,294.656l-.678.615-.615.587-.6.651-.624.671-.669.64-.661.6-.6.605-.606.671-.642.66-.669.624-.651.6-.588.616-.614.678-.642.65-.688.625-.623.578-.588.642-.623.677-.661.643-.669.605-.615.6-.587.651-.195.678c-1.158.348-.937-.005-.414,1.162-1.383-.375-1.174-.623-.66.716-1.355-.487-1.138-.7-.651.65-1.323-.507-1-.741-1,.67,1.207,0,1,.356,1-.67l.651-.65c.9,0,.66.216.66-.716l.414-1.162.195-.678.587-.651.615-.6.669-.605.661-.643.623-.677.588-.642.623-.578.688-.625.642-.65.614-.678.588-.616.651-.6.669-.624.642-.66.606-.671.6-.605.661-.6.669-.64.624-.671.6-.651.615-.587.678-.615c1.736-.278.828-.26,1.526.246-.1,4.312-.394,10.067-2.616,13.175-1.3,1.814-6.81,5.372-10.037,5.565l.865.544c.442.218.929.449,1.39.621,6.494,2.425,6.9,1.679,13.393,6.218,1.763,1.232-.134.855,2.706,1.091.192-2.31.625-11.117,1.472-12.451,2.493-3.924,4.856-.537,4.856-9.066-2.555-.057-5.35-.768-6.839-2.021-2.261-1.9-2.021-3.588-2.021-7.473-2.275.609-2.725,1.944-4.695,3.551" fill="#e25800" fill-rule="evenodd"/>
    <path id="Path_1892" data-name="Path 1892" d="M134.327,532.23l.633,3.8c2.719-.226,2.076-.629,4.074-2.254,7.524-6.12,21.879-13.568,31.367-13.568,3.6,0,6.8,1.622,10.126,1.9,0-3.144.049-4.413-1.87-5.725-5.179-3.543-14.273-1.475-19.284.393-5.848,2.18-12.467,4.006-18.282,8.3-1.692,1.249-6.764,5.009-6.764,7.159" fill="#585858" fill-rule="evenodd"/>
    <path id="Path_1893" data-name="Path 1893" d="M127.363,375.278c-1.259.527-1.532-1.457-1.3,6.348.095,3.2.611,3.673.67,6.31,3.62,0,2.247.194,4.782-.914,1.585-.693,2.762-.987,4.078-1.618,0-4.48-1.023-8.429-.6-13.894.794-10.331,6.817-35.34,6.933-36.736-2.781,0-2.281,0-4.391-.781-1.863-.69-1.335-.93-2.854-.149a1.13,1.13,0,0,0-.35.294,6.908,6.908,0,0,1,2.434,3.846l-3.473,16.657a229.5,229.5,0,0,0-1.587,24.926l-4.426,1.819Z" fill="#585858" fill-rule="evenodd"/>
    <path id="Path_1894" data-name="Path 1894" d="M212.236,484.764c0-1.564-.39-1.173,1.173-1.173a13.792,13.792,0,0,0-2.344-3.426c-1.33-1.768-1.028-2.154-3.325-1.733-2.666-.894-7.17.881-10.214,1.181a119.219,119.219,0,0,1-11.936.721c.255,3.075,6.4,9.291,8.227,12.024,4.256-.354,16.9-5.177,18.419-7.594" fill="#fefefe" fill-rule="evenodd"/>
    <path id="Path_1895" data-name="Path 1895" d="M100.785,290.473c-5.48,0-6.328-8.41-6.328,5.064,0,5.949,14.476.748,16.834-.254,4.527-1.923,10.59-7.261,14.019-10.662a33.8,33.8,0,0,0,3.074-3.255c1.415-1.755,1.957-1.912,2.147-4.183-4.4.366-6.917,5.217-13.837,7.682-5.589,1.99-8.824,5.608-15.909,5.608m-3.8-3.161c1.684,0,1.263-.421,1.263,1.263-1.684,0-1.263.421-1.263-1.263" fill="#585858" fill-rule="evenodd"/>
    <path id="Path_1896" data-name="Path 1896" d="M148.883,291.735c-.091,2.463-.419,1.227-.633,3.8,4.1,0,16.182-3.7,17.724-5.7.01-1.928-.947-1.527-1.984-6.882-.55-2.847-1.078-5.582-1.608-8.54-7.734-1.038-10.371,4.228-11.472,10.406-.2,1.149-.345,2.146-.541,3.244-.486,2.716-.392,2.572-1.486,3.667" fill="#8c8c8c" fill-rule="evenodd"/>
    <path id="Path_1897" data-name="Path 1897" d="M84.964,398.049c.584,2.462,2.652,3.135,5.149,2.071,4.1-1.746,7.739-4.512,16.91-7.846l12.7-3.759c6.562-1.2,4.482,1.36,4.482-11.217l-.451,5.062c-10.719,1.2-22.567,4.328-31.229,9.984-3.27,2.136-4.9,4.258-7.558,5.705" fill="#585858" fill-rule="evenodd"/>
    <path id="Path_1898" data-name="Path 1898" d="M21.047,296.169c.745,3.062-3.561,9.123,2.255,10.467,3.353.774,16.273-7.636,11.454-16.585a11.454,11.454,0,0,0-9.551-5.907c-1.179,4.3.9,4.329-2.41,9.31Zm-1.266,1.266c0-1.684-.421-1.263,1.262-1.263,0,1.684.421,1.263-1.262,1.263" fill="#ecb482" fill-rule="evenodd"/>
    <path id="Path_1899" data-name="Path 1899" d="M36.862,280.347c-.849.562-2.221-.135-.959,3.353,1.019,2.818,6.036,4.829,9.968,3.126s6.183-7.609,6.183-12.175c.1.113.243.147.285.348s.229.275.288.345.217.258.289.344.208.249.289.344c2.018,2.349,2.478,3.053,5.178,3.682,1.25-2.606,1.462-6.937,1.361-10.171-.124-3.963-.38-3.1-1.358-3.752l-.045,1.952c-4.332-4.411-7,2.434-10.42,6.556-3.216,3.878-10.09,7.21-11.059,6.048" fill="#ecb482" fill-rule="evenodd"/>
    <path id="Path_1900" data-name="Path 1900" d="M224.831,323.382c.81-2.418-.65-5.995-1.395-8.735-.664-2.442-1.641-5.4-2.67-8.088-1.217-3.184-5.166-12.41-7.33-13.557-1.761-.8-1.028,1.371-1.544-1.9l.278,0c-.169-.117-.4-.507-.487-.377l-3.368-4.085c-2.512-3.108-1.127-2.55-2.779-2.814,1.349,6.892,9.855,22.832,13.332,35.418.563,2.039,1.075,4.326,2.473,5.788,1.7,1.779,4.184,2.281,3.49-1.651" fill="#8c8c8c" fill-rule="evenodd"/>
    <path id="Path_1901" data-name="Path 1901" d="M109.012,280.968c2.488.4,2.273-1.87,5.877-3.1-.188-.091-.713-.51-.768-.778a.908.908,0,0,0-.385-.536c-1.708-1.752-3.476-3.338-5.215-5.2-2.017-2.162-2.523-4.536-4.572-6.457-1.294,0-.96.317-.96-1l.327,0c-1.243-.965-.916-.215-1.487-1.936a5.862,5.862,0,0,1,1.926-5.777c-2.143.283-.095.232-1.069-1.145-1.707-.759-.607-.575-3.166-.633-3.4,5.074-6.459,8.8-2.366,15.656,1.806,3.025,8.464,10.039,11.858,10.913" fill="#8c8c8c" fill-rule="evenodd"/>
    <path id="Path_1902" data-name="Path 1902" d="M86.862,434.138c2.261-.391,1.792-1.353,3.161-3.17,1.477-1.96,2.294-1.825,2.754-3.795-1.386-1.61-6.118-3.1-9.087-3.209-7.281-.269-13.342,2.927-17.872,7.48-2.1,2.113-4.713,4.035-5.537,7.12,5.349-.444,9.908-8.373,19.644-5.724,1.322.36,2.029.705,3.406,1.074,2.494.667,1.868.628,3.531.224" fill="#fefefe" fill-rule="evenodd"/>
    <path id="Path_1903" data-name="Path 1903" d="M141.289,264.525c-.419,5.037-3.409,3.767-4.43,7.594,13.955,0,6.842,4.436,23.6-8.044,1.7-1.265,2.637-2.192,4.88-2.714a38.177,38.177,0,0,0-1.266-6.962c-3.562.951-12.162,10.126-22.783,10.126" fill="#ecb482" fill-rule="evenodd"/>
    <path id="Path_1904" data-name="Path 1904" d="M213.436,487.293l2.6-1.281c1.289,2.538,2.524,2.932,4.039,5.471l-1.172.246c-1.466,0-1.029-.33-1.029,1.263,1.694,0,1.339.412,1.029-1.263,1.1.8.742.987,1.172-.246,1.672-.107,7.086-3.84,8.84-5.168,13.141-9.949,6.765-8.031,4.778-15.474h-2.532c-.6,2.247-2.1,3.071-3.637,4.589Z" fill="#b8b8b8" fill-rule="evenodd"/>
    <path id="Path_1905" data-name="Path 1905" d="M226.829,501.852c0-1.344-.3-.948,1.145-.948-.622-1.25-4.738-6.277-6.31-6.8-1.953-.249-5.147,2.026-8.737,4.077l-6.8,3.325c-1.26.552-1.6.4-2.816.982.705,2.638,3.655,4.962,5.7,6.329,3.894-.324,16.364-4.823,17.823-6.962" fill="#fefefe" fill-rule="evenodd"/>
    <path id="Path_1906" data-name="Path 1906" d="M207.74,478.432c2.3-.421,1.995-.035,3.325,1.733a13.792,13.792,0,0,1,2.344,3.426c-1.563,0-1.173-.391-1.173,1.173,1.589,0,1.209.4,1.173-1.173,2.289.342.351.6,2.486-.761,5.18-3.3,12.481-9.424,15.894-14.521-3.543-6.695-1.7-6.872-5.7-6.961-.774,3.323-4.84,7.693-7.112,9.974-7.042,7.071-8.508,3.422-11.241,7.11" fill="#b8b8b8" fill-rule="evenodd"/>
    <path id="Path_1907" data-name="Path 1907" d="M36.862,280.347c.969,1.162,7.843-2.17,11.059-6.048,3.42-4.122,6.088-10.967,10.42-6.556l.045-1.952c.991-2.957-3.982-14.338-12.165-2.037L37.3,277.667c-1.349,2.553-.867.927-.441,2.68" fill="#fedeb6" fill-rule="evenodd"/>
    <path id="Path_1908" data-name="Path 1908" d="M221.663,494.1c1.573.525,5.689,5.552,6.31,6.8-1.45,0-1.145-.4-1.145.948,1.467,0,1.172.4,1.145-.948,5.243-.115,11.418-12.566,13.309-16.14-.984-1.469-2.014-2.493-2.531-4.43-2.651.22-2.94,1.282-4.592,3a29.041,29.041,0,0,1-4,3.6l-6.5,4.861c-2.017,1.526-.785-.2-2,2.307" fill="#b8b8b8" fill-rule="evenodd"/>
    <path id="Path_1909" data-name="Path 1909" d="M94.457,336.3c0,2.733.136,1.618.633,2.274,5.656,0,7.253-1.407,11.79-2.766a57.93,57.93,0,0,1,6.2-1.395c2.839-.55,3.772-1,6.06-1.535.667-2.861,1.451-5.88,2.012-8.826.416-2.179.531-2.044-.543-3.959l-2.732-3.669c.459,1.8-.948,3.814-3,7.767-4.048,7.8-13.372,6.314-20.42,12.109" fill="#585858" fill-rule="evenodd"/>
    <path id="Path_1910" data-name="Path 1910" d="M213.436,487.293c-1.994-.485-7.162,2.775-13.522,4.834a43.663,43.663,0,0,0-4.831,1.5,26.456,26.456,0,0,0,6.329,6.961c2.843-.662,5.661-2.281,8.59-3.434,2.067-.814,6.89-2.9,7.867-4.16,0-1.593-.437-1.263,1.029-1.263l1.172-.246c-1.515-2.539-2.75-2.933-4.039-5.471Z" fill="#fefefe" fill-rule="evenodd"/>
    <path id="Path_1911" data-name="Path 1911" d="M227.126,268.323a16.864,16.864,0,0,0-.706,2.265c3.094,1.853,4.76-1.893,8.512-6.72,1.8-2.315,6.877-7.889,7.132-10.1-.211-2.813-2.491-4.7-3.313-8.227h-1.9c-.994,4.266-8.683,13.871-9.726,22.783" fill="#8c8c8c" fill-rule="evenodd"/>
    <path id="Path_1912" data-name="Path 1912" d="M115.341,217.993c-1.271.553-.509-.173-1.462.738-1.385,1.325.155-.528-1.066,1.493Zm.66,2.228c-1.622,1.59-.028.249-1.925,1.266l.678-1.009c2.077-1.865-1.86-.641,1.247-.257.454-1.607-.72-1.623,1.374-.822,1.413-3.523,11.8-8,15.257-9.731,6.494-3.251,12.013-5.368,18.783-.836l-5.558,4.585c-1.346.642-1.009.545-2.235.482.263,1.677.626,1.262-1.064,1.262,0-1.606-.435-1.262,1.064-1.262-6.794-.416-20.2,3.164-26.247,5.5Z" fill="#b8b8b8" fill-rule="evenodd"/>
    <path id="Path_1913" data-name="Path 1913" d="M87.23,294.656l-.678.615-.615.587-.6.651-.624.671-.669.64-.661.6-.6.605-.606.671-.642.66-.669.624-.651.6-.588.616-.614.678-.642.65-.688.625-.623.578-.588.642-.623.677-.661.643-.669.605-.615.6-.587.651-.195.678-.414,1.162c0,.932.243.716-.66.716l-.651.65c0,1.026.209.67-1,.67,0,2.874-.121.482.633,1.478l5.063-.246c3.227-.193,8.738-3.751,10.037-5.565,2.222-3.108,2.517-8.863,2.616-13.175-.7-.506.21-.524-1.526-.246" fill="#fe8d00" fill-rule="evenodd"/>
    <path id="Path_1914" data-name="Path 1914" d="M130.53,196.4,128,194.276c.964,2.3-.472,1.734,2.528,2.12m-22.151,4.845c1.326,1.59,1.249-2.368,1.266,3.143,1.854-.649,15.244-10.708,19.619-8.005,4.448,2.75-.993,6.068-1.054,7.72-.224,6.012.215-1.207.426,2.223l-1.9.556c.586-1.259.442-1.215,0-1.843-3.313.772-13.328,3.959-16.753,1.592-1.517-1.048-1.494-2.089-1.6-5.386" fill="#ecb482" fill-rule="evenodd"/>
    <path id="Path_1915" data-name="Path 1915" d="M284.039,618.933l1.859-1.2c.215-.27.485,1.052.058-1.585-.126-.776-.41-1.7-.554-2.649-.366-2.407.262-3.145-1.084-4.181-1.737-.223-.627-.207-2.165.472-1.6.706-.36.347-2.059,1.114-9.861,4.448-13.578.693-16.661.437.223,2.686,1.272,2.894,3,4.6,1.424,1.405,2.084,2.622,4.231,3.363,3.252,1.121,10.946,1.2,13.377-.365" fill="#8c8c8c" fill-rule="evenodd"/>
    <path id="Path_1916" data-name="Path 1916" d="M117.375,219.4l-1.374.821c-1.622,1.59-.028.25-1.925,1.266l-.636,0c-1.024,2.445.3,1.575-2.529,2.527,2.637,5.043,24.593-4.746,30.089-7.9,1.66-.955.324.429,1.558-.954,0-1.6-.435-1.263,1.065-1.263-6.795-.414-20.206,3.166-26.248,5.5" fill="#fefefe" fill-rule="evenodd"/>
    <path id="Path_1917" data-name="Path 1917" d="M100.785,508.813l9.337-3.953c2.1-1.156,1.211.073,2.1-2.331,1.314-3.556,1.854-10.761,1.854-15.867-3.1.829-5.823,6.7-7.6,10.118-2.23,4.287-5.435,8.992-5.688,12.033" fill="#b8b8b8" fill-rule="evenodd"/>
    <path id="Path_1918" data-name="Path 1918" d="M114.076,502.485a17.369,17.369,0,0,0,5.066-2.529c2.329-1.438,2.387-1.491,2.561-5.033.241-4.907.6-9.432.6-15.221-2.692.224-2.861,1.259-4.613,2.981-4.7,4.617-1.164,5.11-2.6,12.594-.634,3.32-1.019,3.04-1.019,7.208" fill="#b8b8b8" fill-rule="evenodd"/>
    <path id="Path_1919" data-name="Path 1919" d="M259.89,282.246l-1.7,1.263c-1.226,1.218-.339,2.713,1.5,3.156,4.515,1.091,12.127-5.562,14.508-3.129l-.536-1.923c.349-2.057-.31-2.465-1.355-4.43a16.189,16.189,0,0,1-1.909-4.43c-2.748.733-.722.406-5.219,4.907-.949.95-1.538,1.644-2.567,2.51-1.179.992-1.61,1.072-2.719,2.076" fill="#8c8c8c" fill-rule="evenodd"/>
    <path id="Path_1920" data-name="Path 1920" d="M97.174,400.474l-.131.3-.569,1.181c-1-.133-.8-.351-.615.633-1.017-.133-.823-.357-.614.641-1.051-.145-.822-.372-.688.679-.991-.21-.768-.4-.624.615-.992-.183-.778-.386-.633.614-.967-.154-.742-.374-.742.579l.742-.579.633-.614.624-.615c.913,0,.688.23.688-.679l.614-.641.615-.633.569-1.181.131-.3c8.286-.885,15.041-4.6,24.5-5.1.66.7.327.106.569,1.42l.947-1.645c1.315-2.553,2.221-3.87,2.281-6.582-3.879.086-14.135,4.677-18.426,6.255-3.209,1.18-8.087,3.021-9.867,5.651" fill="#e25800" fill-rule="evenodd"/>
    <path id="Path_1921" data-name="Path 1921" d="M96.988,287.312c1.684,0,1.263-.421,1.263,1.263.008,1.328,6.163.516,7.169.206,5.59-1.726,5.3-1.691,5.491-4-5.265-.438-7.806-7.243-12.024-7.594a24.915,24.915,0,0,1-1.926,5.06c-.5,1.246-1.351,3.839.027,5.069" fill="#8c8c8c" fill-rule="evenodd"/>
    <path id="Path_1922" data-name="Path 1922" d="M122.3,477.8c1.26,5.409,1.96,12.655.633,18.353,2.582-.057,2.315.28,3.457-1.605,1.156-1.908,4.243-13.286,1.855-18.262-.946-1.971-1.151-2.1-3.414-2.283-.638,2.391-1.221,1.841-2.531,3.8" fill="#b8b8b8" fill-rule="evenodd"/>
    <path id="Path_1923" data-name="Path 1923" d="M36.9,260.1c1.74.952,4.8,2.987,6.927,3.164a24.356,24.356,0,0,1,2.6-4.363c1.7-2.264,2.548-2.251,3.73-3.863-1.312-1.793-5.826-4.556-8.567-5.064-2.107,2.814-4.56,4.6-4.688,10.126" fill="#ecb482" fill-rule="evenodd"/>
    <path id="Path_1924" data-name="Path 1924" d="M19.781,297.435c0-1.684-.421-1.263,1.262-1.263l0,0,1.748-2.715c3.307-4.981,1.231-5.005,2.41-9.31-8.595,0-8.592,3.018-8.592,11.392,1.579,1.057,1.247,1.624,3.168,1.9" fill="#fedeb6" fill-rule="evenodd"/>
    <path id="Path_1925" data-name="Path 1925" d="M212.17,121.5a58.668,58.668,0,0,0,1.784-5.813c.768-2.725.748-4.082.748-7.481-2.487-1.665-8.917-4.993-12.658-4.9-1.748,1.065-1.135.158.832,1.478,11.485,7.708,6.855,15.57,9.294,16.715" fill="#fa8a00" fill-rule="evenodd"/>
    <path id="Path_1926" data-name="Path 1926" d="M102.357,313.889l3.161-1.634c5.868-2.185,5.615-2.867,9.578-5.049l-4.818-.39c-2.769-.885-6.84.419-8.888,1.35-3.506,1.593-3.769,2.058-3.769,6.989,1.372-.32,3.686-.549,4.736-1.266" fill="#8c8c8c" fill-rule="evenodd"/>
    <path id="Path_1927" data-name="Path 1927" d="M26.742,271.487a55.406,55.406,0,0,1,6.278.071c2.457.363,1.675.962,4.478,1.195a16.74,16.74,0,0,0,4.43-6.962c-3.282-.765-4.4-2.508-7.929-3.164.147,3.271-1.991,2.536-1.47,7.6-3.724,0-4.4-.392-5.787,1.263" fill="#ecb482" fill-rule="evenodd"/>
    <path id="Path_1928" data-name="Path 1928" d="M278.622,308.766c-2.3.229-1.611-.165-2.8,1.692a10.961,10.961,0,0,0-1.062,3.46c-.057,3.138,1.727,3.731,4.5,4.074,0-1.356-.287-.911,1.263-.911.948-.89.73-1.79,2.517-4.47,1.011-1.517,2.707-3.285,3.178-5.05-4.146,0-3.948,1.262-7.594,1.2" fill="#8c8c8c" fill-rule="evenodd"/>
    <path id="Path_1929" data-name="Path 1929" d="M36.9,260.1c.128-5.523,2.581-7.312,4.688-10.126-2.571-1.785-6.26-.322-7.752,1.4-2.056,2.376-2.034,4.452-2.034,8.725Z" fill="#fedeb6" fill-rule="evenodd"/>
    <path id="Path_1930" data-name="Path 1930" d="M25.477,280.98c5.532.324,3.22,1.588,6.958,1.9.737-3.164,2.3-4.8,2.532-7.6l-6.609-1.723c-3.621.071-1.014-.779-2.251,1.087l1.926-.375-2.2,6.2c-.051-.1-.233.338-.353.5" fill="#ecb482" fill-rule="evenodd"/>
    <path id="Path_1931" data-name="Path 1931" d="M141.289,283.508c-.586,4.094-2.164,8.869-2.532,13.293H141l1.8-1.265c-.067-3.358,2.96-11.173,1.656-13.073-1.705-.221-1.882-.022-3.164,1.045" fill="#8c8c8c" fill-rule="evenodd"/>
    <path id="Path_1932" data-name="Path 1932" d="M26.742,271.487c1.382-1.655,2.063-1.263,5.787-1.263-.521-5.061,1.617-4.326,1.47-7.6-2.007-1.383-4.793-.116-6.084,1.175-1.8,1.792-1.809,4.15-1.809,7.685Z" fill="#fedeb6" fill-rule="evenodd"/>
    <path id="Path_1933" data-name="Path 1933" d="M172.248,271.414c0,1.732.454,1.335-1.214,1.335-.8,1.809-.777,3.488.854,4.834,1.579,1.3,3.722,1.29,5.475,2.131l0-.633c0-1.458-.455-1.263.633-1.263l.633-.632.633-.633,1.214-.442.415-1.033a45.276,45.276,0,0,0-5.232-1.9,7.291,7.291,0,0,1-2.465-1.339c-1.054-.692-.063-.949-.949-.428" fill="#8c8c8c" fill-rule="evenodd"/>
    <path id="Path_1934" data-name="Path 1934" d="M102.357,313.889c5.241,0,9.961-1.9,14.883-1.9-.227-.976-.615-5.2-1.182-5.788-.621-.642-1.26-.736-2.591-.7-4.006.107-2.316.111-3.189,1.314l4.818.39c-3.963,2.182-3.71,2.864-9.578,5.049Z" fill="#585858" fill-rule="evenodd"/>
    <path id="Path_1935" data-name="Path 1935" d="M108.377,186.049c.54-1,8.141-3.854,9.5-3.8-.919-2.762-.8-4.812-7.671-1.973-2.065.854-1.048.8-3.088,1.343,0,4.641.081,3.5,1.263,4.43" fill="#ecb482" fill-rule="evenodd"/>
    <path id="Path_1936" data-name="Path 1936" d="M25.477,280.98c.12-.166.3-.605.353-.5l2.2-6.2-1.926.375c-1.588-.386.469-.974-2.355.135-2.876,1.129-3.9,3.581-3.974,6.83,2.441-.2,2.494-.633,5.7-.633" fill="#fedeb6" fill-rule="evenodd"/>
    <path id="Path_1937" data-name="Path 1937" d="M124.834,396.978c1.039-.886.319-.726,1.9-1,.017,0,2.566,0,2.744-.007l-.438,3.989c.746-.873.653-.178.889-1.871.034-.243-.019-2.158-.024-2.549-.025-1.9-.013-3.8-.013-5.706-1.84.153-.833-.356-2.011.52-1.32.982-2.519,5.176-3.052,6.624" fill="#e25800" fill-rule="evenodd"/>
    <path id="Path_1938" data-name="Path 1938" d="M277.989,618.933c-5.938,0-8.915-.108-12.658-5.7,8.94.744,10.326,2.33,22.03-5.184,12.4-7.963,29.866-18.842,29.866-34.687h.633c0,8.77,3.33,10.386-4.552,22.662a47.618,47.618,0,0,1-8.886,10.733,52.177,52.177,0,0,1-5.454,4.039,49.438,49.438,0,0,1-5.993,3.5c-3.611,1.82-9.993,4.632-14.986,4.632M118.5,277.816c-2.1-3.971-4.939-4.382-10.67-11.481l-6.417-7.506c0,4.937,2.289,7.908,5.779,12.575,3.029,4.049,6.126,7.619,11.308,6.412m82.274-117.081c0,4.8,1.269,15.626,7.594,11.391-.909-3.406-3.539-2.369-1.88-6.872.883-2.4,2.486-4.855,3.146-7.684a8.387,8.387,0,0,0-5.063,3.165c0-2.914-.067-2.813.761-5.046,2.616-7.055-4.558-1.3-4.558,5.046m26.58,167.71c3.456-4.137-5.4-28.737-13.139-38.123-1.253-1.519-6.873-9.088-8.434-7.527-.815.814-.729.213,2.737,4.363,6.728,8.058,11.236,18.638,14.139,28.9,1.33,4.7,1.752,10.418,4.7,12.39m-8.86-51.9v-1.266c11.538.96,44.934,26.272,44.934,40.5-3.529-.943-6.505-7.579-9.984-11.534-3.519-4-6.236-7.071-10.1-10.788-1.385-1.333-1.753-1.391-3.139-2.556-1.2-1.006-1.543-1.419-2.723-2.34-4.5-3.509-13.815-10.815-18.991-12.02M138.757,250.6c-4.239,0-6.989-1.324-9.493-5.063,2.216-4.188,6.519-10.25,10.206-13.211,7.132-5.727,16.051-12.736,27.133-12.736.9,0,3.419,3.338,3.953,4.306,5.453,9.88-24.415,26.7-31.8,26.7m-25.314-25.948c8.463,0,33.433-11.354,36.706-15.822-2.118-.493-4.927-1.9-6.961-1.9-5.624,0-37.07,17.72-29.745,17.72m-6.329,1.9c1.115-4.789,10.952-11.315,15.062-14.049,17.788-11.835,23.616-12.684,41.519-.762,3.908,2.6,12.4,8.567,12.4,14.178,0,10.6-15.987,21.95-25.516,26.379-18.339,8.524-22.86-.662-32.88-14.182-2.592-3.5-7.614-10.771-10.586-11.564M271.66,608.174c5.362,0,9.656-3.065,13.171-5.182C323.476,579.725,309,571.281,309,556.911l-17.92,9.926c-5.794,3.466-11.21,6.794-16.092,11.121-5.243,4.648-9.239,8.864-12.02,15.828-1.677,4.2-3.179,6.547-.047,9.829,1.931,2.024,5.06,4.559,8.74,4.559M257.1,596.15c4.4-3.228-2.214-13.444,34.682-35.567,2.708-1.624,12.859-7.53,15.315-8.1a9.091,9.091,0,0,0-1.9-3.8c-2.977,1.575-5.83,2.054-9.233,3.426a74.089,74.089,0,0,0-8.49,4.167,64.7,64.7,0,0,0-14.08,10.6A87.236,87.236,0,0,0,262.035,580.2c-9.647,14.421-6.29,10.119-4.931,15.955m-3.164-9.494c3-12.86,25.357-32.491,38.686-37.891l7.513-3.245c-4.012-.935-9.331-4.43-13.923-4.43-9.779,0-17.934,2.309-24.849,8.693l-6.933,8.889c-5.5,8.729-5.148,15.532-2.173,25.233.865,2.823-.191,1.382,1.679,2.751m-117.081-48.1c4.329-6.465,36.842-20.2,40.811-12.332.793,1.571.958,9.068.958,11.7,0,5.638-23.822,11.652-34.56,9.247-4.185-.937-6.307-4.743-7.209-8.614m86.7-8.86c6.161-.513,20.961-7.473,26.12-12.485,1.77-1.72,4.7-5.745,6.789-6.5,1.335,2.522,2.368,4.516,3.826,6.933,3.159,5.234,10.178,16.293,16.426,17.749v1.266c-13.226,0-26.4,15.332-27.846,21.517h-1.266c-.309-13.89-22.453-26.3-24.049-28.479m-87.969,5.063c5.926-3.968,6.818-5.629,14.549-9.5,11.369-5.693,17.515-7.126,29.119-4.423,0-3.162.552-2.033-1.021-3.409-8.36-7.32-40.478,7.887-42.7,14.576-.482,1.45-.153.248.056,2.756m-1.266-6.961c1.743-1.167,2.67-2.474,4.415-3.813,5.238-4.018,9.172-5.412,15.475-7.942,5.731-2.3,12.744-4.806,18.968-4.254,3.121.277,3.411,1.01,5.443,2.085-.821-3.523-1.476-8.629-3.8-10.756-5.608-5.134-29.117-1.751-35.567,3.034-5.1,3.782-4.935,12.886-4.935,21.646m84.805-3.165c9.628,0,25.919-8.581,31.919-17.445,4.324-6.388,4.787-8.782,4.787-15.464,0-3.361-4.417-10.375-8.227-11.392-.178,2.147-2.644,7.307-3.67,8.988-5.6,9.177-7.365,12.726-18.683,18.023-16.6,7.767-23.027,1.406-17.923,8.812,3.6,5.22,6.122,8.478,11.8,8.478m-73.413-26.58c2.184-3.262,3.092-5.755,4.711-9.845a54.344,54.344,0,0,0,1.843-5.752,43.769,43.769,0,0,1,1.673-5.921c2.306.616,5.72,3.8,15.189,3.8,1.029,4.418,1.481,10.807,1.9,15.822-10.959,0-5.9-2.625-25.315,1.9m-25.315,0a29.8,29.8,0,0,0-5.063,2.531l.633-15.189a11.25,11.25,0,0,0,1.144-.754c2.035-1.583,1.849-2.29,3.919-3.676,0,2.947.062,5.947.025,8.885-.044,3.6-.658,4.363-.658,8.2m-18.353,8.859c2.473-3.692,8.938-17.188,11.392-18.985a62.621,62.621,0,0,1-1.984,13.206c-.8,2.5-1.484,2.528-3.9,3.7a21.515,21.515,0,0,1-5.51,2.083m83.433-20.989c.106.1,5.839,9.791,11.355,16.069,1.694,1.929,2.622,3.615,4.573,4.92-3.932,5.871-.7,10.075,3.417,15.569,7.673,10.233,11.74,5.386,16.066,9.882,4.413,4.586,9.4,8.118,13.913,12.667,12.966,13.085,6.328,34.137,16.807,53.442,3.906,7.2,7.411,15.788,13.225,21.583,16.024,15.972,59.349-14.751,59.349-37.2a55.32,55.32,0,0,0-5.7-24.683c-1.006-2.055-1.588-3.974-2.73-6.131-1.965-3.71-4.939-6.336-8.386-8.7-3.884-2.665-7.374-3.337-11.853-5.235-13.954-5.911-22.74-7.9-29.979-21.283-1.243-2.3-2.022-3.349-3.173-5.687a32.366,32.366,0,0,0-1.494-2.936c-.736-1.2-1.088-1.377-1.876-2.554,1.729-7.422,2.531-4.267,2.531-13.923,0-4.67-3.981-10.608-6.467-13.151-4.893-5-8.217-4.748-14.417-3.3-1.645-3.109-3.428-5.549-5.265-8.658-1.846-3.124-3.6-5.605-5.494-8.43,10.545-19.929,8.949-18.174-2.743-41.558l-7.561-17.12A40.7,40.7,0,0,1,217.233,393c5.444,0,6.411-1.647,8.61-5.313,5.1-8.494,4.851-17.752-4.18-23.8l2.532-21.518c3.01,0,6.517-1.031,8.526-.342,4.185,1.438,9.784,7.937,23.117,7.937,7.089,0,11.5-3.942,15.3-7.481,2.982-2.775,12.9-.114,20.137-.114,14.394,0,31.6.245,38.406-13.489,2.639-5.324,3.364-9.31,3.364-15.623,0-10.787-22.825-10.759-34.808-10.759.917-.8.189-.256,1.491-1.04.822-.495,1.175-.63,2.032-1.132,1.447-.85,2.146-1.231,3.634-2.063a212.824,212.824,0,0,0,21.056-13.118c16.079-11.633,26.344-24.5,12.577-43.056-3.689-4.972-10.778-7.941-18.007-7.941-6.988,0-30.875,14.378-34.808,20.252l5.19-8.733c11.606-17.459,22.472-30.817,2.956-46.245-23.389-18.488-29.613-7.976-43.073,14.355-4.481,7.433-9.311,15.1-13.171,22.9l-4.43,7.594c0-3.208.9-6.021,1.446-9.312,1.577-9.553,7.829-40.4.516-47.71-4.077-4.075-10.367-3.733-18.417-3.733,1.985-3.751,2.936-4.985,4.365-9.559,2.76-8.832,1.989-19.753-.787-28.194a19.94,19.94,0,0,0-8.008-10.978c.205-2.464,1.928-7.1,2.718-9.94s.216-2.423,2.49-3.838a22.476,22.476,0,0,1,4.177-2.153c17.033-6.955,22.5-1.182,11.5-17.611h6.962c1.069-1.6,1.9-1.9,1.9-3.8,0-4.017-6.766-9.91-8.86-12.657-3-3.939-7.385-7.1-11.245-10.273-5.914-4.86-20.729-14.866-28.626-15.042,1.922-7.2,24.672-16.521,4.8-19.989-14.528-2.535-31.685-2.69-45.5,2.7-2.285.893-4.687,2.245-6.764,2.729,4.411-9.192,4.765-12.51,11.008-21.9,3.173-4.772,13.381-14.631,14.307-18.6-1.7-2.531-3.35-2.531-6.329-2.531-8.145,0-19.58,2.673-26.455,4.555a124.65,124.65,0,0,0-42.54,20.747c-1.708,1.292-2.334,2.245-3.973,3.623-3.936,3.31-11.141,11.7-11.837,12.212,0-4.012-.573-5.754-.617-10.145-.026-2.428-.464-3.664-.464-5.044s.44-2.627.47-5.038c.14-11.448,6.218-29.03-4.742-20.568C69.141,6.889,62.916,15.97,58.636,22.39l-5.748,9.44C45.351,45.407,40.473,59.811,36.865,75.3c-9.588-5.073-14.189-16.05-17.817-25.852-1.189-3.214-2.257-7.234-4.966-9.589-5.047,1.176-5.367,6.78-6.389,11.965-4.613,23.415.118,54.215,15.716,71.74,1.9,2.14,2.807,4.081,5.862,4.9,0,19.927,9.438,51.91,6.995,81.674-.478,5.824-.5,11.845-1.424,17.584-2.176,13.578,6.985,2.5,8.511.895,4.165-4.374,13.261-18.165,13.764-24.208,3.189,2.135,4.327,7.148,15.638,14.107,2.692,1.656,3.776,6.7,4.975,9.581a120.169,120.169,0,0,0,7.345,14.8c2.561,4.278,6.738,8.856,11.913,10.238-1.074,4.61-7.953,9.036-2.432,18.253,1.235,2.06,1.781,3.246,3.7,4.53l-3.206,5.021c-.581,1.064-.2.277-.68,1.219-.857,1.68-1.178,3.085-2.607,4.355l-9.177,7.91c-5.926,5.266-13.759,10.315-17.24,17.569-6.467-3.422-10.5-3.867-18.353-5.7,2.913-4.351,5.86-3.488,11.4-14.549a47,47,0,0,0,3.584-9.073c2.629-9.081,3.736-23.838-6.85-28.179-2.693-1.1-1.985-.661-3.63-2.7a39.486,39.486,0,0,0-3.068-3.261c-7.853-7.94-18.727-2.584-26.3,3.149-3.494,2.645-6.71,4.915-9.153,8.566a9.235,9.235,0,0,0-.155,9.339c-2.991,2-8.046,9.417-8.639,14.18-.642,5.155,2.823,2.775-.841,7.967-6.656,9.428-2.235,15.376,3.525,23.679,3.85,5.55,10.964,14.336,17.1,17.709,3.768,2.072,3.555.106,7.758,3.635,11.733,9.85,30.647,22.065,47.55,22.065,4.262,0,5.182-1.189,8.228-1.9a55.059,55.059,0,0,0-1.662,5.3c-2.058,6.314-4.383,14.352-2.768,21.281-8.562,2.286-5.347,20.071,4.43,20.885-.943,3.531-5.585,5.9-8.082,8.373-6.942,6.869-14.335,13.709-20.584,21.185L39.136,456.657c-13.382,19.32-16.359,19.44-6.706,33.175.877,1.249,1.332,2.032,2.386,3.311,1.854,2.25,3.324,4.028,5.119,6.272C48.644,510.3,60.78,518.939,78,518.939c5.318,0,11.91-.048,15.91-2.443a16.02,16.02,0,0,0,3.775-3.186c2.6-3.077.763-1.341,5.072-2.523,8.269-2.27,13.486-5.395,20.177-8.935.118,5.322,3.454,5.7,8.86,5.7-.713,8.564-1.9,4.241-1.9,20.884a18.912,18.912,0,0,0,3.071,10.852l.912,2.254a19.818,19.818,0,0,0,.875,2.921c1.412,3.414,5.1,10.887,7.23,13.654,8.582,11.144,29.04,1.76,37.485-2.891,7.708-4.247,11.816-10.075,11.816-21.727A190.031,190.031,0,0,0,189.5,508.7c-1-6.914-1.518-14.129-3.951-20.731Zm24.155,21.623c-.9,0-3.9-3.631-4.431-4.431,2.93-1.55,5.939-2.478,9.064-4.227,4.189-2.345,13.065-7.812,16.4-10.808,2.258-2.025,5.076-4.9,7.441-6.482,1.2,4.51,3.617.718-1.462,9.3-3.956,6.68-8.665,10.212-15.981,13.132-2.09.835-9.019,3.52-11.036,3.52M174.2,480.967c1.191,2.667,1.266,12.1,1.266,16.454,3.89,2.059,5.345,4.24,6.6,9.222,5.087,20.192.228,16.689.764,21.314,1.289,11.112,3.332,15.782-11.709,20.812a67.879,67.879,0,0,1-20.337,3.712l-8.227-.633c1.8,2.688,4.519,6.962,8.86,6.962,10.18,0,16.208-2.742,23.421-6.323,6.651-3.3,11.386-6.463,11.386-16.46a186.58,186.58,0,0,0-2.257-31.285c-2.169-14.755-2.64-12.2-5.337-23.775Zm-48.1-5.7c-5.527,3.7.862,7.768-1.9,19.619,1.831-.739.992.226,1.826-2.6,1.874-6.349,3.417-12.02.072-17.016m75.312,24.049c-1.44-1.055-3.986-4.032-4.431-5.7,10.264-.228,33.3-15.879,34.808-21.517h1.266c.741,3.18,2.347,3.454,3.164,6.961-5.11,3.422-8.467,7.443-15.82,11.393-4.851,2.606-13.533,7.589-18.987,8.859m-108.221-5.7c1.559-5.838,17.88-9.453,23.416-17.72-1.121-4.2-26.163-29.112-37.972-29.112-10.413,0-29.086,15.005-37.708,21.782-1.3,1.024-1.517,1.409-2.649,2.415-6.482,5.761-8.516,5.556,2.923,19.565C51,502.56,60.431,511.978,78,511.978c12.261,0,12.568.342,18.715-7.865,3.15-4.205,5.669-8.163,8.5-12.387-5.056,1.178-5.382,1.9-12.024,1.9m35.44-22.15c1.76-2.627,8.066-9.683,8.86-12.658,3.612.3,5.388,2.46,6.774,5.251,3.136,6.311,3.352,5.687,3.352,12.47,0,6.971-6.545,25.315-15.821,25.315h-2.532c.161-7.2,6.373-17.758,2.353-25.769-1.206-2.4-.972-.776-2.986-4.609m66.452,19.619c-.891,0-3.189-3.362-3.944-4.283a28.571,28.571,0,0,1-3.651-5.21c11.107-.924,26.466-2.026,33.358-10.311,1.66-2,5.246-6.3,5.88-8.675h1.266a23.243,23.243,0,0,0,2.532,5.695c-5.591,8.35-27.323,22.784-35.441,22.784M41.189,462.086c-.03-.241.981-.48,2.28-2.362l9.661-12.488c1.6-1.623,3.483-2.424,5.259-3.6,16.1-10.679,19.1-11.34,36.675-1.247,5.381,3.089,20.051,14.959,24.074,20.227,1.5,1.963,3.138,3.133,4.431,5.063-.624,2.334-2.658,3.876-4.431,5.063-.767-2.872-5.611-7.833-7.752-9.968-8.6-8.578-22.556-20.41-35.915-20.41-7.514,0-30.9,16.638-33.543,20.252Zm21.518-25.947,1.826-1.55c.983-1.09.657-.985,1.632-2.165,3.737-4.528,8.113-6,14.311-7.258,11.3-2.287,35.62,18.385,44.056,26.359l6.631,7.924c-1.527,2.28-2.273,2.183-3.8,5.063-2.027-1.357-3.41-3.1-5.224-4.9-11.207-11.146-14.3-14.514-29.947-23.215-3.293-1.83-11.629-5.425-16.092-5.425-4.27,0-10.91,3.311-12.657,5.7Zm64.026-20.99c-1.68-.806-.678-.578-3.164-.633,0-6.675.6-16.068,4.25-21.7.756-1.165.263-.454.812-1.086,0,13.775-1.9,17.584-1.9,23.417m5.7-25.316,17.7-6.349,21.533-2.546,21.783,2.306a71.283,71.283,0,0,1,9.152,2.873c2.779,1.053,5.715,2.965,8.942,3.716,0,8.986,9.917,30.032,14.678,37.85,6.8,11.176,6.182,15.324-.479,26.348-5.683,9.406-8.854,16.843-18.617,19.354-11.984,3.081-15.642,2.519-27.859,2.519-7.306,0-19.074-.968-22.282-4.932-3.255-4.023-6.591-13.714-8.735-19.11-2.6-6.545-4.68-13.074-7.321-19.893-3.087-7.972-2.682-14.1-11.659-16.188.262-3.144,1.806-7.722,2.36-10.93.6-3.459,2.342-11.576.805-15.018M119.771,408.82l.742,5.045c-2.422-.171-6.2-1.277-9.827-.208-2.263.668-1.663-.287-2.307,2.124,3.854.086,9.643,1.706,13.166,2.657,12.714,3.431,10.228,4.131,16.969,23.535a50.654,50.654,0,0,1,2.142,6.084l-6.961,7.6c-1.627-6.089-37.5-34.808-50.63-34.808-2.4,0-4.284.789-6.329,1.266,1.327-1.981,7.568-8.174,9.68-9.94,1.28-1.069,1.534-1.033,2.826-2.235l7.847-7.343c3.649-4.738,2.251-3.46,12.194-7.425,3.123-1.245,12.042-5.094,14.919-5.334-.438,1.877-5.534,12.456-4.431,18.987m3.165-25.948c0,2.384.416,1.2.633,3.8-9.458.787-29.149,9.077-35.441,13.29-4.041-2.705-5.063-5.057-5.063-9.493,0-6.658,32.982-17.094,40.5-17.72,0,4.426-.633,6.051-.633,10.126m15.821-15.189c8.541-4.1,38.111-10.126,46.833-10.126,13.916,0,38.605,7.721,38.605,18.353,0,6.138-3.524,12.025-5.7,12.025-1.578,0-7.739-3.025-9.482-3.808a91.891,91.891,0,0,0-9.889-4.035c-12.951-4.28-31.578-4.487-45.452-1.921a49.621,49.621,0,0,0-7.573,1.921c-2.789.92-5.111,2.26-7.346,2.78Zm77.843-7.594c-2.287-.533-6.186-3.009-11.384-4.437-21.113-5.8-35.1-1.164-55.574,4.562l-10.252,3.672c0-1.924,2.943-27.846,5.063-27.846,2.775,0,.769.425,3.462.239,8.98-.618,19.52-2.32,27.549-6.568,7.668,5.134,18.98,14.556,30.377,14.556,3.027,0,10.195-.388,12.025-1.266,0,6.345-1.266,10.188-1.266,17.088m-81.64,24.682a27.983,27.983,0,0,0-4.751,1.73c-3.433,1.3-2.843-.506-2.843-6.161,0-8.243,1.453-16.356,2.8-23.781.693-3.822,1.364-7.887,2.138-11.152.746-3.142,2.025-7.872,2.025-11.266a50.349,50.349,0,0,1,6.329,1.9c-1.719,7.378-3.944,14.847-5.035,22.811-.676,4.936-2.971,21.106-.661,25.92M124.2,368.949c-14.963,0-32.655,10.422-36.707,10.759,1.511-6.489,1.319-8.92,3.793-18.357.717-2.735,1.653-5.79,2.456-8.3,3.914-12.245.688-9.975,9.492-12.659,2.739-.835,6.014-1.807,8.985-2.407,6.739-1.358,11.8-2.064,11.981-10.169,2.881,1.524,4.962,4.191,8.227,5.062-2.5,10.731-7.284,24.729-8.227,36.074M96.355,337.938c-3.187,0,1.537-15.6,2.227-17.392.973-2.528,1.483-2.62,7.083-3.676,13.513-2.549,11.606-.741,13.093,2.493,1.8,3.916,1.591,2.535.254,9.588-.429,2.261-.275,2.733-2.744,3.586-2.358.815-9.991,1.91-15.038,3.947-1.553.627-2.971,1.454-4.875,1.454M77.369,320.851c9.738,0,11.715,4.768,15.189,5.7a27.107,27.107,0,0,0-1.9,10.125c0,2.876,1.352,3.3,2.532,5.063-1.271,5.455-6.647,10.321-12.278,11.182-5.105.781-15.178-2.389-19.007-3.946A134.81,134.81,0,0,1,46.14,341.32c-2.72-1.478-13.069-7.979-14.338-9.711,6.942-1.617,17.548-13.444,18.986-19.618,9.046.752,17.427,7.908,23.6,13.1,3.509,2.953,4.555,4.586,7.407,5.251,0-5.332-2.42-6.491-4.43-9.493M286.216,336.04c-.388-1.451-2.531-5-2.531-8.227,0-5.1,4.514-20.253,8.227-20.253,6.362,0,35.441-.892,35.441,6.962,0,9.95-4.717,16.676-12.181,19.463-3.36,1.256-18.087,2.949-21.313,2.669a62.689,62.689,0,0,0-7.643-.614M98.254,313.889c.323-3.891,3.083-4.825,6.305-5.719a38.278,38.278,0,0,1,10.782-1.242c.2,2.458.571,1.649.633,4.43a55.354,55.354,0,0,0-9.135.991c-1.574.227-2.954.341-4.412.65a25.681,25.681,0,0,1-4.173.89M121.67,304.4l27.227-3.783c11.208-2.718,7.285-3.533,14.545,1.249,8.7,5.728,7.592,9.057,7.592,24.052-7.419.617-28.481,12.153-43.846-3.62-3.376-3.465-6.93-11.836-5.518-17.9m-27.847,8.227c0,4.789.78,4.25,0,7.6-3.255-.271-10.571-7.6-22.15-7.6a58.535,58.535,0,0,1,4.371-5.122c.088-.1.219-.229.308-.324L90.659,293c.153,6.886,3.849,8.228,8.86,8.228v4.429a7.28,7.28,0,0,0-5.7,6.962M17.246,292.372c0-5.32,4.272-8.333,9.012-7.173,6.348,1.552,14.009,9.3,3.213,17.5-3.192,2.425-8.428,4.957-8.428-.2,0-3.566,2.242-4.739,2.532-8.227-2.834.66-2.032,1.259-4.43,1.9-.657-.98-1.9-2.3-1.9-3.8m80.375-6.329c0-4.619,1.14-4.338,1.9-7.6,1.452.972,3.376,2.688,4.913,3.948,3.122,2.561,3.914,1.785,4.58,4.28-2.342.545-11.391,4.116-11.391-.633m-2.532,8.227c0-7.806,1.655-2.531,5.063-2.531,6.438,0,18.829-6.373,24.982-10.46,2.055-1.365,1.512-.351,2.864-2.2,1.291.922,1.145-.506-2.539,3.79-1.221,1.424-2.137,1.831-3.639,3.322a37.9,37.9,0,0,1-7.762,6.161c-4.249,2.442-18.969,8.789-18.969,1.916M31.8,281.613c-2.116-.493-4.371-1.9-6.961-1.9-2.384,0-1.2.417-3.8.633.339-4.066,4.714-5.7,6.962-5.7,2.722,0,3.431.738,5.7,1.266-.647,2.778-1.644,2.644-1.9,5.7m105.057,14.555c-6.794,1.583-18.5-.248-20.252,6.329-5.7,0-8.862,1.168-13.29,1.266.469-5.637,5.344-.717,19.084-11.926,3.689-3.009,13.384-11.887,13.825-17.186,3.2,0,3.255.43,5.7.633-1.632,3.4-5.063,15.894-5.063,20.884m9.493-1.265c-2,.465-4.331.8-6.329,1.265,0-7.207,3.645-14.051,3.8-20.884,5.528,1.323,2.5.406,6.962-.633-1.961,4.087-4.43,14.1-4.43,20.252m31.01-16.455c-10.12-2.357-4.114-6.568-3.164-10.126h1.266c.331,3.985,2.3,4.273,5.7,5.063-1.524,2.881-2.271,2.784-3.8,5.063M41.928,286.676c-1.909,0-5.063-2.581-5.063-4.43,0-3.061,5.432-9.889,7.086-12.534,3.2-5.125,4.569-8.678,8.736-10.883,7.481,3.959,6.744,12.4,5.063,19.619-6.111-3.233-2.061-4.707-6.329-5.063-.465,5.588-2.839,13.291-9.493,13.291m-5.063-15.189c-6.36-1.482-2.008-1.266-10.126-1.266.276-12.394,12.482-4.133,13.923-3.8a16.636,16.636,0,0,1-3.8,5.063m130.371,2.531c0,4.277,1.994,7.234,6.329,7.6-1.572,5.89-16.523,12.031-24.049,12.657,0-4.87,2.558-15.477,3.847-19.569,1.414-4.486,3.729-5.069,8.455-8.632,1.58-1.192,2.138-1.884,3.52-2.809,2.344.625,2.977,1.9,5.7,2.531-1.07,2.022-3.8,5.612-3.8,8.227m-70.881-9.493A10.773,10.773,0,0,1,97.6,259.44c1.094-2.248,1.981-2.262,2.554-4.408,6.8,3.6,26.5,10.126,36.707,10.126-1.433,3.957-18.1,15.045-21.146,16.253-3.787,1.5-6.07-.605-9.09-3.105-3.578-2.962-10.268-8.751-10.268-13.781m176.571,6.329c.879-1.2,4.026-3.508,5.514-4.612L295.7,253.129c9.129-6.439,27.519-20.866,38.439-8.052,4.916,5.768,5.233,8.473,5.233,15.018,0,7.542-9.389,14.483-14.193,18.083l-9.413,6.408c-3.654,2.216-6.606,3.932-10.293,6.163-1.81,1.1-8.62,5.233-10.2,5.641-2.005.519-3.4-1.006-5.1-2.289-6.711-5.072-15.6-17.043-17.259-23.247m-134.8.633c10.4,0,7.189,2.387,14.557-3.164,2.3-1.73,8.737-6.977,11.391-7.6-.062-2.781-.428-1.971-.633-4.43l-9.922,5.9a24.858,24.858,0,0,1-11.6,3.593c-.262,3.145-2.167,3.262-3.8,5.7m44.934-.633c-6.8-1.584-5.81-6.074-1.75-9.978,3.656-3.516,5.726-6.161,9.978-9.008l.633,5.7c0,2.983-6.86,11.95-8.861,13.29m-160.116,0c-1.873,1.254-3.438,1.982-4.67,4.19-2.032,3.642-1,3.684-1.737,7.756-.4,2.206-5.7,6.889-2.449,13.356,2.051,4.086,2.1.3,2.586,6.283.8,9.833,8.1,7.565,10.194,8.792,2.745,1.609.193,3.494,3.67,5.823,3.62-2.652,1.3-7.033,0-9.494,5.537-3.707,9.493-8.219,9.493-15.821,7.059,0,13.108-2.563,13.29-10.759a28.406,28.406,0,0,0,3.165,1.9c-.753,3.232-4.924,10.322-6.853,12.765-4.551,5.761-9.475,4.985-9.6,10.651-3.492,0-3.051-.16-4.43,1.9a75.8,75.8,0,0,0,9.493,1.9c-.527,6.338-11.948,17.009-17.72,18.353-9.147-6.125-17.626-13.58-21.489-24.123-1.49-4.066,1.13-7.857,2.511-11.31,3.869-9.669-.25-5.335,2.3-11.6a92.188,92.188,0,0,1,5.108-10.1c3.465-6.074-1.362-4.782,4.574-10.615,1.788-1.756,6.338-5.614,8.893-6.3,0,6.514-.541,4.057-3.629,7.763-2.028,2.433-2.7,4.389-2.7,8.692m20.252-8.86c-3.436-1.818-5.485-3.165-10.759-3.165.206-9.218,6.745-9.8,11.774-6.71,1.652,1.015,2.448,1.434,4.048,2.28-.62,2.321-1.18,1.944-2.631,3.7a21.78,21.78,0,0,0-2.432,3.9m180.368,5.7c0,2.856,3.975,3.342,5.71-3.15,1.036-3.877.66-3.3,2.482-6.379l5.324-9.865c.789-1.3.227-.555,1.04-1.491,1.714,7.355,14.214,23.811,24.682,24.682-.818,3.062-3.862,3.984-6.563,7.992-1.391,2.065-1.032.685-1.032,4.032,8.619.718,7.561-4.176,14.557-8.86,1.236,2.336,2.107,4.953,3.428,7.331,1.781,3.206,3.843,6.953,6.225,9.6,1.236,1.371,1.44,1.843,2.545,3.15,1.245,1.472,4.484,4.158,6.155,4.6l-9.651,6.171c-1.606,1.591-1.108,1.035-1.108,3.955,4.453,1.181,1.584.62,6.962-.633-.789,1.177-1.141,1.357-1.877,2.554-.6.967-.9,1.716-1.5,2.928-3.2,6.47-5.758,13.929-2.317,21.1-6.826,0-7.959-.089-11.556,3.633-12.944,13.4-29.044-3-35.277-3-20.558,0-26.809,7.368-48.481-7.212a65.675,65.675,0,0,0-7.212-4.18c1.832-3.817.266-14.617-1-17.99-1.457-3.895-6.587-8.84-10.4-9.856v-1.266c12.2-2.843,26.882-29.84,28.479-31.011.215,2.582.129,2.524,1.9,3.165l.632-20.253c5.038.42,23.235,5,31.011,1.267,0,4.846-3.164,12.6-3.164,18.986m-50-5.7c1.485,0,7.28-5.848,8.766-7.056,5.509-4.477,4.127-3,8.955-6.234V230.983c-2.243,1.5-8.187,9.3-12.565,12.751-7.276,5.741-2.625,6.786-2.625,13.83-4.613-.1-4.429-2.89-4.429-7.6-1.46.978-3.387,2.717-5.064,3.165,0,2.827.419,4.869,1.82,6.407a8.276,8.276,0,0,0,5.142,2.453m59.49-17.088.189.189c-.013-.012-.252-.126-.189-.189m34.175,21.518a43.14,43.14,0,0,1-9-3.654c-5.4-3.437-17.577-16.715-17.577-20.395,0,0,24.267-46.2,34.174-46.2,8.086,0,24.05,13.965,24.05,20.252,0,8.943-27.22,47.034-31.644,50m-39.238-23.416-32.277,1.265c0-6.2,1.007-13.058,1.262-18.99a124.523,124.523,0,0,1,2.476-18.409c2.774-13.882,10.547-17.661,24.742-17.661,6.852,0,8.569,1.869,9.355,7.75.446,3.332-.692,12.457-1.074,15.721-1.186,10.131-2.348,21.153-4.484,30.324m-86.7-47.466c-4.345-.361-6.768-2.606-8.86-3.164,1.533-3.2,8.788-27.785,8.86-31.01,1.994,2.293,2.527,5.026,3.609,7.782,1.344,3.424,2.515,4.541,1.356,8.54ZM84.331,217.06a19.511,19.511,0,0,1-12.025-3.8c2.017-8.659,4.216-17.126,6.463-25.814,1.039-4.016,1.992-8.279,3.256-12.565l2.938-13.516c3.336.277,10.242,6.2,10.541,8.306l-7.453,31.488c-.708,2.352-1.188,5.1-1.814,7.678-.6,2.453-1.693,5.655-1.906,8.22m56.958,43.668c-13.527,0-31.38-5.9-40.718-10.545-12.343-6.141-12.877-12.48-19.6-24.7-.93-1.691-1.518-3.073-2.338-4.624,7.805.65,11.5,2.278,19.887-3.528,3.978-2.754,5.134-4.986,7.326-9.129,2.4,1.61,3.31,3.164,7.6,3.164a24.017,24.017,0,0,0,9.509-1.882c2.373-1.111,5.59-3.008,6.312-5.712-7,0-4.842,2.531-17.087,2.531-2.346,0-2.326-2.137-2.605-4.357-1.112-8.858.145-10.6-1.825-19.059,13.551-9.074,5.694,7.326,26.377,16.025,8.182,3.441,13.744,2.288,21.721.429a7.265,7.265,0,0,0,1.264,3.872c1.392,1.976,3.79,2.618,4.98-2.057,2.453-9.637.917-4.842,6.573-11.148a27.906,27.906,0,0,0,5.667-11.42c.557-2.539-.079-3.208,1.767-4.561a45.54,45.54,0,0,0,3.165,12.657c3.768-.313,3.785-2.878,6.153-8.4,1.53-3.567,3.056-6.65,3.973-10.583l2.532,2.531c0-9.7,1.248-12.535,3.282-20.134,3.284-12.277,14.217-18.215,19.709-5.388,4.779,11.161,5.382,36.832-8.822,40.958-5.546,1.611-4.52.559-5.009,2.684l-.067.813c-.949,3.98-5.557.941-8.839,24.357-.592,4.223.043,6.672-1.534,9.858-3.492,7.054-19.64,21.246-27.2,26.593-5.317,3.759-15.515,10.76-22.148,10.76M70.407,211.364c-5.432-1.45-6-5.055-4.513-10.205,1.185-4.1,9.885-38.429,10.209-42.323,3.2,0,3.255.43,5.7.633l-8.867,38.6c-.732,2.974-2.456,10.208-2.525,13.3m59.49-21.517c-8.983-6.016-6.065-8.569-3.566-16.225,1.617-4.955,7.909-24.177,8-28.077,1.3.955,4.212,7.663,4.947,9.669,1,2.734-.776,6.205-2.335,11.3-1.544,5.044-6.757,19.914-7.042,23.336M112.81,167.7c-6.461,0-6.148,2.735-10.126,3.8-3.779-5.642-5.449-7.226-10.84-11.31-6.641-5.032-16.1-7.2-24.4-4.311-3.018,1.05-3.493,2.256-6.53,2.964l-1.3-2.513a39.025,39.025,0,0,0,3.713-2.036c13.824-9.032,58.289-25.063,65.937-20.766-.9,2.485-12.537,6.516-15.9,22.7-1.091,5.243-.647,7.186-.551,11.474M53.319,153.773c-.537-2.307-1.377-3.1-2.274-5.32-1.258-3.122-5.953-16.543-5.953-18.729,0-6.73,41.379-20.954,46.907-22.709l18.279-5.138c1.2,2.271,2.486,4.06,3.827,6.3,2.435,4.066,10.624,16.48,11.362,19.649-12.37,1.03-27.173,5.824-38.854,9.877-7.325,2.542-22.433,9.778-28.853,14.183-1.436.985-2.089,1.692-4.441,1.888m155.054-20.885c-3.336,0-5.879-1.017-8.86-1.266,0-7.41,1.982-14.3,1.909-21.508-.064-6.418-1-7.092,4.218-4.914a89.424,89.424,0,0,1,8.429,3.639c-.077,3.43-1.717,8.927-2.6,11.951s-3.015,8.689-3.091,12.1M141.289,49.982c0-12.616,12.145-30.876,21.052-39.7a22.238,22.238,0,0,0,3.63-4.6c-4.455.1-13.994,2.08-17.861,3.024A140.434,140.434,0,0,0,104.2,27.448c-5.249,3.485-19.266,14.7-21.8,20C79.93,52.61,91.964,70.7,92.558,77.828,87.689,74.568,82.2,62.9,79.7,56.508c-2.65-6.8-4.866-19.475-4.866-28.676,0-7.04,1.338-13.509,1.9-20.252C69.962,12.116,61.016,27.647,56.6,34.908c-8.457,13.9-19.1,41.683-19.1,59.375H36.232c-1.091-4.683-.39-9.865,0-14.556-14.39-3.353-19.346-26.7-22.783-31.643-.549,6.6-3.209,15.98-2.384,22.585,1.773,14.2,1.206,17.725,5.786,31.6,2.151,6.518,8.22,20.113,13.053,23.653a8.969,8.969,0,0,1,1.831-3.938c.8-.757,2.239-1.623,3.207-.656.9.9-.214,1.769-.977,3.549-2.662,6.218.079,15.2,1.089,21.21.873,5.191,1.742,10.1,2.556,15.8,2.492,17.437,4.478,38.976,2.527,57.177-.269,2.509-.7,5.575-.74,7.487,2-1.466,7.5-10,8.869-12.648,7.855-15.21,6.872-11.381,4.279-22.018-2.022-8.3-1.535-19.03,3.18-26.216,1.034-1.577,1.833-1.994,2.025-4.3-3.227-1.549-5.732-1.678-8-4.661-4.009-5.279-9.091-20.691-9.091-26.983,0-3.7,1.244-2.445-.8-6.12-2.129-3.831-6.512-18.858-1.733-22.359.836,1.742,1.832,8.615,2.4,10.889l3.295,10c2.309-.193,5.6-2.484,7.805-3.587,14.141-7.061,41.966-18.235,56.747-18.564-1.4-5.241-10.339-12.052-10.758-17.088,5.119,1.367,15.795,18.718,19.534,24.135,3,4.353,5.619,8.611,8.347,13.17,3.913,6.537,8.544,14.035,11.734,21.174,3.924,8.783,20.965,46.3,21.14,54.172,2.006-1.469.962-.3,1.485-3.578,1.341-8.4,1.486-17.156,1.947-20.2,2.093-13.838-1.4-40.52-2.851-53.377-.792-7.037-2.321-14.111-3.583-20.466-1.166-5.876-3.959-13.424-3.959-19.457h1.266c.54,2.319,1.668,3.719,2.446,5.782.841,2.232,1.437,3.7,2.235,5.991a109.455,109.455,0,0,1,3.388,12.433c1.791,8.5,3.8,17.937,4.571,27.074.883,10.447-.451,11.124,4.239,19.81,3.546,6.566,10.806,21.043,10.967,28.271h1.266c.216-2.6,2.608-7.542,3.566-10.357,3.711-10.9,6.668-20.548,8.639-32.5,1.958-11.874,3.621-24.784,3.616-37.52l1.9-12.657a52.774,52.774,0,0,1,1.9,13.923,54.422,54.422,0,0,1,10.98,3.576c8.458,4.081,6.274,5.381,6.107,12.879,5.16-2.731,9.477-3.585,15.822-5.063-1.591-2.376-4.981-5.548-5.7-8.228a36.258,36.258,0,0,1-10.759,1.267c3.493-5.217,12.257-6.962,18.987-6.962-2.247-4.246-5.929-7.51-9.336-10.917-7.919-7.922-16.651-13.63-26.468-19.1a34.273,34.273,0,0,0-3.417-1.647c-2.052-.926-4.344-2.086-6.346-3.146-9.434,14.087-8.768,23.561-12.025,25.947-.33-3.961-.571-2.744-.064-7.009,1.075-9.044,3.867-16.717,9.717-23.208,1.569-1.74,2.15-2.8,3.783-4.444,2.061-2.084,7.487-6.149,8.082-8.374-3.464,0-6.69-1.019-10.148-1.244-16.093-1.048-32.535.056-45.545,6.94,0,4.9-.355,13.814-1.266,17.72-3.746-4.31-2.531-12.4-2.531-17.72" fill-rule="evenodd"/>
  </g>
</svg>
