<svg width="556" height="668" viewBox="0 0 556 668" fill="none" xmlns="http://www.w3.org/2000/svg">
<path d="M552.769 166.233V632.271C552.769 640.935 549.327 649.243 543.201 655.37C537.075 661.496 528.767 664.938 520.103 664.938H126.356C121.084 664.938 115.89 663.662 111.218 661.218C106.546 658.775 102.535 655.237 99.527 650.907L8.83301 520.346C5.03267 514.874 2.99598 508.372 2.996 501.71V35.667C2.99548 31.3764 3.84017 27.1278 5.48186 23.1637C7.12354 19.1997 9.53006 15.5978 12.5639 12.5639C15.5978 9.53006 19.1997 7.12355 23.1637 5.48186C27.1278 3.84018 31.3764 2.99548 35.667 2.996H429.413C434.685 2.99604 439.88 4.27222 444.552 6.71555C449.224 9.15888 453.235 12.6968 456.243 17.027L546.933 147.596C550.733 153.068 552.77 159.571 552.769 166.233Z" fill="black" stroke="black" stroke-width="6" stroke-miterlimit="10"/>
</svg>
