<svg xmlns="http://www.w3.org/2000/svg" xmlns:xlink="http://www.w3.org/1999/xlink" width="20.145" height="20.803" viewBox="0 0 20.145 20.803">
  <defs>
    <clipPath id="clip-path">
      <rect id="Rectangle_178" data-name="Rectangle 178" width="20.145" height="20.803" transform="translate(0 0)" fill="#868686"/>
    </clipPath>
  </defs>
  <g id="Group_132" data-name="Group 132" transform="translate(0 0)">
    <g id="Group_131" data-name="Group 131" transform="translate(0 0)" clip-path="url(#clip-path)">
      <path id="Path_1811" data-name="Path 1811" d="M20.145,40.71a4,4,0,0,1-.285.746,1.294,1.294,0,0,1-1.078.592c-.074,0-.149,0-.223,0q-8.511,0-17.022,0a1.384,1.384,0,0,1-1.375-.787,1.661,1.661,0,0,1-.154-.683C0,38.605,0,36.628,0,34.652c0-.04.007-.079.012-.133H2.789v4.719H17.336V34.515c.078,0,.136-.012.2-.012q1.209,0,2.417,0a1.345,1.345,0,0,1,.2.03Z" transform="translate(0 -21.248)" fill="#868686"/>
      <path id="Path_1812" data-name="Path 1812" d="M20.788,0a.425.425,0,0,1,.229.451q-.006,3.25,0,6.5v.282h1.943a2.167,2.167,0,0,1,.223.008c.343.035.422.193.212.467-1.255,1.63-2.51,3.261-3.779,4.88-.413.527-.614.509-1.043-.009q-1.95-2.353-3.9-4.708A1.555,1.555,0,0,1,14.5,7.5a1.508,1.508,0,0,1,.386-.113c.636-.012,1.273-.005,1.909-.005h.24c0-.087.01-.158.01-.229,0-2.241,0-4.482,0-6.723A.392.392,0,0,1,17.293,0Z" transform="translate(-8.932 0)" fill="#868686"/>
    </g>
  </g>
</svg>
