<svg xmlns="http://www.w3.org/2000/svg" width="73" height="72" viewBox="0 0 73 72">
  <g id="Group_157" data-name="Group 157" transform="translate(-296 -195)">
    <g id="Rectangle_6" data-name="Rectangle 6" transform="translate(296 195)" fill="#edd545" stroke="#000" stroke-width="4">
      <rect width="73" height="72" rx="36" stroke="none"/>
      <rect x="2" y="2" width="69" height="68" rx="34" fill="none"/>
    </g>
    <path id="Path_2163" data-name="Path 2163" d="M15.634,0a17.374,17.374,0,0,1,6.409,1.132,14.576,14.576,0,0,1,4.943,3.176,14.029,14.029,0,0,1,3.2,4.917,17.33,17.33,0,0,1,1.135,6.409,16.947,16.947,0,0,1-1.162,6.408,14.371,14.371,0,0,1-7.982,8.093A15.243,15.243,0,0,1,16.3,31.268a10.9,10.9,0,0,1-5.3-1.132A9.266,9.266,0,0,1,7.68,27.069v13.7H0V15.634A17.321,17.321,0,0,1,1.133,9.225,13.924,13.924,0,0,1,9.225,1.132,17.368,17.368,0,0,1,15.634,0m0,23.534a7.841,7.841,0,0,0,5.8-2.155,7.759,7.759,0,0,0,2.154-5.744,7.762,7.762,0,0,0-2.154-5.746,7.841,7.841,0,0,0-5.8-2.155A7.766,7.766,0,0,0,9.888,9.888a7.769,7.769,0,0,0-2.154,5.746,7.766,7.766,0,0,0,2.154,5.744,7.766,7.766,0,0,0,5.746,2.155" transform="translate(316.838 210.615)"/>
  </g>
</svg>
