<svg id="Group_82" data-name="Group 82" xmlns="http://www.w3.org/2000/svg" xmlns:xlink="http://www.w3.org/1999/xlink" width="348.685" height="299.364" viewBox="0 0 348.685 299.364">
  <defs>
    <clipPath id="clip-path">
      <rect id="Rectangle_105" data-name="Rectangle 105" width="348.685" height="299.364" fill="none"/>
    </clipPath>
  </defs>
  <g id="Group_81" data-name="Group 81" clip-path="url(#clip-path)">
    <path id="Path_1233" data-name="Path 1233" d="M317.76,492.721s9.622,1.2,13.7-1" transform="translate(-145.612 -151.364)" fill="#f0eeec"/>
    <path id="Path_1234" data-name="Path 1234" d="M317.76,492.721s9.622,1.2,13.7-1" transform="translate(-145.612 -151.364)" fill="none" stroke="#000" stroke-miterlimit="10" stroke-width="1.805"/>
    <path id="Path_1235" data-name="Path 1235" d="M265.684,54.608c-.992-.22-.151-.235-1.152.242-4.355,2.079-11.823,8.071-15.593,11.841-5.131,5.131-6.355,6.629-9.767,12.278l-1.818,3.573c-.391,1.028-.447.511-.217,1.46,0,1.535.145.417-.564.846h.282c-.176.924-.755,1.963-1.052,3.179-.945,3.876-.747,9.233-2.339,8.9-.945-.558-1.373-3.319-1.692-4.742-1.355-6.036-.732-10.092.983-15.955.989-3.379,5.551-15.49,7.173-17.617l-.528.221c-2.087,1.192-7.377,11.272-8.883,14.872-1.381,3.3-6.157,15.695-4.967,18.774v3.391c-1.632-.609-1.8-.474-2.462-2.056a37.476,37.476,0,0,1-2.483-9.07c-.328-1.945-.864-12.9-1.555-13.464-.229,1.6-.481,3.52-.738,5.2a90.859,90.859,0,0,0-.076,14.838c.4,3.633,2.34,11.661,3.94,14.713.619,1.182,2.681,4.869,3.658,5.387.864.352,1.093.336,1.413,1.31,2.882.147,21.877-5.594,26.816-7.572,2.257-.9,3.766.782,6.044,3.34.734.824.348.185.771,1.226.561,1.058,4.992,4.555,6.249,5.361.985.632.1.516,1.1.293l13.864,5.346a128.842,128.842,0,0,0,14.31,4.7c-1.775-1.785-3.557-3.259-5.311-5.208-4.686-5.207-10.84-13.527-12.608-20.177-1.808-6.8-.535-12.019,2.3-17.611,1.993-3.93,6.557-10.251,10.283-11.332-.088,1.188-2.411,4.552-2.782,7.176,2.136-1.07,4.815-3.652,11.1-6.344,3.637-1.557,8.939-3.813,12.985-4.488-.849-.193-.805.1-1.753-.232-.812-.285-.267.091-.844-.444-7.491,0-12.365-.316-19.629.722-6.493.927-10.994,1.577-17.157,3.758-.953.337-1.717.514-2.545.846l-7.587,3.153a73.7,73.7,0,0,0,.565,11.024c.534.629.564-.938.564,1.468-.356,2.153,1.66,5.41,2.9,8.07,1.172,2.521,1.791,1.93.914,2.613l-4.789-3.826a30.654,30.654,0,0,1-3.932-4.544c-7.69-10.829-3.256-21.651,3.744-31.233a32.927,32.927,0,0,1,3.738-4.529Z" transform="translate(-120.629 -41.851)" fill="#ffc800" fill-rule="evenodd"/>
    <path id="Path_1236" data-name="Path 1236" d="M328.4,387.376l.251-.409c1.093-2.112,3.316-7.629,4.15-8.851s1.331-1.115,2.146-2.658c-2.137.047-8.083,4.882-10.088,6.586l-16.3,14.227c-2.562,2.343-8.559,8.262-9.226,11.123,2.3-1.219,9.971-2.811,19.222-7.637,3.74-1.951-.712,1.078,5.685-1.089,16.562-5.608,35.458-9.448,53.4-7.963,4.714.391,11.466.04,16.381.011l7.912.285c6.239-.032,17.946,1.038,23.471.582,2.96-.244,3.037.121,7.694-.5,3.484-.467,2.819.526,7.837-.642-1.238-1.69-22.2-5.149-25.4-5.689a18.509,18.509,0,0,0-3.993-.528c.654-.893,5.6-2.789,6.972-3.485,5.316-2.695,11.934-5.27,17.809-8.194,1.173-.584,2.577-1.178,2.918-2.453-2.871,0-8.451,3.075-11.023,3.674.941-1.4,2.9-2.628-3.358-.532-3.68,1.232-8.863,3.568-12.215,4.743l-7.32,1.442a5.132,5.132,0,0,0-4.239,0c.487-1.825,8.477-9.892,3.957-9.892a4.218,4.218,0,0,0-2.352,1.04L386.954,379.7c-.9-.606-.2-.464-1.413-.565.067-.8,2.52-5.936-1.13-5.936-3.092,0-3.415.117-6.342,1.289-1.543.618-3.043,1.277-4.494,2.006l-6.218,3.414c-1.184.666-1.084.645-2.164.074,1.265-2.391,6.96-7.989,8.2-9.61l6.619-6.664c1.969-1.519,2.142-1.512,2.142-3.229,0-.762-.753-1.13-1.413-1.13-1.165,0-4.412,2.359-6.5,3.394l-42.278,23.01a17.361,17.361,0,0,1-1.627.918Z" transform="translate(-141 -118.224)" fill="#e25800" fill-rule="evenodd"/>
    <path id="Path_1237" data-name="Path 1237" d="M314.321,105.613c-1.8,5.821,5.3,16.416,7.524,19.607,4.32,6.206,11.679,12.537,13,14.361l.349-.051c.789,0,.6-.2.6.564.355.669,1.094.811,1.885,1.223a13.969,13.969,0,0,1,2.354,1.6c.339.754,8.9,4.683,10.52,5.313,1.058.412,10.991,3.988,12.358,3.166l-2.523-1.133A71.745,71.745,0,0,1,343.648,139.6l-3.96-3.67c-.852-.848-1.091-1.272-1.837-2.119-2.843-3.226-4.362-4.661-6.8-8.743-.433-.725-.862-1.893-1.463-2.212-.752,0-.564.188-.564-.564l.281-.048a1.843,1.843,0,0,1-.162-.225c-.038-.06-.108-.148-.151-.223l-1.461-3.382a13.251,13.251,0,0,1-1.316-3.82c1.535.763,2.738,2.894,3.975,4.265,5.978,6.63,3.326,4.878,12.06,11.961a43.029,43.029,0,0,0,22.672,9.326c-1.272-.133.042.112-.57-.614a4.8,4.8,0,0,0-1.355-.9c-2.939-1.744-6.214-4.7-8.311-5.265-1.031-.277-3.171-1.232-3.9-1.187-.927-.484-.454-.533-1.566-1.274-.5-.33-1.011-.607-1.574-.956-4.111-2.543-5.209-4.131-7.994-6.379,1.472-.449,5.861,1.571,7.392,2.175a97.027,97.027,0,0,0,24.135,5.661c-1.18-.175-.027.006-.606-.639a3.518,3.518,0,0,0-1.425-1.115,94.615,94.615,0,0,1-9.685-7.278c-2.624-2.23-5.215-4.081-7.9-6.8-1.421-1.437-4.451-4.779-5.863-5.725-1.812.422-7.992,4.2-8.763,5.653-.426,1.047-.04.4-.771,1.226-1.628,1.842-1.615,1.82-2.942,1.6-.839-4,3.915-10.344,5.748-11.816,2.247-1.8,11.664-2.362,15.225-2.455-1.739-.723.06.079-.864-.707-.591-.764-5.872-2.419-7.067-2.826-.788-.269-1.855-.588-2.6-.79-5.1-1.383-19.594-4.182-24.424-2.778-1.23.358-2.331,2.767-2.948,3.836-.847,1.472-2.369,3.615-1.965,4.819" transform="translate(-144.679 -52.438)" fill="#ffc800" fill-rule="evenodd"/>
    <path id="Path_1238" data-name="Path 1238" d="M269.824,229.258c6.092.022,15.059-6.761,18.414-9.562,2.594-2.166,5-3.8,5.162-9.092.043-1.391-.436-12.671-.685-13.287,0,.486.088.283-.564.283-1.477-.328-1.674,1.464-6.208,2.272a14.344,14.344,0,0,1-7.684-.532,17.407,17.407,0,0,1-10.637-11.408c-.466-1.567-.126-2.056-1.939-2.588a6.343,6.343,0,0,0-3.834.328c-1.79.626-1.286.921-1.6,2.925a34.689,34.689,0,0,1-1.779,6.983l-1.966,4.849c-.333.742-.131-.191-.319.753-.008.044-.02.132-.024.173-.081.972.891,1.447,1.7,1.706a18.674,18.674,0,0,0,2.649.463,20.477,20.477,0,0,0,2.738-.346l2.335-.774c.382.273.818.189-1.6,1.222-3.582,1.529-10.014.469-8.748-3.064.471-1.314,1.466-2.6,1.592-4.093-1.339.358-.951.927-3.047,2.322-6.928,4.611-10.609,1.634-13.628,1.634,1,4.279,2.338,13.868,5.152,16.893,2.156,2.317,6.122,4.29,8.979,5.718,1.7.85,3.145,1.493,4.992,2.356,1.48.692,8.945,4.4,10.553,3.864m-10.458-16.677a42.236,42.236,0,0,0,8.418-1.475,85.206,85.206,0,0,0,19.392-8.588,3.272,3.272,0,0,1,1.867-.678c-.263.985-.3.429-.482,1.214a8.492,8.492,0,0,0-.08,1.9c0,4.173-2.093,10.6-5.018,13.917-6.131,6.959-15.614,2.849-20.5-2.252a8.149,8.149,0,0,1-.771-.926c-.305-.393-.636-.72-.888-1.09-.64-.937-.315-1.174-1.142-1.684-.07-.044-.319-.147-.387-.178Z" transform="translate(-126.181 -74.617)" fill="#fedeb6" fill-rule="evenodd"/>
    <path id="Path_1239" data-name="Path 1239" d="M316.833,175.92c-1.066.434-.5-.092-1.129.848l-.283.283-.282.283c-.486,0-.283-.087-.283.564.789,0,.642.157.283-.564l.282-.283c.752.375.657.469.283-.283.662-.169.235.356,1.129-.848m-4.2,11.3c-1.3,1.1-4.846-2.7-4.848-5.087-1.322,1.043.155-.021-.859,1.421-.573.816.03.526-1.4.558-.244-1.044-.594-2.22-.774-3.184L301.31,159.5c-.228-1.762-.761-2.061-.87-3.37a109.136,109.136,0,0,0-14.711-1.963l-8.182-.3c-8.823.005-15.653-.106-24.351.8L238.262,156.7a5.569,5.569,0,0,0,.848,2.826c4.5-2.379,6.508-1.439,9.82-1.13a1.481,1.481,0,0,1,.215-.1l13.47-1.2c1.729-.107,13.6-.262,13.853-.4-.535,0-.333-.1-.333.564.775,0,.633.167.333-.564,1.19.208.432.211,1.78-.144.706-.186.943-.28,1.55-.433,10.936-2.754,22.818,10.357,18.558,23.363a18.819,18.819,0,0,1-4.2,7.67,10.754,10.754,0,0,1-1.016.963c-1.178,1.02-.871.654-.9,1.363-.72-.359-.564-.506-.564.283.651,0,.564.2.564-.283.249.615.729,11.9.685,13.287-.163,5.3-2.568,6.927-5.162,9.092-3.355,2.8-12.322,9.583-18.414,9.562.133.317-.449.577,1.687.618,3.08.059,9.922-2.388,12.485-3.4,5.835-2.314,17.366-8.835,21.791-13.821,3.139-3.536,3.358-7.191,4.044-11.783l.409-1.852a6.347,6.347,0,0,1,.283,2.261c2.721,0,3.505.026,5.311-1.473a15.85,15.85,0,0,0,1.409-1.134,13.013,13.013,0,0,0,1-1.26l1.906-2.625a3.6,3.6,0,0,0,.4-.731c.3-.768.331-.139.15-1.022.751.065.564.238.564-.515-.732,0-.564-.191-.564.515a18.04,18.04,0,0,0,.83-5.885c-.16-2.812-.869-3.124-3.375-3.674H317.4c-.752,0-.564-.188-.564.564-.029,1.13-1.937,2.575-1.981,4.523,1.675-.139.7-.848,3.392-.848-.349,1.306-.9.665-2.184,1.49-.8.513-1.573,1.106-2.337,1.619v4.239Z" transform="translate(-125.709 -66.782)" fill="#ecb482" fill-rule="evenodd"/>
    <path id="Path_1240" data-name="Path 1240" d="M327.584,133.16l.349-.051c.052.752-.15.564.6.564,0-.767.185-.564-.6-.564l-.349.051c-1.325-1.824-8.684-8.155-13-14.361-2.222-3.191-9.326-13.786-7.524-19.607l-.508.283a2.684,2.684,0,0,0-.34.283,10.353,10.353,0,0,1,1.507-4.994,39.388,39.388,0,0,1,6.9-9.77,17.7,17.7,0,0,1,1.559-1.833l2.547-2.257c.234-.211.27-.232.457-.391l4.3-3.328a62.475,62.475,0,0,1,6.344-3.831,4.289,4.289,0,0,1,2.381-1.01V71.5l-5.651-.565c.577.535.032.159.844.444.948.332.9.038,1.753.232-4.047.675-9.348,2.931-12.985,4.488-6.289,2.692-8.968,5.274-11.1,6.344.371-2.624,2.694-5.988,2.782-7.176-3.726,1.08-8.29,7.4-10.283,11.331-2.836,5.592-4.11,10.811-2.3,17.611,1.768,6.649,7.922,14.97,12.608,20.177,1.753,1.949,3.536,3.423,5.311,5.207a128.834,128.834,0,0,1-14.31-4.7l-13.864-5.346.911,1.087c2.445,1.974,11.684,6.525,14.695,8.179.528.289.828.4,1.345.633l7.958,3.629c5.831,2.225,13.033,3.146,19.747,3.146-.1-1.2.328-.6-1.994-1.963-.912-.534-1.493-.927-2.415-1.543l-9.529-6.863c-3.675-2.971-9.985-8.161-12.635-11.671-1.2-1.584-2.35-2.946-3.591-4.605a24.157,24.157,0,0,1-1.583-2.375c-.315-.529-.5-.813-.739-1.239l-.865-1.4c.418-.585.142-.376,1.816,1.858.6.8,1.046,1.326,1.617,2.057a18.082,18.082,0,0,0,1.58,2.095c.825.84,1.1,1.319,1.837,2.12a128.731,128.731,0,0,0,15.638,14.321c1.47,1.155,7.082,5.4,8.778,6.148" transform="translate(-137.413 -46.018)" fill="#e49600" fill-rule="evenodd"/>
    <path id="Path_1241" data-name="Path 1241" d="M398.542,255.572l-5.308,3.729c-8.994,5.874-10,5.883-19.673,4.3.393-1.663,1.5-3.62,2.085-5.477a48.992,48.992,0,0,0,1.272-6.225c-.055.049-.133.058-.156.16l-.525.687c-3.235,5.15-2.3,4.324-6.535,9.571-.9,1.114-2.124,2.16-2.786,3.148.571,2.449.648,2.077-.112,4.692l-1.278,2.961c-1.693,2.85-1.167.9-.913,3.127.316,2.752-1.89,4.972-1.936,7.026,8.787,0,20.19-2.541,28.792-5.406,7.127-2.374,8.1-2.451,9.16-7.8a23.8,23.8,0,0,0-2.088-14.494" transform="translate(-156.857 -91.324)" fill="#e25800" fill-rule="evenodd"/>
    <path id="Path_1242" data-name="Path 1242" d="M221.39,197.787h-.848c0,2.652-1.082,3.193-1.13,5.37,3.86,0,6.29,3.247,4.33,7.722-.513,1.172-.936,1.226-1.221,2.453.562.84.834.732,1.307,1.8a5.834,5.834,0,0,1-.81,6.327,5.74,5.74,0,0,1-3.323,2.046,3.484,3.484,0,0,0,.962,2.148c4.367,6.391-.325,5.484,11.191,5.484l8.3-1.313c1.319-.358,2.469-.631,3.755-1.05,1.412-.46,2.441-1,3.777-1.311v-.848a12.27,12.27,0,0,1-3.014-1.508c-3.073-1.554-5.948-3.483-7.449-6.682a32.369,32.369,0,0,1-1.774-7.552l-1.046-8.564a14.323,14.323,0,0,1-4.864-4.462c-1.721-2.644-.813-1.826-4.685-.848a16.552,16.552,0,0,1-3.451.788" transform="translate(-120.99 -77.346)" fill="#585858" fill-rule="evenodd"/>
    <path id="Path_1243" data-name="Path 1243" d="M209.5,162.716c.549-.421-.358-.187,1.044-.466a7.319,7.319,0,0,1,.8.068c-.515-3.074-1.834-6.989-2.594-10.15-4.179-17.375-2.457-14.179,3.4-16.184,1.8-.615,5.455-2.171,6.869-2.424,1.262-.226,1.738.146,1.222-1.368l-1.343-1.483-5.622,1.869a99.782,99.782,0,0,1-11.809,3.17c-2.331.436-4.45,1.045-6.382.118.334-1.433.565-1.36,1.672-2l7.379-3.643a100.107,100.107,0,0,1,11.016-3.964c-.04-1.78-.474-.936-.849-2.544a8.253,8.253,0,0,0-3.591.93c-3.257,1.293-6.637,2.219-9.731,3.835-4.071,2.126-4.421,1.831-8.613,4.954-1.332.993-1.535,1.424-.974,3.288.244.81.346.872.582,1.689.172.6.27,1.124.465,1.8l3.131,10.435c.37,1.044,4.286,12.625,4.317,14.054,1.794-.149,1.8-1.6,4.227-1.709.9-.042,1.936.035,2.854.025,1.373-.016,1.566-.258,2.531-.294" transform="translate(-113.902 -59.232)" fill="#8c8c8c" fill-rule="evenodd"/>
    <path id="Path_1244" data-name="Path 1244" d="M414.511,235.347c2.762.809,3.636.893,5.966,2.37,10.275,6.511,10.5,11.521,12.4,12.707,6.81.354,4.016-.233,11.39,1.094,4,.72,2.532-.361-1.5-5.579l-2.892-3.325c-4.555-4.6-8.049-8.08-13.386-11.769l-12.347-6.589c-1.861-.756-7.929-2.858-10.034-1.146-1.894,1.541-2.554,7.768-2.607,10.112,3.01-.25,4.141-.519,7.039.31Z" transform="translate(-166.579 -83.953)" fill="#8c8c8c" fill-rule="evenodd"/>
    <path id="Path_1245" data-name="Path 1245" d="M284.632,338.337c1.987-.222.017-.574,3.021-1.483,2.619-.792,7.208-2.161,8.634-4.127,2.1-2.9,4.29-10.248,5.343-11.541-.036-.081-.046-.2-.071-.256s-.089-.195-.117-.249l-.4-.461c-5.107-2.131-10.631-2.344-15.644-3.032-2.424-.333-4,.205-6.14.205-1.008,2.1-4.194,12.263-1.466,15.879a13.068,13.068,0,0,0,6.835,5.064" transform="translate(-135.337 -107.642)" fill="#fa8a00" fill-rule="evenodd"/>
    <path id="Path_1246" data-name="Path 1246" d="M214.622,165.547l.964-.164c2.192-.339,8.464-1.425,9.636-2.235.588-.407,1.4-2.49,2.45-4.051.984-1.457,2.2-2.153,3.059-3.441-.567-2.436.262-1.508-1.7-2.544,0-6.456-4.064-13.477-3.644-16.069.185-1.143.254-.192.341-1.092.127-1.3.451-.384-.37-.927.516,1.514.04,1.142-1.222,1.368-1.414.253-5.071,1.809-6.869,2.424-5.86,2.005-7.581-1.191-3.4,16.184.76,3.161,2.079,7.076,2.594,10.15a7.318,7.318,0,0,0-.8-.068c-1.4.278-.495.044-1.044.466" transform="translate(-119.025 -62.064)" fill="#585858" fill-rule="evenodd"/>
    <path id="Path_1247" data-name="Path 1247" d="M298.858,160.282c.42.325.321.142-.688,1.856-.43.73-.645,1.116-1.005,1.82l-7.3,11.923a15.3,15.3,0,0,0-1.046,1.781c-1.365,2.526-5.739,8.485-5.793,10.882,1.182.316,2.841,2.64,5.087,2.827,1.7-3.545,2.16-3.988,3.915-7.107.634-1.127,1.366-2.215,2.036-3.334l10.724-16.973c-2.318-2.667-2.637-3.042-5.381-4.184l-.536-.354a9.92,9.92,0,0,0-5.388-1.4c-.269,1.006-6.679,11.336-7.23,12.272-.924,1.572-6.9,11.638-6.9,12.6,0,.463,1.6,3.837,3.109,4.24,3.758-7.1,7.815-13.335,12.06-20.16Z" transform="translate(-135.998 -67.821)" fill="#fefefe" fill-rule="evenodd"/>
    <path id="Path_1248" data-name="Path 1248" d="M235.056,145.769l.5.517c4.564-3.068,27.7-5.3,35.041-5.5-.153-.8-3.749-4.226-4.429-5.015l-3.181-4.164c-.394-.669-.3-1.038-1.082-1.184-2.886-1.115-24.157,2.451-29.676,5.371Z" transform="translate(-124.199 -60.861)" fill="#fa8a00" fill-rule="evenodd"/>
    <path id="Path_1249" data-name="Path 1249" d="M454.936,269.688c0,.918-.271.762.5.762,0-.744.175-.495-.5-.762.31-1.2-3.4-1.548-5.073-1.858-7.639-1.418-10.48-.18-15.82,6.1l-5.927,9.336c-.843,1.658-1.277,1.724-.295,3.493,2.031,3.658,3.339,3.538,6.714,3.492,4.43-.061,9.789-2.1,13.478-4.33.536-.324.3-.077.686-.458l.523-.876c.747.373.656.475.3-.283.7.359.55.5.55-.269l-.55.269-.3.283-.431.283c3.773-2.828-3.867-12.322-4.813-13.568,2.014-1.339,8.254-1.151,10.958-1.611" transform="translate(-173.025 -95.18)" fill="#ecb482" fill-rule="evenodd"/>
    <path id="Path_1250" data-name="Path 1250" d="M236,145.632c0,1.749.283,2.3.283,4.161,1.884,0,10.341-1.675,13.237-2.025a56.126,56.126,0,0,1,6.829-.8c2.071-.064,5.328-.382,7.363-.549,4.064-.337,22.112.32,25.879.942,1.278.211,2.116.7,3.217.173-.713-.973-6.471-3.406-7.751-4.119-5.808-3.235-11.349-5.978-16.491-10.359-.318-.271-.39-.346-.757-.656l-.463-.385c-1.882-1.591-1.766-2.316-3.095-2.337-1.886-.029-1.055.089-1.4.613.781.146.689.515,1.082,1.184l3.181,4.164c.68.789,4.276,4.218,4.429,5.015-7.342.194-30.477,2.429-35.041,5.5Z" transform="translate(-125.143 -60.724)" fill="#e25800" fill-rule="evenodd"/>
    <path id="Path_1251" data-name="Path 1251" d="M380.555,249.6a49.193,49.193,0,0,1-1.273,6.225c-.584,1.857-1.692,3.814-2.085,5.477,9.669,1.585,10.678,1.576,19.672-4.3l5.308-3.729c-2.5-5.451-13.75-11.957-18.462-10.3-1.742.612-1.9.672-2.229,2.58-.2,1.146-.885,3.041-.931,4.046" transform="translate(-160.492 -89.023)" fill="#fa8a00" fill-rule="evenodd"/>
    <path id="Path_1252" data-name="Path 1252" d="M287.275,339.386c.057.036.151.015.178.1l.549.281c4.95,2.25,13.387.61,18.609-.572a36.349,36.349,0,0,0,9.766-4.082,13.708,13.708,0,0,0,4.248-4.231,6.091,6.091,0,0,0-1.532-1.577c-5.43-4.179-8.6-5.688-15.4-8.032l.4.461c.028.054.091.194.117.249s.035.175.071.256c-1.052,1.292-3.238,8.64-5.343,11.541-1.427,1.966-6.015,3.334-8.634,4.127-3,.909-1.034,1.261-3.021,1.483" transform="translate(-137.98 -108.691)" fill="#e25800" fill-rule="evenodd"/>
    <path id="Path_1253" data-name="Path 1253" d="M319.676,229.079l.1-.738c1.914-.376,5.219-1.079,6.675.172l-.693,1.413c1.318-.558.69-.286,2.154-2.339.4-.555.519-.876.885-1.376l3.029-3.755c1.586-2.029,6.718-7.775,8.6-9.206.829-.631,1.866-1.193,1.978-2.544-2.184-.509-1.756-.99-5.762-1.587-1.118-.166-2.532.03-3.479-.195-.82-.194-1.1-.722-2.912-.762,0,4.359-.732,7.551-3.346,10.784-1.211,1.5-6.128,5.967-7.958,6.456,0,1.046-.067,2.882.732,3.674m4.774,3.805c1.349-.877,5.106-6.932,6.524-8.733,2.368-3,6.777-8.37,9.684-10.665,1.253-.988,2.213-1.852,3.157-1.93,1.51,2.255-.336,3.146-2.194,5.154l-5.271,6.034c-1.262,1.844-2.127,2.6-3.438,4.758-.8,1.319-1.429,2.178-2.188,3.466a29.3,29.3,0,0,1-2.286,3.367,10.383,10.383,0,0,1-1.374,1.463c-1.106.962-1.253.711-1.6.631-.25.731.436.564-.717.564l.717-.564c-.793-1.305-.37-1.448-.6-2.532l-.418-1.012-.31.271-.392.629c.256-.7-.235-.267.392-.629Z" transform="translate(-145.908 -80.375)" fill="#585858" fill-rule="evenodd"/>
    <path id="Path_1254" data-name="Path 1254" d="M452.953,264.362c4.011.969,2.975,4.449,3.674,5.24,2.7-2.261,1.2-12.414-.107-15.737a30.238,30.238,0,0,0-2.343-4.441c-.481-.775-.78-1.072-1.284-1.826a81.641,81.641,0,0,0-8.541-10.676l-2.142-2.1c-3.578-3.139-5.132-4.573-8.963-7.429-5-3.727-13.905-9.922-20.147-9.839-1.466.019-4.43.6-4.8,2,3.116,0,6.378,1.364,8.721,2.3,2.473.988,2.578,1.3,3.833,1.819,4.855,2,13.073,8.125,16.622,11.642L440.446,238c.525.526.921.874,1.418,1.41.6.647.666.915,1.265,1.562a46.164,46.164,0,0,1,5.134,6.17c4.688,7.1,3.5,5.172,4.819,12.139.431,2.275-.129,3.294-.129,5.08" transform="translate(-168.278 -82.726)" fill="#8c8c8c" fill-rule="evenodd"/>
    <path id="Path_1255" data-name="Path 1255" d="M338.549,271.874c.5.766.069.2.641.712l.338.27c3.148,2.538,1.614,2.938,2.412,6.365,7.041,0,5.088,4.573,5.088,6.784,2.986,0,3.51,1.824,5.37,1.978.265-1.137,3.469-6.255,3.851-8.02,1.471-6.806-5.3-16.338-10.249-20.613l-2.819-2.174c.054.06.13.132.169.173l1.121,1.293c.9.783.484.132,1.414.822.7.521,1.545,1.579,2.208,2.19-.662,2.639-4.041,6.224-6.548,8.128-1.566,1.189-.97,1.66-1.866,2.748a4.472,4.472,0,0,1-1.13-.657" transform="translate(-150.817 -92.645)" fill="#585858" fill-rule="evenodd"/>
    <path id="Path_1256" data-name="Path 1256" d="M333.735,270.639a4.475,4.475,0,0,0,1.13.657c.9-1.089.3-1.559,1.866-2.748,2.508-1.9,5.886-5.49,6.548-8.128-.663-.612-1.508-1.669-2.208-2.19-.93-.69-.519-.039-1.414-.822l-1.121-1.293c-.039-.041-.115-.113-.169-.173a15.366,15.366,0,0,0-4.336-3.123c-2.657-1.348-3.924-.013-5.988.822-2.813,1.138-4.465,2.79-6.9,4.684-2.02,1.567-1.723.993-1.818,2.139,4.2,0,8.309,1.538,9.784,5.2,1,2.482.444,1.763.391,4.13.619.145,1.451.23,2.124.424,1.589.458.883.725,2.115.425" transform="translate(-146.003 -91.41)" fill="#8c8c8c" fill-rule="evenodd"/>
    <path id="Path_1257" data-name="Path 1257" d="M281.623,378.77c.043.075.108.1.13.225l.462.828c2.023,3.894,2.049,8.751.937,13.09l-1.246,4.406c.947.455,8.169,2.8,9.326,2.826-1.662-7.137,2.262-20.65,2.262-25.436a38.046,38.046,0,0,0-9.793-4.9,16.846,16.846,0,0,0-4.326-1.031c.066.059.158.121.213.161l.6.428c1.7,1.142,3.828,2.095,4.186,3.707.262,1.181.469,5.747-2.069,6.835-.138-1.281.078-.579-.685-1.134" transform="translate(-136.002 -120.584)" fill="#585858" fill-rule="evenodd"/>
    <path id="Path_1258" data-name="Path 1258" d="M365.469,166.783c-1.366.822-11.3-2.754-12.357-3.166-1.622-.63-10.182-4.559-10.519-5.313l-.5.229c-4.388,1.977-16.218-.512-17.869-.512.305,1.143.738,1.1,1.606,1.786,5.708,4.523,10.237,6.1,17.226,8.211a76.516,76.516,0,0,0,12.538,1.876c4.93.277,10.94-1.369,13-1.415v-.848a20.777,20.777,0,0,1-3.127-.848" transform="translate(-147.23 -67.821)" fill="#e49600" fill-rule="evenodd"/>
    <path id="Path_1259" data-name="Path 1259" d="M276.365,87.276c0-2.4-.03-.839-.564-1.468,0,2.136-.072.921.564,1.468l-.338.773c-.694-.532-.522-.746-.919-1.831a11.725,11.725,0,0,1-.648-2.178,42.18,42.18,0,0,1,.337-15.631,53.825,53.825,0,0,1,2.792-8.513l4.149-7.439a4.323,4.323,0,0,0-3.006,1l-.668.693.873-.322a32.884,32.884,0,0,0-3.738,4.529c-7,9.581-11.434,20.4-3.744,31.233a30.7,30.7,0,0,0,3.933,4.544l4.789,3.826c.877-.684.258-.093-.914-2.613-1.235-2.66-3.251-5.918-2.9-8.071" transform="translate(-133.007 -41.393)" fill="#e49600" fill-rule="evenodd"/>
    <path id="Path_1260" data-name="Path 1260" d="M436.452,254.73c-1.9-1.185-2.129-6.2-12.4-12.707-2.331-1.478-3.2-1.562-5.966-2.37.621.756,4.694,2.652,7,5,3.316,3.376,4.538,8.785,1.367,10.865-1.221.8-1.426.379-3,.379-.5.936-.816,1.96-1.355,2.885-1.6,2.74-3.4,5.769-6.276,7.29,0,2.822-.347,2.585.747,6.32.6,2.067.926,4.169,2.927,4.7,1.409-6.05,9.075-18.546,15.258-21.483.287-.136.42-.184.771-.358Z" transform="translate(-170.149 -88.258)" fill="#585858" fill-rule="evenodd"/>
    <path id="Path_1261" data-name="Path 1261" d="M252.494,159.338c.756.316,1.287.525,2.027.873a9.074,9.074,0,0,1,1.889,1.218c5.563,3.849,5.9,8.808,7.178,11.476,2.832-.66,2.017-1.544,6.218-.565l1.373-4.562c2.474-6.861,8.158-9.1,8.52-9.57,0-.666-.2-.564.333-.564-.248.133-12.124.289-13.853.4l-13.47,1.2a1.444,1.444,0,0,0-.215.1" transform="translate(-129.272 -67.726)" fill="#fedeb6" fill-rule="evenodd"/>
    <path id="Path_1262" data-name="Path 1262" d="M365.029,239.062l-.067.412c-1.262-.043-.555-.2-.779.54,1.415-.132.391.094.779-.54l.067-.412c.214-1.548,4.846-1.12,5.059-.972a10.275,10.275,0,0,1,1.47,4.731c-.261,2.418-8.8,8.361-9.637,8.22,0-.486.087-.283-.564-.283,0,.789-.157.642.564.283-.03.762-.184.489.536,1.724l1.63,2.893c.393.87.256,1.094.945,1.6,2.094-.56,8.525-11.012,9.334-13.277,1.954-5.475-2.511-13.536-5.942-15.834a9.949,9.949,0,0,0-3.312,2.058c-2.266,1.687-7.119,6.427-7.71,8.964,1.6,0,3.649-1.093,6.607-.381Z" transform="translate(-155.536 -85.377)" fill="#ecb482" fill-rule="evenodd"/>
    <path id="Path_1263" data-name="Path 1263" d="M232.607,186.851c0,.813,2.1,3.2,2.874,3.909.7.639.416.585,1.648.612.118-1.422,1-2.364,1.6-3.484L242.4,181.1c.609-1.2,1.248-2.26,1.95-3.42l5.829-9.715a21.149,21.149,0,0,0,1.925-3.445c0-1.16-3.941-3.11-5.37-3.11-.506,0-3.224,5.478-3.66,6.233-1.622,2.814-10.472,18.089-10.472,19.2" transform="translate(-124.294 -68.671)" fill="#fefefe" fill-rule="evenodd"/>
    <path id="Path_1264" data-name="Path 1264" d="M333.37,128.257c.327-.717-.22-.751.639.2l9.039,11.086c1.687,1.667,7.718,7.782,10.03,8.34a29.68,29.68,0,0,0,10.236.193l5.95-1.4c-.141-1.618-.239-.78-.846-1.13.612.726-.7.481.57.614a43.027,43.027,0,0,1-22.672-9.326c-8.733-7.082-6.083-5.331-12.061-11.961-1.237-1.372-2.439-3.5-3.974-4.265a13.248,13.248,0,0,0,1.315,3.82l1.463,3.382c.043.074.113.163.15.223a1.91,1.91,0,0,0,.161.225m.283.612c-.752,0-.564.188-.564-.564.753,0,.564-.188.564.564" transform="translate(-148.747 -58.455)" fill="#e49600" fill-rule="evenodd"/>
    <path id="Path_1265" data-name="Path 1265" d="M241.219,85.62c-1.219-.511-.167.256-.376-.545-.481-1.849,3.268-8.213,3.377-8.627.305-1.151-.265-2.981-.386-3.9-.74-5.6,2.163-13.972,2.19-15.192-.884.073-.884.085-1.352.612l-.909,1.636.529-.222C242.67,61.51,238.108,73.621,237.12,77c-1.715,5.864-2.338,9.92-.984,15.955.319,1.423.747,4.185,1.693,4.742,1.591.336,1.393-5.022,2.339-8.9.3-1.216.876-2.254,1.051-3.179m-.281,0c0-1.355-.171-.623.564-.846,0,1.535.145.417-.564.846" transform="translate(-124.993 -42.62)" fill="#e49600" fill-rule="evenodd"/>
    <path id="Path_1266" data-name="Path 1266" d="M239.393,194.013c.953.222,2.522,1.164,4.8,1.7a14.719,14.719,0,0,1,1.886-3.767l10.778-18.615c1.205-1.885,1.593-1.76.328-3.891-.692-1.166-1.34-2.725-2.817-3.12a11.871,11.871,0,0,0-1.859,3.229l-12.4,22.36a2.783,2.783,0,0,0-.717,2.109" transform="translate(-125.992 -69.898)" fill="#fefefe" fill-rule="evenodd"/>
    <path id="Path_1267" data-name="Path 1267" d="M246.828,392.048h.285c-.008-3.875,1.289-4.452-5.273-8.578l-6.71-3.754c-.361-.2-.679-.409-1.035-.61l-1.4-.908c-3.053,0-4.219-.042-6.412.937-1.418.633-4.185,1.708-4.611,3.3l6.264,2.5c3.243,1.5,6.565,2.534,9.275,3.726,1.181.518,1.864.759,3.265,1.257,1.466.52,5.063,2.443,6.349,2.13" transform="translate(-121.556 -122.943)" fill="#fedeb6" fill-rule="evenodd"/>
    <path id="Path_1268" data-name="Path 1268" d="M253.72,404.611c.385.591.329.654,1.725,1.088l6.272,2.2c2.965,1.175,9.538,2.965,12.635,4.04,1.4.487,2.838.805,4.4,1.253,2.779.8,7.411,2.583,7.754-1.535-.913-1.363-1.441-1.38-3.065-2.023l-8.125-2.615c-.794-.23-1.265-.469-1.852-.692-3.78-1.436-9.4-3.089-13.809-4.845-1.295-.516-2.561-.834-3.984-1.413.794,1.009.605,1.447-.341,2.75-1.465,2.02-.271,2.445-1.61,1.795" transform="translate(-129.579 -128.418)" fill="#585858" fill-rule="evenodd"/>
    <path id="Path_1269" data-name="Path 1269" d="M244.513,400.741c1.339.651.145.225,1.61-1.795.946-1.3,1.135-1.741.341-2.75l-24.081-10.09c-1.3-.6-1.915-1.358-3.589-1.5-.03.008-4.63,2.559.783,5.717l20.518,9.158a14.886,14.886,0,0,1,2.06.768c.978.463,1.286.814,2.358.49" transform="translate(-120.372 -124.548)" fill="#8c8c8c" fill-rule="evenodd"/>
    <path id="Path_1270" data-name="Path 1270" d="M330.916,186.816c0,2.385,3.549,6.191,4.848,5.087.311-1.131-.139-.846.06-2.424l1.4-4.837c.979-2.007.99-1.026.759-2.066,0-.651-.2-.564.283-.564l.283-.283.283-.283c.63-.941.063-.414,1.129-.849v.282c0-.752-.188-.564.564-.564h.283c2.507.551,3.216.862,3.376,3.675a18.055,18.055,0,0,1-.83,5.885c0-.706-.169-.515.563-.515,1.058-.818,4.385-10.176,1.308-14.31-4.914-6.6-10.912,1.422-13.172,6.966-.276.676-.573,1.7-.789,2.323-.743,2.132-.768,1.351-.349,2.475" transform="translate(-148.837 -71.462)" fill="#fedeb6" fill-rule="evenodd"/>
    <path id="Path_1271" data-name="Path 1271" d="M462.762,285.234c-.7-.791.337-4.271-3.674-5.24-.789,1.492-.711,2.15-1.693,3.529-2.14,3.005-3.791,4.137-6.543,6.176a30.717,30.717,0,0,1-4.946,2.685c-3.8,1.8-8.477,2.442-13.1,2.442.626,2.343,4.4,3.773,7.8,3.277.789-.115,1.742-.166,2.481-.346.8-.2,1.358-.351,2.271-.555,5.534-1.24,15.045-6.292,17.408-11.967" transform="translate(-174.413 -98.358)" fill="#585858" fill-rule="evenodd"/>
    <path id="Path_1272" data-name="Path 1272" d="M317.436,303.076c.295,1.1,1.782,1.322,4.241,2.541a39.952,39.952,0,0,1,8.155,5.412,15.851,15.851,0,0,1,1.81,1.582c1.31,1.339.673,1.119,1.9,1.771a34.392,34.392,0,0,0,1.828-5.238c3.34-9.929,1.711-6.35-.7-6.35-2.443,0-4.774-2.506-5.935-4.239-1.305.029-.948.283-1.978.283s-1.353-.466-2.544-.566c-.574,2.468-4.215,4.207-6.783,4.805" transform="translate(-145.531 -102.933)" fill="#e25800" fill-rule="evenodd"/>
    <path id="Path_1273" data-name="Path 1273" d="M266.254,259.246v-.579a31.04,31.04,0,0,0,7.261-3.185c1.682-1.044,1.352-1.085,3.664-.694,1.7.288,2.924.163,3.56,1.556,1.215,2.659,5.2,12.185,5.652,14.773.184,1.271,1.9,1.7.7,4.163a10.256,10.256,0,0,1-1.139,1.692c-.69.79-1.052.726-1.332,1.776a8.356,8.356,0,0,0,1.38.6c3.864,1.422,3.523,1.741,8.261,2.767,2.5.541,3.553,1.422.727-3.276l-2.154-4.346c-.55-1.28-.073-.4-1-1.257-3.371-3.086-7.878-12.657-8.955-17.33-.467-2.024-.28-1.564-2.316-2.206-1.855-.585-5.131-1.8-7.245-1.8-2.409,4.553-6.866,4.867-7.913,5.37.048.2.186.9.2.925.355.975-.06.492.651,1.053m17.524-4.212c-.491.153-.358-.286-.295.538-.668-.519-.553.758-.553-.848,1.508,0,.426-.04.848.31" transform="translate(-132.505 -91.324)" fill="#585858" fill-rule="evenodd"/>
    <path id="Path_1274" data-name="Path 1274" d="M357.74,228.856c-1.861.931-3.629,3.356-4.654,5.147-.858-.41-5.5-4.151-5.742-5.373-.34-1.7,1.24-7.35,2.122-8.4-1.774.557-2.9,1.753-4.163,3.391-3.555,4.616-5.645,5.912-4.085,14.826a18.876,18.876,0,0,1,.694,3.263,6.991,6.991,0,0,0,2.493-.9c2.5-1.054,4.28.454,6.685-4.056a10.135,10.135,0,0,1,1.361-2.029l4.3-4.731a4.985,4.985,0,0,0,.427-.442Z" transform="translate(-151.354 -83.395)" fill="#e25800" fill-rule="evenodd"/>
    <path id="Path_1275" data-name="Path 1275" d="M351.671,220.16c-.882,1.051-2.462,6.7-2.122,8.4.244,1.223,4.885,4.963,5.742,5.373,1.026-1.791,2.793-4.216,4.655-5.147l1.452-.952c1.111-.9,3.5-2.815,4.766-3.153v-.848a23.558,23.558,0,0,1-3.206-1.316,33.356,33.356,0,0,0-3.469-1.335c-2.454-.816-4.93-1.617-7.817-1.023" transform="translate(-153.558 -83.326)" fill="#fa8a00" fill-rule="evenodd"/>
    <path id="Path_1276" data-name="Path 1276" d="M363.9,242.327l-.067.412c-.388.634.636.409-.779.54-3.522-1.361-9.054,2.284-10.175,2.544.355,1.331.387.542,1.913,2.045a31.2,31.2,0,0,1,4.645,5.268c.3.412.337.645.791.886.651,0,.564-.2.564.283.834.141,9.377-5.8,9.637-8.22a10.275,10.275,0,0,0-1.47-4.731c-.212-.148-4.844-.576-5.059.972" transform="translate(-154.403 -88.642)" fill="#fedeb6" fill-rule="evenodd"/>
    <path id="Path_1277" data-name="Path 1277" d="M264.267,383.281c.074.043.184.026.225.129l.444.2c.917.242,5.976-1.639,6.68-1.986-.481-2.213-3.343-3.708-5.139-4.8a50.854,50.854,0,0,0-4.846-2.5,13.573,13.573,0,0,0-1.639-.9c-2.662-1.129-4.534-2.021-7.868-2.024-3.592,0-6.22.316-9.336.575v.565c4.4.367,17.128,5.68,20.52,9.738.5.594.157.578.96,1" transform="translate(-126.842 -121.241)" fill="#8c8c8c" fill-rule="evenodd"/>
    <path id="Path_1278" data-name="Path 1278" d="M309.518,242.092a22.175,22.175,0,0,1,.675,2.735c.323,1.074.736,1.814.457,2.919a17.375,17.375,0,0,0,2.825-1.413c.051.044.133.041.155.127s.124.1.154.127l1.274,1.27c2.149,3.115-.316,2.164.735,4.316.492,1.006.786.843,1.071,2.074,1.3-.109.254.145,2.7-1.539.587-.4.71-.612,1.256-1.006,1.91-1.379,6.092-4.454,8.277-4.756,2.257-.312,4.241,2.331,3.094-1.506a38.226,38.226,0,0,1-.913-7.868h-.848c-.439,1.891-4.278,7.47-7.7,8.413-5.032,1.39-9.8-1.839-10.11-5.587a2.706,2.706,0,0,0-1.729.516Z" transform="translate(-143.549 -87.737)" fill="#585858" fill-rule="evenodd"/>
    <path id="Path_1279" data-name="Path 1279" d="M422.624,282.676c0,1.52.963,1.045,2.544,1.413.549-1.143,1.2-4.661,3.592-7.995l2.945-4.122c4.337-5.487,7.31-7.385,13.811-7.385a26.929,26.929,0,0,1,4.361.727,33.9,33.9,0,0,0,4.4.969c-.769-3.3-1.193-2.936-6.739-3.718a28.79,28.79,0,0,0-3.154-.521c-6.721-.282-8.742-.478-14.3,6.619-2.475,3.162-7.466,9.922-7.466,14.013" transform="translate(-171.865 -93.838)" fill="#585858" fill-rule="evenodd"/>
    <path id="Path_1280" data-name="Path 1280" d="M313.98,277.931c.695.291.562-.432.565.479.2-.027,7.86-3.944,7.721-8.393a9.457,9.457,0,0,0-.909-4.064l-.31-.46c-.9-.4-5.2-1.37-6.31-.957,0,0-5.808,4.3-5.447,6.2.265,1.4,3.717,6.677,4.689,7.193" transform="translate(-143.488 -94.463)" fill="#fedeb6" fill-rule="evenodd"/>
    <path id="Path_1281" data-name="Path 1281" d="M281.976,243.953a18.737,18.737,0,0,1-3.674-.283,13.716,13.716,0,0,0-.527,1.783c-.254.787-.741.935.088,1.451.025.016,3.3.693,3.734.82l7.163,2.163c1.812-2.706,10.143-9.018,13.566-10.74,1.87-.941,1.979-.681,1.979-2.543,0-2.151-5,1.666-10.131,3.717-2.132.852-9.782,3.631-12.2,3.631" transform="translate(-135.508 -87.336)" fill="#ecb482" fill-rule="evenodd"/>
    <path id="Path_1282" data-name="Path 1282" d="M223.99,249.907a13.168,13.168,0,0,0,3.891.283c-.148-1.774-2.306-2.807-3.957-9.892-4.615,0-6.234.426-7.454-2.156l-3-6.892-7.017-2.592c-3.077-1.475-3.61-2.358-5.8-3.636l-.472-.269,12.3,12.29c3.75,3.978,8.149,8.1,11.506,12.864m-1.478-.564c1.163.184.469-.186,1.04.564-1.875,0-.52.121-1.04-.564" transform="translate(-116.177 -84.528)" fill="#ecb482" fill-rule="evenodd"/>
    <path id="Path_1283" data-name="Path 1283" d="M193.4,204.3c0,4.574.485,5.81,3.888,9.678,1.957,2.223,7.826,6.868,10.808,7.562a15.937,15.937,0,0,1-.283-1.978c-4.235-.094-4.239-4.265-4.239-6.784-6.349-.141-3.957-9.658-3.957-10.174a7.741,7.741,0,0,1-3.957-6.5c-1.2.322-1.009.9-1.532,3.556a22.075,22.075,0,0,0-.729,4.641" transform="translate(-114.477 -77.354)" fill="#8c8c8c" fill-rule="evenodd"/>
    <path id="Path_1284" data-name="Path 1284" d="M301.967,316.731c1.752.569.406.14.964,0l.772-3.855-.6-.667c-4.686-2.085-13.087-2.863-18.541-1.865a9.93,9.93,0,0,1-2.658.452c-.707,3.034-2.793,4.362-.021,4,10.928-1.421,18.329,2.363,20.087,1.935" transform="translate(-136.279 -105.848)" fill="#fefefe" fill-rule="evenodd"/>
    <path id="Path_1285" data-name="Path 1285" d="M286.9,299.775c2.377-.053,4.1-.565,8.761-.565,3.529,0,7.655.848,9.044.848-.209-2.517-1.3-4.577-1.413-5.936-5.287,0-10.583-3.356-12.153-3.391-.425,1.825-4.184,6.544-4.239,9.044" transform="translate(-137.886 -101.046)" fill="#fa8a00" fill-rule="evenodd"/>
    <path id="Path_1286" data-name="Path 1286" d="M359.336,141.173l-.244-.553c-.089-.518,0-.061-.038-.576a41.746,41.746,0,0,0,5.241,1.259c5.686,1.46,12.844,1,18.5,1-.376-1.407-2.415-1.974-3.672-2.544.579.645-.573.464.606.639a97.026,97.026,0,0,1-24.135-5.661c-1.53-.6-5.92-2.624-7.391-2.175,2.785,2.247,3.883,3.836,7.994,6.379.564.349,1.079.626,1.574.956,1.112.741.639.791,1.566,1.274" transform="translate(-153.233 -61.432)" fill="#e49600" fill-rule="evenodd"/>
    <path id="Path_1287" data-name="Path 1287" d="M454.806,285.381l.3-.283.55-.269c.522.017.777-.039,1.535-.731a16.687,16.687,0,0,0,3.558-4.365c1.543-2.943,1.469-7.422.277-8.487-.774,0-.5.157-.5-.761-2.7.46-8.945.272-10.958,1.61.946,1.247,8.586,10.739,4.813,13.568Z" transform="translate(-178.609 -95.977)" fill="#fedeb6" fill-rule="evenodd"/>
    <path id="Path_1288" data-name="Path 1288" d="M235.057,248.627c4.2-.346,14.306-.99,15.606,2.556-.485,0-.4-.14-.4.279l.4-.279a7.374,7.374,0,0,0,1.917-1.134c-.537-2.3-.917-2.007-1.723-6.19-.908-4.706,1.1-2.358-10.353-.233a41.391,41.391,0,0,1-7.143.771,7.17,7.17,0,0,0,1.7,4.231" transform="translate(-124.482 -88.626)" fill="#e25800" fill-rule="evenodd"/>
    <path id="Path_1289" data-name="Path 1289" d="M222.442,249.343c1.163.184.469-.186,1.04.564h.438c-3.358-4.769-7.756-8.886-11.506-12.864l-12.3-12.29c-1.174.68,2.986,6.467,3.616,7.406a53.916,53.916,0,0,0,5.212,6.942c1.271,1.27,2.845,3.325,4.256,4.505a18.391,18.391,0,0,1,1.682,1.427c1.193,1.187,5.7,4.933,7.562,4.31" transform="translate(-116.107 -84.528)" fill="#fedeb6" fill-rule="evenodd"/>
    <path id="Path_1290" data-name="Path 1290" d="M266.471,260.136c-.4,1.068-.141,1.376.284,2.261,1.433-.032,9.475-1.968,9.921-2,2.281-.148,2.148,1.418,3.158,2.767,2.213,2.959.607,2.528.205,4.035,1.24.831,5.346,4.514,6.571,4.805-.45-2.588-4.436-12.114-5.652-14.773-.636-1.394-1.855-1.268-3.56-1.556-2.313-.391-1.982-.35-3.664.693a30.994,30.994,0,0,1-7.261,3.186Z" transform="translate(-132.722 -92.213)" fill="#8c8c8c" fill-rule="evenodd"/>
    <path id="Path_1291" data-name="Path 1291" d="M311.781,309.865c1.069,1.443-1.1-.3,1.116.881a9.626,9.626,0,0,0,1.393.566l7.4,3.9,6.281,4.742c1.013,1.028.671,1.651,2.179,1.777.726-3.115,4.113-3.1-4.76-9.654l-5.454-3.307c-2.041-.87-3.444-1.975-6.215-2.583l-1.352,3.773Z" transform="translate(-144.115 -104.916)" fill="#b8b8b8" fill-rule="evenodd"/>
    <path id="Path_1292" data-name="Path 1292" d="M271.44,386.7l.673,1.327a10.069,10.069,0,0,1,.591,4.436,31.359,31.359,0,0,1-.43,3.266,13.475,13.475,0,0,0-.834,2.84c1.993.464,4.43,1.978,6.783,1.978.032-1.446,3.365-9.255,1.106-14.674l-.54-.828c-.7.347-5.763,2.228-6.68,1.986l-.444-.2c-.041-.1-.151-.085-.225-.129" transform="translate(-134.016 -124.657)" fill="#585858" fill-rule="evenodd"/>
    <path id="Path_1293" data-name="Path 1293" d="M263.5,126.63c-.424-1.041-.038-.4-.771-1.226-2.278-2.558-3.786-4.245-6.044-3.34-4.938,1.979-23.934,7.72-26.816,7.572-.32-.973-.549-.957-1.413-1.309l1.178,1.38c2.04,2.394,1.952,1.915,5.478,1.035,2.828-.706,5.251-1.346,8.249-1.925,4.484-.868,14.039-2.187,18.162-2.187-.411-1.763-1.246-1.5-2.544-3.957.071.018.177-.013.207.076.216.636-.268-.606,1.147.831Z" transform="translate(-123.255 -58.757)" fill="#e49600" fill-rule="evenodd"/>
    <path id="Path_1294" data-name="Path 1294" d="M309.142,317.5c.759.962.266.343,2.466,1.209l11.555,5.966a8.164,8.164,0,0,1,1.881,1.511c.76.784.972,1.386,2.187,1.487a4.12,4.12,0,0,1,.641-1.337c.032-.059.251-.454.306-.542a2.282,2.282,0,0,1,.466-.665c-2.79-4.167-8.172-7.613-12.719-9.892a31.073,31.073,0,0,0-5.651-2.261l.6.667-.772,3.855c-.558.142.788.57-.964,0" transform="translate(-143.454 -106.615)" fill="#b8b8b8" fill-rule="evenodd"/>
    <path id="Path_1295" data-name="Path 1295" d="M304.608,309.109l.591.1,1.352-3.773a21.149,21.149,0,0,0-2.079-.711,67.065,67.065,0,0,0-13.43-1.55c-2.4,0-3.8.283-5.935.283-.4,1.7-1.5,2.771-1.978,4.8a15.583,15.583,0,0,0,2.663-.446c6.165-1.125,5.563-.888,11.2-.133,1,.134,1.651.206,2.7.414,1.52.3,3.71,1.421,4.922,1.014" transform="translate(-136.942 -104.16)" fill="#fefefe" fill-rule="evenodd"/>
    <path id="Path_1296" data-name="Path 1296" d="M299.525,262.723c.055.075.184.055.22.173.328,1.07-.253-.471.5.347.287-1.57.474-1.187.975-2.157l-.187-1.776c-.587-1.734-2.375-1.817-2.64-5.007.993-1.143,1.921-1.145,4.333-2.451,1.057-.572,3.707-1.807,4.147-2.637.28-1.1-.133-1.845-.456-2.919a22.307,22.307,0,0,0-.676-2.735c-.859-.191-.423-.228-1.476.488l-4.461,3.186c-.56.437-.82.727-1.371,1.172l-4,3.635,2.264,5.649a25.115,25.115,0,0,0,2.823,5.031" transform="translate(-139.773 -89.207)" fill="#8c8c8c" fill-rule="evenodd"/>
    <path id="Path_1297" data-name="Path 1297" d="M410.559,246.4c.7.838,5.891,2.679,9.965,6.361.506.457.87.714,1.412,1.131,3.979,3.058,4.348-3.511,1.34-6.993a6.476,6.476,0,0,0-.706-.707c-.422-.416-.364-.4-.695-.718l-3.278-2.37a3.323,3.323,0,0,0-.885-.51l-1.217-.5c.374.538-.213.692.407.409a6.777,6.777,0,0,0-3.786,1.578c-3.032,2.054-.965,2.1-2.558,2.319" transform="translate(-168.844 -88.87)" fill="#585858" fill-rule="evenodd"/>
    <path id="Path_1298" data-name="Path 1298" d="M359.7,105.616c.924.787-.875-.016.864.707-3.561.093-12.979.652-15.225,2.455-1.834,1.472-6.587,7.811-5.748,11.816,1.328.221,1.314.243,2.942-1.6.731-.826.346-.179.771-1.226l-2.032,1.924c-.043.038-.1.1-.148.134l-.721.409a1.341,1.341,0,0,1-.206.076c1.582-2.991,3.55-4.609,6.44-6.561,3.782-2.554,11.56-5.774,16.17-6.158v-.848l-2.8-1.047c-.09-.026-.2-.058-.305-.084" transform="translate(-151.053 -54.702)" fill="#e49600" fill-rule="evenodd"/>
    <path id="Path_1299" data-name="Path 1299" d="M310.29,295.152c.724.315.364-.208.586.281.889-2.351,2.793-3.374,1.433-8.515a58.363,58.363,0,0,0-3.148-7.877c.049-.812.193.24-.071-.551l-2.191-3.971a10.617,10.617,0,0,0-3.287,4.37c-.444,1.812,2.671,6.18,4.156,9.174a25.709,25.709,0,0,1,2.523,7.089" transform="translate(-142.059 -96.987)" fill="#fedeb6" fill-rule="evenodd"/>
    <path id="Path_1300" data-name="Path 1300" d="M278.6,378.392c.763.555.547-.147.685,1.134,2.538-1.088,2.331-5.654,2.069-6.835-.358-1.612-2.488-2.565-4.186-3.707l-.6-.428c-.055-.04-.147-.1-.213-.161-1.844-.256-3.88-.981-5.666-1.13a5.317,5.317,0,0,1-3.391,3.392v.848a12.657,12.657,0,0,1,3.166,1.356c1.684,1.034,4,2.13,5.682,3.361a29.6,29.6,0,0,1,2.457,2.169" transform="translate(-132.977 -120.206)" fill="#8c8c8c" fill-rule="evenodd"/>
    <path id="Path_1301" data-name="Path 1301" d="M284.217,366.232c.5-1.37,3.052-3.9,1.9-5.652a25.737,25.737,0,0,0-3.787-1.012c-1.854-.331-7.074-1.133-8.574-.906-6.023.914-2.7,4.161-1.627,4.607a25.519,25.519,0,0,0,4.1.988c2.97.488,7.176,1.915,7.992,1.975" transform="translate(-133.715 -118.042)" fill="#8c8c8c" fill-rule="evenodd"/>
    <path id="Path_1302" data-name="Path 1302" d="M255.782,385.241c.921.4.558-.232.848.76.782-.177.7-.361,1.795-.665,1.019-.283,1.123-.063,1.847-.662-.332-1.577-3.849-3.69-5.325-4.534a40.912,40.912,0,0,0-6.709-3.465c-3.466-1.471-10.838-4.087-14.458-2.7-.814.313-1.083.3-1.172,1.37a17.988,17.988,0,0,1,7.188,1.008,55.088,55.088,0,0,1,11.3,5.376Z" transform="translate(-124.294 -121.788)" fill="#8c8c8c" fill-rule="evenodd"/>
    <path id="Path_1303" data-name="Path 1303" d="M324.618,164.529c.257-.777.1-.236.9.76a3.612,3.612,0,0,1,.943,1.634c.753,2.346,1.882,5.8,1.343,8.137-.225.975-.295,3.152-.927,3.637.023,1.43.283,1.706.283,3.355h.848a21.606,21.606,0,0,1,5.58-10.812,14.688,14.688,0,0,1,1.442-1.385c.435-.334.4-.2.839-.573.468-.4.38-.14.617-.8-3.687-1.769-3.612-1.45-8-3.867-2.433-1.34-6.04-5.554-4.607-1.382.494,1.438-.19.558.739,1.292" transform="translate(-147.062 -68.677)" fill="#e49600" fill-rule="evenodd"/>
    <path id="Path_1304" data-name="Path 1304" d="M329.212,277.484c0,.755.19.567-.564.567-1.07.569-.369.805-2.419,2.387-.511.4-.583.508-1.088.889a18.674,18.674,0,0,1-4.688,2.661c.139,1.666,3.052,4.8,4.446,6.032.807.712.234.453.924.47.651,0,.564-.2.564.283l4.661-5.523a5.17,5.17,0,0,0,.509-4.459c-.518-1.624-1.654-2.181-1.612-3.448Z" transform="translate(-146.286 -97.694)" fill="#fedeb6" fill-rule="evenodd"/>
    <path id="Path_1305" data-name="Path 1305" d="M235.623,251.039a16.224,16.224,0,0,0,2.627,4.447c.577.681.975,1.193,1.543,1.849.529.61,1.294,1.475,2.081,1.547,1.032.1,3.67-1.786,4.606-2.349a48.511,48.511,0,0,0,4.352-2.66c0-.419-.088-.279.4-.279-1.3-3.545-11.41-2.9-15.606-2.556" transform="translate(-125.049 -91.039)" fill="#fa8a00" fill-rule="evenodd"/>
    <path id="Path_1306" data-name="Path 1306" d="M219.411,76.49c.691.56,1.227,11.519,1.556,13.464a37.409,37.409,0,0,0,2.483,9.07c.661,1.582.829,1.445,2.461,2.054V97.688c-.714.3-.564-.679-.564,2.544-1.076-1.7-.394-5.446.054-7.3,2.193-9.067.7-3.008-3.172-11.914a25.3,25.3,0,0,1-1.656-4.845c-.4-1.3-.056-.978-1.161-1.1Z" transform="translate(-120.99 -47.056)" fill="#e49600" fill-rule="evenodd"/>
    <path id="Path_1307" data-name="Path 1307" d="M346.463,254.9a28.165,28.165,0,0,1,3.827,3.858,27.453,27.453,0,0,1,2.6-.99l2.876-.76c-.334-1.515-3.954-5.733-5.7-6.993-2.967-2.142-4.233-1.472-6.791-.436-.861.35-1.732.577-2.463.928.241.9.5.821,1.235,1.308Z" transform="translate(-151.383 -90.499)" fill="#8c8c8c" fill-rule="evenodd"/>
    <path id="Path_1308" data-name="Path 1308" d="M250.509,392.048c.84,1.133,5.533,2.542,6.783,2.542,0-6.549-1.714-7.248-7.344-11.025a40.9,40.9,0,0,0-6.181-3.147c-1.993-.816-5.05-2.083-7.388-2.22l1.4.908c.356.2.674.41,1.035.61l6.71,3.754c6.562,4.126,5.265,4.7,5.273,8.578Z" transform="translate(-125.238 -122.943)" fill="#ecb482" fill-rule="evenodd"/>
    <path id="Path_1309" data-name="Path 1309" d="M288.884,366.885l6.023,3.228c1.491.891,4.889,3.63,5.946.052,1.219-4.127-3.863-6.348-6.58-7.615l-2.842-1.1-.651-.221c1.154,1.755-1.4,4.282-1.9,5.652" transform="translate(-138.383 -118.696)" fill="#585858" fill-rule="evenodd"/>
    <path id="Path_1310" data-name="Path 1310" d="M199.422,195.151c.912.178.107.526.858-.541.02-.028.4-.76.5-.935a13.056,13.056,0,0,1,1.125-1.7c6.721-9.363,2.717-8.451,3.988-13.222-1.9.044-2.693,1.406-3.718,2.467-1.859,1.926-3.863,5.893-3.9,8.84-.016,1.246.173,4.568,1.152,5.087" transform="translate(-115.697 -73.013)" fill="#fedeb6" fill-rule="evenodd"/>
    <path id="Path_1311" data-name="Path 1311" d="M312.158,296.662c0,1.229-.211.766,1.1.9,2.22.232,7.991-2.538,8.222-4.579.1-.924-3.7-4.105-4.522-7.631-2.086,0-3.137-1.272-4.481-3.144-.707-.984-.747-1.217-1.453-1.66a58.351,58.351,0,0,1,3.148,7.877c1.361,5.141-.544,6.164-1.433,8.515-.223-.489.138.034-.586-.281" transform="translate(-143.927 -98.497)" fill="#ecb482" fill-rule="evenodd"/>
    <path id="Path_1312" data-name="Path 1312" d="M203.37,209.35c.651,0,.564-.2.564.283l.283.283.283.283c.215-.669,3.379-5.138,4.141-6.32,2.259-3.5,2.1-4.445,1.831-8.943h-.883c-.468-.076-.2-.434-1.349.9-.54.632-.711.943-1.268,1.568-.944,1.061-1.627,2.014-2.556,3.1-1.327,1.548-1.63,1.134-1.621,4.032.005,1.6-.291,4.042.576,4.816" transform="translate(-116.819 -77.037)" fill="#fedeb6" fill-rule="evenodd"/>
    <path id="Path_1313" data-name="Path 1313" d="M407.907,245.546c1.593-.22-.475-.265,2.558-2.319a6.777,6.777,0,0,1,3.786-1.578c-.62.283-.033.129-.407-.409-1.072-1.386-6.931-2.531-10.183-2.551-.783-.005-2.2-.118-2.915.477a2.381,2.381,0,0,0-.772,2.054c-.022.508.02,1.184.02,1.716,1.731.4,2.251,1.484,3.518,1.852.662.193,1.629.207,2.2.345,1.142.275,1.2.545,2.193.413" transform="translate(-166.193 -88.014)" fill="#8c8c8c" fill-rule="evenodd"/>
    <path id="Path_1314" data-name="Path 1314" d="M199.807,195.151c1.454,3.574,2.979.558,4.327-1.044,3.381-4.019,8.4-7.913,4.955-13.892-.621-1.078-1.136-1.457-2.814-1.457-1.271,4.771,2.733,3.859-3.988,13.222a13.058,13.058,0,0,0-1.125,1.7c-.1.175-.476.906-.5.935-.751,1.067.053.719-.858.541" transform="translate(-116.082 -73.013)" fill="#ecb482" fill-rule="evenodd"/>
    <path id="Path_1315" data-name="Path 1315" d="M204.7,210.017l-.283-.283-.283-.283c0-.486.087-.283-.564-.283,0,.789-.157.642.564.283-.375.752-.469.657.283.283-.375.752-.469.657.283.283-.06.748-.379.391,0,.846,3.169,0,3.362-1.156,5.873-4.02,2.283-2.6,6.7-9.3,2.634-12.119a2.351,2.351,0,0,0-1.454-.573c-1.858-.2-1.842.413-1.966.6l.884,0c.268,4.5.428,5.441-1.831,8.943-.762,1.181-3.926,5.651-4.141,6.32" transform="translate(-117.021 -76.857)" fill="#ecb482" fill-rule="evenodd"/>
    <path id="Path_1316" data-name="Path 1316" d="M357.651,259.111l-2.876.76c-1.085.308-1.677.645-2.6.989A28.212,28.212,0,0,0,348.351,257c1.691,2.362,6.18,5.3,9.7,11.627.956,1.718,1.365,3.217,2.171,4.9.9-.663,1.229-2.188,1.508-3.6.391-1.982-.481-4.169-1.32-5.917-.561-1.169-1.779-4.224-2.759-4.9" transform="translate(-153.27 -92.602)" fill="#585858" fill-rule="evenodd"/>
    <path id="Path_1317" data-name="Path 1317" d="M282.547,228.4c-.8.153-.815-.028,0,.22v-.22c1.753-2.788,6.1-5.489,10.085-4.491,1.643.41,1.161.292,1.112,1.071l-.136.247.136-.247c1.2-.779,2.744-4.611,3.041-5.93.433-1.926-.639-1.464-2.294-1.108a18.928,18.928,0,0,0-9.038,4.538c-.765.689-3.571,4.222-2.907,5.919" transform="translate(-136.645 -82.743)" fill="#c52900" fill-rule="evenodd"/>
    <path id="Path_1318" data-name="Path 1318" d="M272.757,275.744c-.36.72-.506.564.283.564,0-.651.2-.564-.283-.564,2.268.117,6.629-1.133,8.152.329a24.318,24.318,0,0,1,2,2.8c.964,1.339,1.828,2.215,1.774,3.085a4.174,4.174,0,0,0,1.7-1.081c1.043-1.159,1.41-2.286.54-3.466l-6.817-5.91c-1.415.329-2.819,1.005-4.238,1.415-1.555.448-3.186.751-4.806,1.129.194,2.332,1.693,1.7,1.694,1.7" transform="translate(-133.921 -96.232)" fill="#585858" fill-rule="evenodd"/>
    <path id="Path_1319" data-name="Path 1319" d="M331,277.343c-.752,0-.564-.184-.564.567.754,0,.564.188.564-.567l.732-.142c-.043,1.266,1.094,1.824,1.612,3.448a5.17,5.17,0,0,1-.509,4.459l-4.661,5.523c0-.486.087-.283-.564-.283,0,.789-.157.642.564.283-.128,1.6-.373-.083.28.6,1.478,1.542,7.266-3.968,7.584-4.325.791-.888.339-.177.693-1.286.523-1.641,1.487-4.809.015-6.385A11.7,11.7,0,0,0,331,276.781c-.467.391-.186-.1,0,.562" transform="translate(-148.075 -97.553)" fill="#ecb482" fill-rule="evenodd"/>
    <path id="Path_1320" data-name="Path 1320" d="M215.444,208.539c-.721-.36-.564-.506-.564.283.651,0,.564.2.564-.283.116-.133.288-.189.27-.281-.068,5.621-.216,6.226-3.619,9.934-.35.381-1.487,2.11-1.739,2.22l-.281-.276-.3-.29c0-.479.086-.283-.546-.283,0,.78-.159.645.546.283-.354.756-.448.654.3.29-.378.747-.465.648.281.276-.047.6-.6.574.861.864a3.452,3.452,0,0,0,1.519-.166c3.687-1.156,12.9-13.7,2.711-13.7a4.566,4.566,0,0,0,.018.551Z" transform="translate(-118.437 -80.186)" fill="#ecb482" fill-rule="evenodd"/>
    <path id="Path_1321" data-name="Path 1321" d="M212.625,176.4c.325,1.216,1.929,2.312,1.978,4.522a23.865,23.865,0,0,0,4.969-.683c1.628-.321,2.867-.973,4.64-1.013a24.375,24.375,0,0,1,1.13-5.37c-2.112,0-4.089,1.028-6.188,1.442-2.053.406-4.493.627-6.53,1.1" transform="translate(-119.291 -71.786)" fill="#585858" fill-rule="evenodd"/>
    <path id="Path_1322" data-name="Path 1322" d="M258.2,244.355c.428-.3-.05-.21.731-.189.011,0,.855.185.869.19l1.744.8c-.4-2.412-1.956-5.14-2.261-6.45-1.353.112-.454.013-2.544,1.413a13.441,13.441,0,0,0,1.461,4.239m5.322,2.826c-.723-1.367-1.1-2.658-1.789-4.147l-1.885-3.767c1.162.026,7.446,2.761,8.761,3.392-.091,1.089-.245.958-.834,1.71a10.03,10.03,0,0,1-1.062,1.2,5.463,5.463,0,0,1-3.192,1.613" transform="translate(-130.335 -88.02)" fill="#585858" fill-rule="evenodd"/>
    <path id="Path_1323" data-name="Path 1323" d="M215.452,183.186c0,5.107-.4,3.391-.565,5.37a34.378,34.378,0,0,0,5.207-.729l4.967-.968-.283-5.087c-1.87,0-5.089,1.413-9.326,1.413" transform="translate(-119.857 -73.768)" fill="#585858" fill-rule="evenodd"/>
    <path id="Path_1324" data-name="Path 1324" d="M315.551,278.284l.535.864c.253.379.341.45.6.831,2.723,0,2.544-.451,5.253-2.1a20.263,20.263,0,0,0,4.009-3.339c2.6-2.6,1.439-5.608-.732-7.335l-2.067-1.149c-.086-.036-.442-.17-.526-.213l.31.46a9.456,9.456,0,0,1,.909,4.064c.139,4.449-7.52,8.366-7.721,8.393,0-.911.13-.188-.565-.479" transform="translate(-145.059 -94.816)" fill="#ecb482" fill-rule="evenodd"/>
    <path id="Path_1325" data-name="Path 1325" d="M269.661,250.41c0-.651-.2-.564.283-.564l.439-.262c-.414-.694.124-.141-.566-.494-.018-.009-.825-.252-.856-.258-1.3-.256-.74-.321-1.845.05-1.049.3-1.115.963-3.674.963-1.2-1.786-.873-2.282-1.413-2.876l-1.744-.8c-.013,0-.858-.189-.869-.19-.781-.021-.3-.109-.731.189-.054,1.176,3.092,13.585,10.506,5.164.711-.807.453-.232.47-.924" transform="translate(-130.822 -89.835)" fill="#8c8c8c" fill-rule="evenodd"/>
    <path id="Path_1326" data-name="Path 1326" d="M273.323,277.031c.486,0,.283-.088.283.564.81,1.527,5.325,4.6,7.36,5.643,1.358.7,1.982.575,3.947.575l.332-.564c.054-.87-.81-1.746-1.774-3.085a24.317,24.317,0,0,0-2-2.8c-1.523-1.462-5.884-.212-8.152-.329" transform="translate(-134.487 -97.519)" fill="#8c8c8c" fill-rule="evenodd"/>
    <path id="Path_1327" data-name="Path 1327" d="M185.48,150.574c0,1.369,2.74,6.682,3.391,7.914,5.64-.127,2.867-2.36.848-11.023-.924.215-4.239,2.23-4.239,3.109" transform="translate(-112.495 -65.179)" fill="#8c8c8c" fill-rule="evenodd"/>
    <path id="Path_1328" data-name="Path 1328" d="M266.727,270.093l.434.158c1.936-.582,4.385-1.4,6.263-2.172,2.068-.851,3.1-1.393,3.317-3.31.125-1.125.313-.851-.4-.846-1.248-.466-4.015.627-5.577.925-.822.156-1.885.326-2.844.547a27.372,27.372,0,0,1-2.884.508,11.889,11.889,0,0,0,1.7,4.19" transform="translate(-132.411 -94.306)" fill="#8c8c8c" fill-rule="evenodd"/>
    <path id="Path_1329" data-name="Path 1329" d="M215.164,208.822c0,.486.088.283-.564.283-.366.193-2.238,2.675-2.9,3.325a21.009,21.009,0,0,1-3.605,3.177c0,1.717-.116,3.5.848,4.241.633,0,.546-.2.546.283l.3.29.281.276c.252-.111,1.389-1.84,1.739-2.22,3.4-3.709,3.551-4.313,3.619-9.934.018.092-.154.148-.27.281" transform="translate(-118.157 -80.469)" fill="#fedeb6" fill-rule="evenodd"/>
    <path id="Path_1330" data-name="Path 1330" d="M282.7,230.43v.22c-.11.69-.373-.011.275.347,2.641,1.46,9.676-.391,10.786-3.739l.136-.247c.049-.779.531-.661-1.112-1.071-3.99-1-8.332,1.7-10.085,4.491" transform="translate(-136.798 -84.772)" fill="#e13333" fill-rule="evenodd"/>
    <path id="Path_1331" data-name="Path 1331" d="M315.044,237.372c-.6,2.008,1.136,4.513,2.277,5.421a5.855,5.855,0,0,0,2.654,1.3c1.123.183,3.088.22,3.768-.223l.717-.564c-.793-1.3-.37-1.448-.6-2.532l-.418-1.012-.31.272-.392.628c-1.105-.21-2.423.412-3.562-.294a4.4,4.4,0,0,1-1.242-3c-.594-.526-.167-.01-.5-.84a3.026,3.026,0,0,1-.035-.68c-.288-.391.52.155-.321-.205l-2.113.632Z" transform="translate(-144.902 -87.255)" fill="#8c8c8c" fill-rule="evenodd"/>
    <path id="Path_1332" data-name="Path 1332" d="M216.018,191.009v.565a3.984,3.984,0,0,1,2.193,1.2,7.156,7.156,0,0,1,1.2,2.193,18.574,18.574,0,0,0,3.831-.408,16.532,16.532,0,0,1,3.517-.723c0-1.873-.758-2.924-1.13-4.522-1.5.35-2.933.73-4.64,1.014a36.984,36.984,0,0,1-4.97.682" transform="translate(-120.14 -75.655)" fill="#585858" fill-rule="evenodd"/>
    <path id="Path_1333" data-name="Path 1333" d="M337.887,297.98c1.13-.181.939-.5,1.646-1.609.448-.7,1.038-1.467,1.432-2.25,1.276-2.539-.738-3.829-.124-5.33h-.411c-1.256-.681-.762.9-3.174,3.328l-3.61,3.174c.559.834,2.94,2.847,4.24,2.687" transform="translate(-149.589 -100.52)" fill="#fedeb6" fill-rule="evenodd"/>
    <path id="Path_1334" data-name="Path 1334" d="M419.6,259.245a4.013,4.013,0,0,0,.848-1.978l-2.285-2.237c-.243-.208-.193-.169-.454-.394-2.247-1.936-7.76-6.069-10.545-6.131.259.969.517.935,1.2,1.624a17.511,17.511,0,0,1,1.276,1.55c2.634,3.247,3.929,2.508,6.772,4.817,1.1.894,1.741,2.363,3.186,2.749" transform="translate(-167.995 -90.474)" fill="#b8b8b8" fill-rule="evenodd"/>
    <path id="Path_1335" data-name="Path 1335" d="M289.13,353.219l-.01-2.544c-1.668-.077-.127.1-.813-.565a50.432,50.432,0,0,0-9.893-1.7c-.031,1.412-.534,1.98-.566,3.392a51.138,51.138,0,0,1,5.653.564Z" transform="translate(-135.62 -115.487)" fill="#fefefe" fill-rule="evenodd"/>
    <path id="Path_1336" data-name="Path 1336" d="M291.045,260.284c.8,1.4,1.994,4.712,3.617,7.4.9,1.485,2.866,5.712,4.861,5.879.346-1.295,1.071-1.359,1.413-2.826-2.475-3.7-2.963-3.721-5.092-8.474-.7-1.553-2.218-4.515-2.256-6.223-1.993,0-.6-.112-1.13.564.069.062,2.6,6.458,2.96,7.218,2.03,4.28,3.364,4.993,1.845,6.576a47.526,47.526,0,0,1-5.144-8.875c-.523-1.2-.609-1-1.073-1.241" transform="translate(-138.924 -92.36)" fill="#585858" fill-rule="evenodd"/>
    <path id="Path_1337" data-name="Path 1337" d="M263.522,388.945l1.194,1.919c2.179,3.7.958,5.032.784,7.124a5.1,5.1,0,0,0,2.544.565c.541-2.323,2.538-8.426-.032-10.175-.724.6-.828.379-1.847.662-1.093.3-1.013.488-1.795.665-.289-.993.073-.36-.848-.76" transform="translate(-132.033 -125.492)" fill="#585858" fill-rule="evenodd"/>
    <path id="Path_1338" data-name="Path 1338" d="M292.623,353.786a7.624,7.624,0,0,0,2.571.846,19.681,19.681,0,0,1,2.541.85l4.8,1.978c.264-1.135.733-1.448.848-2.826l-5.472-2.159c-1.054-.355-1.811-.609-2.723-.952l-3.391-.846c.686.669-.855.488.813.565Z" transform="translate(-139.113 -116.053)" fill="#b8b8b8" fill-rule="evenodd"/>
    <path id="Path_1339" data-name="Path 1339" d="M289.488,256.619c-.207.921-.074.919.38,1.889.316.674.491,1.176.763,1.786.465.244.55.045,1.074,1.241a47.523,47.523,0,0,0,5.144,8.875c1.519-1.582.184-2.3-1.845-6.575-.36-.759-2.891-7.156-2.96-7.218a4.319,4.319,0,0,0-2.262-.537c-.49.153-.358-.286-.295.538" transform="translate(-138.51 -92.371)" fill="#8c8c8c" fill-rule="evenodd"/>
    <path id="Path_1340" data-name="Path 1340" d="M306,264.665l-.163-.256c0-.69.183-.537-.472-.537,0,.711-.193.568.472.537-.252.4-.309.321.163.256a2.737,2.737,0,0,0,1.343,2.027c1.316-.351.623-.585,2.74-2.348,1.172-.975,3.944-3.824,5.174-4.152-.134-1.608-1.083-1.268-1.13-3.391-1.67.037-2.853,1.264-3.675,1.827l.566.188c-1.505,2.78-1.9,4.733-5.017,5.849" transform="translate(-142.502 -92.551)" fill="#585858" fill-rule="evenodd"/>
    <path id="Path_1341" data-name="Path 1341" d="M295.569,349.451c.292.723.2.433,2.086,1.022,1.911.6,6.259,2.652,6.957,2.652.831,0,.7-.337,1.064-.915.67-1.062,1.948-3.005,2.046-4.172-1.921.16-3.689.661-5.909.874-1.056.1-5.626.242-6.244.539" transform="translate(-140.056 -115.393)" fill="#b8b8b8" fill-rule="evenodd"/>
    <path id="Path_1342" data-name="Path 1342" d="M222.993,402.419c1.615,0,3.565-1.109,4.881-1.9.716-.43.969-.457,1.054-1.49-2.43-.566-5.529-3.062-7.631-3.109,0,1.086.19,6.5,1.7,6.5" transform="translate(-121.462 -127.38)" fill="#585858" fill-rule="evenodd"/>
    <path id="Path_1343" data-name="Path 1343" d="M344.958,301.38c2.056.171,4.876,2.792,7.08-.268a3.248,3.248,0,0,0,.833-2.275c-1.8-.482-1.657-1.7-4.8-1.7-.79,0-1.29,1.252-1.774,1.9-.6.806-1.246,1.269-1.335,2.34" transform="translate(-152.421 -102.65)" fill="#ecb482" fill-rule="evenodd"/>
    <path id="Path_1344" data-name="Path 1344" d="M414.894,262.641a6.445,6.445,0,0,1,1.771,1.055,12.66,12.66,0,0,0,1.621,1.488,5.642,5.642,0,0,0,1.978-3.109c0-.9-2.25-2.688-2.984-3.234-1.09-.813-2.643-2.3-4.082-2.418.486,2.089,1.7,3.52,1.7,6.218" transform="translate(-169.505 -92.457)" fill="#b8b8b8" fill-rule="evenodd"/>
    <path id="Path_1345" data-name="Path 1345" d="M342.257,288.623c-.615,1.5,1.4,2.79.124,5.329-.394.784-.984,1.547-1.432,2.251-.707,1.112-.516,1.428-1.646,1.609,1.75,1.973,6.088-3.526,6.391-4.775a15.179,15.179,0,0,0,.391-3.565c-1.2-.8-1.6-1.559-3.828-.849-.214-.8.677-.828-.16-.337-.017.011-.1.085-.116.1a1.53,1.53,0,0,0-.135.238Z" transform="translate(-151.005 -100.352)" fill="#ecb482" fill-rule="evenodd"/>
    <path id="Path_1346" data-name="Path 1346" d="M319.891,235.637a5.6,5.6,0,0,0,.963,3.957c2.226,0,2.99.379,4.593-1.639.773-.974.588-1.094.523-1.469l.692-1.413c-1.456-1.25-4.76-.547-6.674-.172Z" transform="translate(-146.122 -86.933)" fill="#8c8c8c" fill-rule="evenodd"/>
    <path id="Path_1347" data-name="Path 1347" d="M287.458,356.992l1.387.308a8.605,8.605,0,0,0-.537-2.005c-1.6-.711-8.865-1.822-10.742-1.978a3.613,3.613,0,0,0-.848,2.544c2.423,0,3.376.432,5.379.556l3.977.565c1.188.18.549.214,1.384.011" transform="translate(-135.337 -116.714)" fill="#fefefe" fill-rule="evenodd"/>
    <path id="Path_1348" data-name="Path 1348" d="M291.045,357.652c.868,1.069-.325.007.79.562.067.033.142.062.213.093s.145.051.217.078c2.912,1.106,4.436,1.434,7.411,3.353.805.52.238.444,1.261.717a12.684,12.684,0,0,0,.849-3.391c-2.456-.572-5.987-2.493-9.891-3.109a8.607,8.607,0,0,1,.537,2.005Z" transform="translate(-138.924 -117.375)" fill="#b8b8b8" fill-rule="evenodd"/>
    <path id="Path_1349" data-name="Path 1349" d="M267.724,270.1l-.434-.158c0,.514-.088.367.434.158.176.763-.07,1.506,2.84.625,1.22-.37,2.049-.579,3.343-.9a22.133,22.133,0,0,0,3.194-1.045c1.271-.494,2.193-.641,2.907-1.615a5.409,5.409,0,0,0-1.073-2.035c-.459-.7-.749-1.267-1.187-1.922-1.607,0-.329-.118-.848.564.717,0,.53-.279.4.846-.214,1.918-1.25,2.46-3.317,3.31-1.878.773-4.326,1.59-6.263,2.172" transform="translate(-132.975 -94.153)" fill="#585858" fill-rule="evenodd"/>
    <path id="Path_1350" data-name="Path 1350" d="M308.755,252.523l.821-.3c.058,1.761-2,3.052-3.187,3.833a19.219,19.219,0,0,0-3.787,2.936l-.331-.045c0-.449.121-.353-.3-.353,0,.49-.141.417.3.353-.026.533-.077.376.331.045.368,1.213-.31.174.537.419.618.179.208.145.843-.04l8.257-5.094c.812-.648.564-.326,1.038-1.223.006-.052-1.215-4.541-4.522-.527" transform="translate(-141.654 -91.063)" fill="#585858" fill-rule="evenodd"/>
    <path id="Path_1351" data-name="Path 1351" d="M196.407,180.532c-.022-1.575.142-.486-.564-.886,0,1.295-.175.552.564.886-.451,1.176-.122.123,0,1.612h.848c.853-3.662,3.193-2.145,1.733-6.537-1.687-5.078-1.085-5.145-2.581-7.029l-.284.808c-.765-.33-.651-.418-.283.321-.721-.36-.564-.506-.564.283.651,0,.564.2.564-.283l.283-.321.286-.394c-.627,1.378.194,3.909.3,5.509a40.476,40.476,0,0,1-.3,6.03" transform="translate(-114.945 -70.464)" fill="#ecb482" fill-rule="evenodd"/>
    <path id="Path_1352" data-name="Path 1352" d="M327.191,179.606c.633-.484.7-2.661.927-3.637.539-2.337-.589-5.79-1.343-8.137a3.608,3.608,0,0,0-.942-1.633c-.809-1-.647-1.537-.9-.76-.537,1.388.68,5.447.971,7.227.217,1.326.388,2.308.6,3.635s.558,2.325.687,3.306" transform="translate(-147.373 -69.586)" fill="#ffc800" fill-rule="evenodd"/>
    <path id="Path_1353" data-name="Path 1353" d="M195.491,169.525l-.283.321c0,.485.087.283-.564.283A3.732,3.732,0,0,0,193,174.882c.277.846.726,1.583,1.124,2.555a13,13,0,0,0,1.09,2.347c.705.4.542-.689.564.886a40.472,40.472,0,0,0,.3-6.03c-.106-1.6-.927-4.131-.3-5.509Z" transform="translate(-114.311 -70.603)" fill="#fedeb6" fill-rule="evenodd"/>
    <path id="Path_1354" data-name="Path 1354" d="M218.655,223.148c-.752-.375-.657-.469-.283.283-.721-.36-.564-.506-.564.283.651,0,.564.2.564-.283l.283-.283c.283-.235.234.142.3-.281a5.465,5.465,0,0,1-1.045,3.493c-.5.778-.833,1.847-2.012,1.878l-.636-.283c.224.737-.268.768.636.283.217.738-.334.578,1.314.6a5.172,5.172,0,0,0,3.64-2.079c1.334-1.614.532-4.734-.22-6.155a3.985,3.985,0,0,0-1.93,2.309c-.016.052-.036.155-.049.233" transform="translate(-119.952 -83.49)" fill="#ecb482" fill-rule="evenodd"/>
    <path id="Path_1355" data-name="Path 1355" d="M308.573,252.978c-1.09.184-2.411,1.271-3.484,1.848-1.343.722-2.627,1.133-3.864,1.789a3.881,3.881,0,0,0,.565,2.43c.42,0,.3-.1.3.353l.331.045a19.222,19.222,0,0,1,3.787-2.936c1.189-.781,3.244-2.072,3.187-3.833Z" transform="translate(-141.472 -91.518)" fill="#8c8c8c" fill-rule="evenodd"/>
    <path id="Path_1356" data-name="Path 1356" d="M310.082,259.237c-1.281.627-1.826,1.062-3.011,1.663-1.16.589-2.142,1.035-3.207,1.6a5.238,5.238,0,0,0,1.13,1.985c.655,0,.472-.153.472.537l.164.256c3.122-1.116,3.512-3.069,5.017-5.849Z" transform="translate(-142.133 -93.161)" fill="#8c8c8c" fill-rule="evenodd"/>
    <path id="Path_1357" data-name="Path 1357" d="M476.954,262.266l-.1.544a3.384,3.384,0,0,0-2.027-1.393c-.9-.289-1.314-.088-2.153-.408-2.167-.824,1.414,1.361-.678-.437l1.705,3.38a13.725,13.725,0,0,1,1.121,3.684c1.622-.433,2.684-3.617,2.533-4.5-.143-.835.094-.421-.4-.87" transform="translate(-184.214 -93.495)" fill="#585858" fill-rule="evenodd"/>
    <path id="Path_1358" data-name="Path 1358" d="M239.109,407.509c1.77,0,2.025-1.331,3.391-1.7-.086-1.041-.1-.957-.936-1.325-.606-.265-1.319-.424-1.894-.65-1.289-.507-2.008-1.133-3.671-1.133.22.943,1.63,4.8,3.109,4.8" transform="translate(-125.143 -129.079)" fill="#585858" fill-rule="evenodd"/>
    <path id="Path_1359" data-name="Path 1359" d="M267.763,418.066c.2,0,2.778-.93,2.826-3.109-2-.166-3.939-1.53-5.935-1.7.035,1.58,1.725,4.8,3.109,4.8" transform="translate(-132.317 -131.722)" fill="#585858" fill-rule="evenodd"/>
    <path id="Path_1360" data-name="Path 1360" d="M257.581,410.621a52.929,52.929,0,0,0-6.5-2.261c.082.992,1.859,5.673,4.8,3.969.762-.442,1.44-.739,1.7-1.708" transform="translate(-128.919 -130.495)" fill="#585858" fill-rule="evenodd"/>
    <path id="Path_1361" data-name="Path 1361" d="M301.224,268.615a29.888,29.888,0,0,0,2.826,4.581c3.424-2.292,1.693-2.089-.066-5-.024-.04-.319-.533-.333-.55-.505-.63.029-.191-.73-.668-.5.969-.688.587-.975,2.157-.755-.818-.174.723-.5-.347-.037-.118-.165-.1-.22-.173" transform="translate(-141.472 -95.099)" fill="#585858" fill-rule="evenodd"/>
    <path id="Path_1362" data-name="Path 1362" d="M454.293,237.76c.545.865,2.849,4.445,3.381,2a28.66,28.66,0,0,0-.038-3.362c-.209-1.042-.81-1.428-2.142-1.461a6.306,6.306,0,0,0-.754,3.11c.221-.445.141-.037-.447-.283" transform="translate(-179.793 -87.076)" fill="#585858" fill-rule="evenodd"/>
    <path id="Path_1363" data-name="Path 1363" d="M218.277,223.9l-.283.283c0,.486.087.283-.564.283l-3.674,1.98c.093,1.123.335,1.841,1.13,2.262l.636.283c1.179-.031,1.516-1.1,2.012-1.878a5.465,5.465,0,0,0,1.045-3.493c-.069.424-.02.046-.3.281" transform="translate(-119.574 -84.245)" fill="#fedeb6" fill-rule="evenodd"/>
    <path id="Path_1364" data-name="Path 1364" d="M269.932,248.577c1.105-.371.548-.307,1.846-.049.031.005.837.248.855.258.691.352.152-.2.566.493l-.439.262c-.485,0-.283-.087-.283.564.789,0,.642.157.283-.564.669.13.7.641.439-.262l1.82-3.978c-1.362-.113-.9-.452-2.261-.565-.5,1.86-2.041,2.217-2.826,3.842" transform="translate(-133.638 -89.53)" fill="#585858" fill-rule="evenodd"/>
    <path id="Path_1365" data-name="Path 1365" d="M441.1,227c.572.913.376.639,1.752,1.559,2.038,1.362.8,1.068,2.2,1.185-.1-1.146-.524-3.738-1.3-4.616-.57-.644-.566-.582-1.524-.753.159.9-.245,1.954-.127,3.173-.906-.352-.157.33-1-.547" transform="translate(-176.49 -84.433)" fill="#585858" fill-rule="evenodd"/>
    <path id="Path_1366" data-name="Path 1366" d="M280.77,421.083a2.42,2.42,0,0,0,2.261-2.261,24.757,24.757,0,0,1-4.8-1.413,3.234,3.234,0,0,0,.836,2.272c.342.476.961,1.4,1.708,1.4" transform="translate(-135.714 -132.76)" fill="#585858" fill-rule="evenodd"/>
    <path id="Path_1367" data-name="Path 1367" d="M284.65,347.376c-.372-1.394-.648-.483-3.5-2.433a2.287,2.287,0,0,0-1.586-.675c-.207,2.481-2.6,3.109,5.088,3.109" transform="translate(-135.921 -114.449)" fill="#fefefe" fill-rule="evenodd"/>
    <path id="Path_1368" data-name="Path 1368" d="M439.964,226.9c.847.877.1.195,1,.547-.118-1.219.286-2.277.127-3.173-1.085-.04-.7-.268-1.979-.3-1.38-.034-1.249.269-2.544.3.29,1.085.568.963,1.523,1.586Z" transform="translate(-175.357 -84.333)" fill="#8c8c8c" fill-rule="evenodd"/>
    <path id="Path_1369" data-name="Path 1369" d="M463.341,247.846l.557.9c.658.981,1.386,2.178,2.552,2.49,0-1.156.283-1.927.283-4.8-.826-.2-.407.037-.848-.565h-1.331c.449.364-.668.26,1.064.564a3.593,3.593,0,0,0-1.022,2.713c-.057-.063-.114-.151-.156-.2Z" transform="translate(-182.059 -89.814)" fill="#585858" fill-rule="evenodd"/>
    <path id="Path_1370" data-name="Path 1370" d="M453.255,237.655c.588.246.668-.163.447.283a6.306,6.306,0,0,1,.754-3.11c-1.072-.45-2.8-.283-4.31-.283.113,1.356.442,1.059,2.19,2.637.8.723.229.457.919.474" transform="translate(-178.755 -86.972)" fill="#8c8c8c" fill-rule="evenodd"/>
    <path id="Path_1371" data-name="Path 1371" d="M471.635,259.91c2.092,1.8-1.489-.387.678.437.839.319,1.253.119,2.153.409a3.38,3.38,0,0,1,2.027,1.392l.1-.543c-.043-1.049.03-.612-.861-1.265-1.268-.931-3.547-2.372-5.227-2.409a2.223,2.223,0,0,0,1.13,1.98" transform="translate(-183.852 -92.834)" fill="#8c8c8c" fill-rule="evenodd"/>
    <path id="Path_1372" data-name="Path 1372" d="M314.905,236.533l-.072-1.094,2.112-.632c.84.361.033-.185.321.205a3.026,3.026,0,0,0,.035.68c.329.829-.1.313.5.84,0-1.507.253-1.012-.531-1.52.576-1.436,0-1.194-.034-2.718-1.152.307-1.675,1.106-2.827,1.413,0,.421-.052,1.058-.036,1.433.082,2-.009.906.535,1.393" transform="translate(-144.762 -86.416)" fill="#585858" fill-rule="evenodd"/>
    <path id="Path_1373" data-name="Path 1373" d="M429.214,220.039l.126-2.826a9.24,9.24,0,0,0-4.077.565c.348.963,3.024,2.043,3.951,2.261" transform="translate(-172.526 -82.64)" fill="#8c8c8c" fill-rule="evenodd"/>
    <path id="Path_1374" data-name="Path 1374" d="M416.12,269.334v1.13a2.574,2.574,0,0,0,2.261-2.261c0-.391-.844-.93-1.123-1.138-.69-.517-.544-.607-1.421-.84,0,1.433.283,1.54.283,3.109" transform="translate(-170.166 -94.911)" fill="#b8b8b8" fill-rule="evenodd"/>
    <path id="Path_1375" data-name="Path 1375" d="M430.534,220.039l.882.819c.753.426.223.286,1.384.311,0-2.015-.136-3.539-2.14-3.957Z" transform="translate(-173.845 -82.64)" fill="#585858" fill-rule="evenodd"/>
    <path id="Path_1376" data-name="Path 1376" d="M462.775,247.846l1.1,1.1c.042.049.1.137.156.2a3.593,3.593,0,0,1,1.022-2.713c-1.732-.3-.615-.2-1.065-.564h-2.909a3.316,3.316,0,0,0,1.7,1.98" transform="translate(-181.492 -89.814)" fill="#8c8c8c" fill-rule="evenodd"/>
    <path id="Path_1377" data-name="Path 1377" d="M253.245,325.946c1.558.13,1.981.81,3.674.848l-1.63,1.761a8.959,8.959,0,0,1-2.044-2.609m43.525-167.6c0,2.418-.3,2.966,1.413,3.109.766-1.6-.313-3.458,1.049-4.886a12.831,12.831,0,0,1,4.038-2.179c-.205-2.469-2.364-1.087-3.391-.848,1.892-3.577,1.737-2.331,2.826-3.957-1.075-.6-1.969-.016-2.877,1.079a11.082,11.082,0,0,0-1.465,2.21,13.055,13.055,0,0,0-1.593,5.472M260.028,186.61a18.729,18.729,0,0,1-3.674-.283c.066-2.964,2.846-5.784,4.717-7.153a17.553,17.553,0,0,1,8.848-3.3c-.328,3.946-4.762,10.74-9.892,10.74m-17.24-8.48v.849c2.861.666,1.38,2.675,6.553,6.165l3.9,2.318c6.6,3.276,13.384.931,16.968-5.933,3.15-6.033,2.113-8.959,2.543-11.872.206-1.4.8-.654.844-2.548-2.343,0-3.96,1.7-7.725,3.58l-6.964,3.211c-3.187,1.419-11.806,4.135-16.117,4.23m33.068,150.077a45.538,45.538,0,0,1,5.337-2.294,136.747,136.747,0,0,1,17.611-5.281c10.711-2.483,28.385-5.418,40.073-6,4.506-.223,9.6-.854,14.419-.843l26.854,0c1.686.01,2.412-.258,3.67-.286v-.564c-2.849,0-8.284-1.43-13.572-1.408-1.645.007-1.919-.254-3.376-.3-1.268-.038-2.705.1-3.951-.006-14.573-1.205-38.617,1.257-52.043,3.948-9.327,1.87-19.478,4.14-27.954,7.94-1.27.57-2.723,1.324-3.967,1.969a11.734,11.734,0,0,0-1.861,1.247c-.808.608-1.148.753-1.24,1.868M302.14,299.1c-1.109.965-2.173,1.914-3.352,2.866-.733.591-.973.819-1.669,1.439-.671.6-.99.75-1.691,1.418l-13.233,11.072c-1.256.987-5.375,5.122-6.9,5.25.035-1.609.424-1.6,1.164-2.51l19.96-17.912c1.115-.995,6.661-5.58,7.986-5.58.6,0,.373.1,1.13.283.187.8.283.483.283,1.13,0,1.863-4.607,8.116-5.087,10.175,7.448-4.987,22.748-13.89,31.28-18.18,4.508-2.267,8.164-4.468,13.174-6.61,1.263-.54,8.679-4.85,8.679-.93,0,1.333-3.351,4.917-4.605,6.418L339.8,297.752a21.151,21.151,0,0,0-2.047,2.193c1.553-.362,6.248-2.977,8.008-3.864,1.627-.82,6.7-3.2,8.667-3.2,5.4,0,2.3,5.116,1.978,6.5,3.391-1.795,16.254-9.892,19.785-9.892.445,0,1.7.956,1.7,1.7,0,2.1-.867,3.14-1.815,4.686l-2.424,3.793c1.555-.363,2.634-.8,4.179-1.191,8.532-2.17,12.682-3.029,21.471-4.814l9.114-1.343c-.2.564.451.489-1.865,1.244-.948.31-1.425.472-2.292.817a44.582,44.582,0,0,1-4.544,1.391l-18.656,5.086c-1.394.39-3.044.924-4.547,1.388a18.438,18.438,0,0,1-4.84,1.1c-4.845,0-.451-5.324.267-6.517.617-1.027,2.285-3.194,2.559-4.224-3.232,1.711-18.395,10.458-19.784,10.458-4.343,0-.975-5.024-.565-6.783-1.977.043-12.31,4.781-15.076,6.12-.84.406-6.121,3.346-6.121.663,0-1.737.818-1.99,1.815-3.272L350.187,282.7c-1.471.123-17.671,8.649-19.947,10.012-1.136.68-2.19,1.239-3.241,1.846l-9.613,5.367c-2.069,1.247-4.176,2.454-6.217,3.675-2.57,1.538-10.75,7.081-13.268,7.081-3.066,0,1.966-7.193,2.775-8.53l1.485-2.471c.326-.418.449-.211-.021-.586m-59.069,23.741.235-.33,4.581,1.708a4.061,4.061,0,0,1-2.556,2.013c-1.511-1.012-1.555-2.7-2.261-3.391M232.9,319.163c.055-.148.34-.538.463-.18.028.083.142.082.182.1l1.815.729a8.991,8.991,0,0,0,2.628.764,2.1,2.1,0,0,1-2.822,1.443c-1.135-.555-1.833-2.66-2.265-2.856m-11.023-4.523,5.088,1.979a5.187,5.187,0,0,1-2.544,1.7c-1.51,0-2.032-2.53-2.544-3.675m-11.3-5.087c1.1.581,5.455,2.739,6.5,2.826a8.758,8.758,0,0,1-5.087,2.544c-1.385,0-1.413-3.774-1.413-5.37m-3.391-6.218c0,4.407,39.756,17.557,44.269,19.04,2.62.861,5.519,1.753,8.073,2.384,2.247.556,7.01,2.5,7.01-1.074,0-1.028-12.889-4.908-14.8-5.546l-14.767-5.3c-5.286-1.882-19.42-7.607-24.981-10.347-.8-.393-2.4-1.417-3.387-1.417-.516,0-1.413,1.681-1.413,2.261m12.153-7.349a14.78,14.78,0,0,0-4.811,1.406c-.768.379-1.316.72-1.99,1.12l-1.678,1.148c1.156.269,22.619,9.176,26.954,10.635a18.492,18.492,0,0,0,3.853,1.235c1.244-5.339-4.736-8.555-8.073-10.581-3.029-1.838-9.685-4.964-14.255-4.964m2.826-3.391c3.268,0,6.718,1.448,9.293,2.3a34.573,34.573,0,0,1,4,1.657l3.953,1.982c6.046,3.142,8.465,5.47,7,12.086a11.723,11.723,0,0,0-.5,2.612,7.444,7.444,0,0,0-1.7-.566c1.253-2.61-.169-6.631-1.621-8.272-4.4-4.972-15.955-10.947-22.968-10.947a3.494,3.494,0,0,1,2.544-.848m5.936-1.13a23.149,23.149,0,0,1,13.845,1.133l3.844,1.809c2.178,1.3,4.906,2.465,6.688,4.053,3.767,3.355,3.822,7.9,2.741,12.775-.356,1.607-1.026,2.932-1.4,4.536-1.882-.042-3.794-1.263-5.652-1.7,1-2.094,1.13-5.427,1.13-7.914,0-6.569-12.237-11.672-17.842-13.53l-2.969-.987c-.053-.022-.152-.07-.195-.088a1.517,1.517,0,0,1-.191-.091m20.067-3.391c7.053,1.643,8.224.948,15.078,4.424,1.393.706,3.28,2.13,4.141,2.359l-1.9,10.822a83.425,83.425,0,0,0-.93,12.072c0,1.065.186.535.283,1.7a21.851,21.851,0,0,1-4.133-1.237c-1.4-.467-2.71-.992-4.064-1.307.483-2.069,1.7-3.954,1.7-8.2,0-3.443.259-5.78-1.309-8.866a10.485,10.485,0,0,0-3.169-3.614c-1.412-1.1-7.012-4.342-8.806-4.76l1.771-1.337a3.149,3.149,0,0,0,1.337-2.054m-.848-4.8c0,2.493,4.492,2.569,6.563,3.046,6.343,1.462,8.239,2.461,13.7,5.52.81.454,2.445,1.551,3.152,1.446,1.878-.281,4.6-5.568-7.266-9.485-1.534-.506-16.148-4.434-16.148-.527m5.087-5.653c8.533,0,15.239,3.68,20.067,4.805a12.079,12.079,0,0,1-.566,2.261c-1.322-.353-4.493-3.606-13.96-4.976-2.089-.3-3.993-.25-5.824-.677a6.505,6.505,0,0,0,.283-1.413m1.13-3.674a49.62,49.62,0,0,1,10.775,1.944l9.575,3.426c-.1,1.188-.322.932-.566,1.978a46.168,46.168,0,0,0-20.349-4.8,8.753,8.753,0,0,1,.565-2.544m21.48,3.957c.318-1.366,1.6-3,2.261-4.239-1.433.032-3.4.625-4.854.8a34.939,34.939,0,0,1-5.038.331,1.368,1.368,0,0,0,.192.091Zm-20.915-7.065a12,12,0,0,1,3.11,1.978H253.81a15.79,15.79,0,0,0,.283-1.978m13,1.413c4.377,0,10.82-1.488,14.735-2.788,4.155-1.38,8.237-3.563,10.419-6.822l-3.228-2.707c-8.053-5.815-20.507-9.446-30.688-9.446-2.649,0-3.828-.363-4.443,1.493a32.349,32.349,0,0,0-1.775,10.943c0,5.583,9.078,9.326,14.979,9.326m-12.153-23.175a14.758,14.758,0,0,1,.748-2.078c.482-1.173.342-1.144,1.726-1.383,11.712-2.016,22.537,1.541,31.721,7.984,2.822,1.981,4.053,4.014,5.655,5.086l-1.14,2.256c-.649-.436-.836-.746-1.523-1.289l-4.984-3.495a49.541,49.541,0,0,0-7.813-3.774,57.941,57.941,0,0,0-19.3-3.872,21.237,21.237,0,0,0-5.087.565m1.978-5.088c2.469-4.665.458-3.957,8.479-3.957a43.046,43.046,0,0,1,29.03,10.538l2.625,3.028c-.26,1.116-.87,1.994-1.13,3.11-3.1-2.079-1.887-3.073-12.315-8.882-7-3.9-12.658-4.685-20.752-4.685-2.478,0-3.9.679-5.936.848m41.264,7.066c-.719-.192-2.478-2.136-3.325-2.893-3.556-3.175-7.308-4.9-11.391-6.98-.054-.028-.136-.073-.184-.1s-.142-.081-.181-.1a2.048,2.048,0,0,1-.18-.1c2.3-.535,5.7-2.286,6.218-4.522,4.085.951,1.056.524,3.957.283,1.127,1.683,3.6,3.777,5.768,4.134a7.089,7.089,0,0,0,2.711-.46Zm-38.437-12.436c.31-1.329,3.132-6.356,3.957-7.915a5.6,5.6,0,0,1,2.445.947,24.344,24.344,0,0,0,8.86,2.163l1.413,5.087c-3.353,0-5.987-1.37-13.049-.613-1.219.13-2.619.331-3.626.331m48.047,1.413c-1.984,0-3.009-1-4.523-1.13a8.4,8.4,0,0,1,1.3-1.813c.5-.654.835-1.244,1.248-1.861a14.531,14.531,0,0,1,4.24,1.7,2.57,2.57,0,0,1-.791,1.753c-.22.272-1.212,1.356-1.47,1.356m-12.719-5.087c.254.951.48.995,1.289,1.538.493.331,1.146.8,1.552,1.006,1.58.8,2.326.345,3.456-.768,2.493-2.456,3.313-2.371,3.313-7.145-1.549-.362-1.738-.849-3.957-.849-.355,1.329-1.609,2.465-2.421,3.515a9.833,9.833,0,0,1-3.232,2.7M284.9,227.025c1.821-.423,7.61-4.266,8.2-6.782,1.864.041,5.935,1.8,5.935,3.391,0,3.024-.195,4.7-2.183,6.578l-4.325,3.329c-1.69,1-2.569-.155-4.449-2.059-.791-.8-2.906-3.454-3.174-4.458m-12.718-4.239c0,2.632,4.412,6.215,6.784,16.393a24.542,24.542,0,0,0,5.095-1.406,5.589,5.589,0,0,0,3.1-3.116c-.483-.721-1.056-1.214-1.658-2.016l-2.137-3.516c-.594-1.229-.289-.952-1.643-1.466a3.689,3.689,0,0,1-1.115-.58c-1.352-1.013-5.182-6.457-5.6-8.25h-.565c-.357,1.334-2.262,2.391-2.262,3.957m109.1-9.609c4.037,0,4.527-.087,8.582,1.027,1.574.432,1.786.082,2.295,1.38,2.936,7.5-2.674,12.509-8.628,15.952-4.184,2.419-7.316,2.87-11.739,3.53-3.577.534-4.786-.619-6.347-3.241-.924-1.551-.277-1.982.48-3.481a45.093,45.093,0,0,1,3.809-6.366,32.994,32.994,0,0,1,4.688-5.486c1.761-1.7,4.218-3.315,6.859-3.315m-133.4,5.369c2.588-.057,6.42-1.846,8.2-2.261l7.349,6.5c-2.95,5.575-5.882,3.837-10.541.367a30.245,30.245,0,0,1-5-4.607m34.2-7.631c-.655,0-3.147,2.442-3.747,3.037-1.278,1.27-2.416,2.026-1.337,4.017,1.1,2.024,3.875,6.173,5.649,7.361a29.177,29.177,0,0,0,5.369-3.11c3.456-2.439,5.078-4.083,3.316-7.553a5.08,5.08,0,0,0-2.189-2.05,15.491,15.491,0,0,0-7.061-1.7m38.72,3.392c1.081-.289,1.449-1.011,2.1-1.855,2.952-3.825,6.7-8.347,8.23-12.967.537-1.623.319-3.137,1.13-3.957,3.543-3.586,21.324,3.81,21.324,17.65,0,9.781.37,10.515-9.787,13.671a131.163,131.163,0,0,1-21.3,4.7c-1.714.191-4.4.208-5.936.564.1-1.234.876-2.175,1.322-3.483.612-1.794.064-3.2.487-4.6.577-1.911,3.3-2.94,2.43-9.722m35.676,1.194-.064-2.891,1.478,1.349Zm-113.116-3.173c.145,1.128,1.777,4.523,2.261,4.523,2.371,0,8.94-2.29,11.022-3.392-.35-1.313-1.367-1.983-1.695-3.391l-5.772,1.3a32.68,32.68,0,0,1-5.817.966m119.835,17.806c1.462-6.273,7.8-15.207,13.3-18.073,2.844-1.482,6.964-1.51,10.489-.909l5.041,1.177c-1.091-2.062-1.038-2.085-6.016-2.746-7.423-.987-9.826-1.635-14.264,2.816-3.819,3.831-10.067,11.918-10.527,17.453a5.739,5.739,0,0,1,1.978.283m-47.764-3.957c0-8.063-7.834-16.946-14.01-21.6-4.08-3.075-4.615-3.473-7.847-1.952-1.049.494-1.8.693-2.724,1.232a49.537,49.537,0,0,0-6.508,5.081c4.493,0,9.892,3.213,9.892,7.631v1.978a10.381,10.381,0,0,1,4.868,1.633,4.751,4.751,0,0,1,2.449,3.769c.453,4.555-.508,1.811,3.04,3.178,2.991,1.152,3.155,3.873,2.079,6.118,2.549.211,3.893,1.735,4.8,1.978.284-1.222,1.42-2.837,2.168-4.333.482-.965,1.789-3.588,1.789-4.712m-40.416-12.153c-.708-1.056-2.133-2.7-2.261-4.239,2.343-.546,7.329-4.215,8.478-4.522.283,1.214.851,1.5,1.13,2.544-2.232,1.181-6.191,5.443-7.348,6.218m-31.372-7.348c.232.521.684,2.691.848,3.391a54.31,54.31,0,0,0,5.488-1.011c6.878-1.361,5.036-1.714,7.347,1.46,2.163,2.967,1.929,2.85.73,4.64l4.28,3.35c6.309,4.7,2.175,6.619.525,9.085a53.538,53.538,0,0,0,11.023,3.675l-3.463-6.43c-1.2-3.218-2.157-1.9-5.3-7.7-1.87-3.459-3.954-7.41-4.862-11.248-.616-2.6-.819-2.3-3.453-3.047a25.629,25.629,0,0,0-5.251-1.25c-.469,0-3.033,4.68-7.913,5.087m154.033-.565c2.366,1.251,6.166,2.259,4.912,5.167a5.771,5.771,0,0,1-1.52,2.463,14.286,14.286,0,0,0-1.4-3.964c-.368-.717-.619-1.019-1.044-1.783Zm-42.96-.848a20.15,20.15,0,0,1,.795,2.314c.2.753.346,1.733.569,2.258.436,1.029.589.726,1.467,1.359.986.708.576.807,1.409,1.417.568-.849,1.127-1.694,1.7-2.544a22.543,22.543,0,0,0-5.936-4.8m-93.55-.849.969,2.423c.35.833.567,1.34.928,2.181.624,1.458,1.385,2.8,2.06,4.158.768,1.544,1.46,2.649,2.349,4.151s2.28,3.107,2.455,3.762h.565c.31-1.326.513-1.056,1.13-1.978-1.933-3.654-3.663-4.835-6.221-11.3-1.788-4.523-.552-2.83-2.257-2.83a19.064,19.064,0,0,1-1.978-.566m9.892,3.957c2.42,0,5.717-2.774,7.827-4.044.918-.552,1.517-1.052,2.348-1.609a6.253,6.253,0,0,0-1.13-2.261c-2.463,1.3-5.9,4.44-9.892,5.369.223.96.594,1.454.848,2.544m34.481-9.326c-.992,0-4.424,1.074-5.087,1.978,1.28.342,4.056,2.866,5.251,3.793a45.718,45.718,0,0,1,10.2,12.41l1.064,2.328c.338.681.115.311.442.688a14.184,14.184,0,0,0,.848-3.957c0-2.1-3.619-8.644-4.688-10.291-1.307-2.014-5.235-6.948-8.031-6.948m45.221.565c.879.4,1.511,2.761,3.758,3.873,5.972,2.953,5.863,4.351,6.982,5.171a12.58,12.58,0,0,1,.848-1.413,22.35,22.35,0,0,1-2.628-2.178,37.923,37.923,0,0,0-7.268-4.885c-1.87-.918-1.222-1.133-1.693-.567m-82.245,5.935c0,3.2,1.687,3.347,2.515,5.682,1.358,3.834,2.749,3.885,3.137,5.341l-1.13,1.13c-1.672-1.226-7.971-13.045-7.353-14.427.373-.835,4.951-4.478,6.02-5.278,1.409-1.053,5.378-3.89,6.986-4.319,1.485,2.807,3.145,5.936,8.2,5.936a10.864,10.864,0,0,0,3.873-.933c3.672-1.717,5.6-6.619,6.868-7.547,0,2.838.252,6.649,1.13,8.479-1.892-.043-2.628-2.148-9.209,2.66-1.024.748-1.771,1.259-2.783,2.022a21.82,21.82,0,0,1-2.987,2.1c-.307-1.319-.834-1.23-1.007-2.1-.32-1.6,1.556-.944-.879-4.215-2.121-2.849-3.125-.631-7.633,1.879-2.211,1.231-5.744,2.288-5.744,3.583m-48.895-8.762a53.167,53.167,0,0,0,12.276-2.138c1.592-.448,2.445-.93,3.834-1.253a22.775,22.775,0,0,0,.79,4.3c.188.746.288,1.3.518,2.026.3.945.468,1,.67,1.873-1.864,1.249-8.907,5.791-10.739,6.218-2.982-2-7.023-8.48-7.349-11.023m170.991,0a23.865,23.865,0,0,1,3.675.565,5.933,5.933,0,0,1-.283,3.674,11.358,11.358,0,0,1-1.657-2.017c-.593-.744-1.219-1.454-1.735-2.223m-43.242-5.37c-3.308,0-3.109,1.839-3.109,3.391a11.757,11.757,0,0,1,2.7,1.542c1.189.7,4.511.635,8.732,3.14a45.559,45.559,0,0,1,4.966,3.229c.729.56,1.436,1.136,2.192,1.765,1.777,1.481,1.306,1.319,2.61,1.347.388-1.665,1.849-2.571-.724-6.341-3.065-4.491-11.506-8.072-17.364-8.072m-110.226,1.13a4.038,4.038,0,0,0,1.7-.848l1.8,4.981c1.086,3.292,1.875,6.517,6.6,2.573,1.118-.933,1.7-2.358,2.62-3.032a1.839,1.839,0,0,0,1.13.283c-.244,2.93-5.188,9.028-8.493,7.67-1.586-.651-2.725-3.467-3.38-5.123a35.647,35.647,0,0,1-1.975-6.5m75.745,1.13a17.66,17.66,0,0,1,3.674-.565c3.041,0,3.051.77,3.391,1.413-1.519,1.018-3.116.514-5.759,1.306a24.206,24.206,0,0,0-4.7,2.086c.519.774,1.867,1.661,3.185,3.032,2.952,3.071,4.241,5.9,6.089,8.89a5.053,5.053,0,0,1,.9,1.925c1.254-.84,4.446-5.252,5.427-6.726,3.085-4.637,3.9-5.779,3.9-10.514,0-2.841-3.58-8.973-6.218-10.739-2.825,1.495-9.157,7.137-9.892,9.892m-72.354-1.13c.644.292,2.565,5.473,3.11,6.5,1.5-.351,3.807-2.053,4.239-3.675l-3.638-1.45c-.614-.249-1.136-.537-1.74-.8-2.114-.933-1.595-1.044-1.971-.573m22.611,9.892c-3.023-.7-7.032-2.75-10.458-2.826a12.086,12.086,0,0,0,.565-2.262c2.529,0,3.164.472,7.128-.5,8.528-2.1,16.914-7.114,18.026-7.411v1.7c-2.318.54-9.756,5.909-11.8,7.986-1.219,1.238-2.492,1.867-3.464,3.319m119.27-13.849c6.381,0,5.087.346,5.087,4.8Zm-36.742.565c1.3,0,1.275-.253,2.235-.228l6,1.036c20.561,6.409,15.551,21.145,9.853,18.411-.6,2.583-3.512,6.787-5.578,8.837-.532.527-.922.742-1.375,1.168-1.828,1.72.935,9.343,2.431,10.344.1-4.293,8.405-16.248,12.032-19.058a15.042,15.042,0,0,1,2.938-2.149c4.246-2.181,11.183-.66,15.272.292-.484-1.809-5.019-6.776-6.818-8.727l-.678-.735c-.8-.935-1.2-1.351-2.042-2.2A78.293,78.293,0,0,0,363,183.689c-3.039-1.514-8.281-4.146-12.53-4.146-2.267,0-3.329.741-4.028,3.6a43.439,43.439,0,0,0-.777,6.006m-140.75-6.218c5.351-2.831,4.266-4.076,5.936-4.521a11.345,11.345,0,0,1,.565,3.108c0,2.75-5.346,6.368-6.5,1.413m-10.174-1.413,4.64,8.078a56.984,56.984,0,0,0,5.746,6.972,54.117,54.117,0,0,0,6.69,6.029c3.052,2.2,4.424,2.945,9.491,2.945-1.128-1.686-3.616-6.18-3.674-8.762l-5.3-.352c-1.458-.277-1.747-.933-2.339-2.183-2.187-4.61-1.825-6.164-3.8-6.937-1.645-.643-.945-.672-2.376-1.016a15.694,15.694,0,0,1-3.388-1.134,34.451,34.451,0,0,1-5.688-3.64M301.009,198.2c1.223-.286,2.273-1.048,3.508-1.3,1.678-.338,1.34.4,3.511-1.295,1.01-.789.853-1.171,1.969-2.836,5.2-7.766,11.529-10.6,12.211-11.53a19.391,19.391,0,0,1-2.783-1.175c-.794-.317-1.828-.747-2.627-1.047a24.962,24.962,0,0,0-6.179-1.453c-3.718,0-4.008.869-7.284,4.87-1.843,2.25-3.174,3.55-3.174,7.566,0,5.425.848,6.366.848,8.2m71.223-17.524c3.805,0,5.526-.394,5.935,4.523Zm-17.524-4.8c-1.5,0-2.751.257-3.391,1.13,4.506,0,12.554,4.21,15.668,6.095,8.5,5.144,11.182,7.912,17.752,14.467a54.7,54.7,0,0,1,4.979,5.761c1.645,2.185,2.688,4.175,4.166,6.574.686,1.116,1.807,7.442,1.807,8.934,0,11.4-15.325,18.653-26.285,18.653,4.048,6.044,18.665-1.225,21.651-3.22,7.251-4.845,9.767-9.183,8-17.956a34.509,34.509,0,0,0-1.108-4.545c-3.32-8.337-13.562-18.727-20.6-24.342-5.443-4.346-15.29-11.549-22.65-11.549m9.327-.283c2.88,0,4.522-1.03,4.522,2.827a30.236,30.236,0,0,0-4.522-2.262Zm-77.158,21.48c-6.118,0-6.23-6.385-6.783-8.762a23.429,23.429,0,0,0,2.261-1.413c0,2.786.277,7.631,3.674,7.631,3.972,0,6.917-6.8,10.65-11.4.5-.611.62-.8,1.148-1.4l5.225-5.8c.736-.728,3.962-3.532,4.74-3.739,1.216,2.165-2.549,4.144-4.847,7.023-1.72,2.156-3.408,3.977-4.992,6.314-3.226,4.759-6.038,11.534-11.076,11.534M203.5,180.957c3.424,0,12.975-12.274,4.24-13-1.084,2.048-5.461,7.41-7.349,7.913,0,2.365.759,5.087,3.109,5.087m82.81,11.871c-2.006,0-2.692-5.171-2.826-6.783,6.24-3.3,11.588-9.363,11.588-17.24.868.2,1.543.414,2.475.634a18.6,18.6,0,0,0,3.168.223c1.84.13,3.729,1.019,5.379,1.4-.57,1.079-4.041,4.182-5.016,5.158a94.007,94.007,0,0,0-9.518,11.4c-1.059,1.463-3.253,5.207-5.251,5.207M198.7,176.152c0,8.416,4.239,5.33,4.522,7.914a33.892,33.892,0,0,1-8.126-5.723c-4.656-4.7-6.535-7.07-5.038-14.507a18.575,18.575,0,0,0,.729-3.511l.2.362c.025.055.146.309.178.386.15.357.156.451.3.828.65,1.661,1.712,3.648,3.554,4.077-1.7,3.553-.629,10.079,3.674,10.175m18.371-16.393c.439,0,1,1.091,1.3,1.528a11.732,11.732,0,0,0,3,3.214,4.464,4.464,0,0,0,1.916,1.193c0,4.009,1.272,12.7,2.656,16,2.212,5.273,8.938,7.057,10.062,8.591-3.484,1.672-11.5,3.391-15.827,3.391-9.091,0-5.951,1.284-9.77-4.926a6.931,6.931,0,0,1-.969-1.858c3.223-.75,4.522-3.493,4.522-6.782,0-1.98-.933-2.819-1.7-3.957,3.869-5.778.779-10.457-3.109-10.457.219-.94.63-1.786.759-2.633.264-1.731-.4-1.741,1.472-1.921,3.064-.292,4.376-1.382,5.683-1.382m22.61,3.674c.469.375.391,0-.112,1.017-.951,1.913-1.018,1.606-1.018,3.505,0,3.322,10.842,3.852,11.871,0-3.411,0-5.325,2.133-9.892-.283.513-2.2,4.377-9.035,4.523-15.545,1.162-.1,5.056-1.762,5.893.891,1.611,5.1,4.312,9.5,9.29,11.908,10.8,5.217,23.82-2.689,23.82-17.885a19.667,19.667,0,0,0-5.466-13.188l-3.735-2.765a15.674,15.674,0,0,0-18.572,2.311c-3.371,3.394-4.607,5.72-5.86,11.1-1.765-.847-4.417-.088-5.652.564a18.65,18.65,0,0,0-7.063-11.308,13.338,13.338,0,0,0-14.135-1.127c-.21-2.53-1.683-1.511,5.736-2.744,10.406-1.729,20.856-2.085,31.582-2.07l18.31,1.472c6.4.773,5.473-.2,6.958,9.152l2.217,13.894c.262,1.557.5,6.015,2.181,6.015,2.328,0,2.18-8.382,6.988-13.361,6.59-6.823,9.97.791,9.97,3.469,0,5.731-5.068,18.372-12.436,18.372a4.431,4.431,0,0,0-.848-2.545c-1.958,1.435.009,7.811-4.19,13.051a35.464,35.464,0,0,1-6.945,6.055c-1.005.693-1.623,1.218-2.658,1.864a77.315,77.315,0,0,1-11.239,6c-4.024,1.675-9.43,3.835-13.97,3.835-2.124,0-4.174-1.04-5.7-1.653-5.631-2.266-14.684-6.4-19.348-10.044-2.735-2.138-3.868-9.684-4.7-13.671a28.368,28.368,0,0,1-.778-3.178c4.825,2.552,12.524.558,14.979-3.11m-40.7,10.74c-2.381-1.26-2.544-2.425-2.544-5.37,0-3.112.522-3.029,1.7-4.521.467-.594.876-1.108,1.375-1.734l2.846-3.371a2.251,2.251,0,0,1,2.029-1.035c2.095-.041,3.074,1.648,3.074,3.877,0,2.383-2.108,5.394-3.227,6.948-1.307,1.813-3.34,4.194-5.251,5.206m8.2-18.088c1.246,1.083,2.2,1.621,2.543,3.108a27.04,27.04,0,0,0,6.784-1.13,10.2,10.2,0,0,1-1.13-3.391c-1.414.117-4.805,1.413-8.2,1.413M195.306,164l7.074-8.188c3.11-4.28.476-9.335-1.987-9.335-2.288,0-7.065,6.475-7.065,10.74,0,4.522.28,4.246,1.978,6.784m10.457-9.327a12.832,12.832,0,0,0,.566-4.239c1.182-.1,2.969-.379,4.206-.6s2.658-.705,3.99-.815c0,5.111,1.953,3.622-3.888,4.873a19.3,19.3,0,0,1-4.874.779M180.327,138a18.6,18.6,0,0,1,3.391-5.369c1.214,2.294,1.891,4.472,6.5,2.261a13.984,13.984,0,0,1,.848,2.544c-1.936.451-4.8,2.876-4.8,5.935,0,1.561.564,1.891.848,3.109l-1.658-2.016c-.624-.783-1.142-1.458-1.73-2.227-1.086-1.421-2.41-2.765-3.394-4.236m34.481,9.328c-2.855.665-5.836,1.3-8.762,1.978-.689-2.959-1.339-2.621-1.7-3.958,3.013-.067,8.05-1.568,11.023-2.261-.036,1.612-.565,2.347-.565,4.241m-25.719-3.957a3.179,3.179,0,0,1,.955-2.436,3.3,3.3,0,0,1,1.871-1.522c.154,1.853,2.261,6.86,2.261,8.2,0,.66-.6,1.316-.96,1.867-.562.85-.594,1.29-1.3,1.808-.18-2.163-2.826-6.509-2.826-7.914m39,22.328c.491-2.11,11.616-20.83,13.566-23.741a11.471,11.471,0,0,0-3.11-4.8c-.457,1.961-5.862,11.385-7.227,13.686l-2.853,5.061c-.366.687-.506,1.029-.887,1.657l-3.446,6.727Zm33.915-2.262,1.921-3.732c.729-1.163,1.355-2.152,2.052-3.317,1.316-2.2,2.6-4.464,4.056-6.684l8.365-13.116c-1.7-1.142-1.612-2.135-4.522-3.674-2.643,4.993-5.285,9.025-8.181,13.863l-6.144,10.249a13.884,13.884,0,0,0-1.785,3.584,10.021,10.021,0,0,0,4.239,2.827m-39.568-.566.694-1.566c.029-.057.065-.13.094-.188L228,152.325c.63-1.127,1.181-2.18,1.834-3.253l7.862-13.052-5.087-2.544-3.971,7.616c-.689,1.2-1.429,2.472-2.193,3.743l-6.083,11.156c-.8,1.59-1.75,2.317-.648,3.93a11.4,11.4,0,0,0,2.721,2.946m65-28.544c1.163.31,7.715,5.636,11.305,5.935-.967,1.445-1.976,1.138-4.7,5.2-.95,1.418-2.772,5-2.935,6.957h-.565a57.023,57.023,0,0,0-1.387-9.071Zm-31.372,24.87c.691-.506,3.59-5.933,4.151-6.872,1.386-2.324,2.679-4.379,4.1-6.638l8.425-13.338a11.1,11.1,0,0,0-4.523-1.13c-.412,0-3.271,5.2-3.685,5.923-2.19,3.8-10.446,16.771-10.446,18.382,0,1.073,1.685,2.575,1.978,3.674m-1.13-33.633,20.283,1.2-12.273-6.945L254,113.78c-3.238-2.613-3.636-3.989-6.1-3.762l-13.393,1.615c-4.776.8-12.3,2.214-15.747,4.037,1.112,2.317,3.109,10.724,3.109,13.567a20.24,20.24,0,0,1,4.034-.771,147.872,147.872,0,0,1,29.035-2.9m-71.223.566a30.744,30.744,0,0,0,1.506,3.864c2.469,4.9,1.174,2.908,4.429,2.637-.583-2.5-2.361-7.143-2.544-9.327-.846.566-3.391,1.726-3.391,2.826m7.348-9.609c0-2.286,11.755-6.627,14.45-7.6,1.373-.494,3.835-1.607,5.335-1.732a7.392,7.392,0,0,0-.848-1.978l-6.136,2.343c-1.955.765-15.91,6.285-15.91,8.679,0,1.878,6.338,21.734,7.522,25.263a15.273,15.273,0,0,1,.957,3.565c1.3-.109,1.99-1.142,3.463-1.364s2.088.339,3.97.043c2.813-.442,5.016-.8,7.668-1.383,5.535-1.223,4.426-.954,5.721-3.325a15.148,15.148,0,0,1,1.855-2.666l.951-1.027c.358-.352,1.243-.918,1.243-1.3,0-1.956-1.076-1.363-1.494-2.745l-.322-1.94c-.1-.693-.281-1.735-.367-2.177-.586-3.027-3.187-9.684-3.187-11.226,0-2.387.142-.675.565-2.261-1.391-.736-1-1.14-2.218-.846-5.161,1.244-14.159,5.085-20.392,5.085-1.774,0-2.827.289-2.827-1.413m39.286-60.483c-1.825,2.726-3.838,5.146-5.533,8.033a72.263,72.263,0,0,0-9.329,24.586c-.2,1.241-.392,5.214-.682,5.818-2.852-.762.181-12.766.565-13.566-2.6-.693-5.886-8.832-5.935-11.022h-.566c0,2.161-.516,4.176-.567,6.215-.058,2.258-.28,3.726-.28,6.22,0,9.516,1.271,18.468,6.385,25.836.882,1.271,3.4,4.777,4.961,4.457l7.943-1.96c2.911-.576,5.3-1.1,8.358-1.533,2.562-.362,6.114-.959,8.813-1.079a15.994,15.994,0,0,0,2.516-.067c1.642-.513-1.608-1.711-1.669-4.455,1.022.273.886.517,1.631,1.195a103.776,103.776,0,0,0,12.949,10.509c.628.411.987.582,1.585.96s.886.622,1.552.992c12.786,7.1,22.754,12.911,38.527,12.911l-1.319-.942a109.266,109.266,0,0,1-22.5-17.635c-2.913-3.026-9.792-11.374-10.1-15.057,1.888,1.265,2.737,3.134,4.173,4.873.735.892,1.289,1.638,2.005,2.517.409.5.611.649,1.05,1.211a9.031,9.031,0,0,0,1.034,1.226c.426.428.738.679,1.133,1.128,2.465,2.8,5.26,5.29,7.91,7.917a93.973,93.973,0,0,0,10.03,8.058c1.8,1.344,3.421,2.46,5.333,3.712.9.588,5.2,2.666,5.2,3.558,0,1.7-2.209,1.416-3.75,1.619a17.171,17.171,0,0,1-4.523-.129c-3.056-.418-6.156-.271-8.967-.925.879,1.311,4.433,3.436,6.053,4.4,6.34,3.787,17.293,6.335,24.753,6.335,5.45,0,8.647-1.071,11.305-1.13l-1.446-.815a63.2,63.2,0,0,1-17.991-10.272,71.193,71.193,0,0,1-10.807-10.673c-1.6-2.054-6.146-7.895-6.215-11.025a18.452,18.452,0,0,1,2.664,3.271,85.662,85.662,0,0,0,7.864,9.377l2.967,2.967,2.963,2.69c2.469,2.2,3.247,3.458,7.847,3.458,9.021,0,8.133-1.1,11.871-1.414-.466-.634-4.551-3.016-5.6-3.729-.64-.437-1-.69-1.631-1.195-.87-.693-.78-.873-1.841-1.268-.8-.3-1.516-.394-2.421-.689-1.5-.49-3.059-.942-3.207-2.728,3.32,0,5.766,1.207,8.841,1.615,3.715.493,10.126,1.277,14.051.363-.482-.658-2.83-1.926-3.729-2.49a92.275,92.275,0,0,1-14-10.868c-2.631-2.562-5.511-4.8-8.062-7.483-.624-.654-.731-1.043-1.338-1.487-3,.7-7.092,3.8-9.258,6a6.6,6.6,0,0,1-2.9,2.193c0-6.527,16.964-13.144,22.045-13.566-.9-1.224-6.155-2.954-7.806-3.5l-8.589-2.433c-1.582-.39-2.892-.633-4.718-.934a97.006,97.006,0,0,0-15.628-.765,9,9,0,0,1-1.469,2.488c-.488.777-.963,1.546-1.361,2.313-.673,1.3-1.473,4.166-2.822,4.526-1.16-4.981,6.9-14.393,9.679-17.169a65.917,65.917,0,0,1,7.355-6.212c2.212-1.654,7.015-3.96,8.4-5.164-1.852,0-2.98-.254-5.1-.272-1.734-.015-2.971-.294-5.077-.294-2.385,0-3.829.3-5.929.289a49.381,49.381,0,0,0-5.9.321c-3.619.371-7.347.969-10.765,1.671-9.711,2-15.41,5.5-18.391,6.2,0,1.478-.379,1.755-.293,3.383.172,3.282.858,6.571.858,10.184-2.538-.678-3.186-9.481-2.99-11.467a22.113,22.113,0,0,0,.158-2.67c-.031-7.639,3.657-15.952,7.354-21.474a9.8,9.8,0,0,0-2.881,1.358,116.716,116.716,0,0,0-12.062,8.287,51.33,51.33,0,0,0-6.322,5.829l-3.769,4.427a43.234,43.234,0,0,0-4.737,7.417c-.618,1.244-2.132,4.257-2.165,5.748-.443-.325-.565-.052-.565-.849,0-6.21,2.867-7.934,3.455-10.323,0,0-.72-7.847.287-12.783.15-.735.319-1.688.551-2.559.288-1.074,1.026-2.177.511-2.6m.565,14.979c0-14.434,3.109-15.967,3.109-18.936,0-2.279-2.538-.17-3.042.349a61.851,61.851,0,0,0-11.615,17.5c-.812,2-2.966,6.244-3.148,8.439-.884-.236-.843-.5-1.31-1.233l-4.846-10.416c-.3-1.143-.14-1.354-.909-1.916L207.9,68.346c-2.7,9.562-2.921,27.027,1.538,35.454-5.378,1.252-17.665,5.34-22.406,9.814-3.062,2.888-.564,4.82-.487,8.274-1.784.148-5.087,1.989-5.087,3.674a15.172,15.172,0,0,0,.848,3.676c-1.655.876-4.6,4.338-5.547,6.041-1.759,3.167.942,5.76,2.526,7.719l10.652,12.524-1.354,4.3c-.4,1.592-.872,2.889-1.157,4.5-.886,4.978-.536,9.332,2.867,12.894a10.7,10.7,0,0,1,1.945,3.708c3.84,9.585,11.227,19.611,19.908,25.313a15.5,15.5,0,0,0,9.162,2.425c1.945,0,1.454-.986,2.907.478,3.132,3.155,6.079.494,9.243-1.612l5.656-3.671c.346,1.3,1.556,1.882,2.544,2.544a15.953,15.953,0,0,0,.393,3.329c.329,2.346-1.972.755.457,6.279,1.53,3.481,2.583,1.85,4.284,4.194a28.652,28.652,0,0,0,6.409,6.31c1.343.992,3.78,2.5,5.981,2.5,2.577,0,.714-.7,3.109.565a8.158,8.158,0,0,1-1.53,2.709c-.615.938-1.049,1.738-1.6,2.644-1.074,1.781-2.133,3.75-3.093,5.669-12.1,24.219-3.78,27.372-3.853,28.76l-3.212,9.677c-3.364.28-5.451,2.679-4.337,5.736.442,1.214.919,1.3,1.511,2.178a4.015,4.015,0,0,1-1.782,1.61c-3.136,1.669-2.2,1.126-5.4.486-5.109-1.023-18.729.453-21.554,3.93-1.714,2.109-7.18,2.755-8,5.844-1.741-.145-2.31-.421-3.623.9-3.376,3.392-.5,7.76,3.057,8.71-.228,2.744-1.074,8.762,2.827,8.762,2.451,0,5.154-1.547,7.065-2.826,1.468,2.774,1.87,6.783,5.936,6.783,2,0,3.344-2.154,4.8-2.544a15.748,15.748,0,0,0,2.086,4.132c3.093,4.721,6.038,2.057,8.655.672.243,2.918,2.559,5.936,5.652,5.936,1.541,0,3.136-1.805,4.239-2.544.7,2.632,5.5,8.61,9.61.848,3.616,1.735,9.609,1.34,9.609-3.957a2.931,2.931,0,0,0-1.978-2.826c.831-3.568.479-8.478.89-12.394.416-3.964,1.371-8.288,1.371-12.194,2.84,0,4.535-.874,5.486-3.845a4.938,4.938,0,0,0,.165-3.206c-.37-1.5-.723-1.53-1.411-2.559a102.279,102.279,0,0,1,4.235-9.613c1.745-3.542.92-3.76,4.42-4.907a29.153,29.153,0,0,0,9.274-4.858c3.5-2.723,5.633-6.922,7.5-11.153.969-2.2,1.741-4.491,2.515-6.811.707-2.118,1.963-5.012,2.014-7.313,4.122.96,5.4,2.073,8.314-2.427a32.854,32.854,0,0,0,2.709-4.921c4.771,1.112,14.308-.8,19-1.92a130.461,130.461,0,0,0,13.826-3.979,16.737,16.737,0,0,0,7.312-4.559c.091,4.052,2.05,6.97,5.608,7.959,1.43.4,2.667-.077,3.459,1.344.89,1.6.465,1.315,1.918,2.606,2.238,1.991,1.832,5.9,8.8,5.9,8.958,0,19.333-5.278,24.186-11.708,4.785-6.341,2.43-11.763,3.285-13.084,2.217-3.426,8.135-8.736-2.717-13.245-1.122-.466-2.044-.746-2.992-1.247,0-4.246,3.132-8.48-6.5-8.48,0-3.062.8-5.152-1.476-7-1.915-1.557-4.894-.854-7.568-1.476-.281-3.373-1.2-7.632-5.37-7.632a16.066,16.066,0,0,0-4.24.849c-.866-10.4-9.059-4.169-9.9-4.094-1.966.175-6.392-3.619-12.272.858-4.3,3.275-5.394,4.4-6.26,10.415-.192,1.328.058,2.963-.142,4.1s-.952,1.34-1.1,3.138c-3.827-.319-5.53-3.11-10.175,0a20.89,20.89,0,0,0-3.1-6.787c-.615-.938-1.769-1.8-1.951-2.854-.4-2.327.266-2.145-1.519-3.568-3.16-2.522-10.8-4.879-15.188-4.879,3.194-4.768-3.521-7.807-8.2-8.2,1.418-2.117,2.276-2.13,5.317-7.118,2.433-3.991,3.162-7.953,3.162-12.665a8.82,8.82,0,0,0-1.414-3.957c2,.167,4.346.8,6.493.857,1.477.037,2.409.09,3.487.206,2.765.3,10.349-1,13.24-1.868a4.522,4.522,0,0,0,2.5-1.456c-.495-2.122-4.606-2.837-8.008-4.427-2.023-.945-6.91-2.991-8.1-4.617a39.037,39.037,0,0,0,8.542-.785,33.878,33.878,0,0,0,3.511-1.011c7.443-2.488-3.313-5.248-4.986-7.53,1.278.028,1.123.283,2.544.283,4.7,0,10.158.493,14.7-.565.651-2.8-1.791-2.591-6.954-6.047a105.361,105.361,0,0,1-11.772-8.86c-2.428-2.163-9.34-7.562-10.949-9.964,4.223-2.235,11.588-2.119,11.588-4.24,0-3.75-21.021-9.117-26.842-9.617-2.179-.187-9.754-.876-11.6.008.267-1,.269-.626.878-1.384l3.572-4.059a49.374,49.374,0,0,1,11.28-8.5c1.166-.633,1.864-1.073,3.11-1.694,1.014-.506,2.923-.975,2.923-2.165,0-2.051-7.881-1.99-9.894-1.977-1.815.011-2.539-.21-3.96-.292a28.068,28.068,0,0,0-3.66.3c-1.4.043-2.858-.037-4.26-.019A86.3,86.3,0,0,0,258.693,69.4c-1.331.531-4.531,2.366-5.731,2.466,1.2-5.137,1.789-10.357,4.575-14.927.535-.877.907-1.6,1.448-2.508,1.432-2.418,5.361-5.74,1.325-5.74-3.113,0-13.226,6.9-16.4,9.323a67.37,67.37,0,0,0-6.851,6.15l-4.619,4.991a9.353,9.353,0,0,1-1.529,1.863" transform="translate(-110.168 -40.449)" fill-rule="evenodd"/>
  </g>
</svg>
