<svg id="Group_104" data-name="Group 104" xmlns="http://www.w3.org/2000/svg" xmlns:xlink="http://www.w3.org/1999/xlink" width="348.685" height="299.363" viewBox="0 0 348.685 299.363">
  <defs>
    <clipPath id="clip-path">
      <rect id="Rectangle_122" data-name="Rectangle 122" width="348.685" height="299.363" fill="none"/>
    </clipPath>
  </defs>
  <g id="Group_103" data-name="Group 103" clip-path="url(#clip-path)">
    <path id="Path_1661" data-name="Path 1661" d="M317.76,498.626s9.622,1.2,13.7-1" transform="translate(-145.612 -157.27)" fill="#f0eeec"/>
    <path id="Path_1662" data-name="Path 1662" d="M317.76,498.626s9.622,1.2,13.7-1" transform="translate(-145.612 -157.27)" fill="none" stroke="#000" stroke-miterlimit="10" stroke-width="1.805"/>
    <path id="Path_1663" data-name="Path 1663" d="M306.269,95.934c-4.8-1.855-27.918,7.229-32.539,10.38-2.975,2.027-8.43,5.42-10.9,7.907-8.37,8.44-8.673,6.858-6.669,13.425.636,2.084,3.622,9.941,4.733,10.8a3.4,3.4,0,0,1,.243.34c.061.093.161.22.232.334,4.491,7.227.692,2.6,7.267,8.764.063.059.163.123.226.187,1.066,1.085.644-.175,1.022,1.819l0,0c1.826.615.972.053,1.632,1.633l-.407,0c1.716.582.963-.113,1.344,1.633l-.117,0c1.287.419.805-.064,1.224,1.224v.411c1.242.439.743-.239,1.193,1.224-.263,1.429-.525,0,1.669,3.268.792,1.181,1.457,2.16,2.343,3.38,2.824,3.9,10.13,17.053,12.24,21.276.681,1.366.972,2.307,1.628,3.685.4.834.585,1.268.9,1.957l7.363,17.979c.94,2.586,1.846,5.749,2.906,8.131,1.052,1,.663-1.088.87,1.016-.01-13.009-3.613-31.453-6.088-44.007-1.244-6.316-5.165-24.85-7.322-30.721-1.162-3.167-3.167-6.2-4.01-9.117,2.717.617,9.35,5.965,11.544,8.13.687.679.941,1.149,1.523,1.695l1.613,1.551a1.911,1.911,0,0,1,.232.332l-.407.411c1.127.888.326-1.031,1.2,1.633-.4,1.266,2.584,9.7,3.466,14.134.511,2.566.856,5.37,1.383,7.61,1.225,5.211,1.276,13.982,1.807,16.584l5.925,12.059c.891,2.241,1.629,4.852,2.566,6.853.949.334.588-.478.816.8l-.407.411c.772-.571.087-1.1.121-2.753l2.846-22.952c1.073-15.569-1.279-21.314-1.124-27.624-.834,1.385-2.524,10.211-3.209,13.128a8.616,8.616,0,0,1-1.6,4.027c-3.068-12.5-7.882-32.361,3.3-41.967,2.023-1.738,7.169-5.687,10.253-7.008-1.366.276-.135.12-.771-.686-2.307-.085-7.061-.845-10.673-.484-5.371.536-9.2.032-15.9,2.527-5.748,2.141-5.2,1.135-5.852,3.139-.456,1.4-.527,7.424.13,9.124l-.815,1.075c-1.37-1.583-3.954-8.825-4.813-11.4-1.749-5.25-2.268-8.667.612-13.089,2.554-3.924,8.751-9.107,12.742-11.779,1.247-.836,3.972-2.157,4.879-3.228h-.52c-.646.6.375.7-1.865.816M274.738,157.8c.639.363.538.1.237.8.833.154.585-.642.675.481l.373.663-.373-.663-.675-.481-.237-.8-.085-.144Z" transform="translate(-129.934 -56.5)" fill="#ffc800" fill-rule="evenodd"/>
    <path id="Path_1664" data-name="Path 1664" d="M366.813,352.856c.448,2.539-1.155,2.215-2.254,1.067a8.706,8.706,0,0,1-1.6-3.738c-2.245-8.128-7.739-18.423-8.61-22.875,1.067.171.172-.19,1.8,1.818l2.175,2.638c.053-.084.206.168.315.243-.651-1.277-.8-.292,0-1.223,1.714,3.24,3.28,3.466,6.249,10.918a51.238,51.238,0,0,1,3.561,13.606c-.657-.946-.367-1.515-1.633-2.453m-8.357-20.845c.334,2.11-.139.708,1,1.224Zm-1.046-2.452c-1.514,1.3.094.21.1.223.176.374.68-.891-.1-.223m30.946-2.454,1.1-.816c-1.634,0-.624-.246-1.1.816l-1.509-.833c.873-3.3,5.225-4.163,5.305-7.749-3.511,0-6.446-2.127-8.283-3.978-3.707-3.739-3.888-4.769-4.877-5.766-.876-.882-.073-.2-1.05-.883-.164,1.429-3.444,5.029-4.606,6.523-2.423,3.119-3.5,5.538-5.5,4.34a10.832,10.832,0,0,1,.456-1.463c-.241.151-2.068.87-1.71-1.784.385-2.846,2.269-7.795,2.269-11.7a36.965,36.965,0,0,1-4.367.949c-4.677.7-11.848-1.1-15.386-1.358,1.729,1.508,1.417,3,1.464,5.726.059,3.454-2.272,14.062-4.187,16.773-1.987,2.814-3.859,5.448-6.592,7.286l-7.972,4.96c-.925-1.061-.322-.368-1.382-.755l1.021,1.379c4.925,6.468,3.475,7.045,3.475,15.722a9.492,9.492,0,0,1,3.514,1.8c1.136.755,2.118,1.341,3.309,2,13.228,7.371,12.41,3.606,27.513,3.54,4.968-.021,2.178.109,8.119,2.52,2.774,1.126,4.531,2.394,8.627,2.415,4.372.022,5.675-.528,8.068-2.588,3.708-3.193,1.588-2.744,8.293-2.744-.148-1.786-1.238-3.092-1.236-5.722s1.41-4.232.829-6.342c1.068.277.816.5.816-.589-1,0-.816-.288-.816.589-1.789-.222-2.941-.6-2.9-2.631a7.059,7.059,0,0,1,.686-2.235c.767-1.2.323-.945,1.807-1.093-.75-1.249,1.707-2.418,2.994-3.1,1.574-.833,3.41-1.284,4.364-2.585-.805-1.1-1.838-1.351-2.964-2.35-5.247-4.659-5.3-7.125-7.1-9.052-.065-.07-.193-.173-.247-.229a2.767,2.767,0,0,0-.254-.222l.346,1.241c-1.538-1.571-6.454,2.726-9.37,2.021-1.187-.286-1.76-1.252-.968-2.038m-18.683-1.224c1.247.608.307-.385,1.224.879-2.216-.334-.493.128-1.224-.879m18.8,18.393c1.8,1.235,1.121,1.479,2.451,2.453-.349-4.186-6.3-9.746-9.091-12.572a19.027,19.027,0,0,0-2.879-2.434l-9.464-6.253a1.5,1.5,0,0,0,.18.445c-2.258-.466-.428.121-1.224-.849l0,.266c-4.453-2.012-2.394-2.487-4.882-2.726.406,2.193,4.9,5.259,6.379,6.688l12.648,13.921c1.947,2.33,3.543,6.978,7.054,4.772.3-1.627.4-.543-.058-1.94l-.695-1.181c-.06-.091-.156-.22-.206-.294a3.32,3.32,0,0,1-.211-.295M373.35,328.567c-2.1-.432-.707.111-1.224-1.052.131.076.286.157.391.233Zm-1.635-1.054c-1.087,0-.816.271-.816-.816,1.087,0,.816-.272.816.816" transform="translate(-148.785 -108.644)" fill="#585858" fill-rule="evenodd"/>
    <path id="Path_1665" data-name="Path 1665" d="M298.672,428.536c.09-.085.2-.195.27-.253s.186-.174.268-.241l.789-.585a10.823,10.823,0,0,1,1.4-.619,55.655,55.655,0,0,1,22.583-3.478c-1.358,21.13-2.3,21.608,9.452,40.449,1.376,2.2,6.014,8.458,6.683,10.222l-10.9,3.253c-3.392.7-8.094,1.708-11.336,1.731,2.244,2.573,16.914,1.79,19.644,1.58,12.931-.992,15.511-1.489,22.456-14.329,5.495-10.159,4.367-9.678-1.231-20.432-.8-1.536-1.744-3.346-2.442-4.915-2.2-4.955-5.319-11.339-5.319-16.753-5.494-1.28-7.64-5.722-26.159-5.722-17.734,0-21.483,4.891-26.568,5.314.04,1.792.409,2.436.409,4.779" transform="translate(-140.731 -137.446)" fill="#e25800" fill-rule="evenodd"/>
    <path id="Path_1666" data-name="Path 1666" d="M296.762,430.137a44.1,44.1,0,0,1-.84,6.235c-.448,1.972-1.2,3.667-1.2,6.153h-.409c0-3.749,1.147-6.308.676-9.81l.283-2.576c-.115,0-1.762,0-1.773,0-1.024.177-.559.073-1.23.645-1.265,4.679-1.634,5.463-1.634,11.736,4.542,1.058,7.835.74,9.661,6.28l6.287,17.42c.407,1.116.758,1.783,1.175,2.912,1.227,3.314,4.307,12.507,8.218,11.48,3.242-.023,7.944-1.032,11.336-1.731l10.9-3.253c-.669-1.764-5.307-8.017-6.683-10.222-11.752-18.842-10.811-19.319-9.452-40.449a55.655,55.655,0,0,0-22.583,3.478,10.82,10.82,0,0,0-1.4.619l-.789.585c-.082.067-.2.183-.268.241s-.18.169-.27.253" transform="translate(-138.82 -139.046)" fill="#fa8a00" fill-rule="evenodd"/>
    <path id="Path_1667" data-name="Path 1667" d="M230.879,106.36c0,.7.127.409-.815.409-2.586,1.372-9.855,16.13-11.439,19.628-1.5,3.313-8.178,20.705-6.547,24.926-.25,2.046.281,4.573-2.254,4.249-2.782-.355-8.635-5.557-10.275-8.068-2.435-3.731-4.1-15.045-3.821-20.373,0,3.25.164.652-.815,1.709-1.511,10.552-1.166,17.4,1.391,27.631a49.925,49.925,0,0,0,1.925,5.84,36.9,36.9,0,0,0,2.319,5.448c1.415,2.421,4.137,8.24,6.627,8.905.615-1.28.713-1.211.411-2.453.419-1.288-.064-.805,1.224-1.224l0,.407c.068-.118.3-.567.338-.666.594-1.732.31-3.373.649-5.686l1.871-5.909c.7.613.347.963.533,2.3.073.529.271,1.912.454,2.838a22.961,22.961,0,0,0,1.465,4.668c1,0,.816-.288.816.59,1.043.184,2.815-1.224,4.025-1.878,6.871-3.711,27.079-12.225,29.367-14.584-7.336-5.211-11.26-12.308-14.617-15.728.855,4.046,4.613,9.87,4.892,13.888-2.485-1.4-5.105-6-6.731-9.031-4.189-7.817-5.013-18.181-3.674-26.973.9-5.873,4.2-13.754,2.678-10.868" transform="translate(-114.632 -59.161)" fill="#ffc800" fill-rule="evenodd"/>
    <path id="Path_1668" data-name="Path 1668" d="M213.989,498.161l-.244-.657c0-.862.238-.685-.55-.685,0,.856-.235.677.55.685l.244.657c.961,2.592,8.736,11.411,11.293,13.409,1.178.92,1.664,1.463,2.915,2.4,5.459,4.092,9.47,3.957,16.471,3.966,7.323.009,7.448-.342,12.674-7.763.858-1.219,3.568-5.248,3.676-6.543-2.727.061-4.631,1.574-7.358,1.635.8-3,10.294-4.435,14.715-11.036a9.509,9.509,0,0,0-2.346-3.376c-4.328-4.421-9.592-10.64-16.119-13.719-1.973-.93-4.252-2.224-6.534-2.508l-2.508.292a1.318,1.318,0,0,0-.288.142l2.985-.006c-1.031,3.491-2.054,6.777-3.075,10.454-.629,2.264-1.916,8.725-3.8,9.774-11.437,6.38-13.965.418-22.7,2.879" transform="translate(-119.425 -151.511)" fill="#e25800" fill-rule="evenodd"/>
    <path id="Path_1669" data-name="Path 1669" d="M340.74,146.907c-1.211.957-.789.487-1.635,3.679l-1.092,3.4a2.168,2.168,0,0,1-.132.277c0-10.176,5.234-16.412,12.152-23,1.349-1.285,2.111-1.062,2.562-2.751a16.363,16.363,0,0,0-5.311-1.226c.636.806-.6.962.771.686-3.084,1.322-8.23,5.27-10.254,7.008-11.179,9.607-6.365,29.468-3.3,41.967a8.609,8.609,0,0,0,1.6-4.027c.684-2.917,2.374-11.743,3.209-13.128-.155,6.311,2.2,12.056,1.124,27.624l-2.845,22.952c-.035,1.652.651,2.182-.121,2.753a15.071,15.071,0,0,1,.409,2.859c1.988-.166,1.394-.383,2.2-2.3,6.092-14.494,9.655-33.314,9.655-48.794,0-3.383.177-5.806.408-8.583l.807,3.689c.118,2.056.42,2.66.42,4.486a18.866,18.866,0,0,1,4.647,1.075l4.014,1.708c4.191,2.164,2.056,3.759,1.966,7.844,1.852-.154,3.49-1.475,5.714-2.052,1.927-.5,4.523-.851,6.14-1.627-.5-1.854-2.832-4.257-4.088-6.131a24.876,24.876,0,0,0-6.131.817c1.912-2.61,8.434-3.27,11.853-3.27-.047-2.059-.022-1.759-1.489-2.453-.488.387.05.4-1.454.148a8.251,8.251,0,0,1-1.913-.606c-5.01-2.212-14.556-10.858-21.456-11.525,1.31,3.14,4.618,4.562,6.984,6.939l-16.047-6.74Zm-2.861,65.806c-1.047-.319-.816.585-.816-.8.949.334.587-.478.816.8" transform="translate(-148.875 -64.554)" fill="#e49600" fill-rule="evenodd"/>
    <path id="Path_1670" data-name="Path 1670" d="M316.678,283.22c-2.169.912-.913-.256-1.22,1.224-1.618-.69-.782-.69-1.115.409l1.115-.409.912-.922c.076-.075.2-.2.308-.3m-9.6,8.586c2.619-.427,3.221-2.268,5.065-3.844l3.81-3.541c.066-.063.157-.145.22-.208l.425-.468c.049-.055.171-.108.205-.259s.145-.171.205-.266l.763-1.06c2.356-2.179,2.215-1.568,6.485-5.784,4.972-4.911,3.672-6.55,3.586-8.913a2.172,2.172,0,0,1-.013-.324c-1.082.186-.816.417-.816-.675,1.034,0,.816-.281.816.675l.276.57a30.6,30.6,0,0,0-3.776-7.965l-4.675-7.361c0,2.472.217.78-.816,1.406,0-1.954-.26-.839.816-1.406-2.355-5.2,7.768-5.015,7.768-18.211h1.226c.407,1.747.992,2.789,1.4,4.736.43,2.072.081,3.241,1.466,4.257,1.574-1.153,5.177-11.035,5.313-12.671l1.636.557c1.418,1.157,2.015,2.307,3.976,3.639a20.736,20.736,0,0,0,5.032,2.848l-1.649-4.591c.094.074.2.19.265.248,1.837,1.634,1.166,1.268,2.592,1.387-2.768-4.135-.43-4.568.41-8.175-1.451.972-.892,1.472-2.861,1.635a12.247,12.247,0,0,1,.141-2.72c.306-1.506,1.323-1.431.268-2.185l-1.093,1.53c-.06.066-.221.331-.267.255s-.178.176-.273.259c2.2-9.586,11.3.445,10.627,4.819l.064-5.228c.7.5.869-.542.78,3.685a23.493,23.493,0,0,1-1.852,9.207c-2.478,5.261-4.165,5.535-8,6.739-2.514.789-.343.075-1.1,1.78-.412.93-2.2,1.4-4.146,6.846-3.554,9.92,1.894,11.6-7.913,21.516A87.019,87.019,0,0,1,317.287,287.8c-2.264,1.533-7.6,5.113-10.208,4.008-.735.813,1,.853-1.731.876-2.7.022-1.067-.135-1.632-.876Z" transform="translate(-142.096 -88.057)" fill="#ecb482" fill-rule="evenodd"/>
    <path id="Path_1671" data-name="Path 1671" d="M271.944,250.236c-1.049,2.715.069,3.05-.066,5.262-.084,1.386-.37.621-.23,2.42a9.445,9.445,0,0,1,.3,2.13c.856,1.027.807-1.529.818,2.03,1.2-.42,9.845-6.916,12.671-5.17,2.873,1.776-.641,3.919-.681,4.986-.144,3.882.139-.78.275,1.436l-1.229.359c-1.158-.211-.361-.186-1.4.259s-.23.22-1.33.72c-2.517,1.143-9.03,2.478-9.943-.943-3.465.289-.266,2.788-7.368,6.937-4.974,2.906-5.7,1.646-11.842,1.646l5.484,10.865c2.4,4.341,3.153,5.853,7.873,8.477,4.131,2.3,20.908,8.583,25.472,6.82h3.363c2.619-.427,3.221-2.268,5.065-3.844l3.81-3.541c.065-.063.157-.145.219-.208l.425-.469c.049-.055.171-.108.206-.259s.145-.171.2-.266h-.33c-.1.1-.233.227-.308.3l-.912.922-1.115.409c-.787-.048-.063-.148-1.085.163-5.1,1.556-10.021,6.661-17.438-2.484l-8.863-11.578a17.1,17.1,0,0,1-1.436-1.893c-.283-.982-.347-.43.112-1.049,1.047-1.409.439-.615.916.081,1.827-.614.972-.052,1.633-1.633-.851-.582-1.108.659-.4-.817.789-1.305-.205-.109.688-.964.615-.588.124-.119.945-.477,1.568-.013,1.257-.758,4.416-2.726,3.494-2.178,11.281-7.292,15.361-6.229,2.981.777,7.445,3.326,9.934,4.8,5.385,3.192,6.149,5.49,7.893,6.415,1.033,0,.816-.281.816.675l.277.57a30.623,30.623,0,0,0-3.777-7.965l-4.675-7.361c0,2.472.217.78-.816,1.406l-1.123,1.325A7.922,7.922,0,0,1,303.01,258c-1.512.125-7.094,2.81-12.953.281a12,12,0,0,0-3.805-1.365c-1.937-.249-1.01.12-1.633-1.369-.784-1.478-2.225-2.245-3.447-3.5-1.145-1.177-2.086-3.483-3.1-4.264-.876-.034-5.784,1.805-6.133,2.454" transform="translate(-129.128 -94.72)" fill="#fedeb6" fill-rule="evenodd"/>
    <path id="Path_1672" data-name="Path 1672" d="M393.135,294.511l1.475,2.625c.707,1.053,1.094,1.38,1.792,2.281a43.7,43.7,0,0,0,3.783,3.983c3.054,3.083,9.165,5.661,10.117,5.415a13.41,13.41,0,0,0,2.349-2.556,34.923,34.923,0,0,0,2.258-3.056c1.644-2.218,2.968-3.688,4.547-6.08,4.093-6.2,4.846-6.48,8.232-12.9.048-.091.121-.232.19-.343-.929.369-.74-.19-.879.406,1.214-7.937-10.342-18.635-18.757-9.829-3.461,3.623-8.374,11.141-11.051,15.934-.577,1.033-2.235,4.9-2.7,5.341-.088-.1-.336-.439-.406-.505Z" transform="translate(-164.482 -100.572)" fill="#ecb482" fill-rule="evenodd"/>
    <path id="Path_1673" data-name="Path 1673" d="M263.864,153.3c-.382-1.746.372-1.05-1.343-1.633-.532-.013-.315.658-.659-.2-.466-1.166-.874.543.248-1.024a2.184,2.184,0,0,0,.052.37l.765.854c-.661-1.579.194-1.018-1.633-1.633q-.817.813,0,0c-.377-1.993.043-.734-1.023-1.819-.062-.064-.163-.127-.226-.187-6.575-6.167-2.776-1.537-7.267-8.764-.07-.112-.17-.241-.231-.334a3.665,3.665,0,0,0-.243-.34c.606,1.454.252,1.358,0,1.633l-3.47-6.34c-.5-1.012-.659-1.517-1.161-2.517-4.8-9.566-4.481-19.377-3.941-29.553.109-2.065.762-4.163.806-6.143-2.217.184-6.233,5.877-6.517,6.512-.051.114-.183.462-.22.585l-.214,1.075c-1.042-.52-.815-.732-.815.409.942,0,.815.294.815-.409,1.522-2.886-1.783,4.994-2.678,10.867-1.339,8.793-.516,19.157,3.674,26.974,1.626,3.032,4.245,7.635,6.73,9.031-.278-4.018-4.037-9.842-4.891-13.888,3.357,3.421,7.281,10.518,14.617,15.728-2.289,2.36-22.5,10.874-29.367,14.585-1.211.654-2.983,2.062-4.025,1.877,0-.877.186-.589-.816-.589,0,1.1-.258.887.816.589-.695,1.669.354,1.343.819,3.087l9.1-4.794c10.452-4.324,18.159-7.31,29.213-9.652,3.513-.744,2.644-.042,2.966.292,2-.079.57.116,1.111-.56a8.274,8.274,0,0,0-.031-1.159c-.288-1.07-1.223-1.7-2.306-3.746Zm1.107,1.226a3.677,3.677,0,0,1-.37-.24l-.614-.614c-.07-.214-.161-.246-.24-.37,1.289.419.805-.064,1.224,1.224m1.195,1.635-1.193-1.224c1.241.439.743-.239,1.193,1.224m-6.1-6.948c.044-.044.172.01.172.072,0,.025.073.029.071.028s-1,.654-.244-.1" transform="translate(-121.338 -56.637)" fill="#e49600" fill-rule="evenodd"/>
    <path id="Path_1674" data-name="Path 1674" d="M420.942,321.4l.455,1.165a42.63,42.63,0,0,0,5.088,8,23.5,23.5,0,0,0,7.945,6.36c.835.094,18.785-10.568,20.541-12.671h-.1l2.042-1.738-1.464,1.087c3.112-2.972,8.188-7.44,4.038-13.368-2.719-3.886-7.2-6.977-13.526-3.881a144.458,144.458,0,0,0-24.215,16.194c.041-2.348.136-.21-.8-1.153" transform="translate(-171.444 -109.069)" fill="#ecb482" fill-rule="evenodd"/>
    <path id="Path_1675" data-name="Path 1675" d="M289.917,377.413c0-1.047.647-.067.243,0-.006,0-.243,1.14-.243,0m-3.681,26.158-.057,3.945,2.858-1.175a148.367,148.367,0,0,1,1.025-16.1l2.243-10.758A4.466,4.466,0,0,0,290.734,377c-1.235-2.282-.118-.415-3.334-2.795-1.14-.843-2.044-1.978-3.615-2.108-1.562,3.256.485,4.909-5.274,6.17a92.7,92.7,0,0,0-8.977,2.468c-4.465,1.472-2.891-1.309-6.412,10.754-1.128,3.864-3.241,10.35-3.091,14.18.127,3.247.64,1.193,6.532-.929,4.252-1.531,13.015-4.849,18.45-4.849,0-2.906,3.433-19.969,4.9-21.663-.386,4.633-5.176,21.473-3.681,25.342" transform="translate(-131.157 -125.843)" fill="#8c8c8c" fill-rule="evenodd"/>
    <path id="Path_1676" data-name="Path 1676" d="M227.166,209.283c1.046.579-.319.631,1.353.073l3.17-2.154c1.556-.995,3.025-1.755,4.709-2.636,11.892-6.219,24.606-9.194,30.763-12.948-2.373-5.938-7.064-9.458-7.727-11.443-2.572.219-4.385,1.2-6.687,1.875-4.92,1.44-27.947,9.735-29.41,13.925-.7,2,3,11.377,3.828,13.307" transform="translate(-121.951 -77.795)" fill="#fa8a00" fill-rule="evenodd"/>
    <path id="Path_1677" data-name="Path 1677" d="M316.795,401.368c2.107-.186,3.527.858,5.17,1.825,3.847,2.267,3.376,1.866,3.523,3.748-6.507.933-9.989.1-17.113,3.224-2.011.882-2.848,2.122-4.66,1.667a26.64,26.64,0,0,0,.409,3.89l5.72-2.047a40.665,40.665,0,0,1,6.714-1.46c2.629-.5,4.649-.408,7.358-.817,3.744-.566,13.973.782,17.821,1.862,1.2.336,1.69.639,3,1.084,2.464.835,3.52,1.409,5.811,2.364,2.053.855,3.307,2.226,5.891,2.283,3.539-2.37,5.546-8.005,2.468-12.277-4.128-5.729-18.709-9.905-26.758-8.743-1.492.215-2.672.109-4.087.409l-7.491,1.5c-2.406.45-2.809.251-3.779,1.487" transform="translate(-142.096 -132.272)" fill="#585858" fill-rule="evenodd"/>
    <path id="Path_1678" data-name="Path 1678" d="M357.392,291.441c7.271,0,6.6,1.295,15.161-.178,3.867-.666,3.622.42,4.124-2.416,1.3-7.359,3-19.681,3-27.192-.646.929-.65-1.394-.7,1.917-.837-2.038-1.063-3.178-4.081-3.023-4.284.219-11,2.957-13.51,7.278-2.539,4.376-4.35,17.78-3.993,23.615" transform="translate(-155.523 -97.913)" fill="#ecb482" fill-rule="evenodd"/>
    <path id="Path_1679" data-name="Path 1679" d="M314.546,228.3a1.677,1.677,0,0,1,.124.422l.636,2.13c.5,1.429.273,1.2,1.283,1.942,1.491-3.105,1.617-15.078,2.156-19.1.987-7.358-1.7-32.005-2.852-39.063l-2.777-13.165c-.159-.533-.966-2.3-.823-3.205.211-1.328-.7-.214.616-1.085a1.92,1.92,0,0,0-.232-.332l-1.615-1.552c-.58-.545-.834-1.016-1.523-1.694-2.193-2.165-8.826-7.513-11.542-8.13.842,2.915,2.846,5.951,4.009,9.117,2.156,5.87,6.078,24.4,7.323,30.721,2.474,12.555,6.077,31,6.088,44.006-.208-2.1.181-.01-.871-1.015m-.842-69.078c-1.268-.955-.04.182-.819-.812a.848.848,0,0,1-.2-.393,1.561,1.561,0,0,0-.182-.427c1.127.888.326-1.031,1.2,1.632" transform="translate(-140.664 -69.107)" fill="#e49600" fill-rule="evenodd"/>
    <path id="Path_1680" data-name="Path 1680" d="M244.822,261.263c0-1.046.648-.066.244,0,0,0-.244,1.141-.244,0m7.767-33.925a28.539,28.539,0,0,0-4.9-.817l-6.638,27.7c-.918,4.443-2.523,3.273,1.2,6.76,1.567,1.469.945.28,3.13,2.183,1.562,1.359,5.22,2.6,8.028,2.6.882,0,1.666-5.388,2.28-7.529l4.84-20.093c.352-1.6.72-2.819,1.055-4.259-1.341-2-5.17-5.472-8.175-5.723a45.914,45.914,0,0,1-1.874,7.936c-.412,1.45-.573,2.771-.933,3.972l-3.154,11.969c-.344,1.586-.606,2.82-.877,4.029-.49,2.19-.927,2.071-.927,4.385h-.41a15.575,15.575,0,0,1,.678-4.227l4.807-20.534c.541-2.771,1.836-6.7,1.873-8.346" transform="translate(-126.12 -89.397)" fill="#fefefe" fill-rule="evenodd"/>
    <path id="Path_1681" data-name="Path 1681" d="M306.987,383.134c.78-.936.575,1.388.817-1.571,7.494.351,2.155,2.483,16.584.143-.589,4.936-3.083,6.007-5.93,9.22-.736.829-1.507,2.309-2.229,2.524-1.291,0-1.065-.379-1.065.721,1.068,0,.726.258,1.065-.721,1.167.375,6.8-1.456,9.325-1.966,8.719-1.762,16.524-2.2,24.84,1.379.67.289.657.245,1.193.442,1.665.614,2.7,1.537,4.448,1.682,0-3.916,1.226-9.236,1.226-12.262-10.242,0-10.66,2.315-22.462-4.922-2.28-1.4-4.323-3.394-5.331-4.07-2.1.489-2.758,1.112-4.739,1.8a48.546,48.546,0,0,1-16.924,2.7,7.231,7.231,0,0,1-.217,2.189l-.519,2.251c-.028.141-.066.307-.082.463" transform="translate(-142.915 -126.253)" fill="#585858" fill-rule="evenodd"/>
    <path id="Path_1682" data-name="Path 1682" d="M294.219,364.188c.071.109.164.146.2.332a.66.66,0,0,0,.2.316l1.292,1.272c4.291,3.143,5.743,3.807,12.2,3.81a41.2,41.2,0,0,0,15.524-3.689c-1.65-7.083,3-10.228-5.312-15.941.575,1.127,1.529,1.2,2.172,1.453-.681.675-.416.6-2.328.906-6.21.991-6.813,2.01-16.916,3.143-3.487.391-7.5.333-7.718,3.546-.142,2.062,1.445,4.537,2.51,5.9.717.916.136.174.963,1Z" transform="translate(-139.548 -120.383)" fill="#ecb482" fill-rule="evenodd"/>
    <path id="Path_1683" data-name="Path 1683" d="M266.64,454.637l3.193,2.2c5.726,3.425,20.45,13.487,21.74,18.316,1.692-.141.915.054,3.559-2.981,2.861-3.28,1.9-3.67-.23-9.341l-3.447-9.632c-1.442-2.55-8.816-4.1-11.754-4.576-1.783-.289-1.6-.16-2.433-1.2a18,18,0,0,0-5.754,3.6c-1.5,1.2-3.148,3.292-4.873,3.613" transform="translate(-132.814 -144.701)" fill="#e25800" fill-rule="evenodd"/>
    <path id="Path_1684" data-name="Path 1684" d="M213.057,496.961c.788,0,.55-.176.55.686l.244.656c8.739-2.461,11.267,3.5,22.7-2.879,1.882-1.049,3.168-7.511,3.8-9.774,1.021-3.678,2.044-6.963,3.075-10.455l-2.985.006a9.881,9.881,0,0,0-4.484,1.606,135.972,135.972,0,0,0-18.58,12.893c-1.5,1.17-6.228,4.8-4.322,7.26" transform="translate(-119.288 -151.654)" fill="#fa8a00" fill-rule="evenodd"/>
    <path id="Path_1685" data-name="Path 1685" d="M452.456,372.911c2.312-4.364,5.43-10.272-2.357-11.682a123.968,123.968,0,0,0-17.833-1.26c-.443-.53-1.227.868,0-.954-1.088.684-.714-.249-2.1,3.622-.448,1.252-.817,3-1.233,4.494-.632,2.263-.248,4.267.78,6.7.564,1.335.531.484.921,1.942,3.772,0,8.6.264,12.242-.02,2.933-.229,7.937-1.194,9.583-2.841" transform="translate(-173.367 -122.567)" fill="#ecb482" fill-rule="evenodd"/>
    <path id="Path_1686" data-name="Path 1686" d="M213.345,191.893c.72,1.283.86.232,0,1.223.76-.357.995.15.67-.406,1.238,13.4,6.85,21.651,8.145,31.617.853,6.571-1.683,29.489-5.137,33.4a7.659,7.659,0,0,0-.409,2.829c2.193-.183,1.115-.321,3.738-3.619a37.921,37.921,0,0,0,2.976-4.791c7.332-12.368,3.96-11.048,3.079-16.1-2.211-12.677,3.433-15.674,3.7-18.819-2.5-2.636-3.643.2-6.931-6.148-.651-1.256-1.174-3.237-1.777-4.763-.657-1.666-1-3.358-1.514-5.026-3.107-10.085,1.52-2.409-1.912-9.53-1.8-3.738-1.763-6.784-1.763-12.134l-1.872,5.909c-.338,2.313-.055,3.953-.649,5.686-.034.1-.27.548-.339.666m-1.226.817c.419-1.288-.064-.805,1.224-1.224Z" transform="translate(-119.164 -77.659)" fill="#e49600" fill-rule="evenodd"/>
    <path id="Path_1687" data-name="Path 1687" d="M195.6,341.97c2.506,2.918-1.948,2.138-4.639,7.042l-1.2-.909.451,1.162c.043.1.09.224.136.334l4.162,6.423c.058.062.139.151.2.211l.2.205,7.632,6.7c1.656,1.341,2.969.615,4.621-.492,4.227-2.832,4.437-3.29,7.065-6.833,1.016-1.37,2.05-2.594,2.1-4.848a13.888,13.888,0,0,0-5.313-.817c1.4-1.916.358,1.034,2.367-2.538.044-.08.1-.187.146-.263a10.822,10.822,0,0,1,.989-1.054c3.012-2.436,4.851-3.446,6.995-7.72.716-1.427,2.035-3.918,2.174-5.592-2.264-.188-1.517-.758-3.27-1.226a7.726,7.726,0,0,1-2.329,5.436c-1.867,1.709-3.317,1.512-6.663,1.512,0,8.062-4,8.125-6.131,11.036.749,2.806,1.813,1.041.817,5.313a2.248,2.248,0,0,1-.425-.8c-1.232-3.074.154-.64-1.618-3.286-1.1.025-4.334,1.3-5.851-2.743a3.819,3.819,0,0,1-.351-1.686c-.166-1.684.529-2.794-2.262-4.563" transform="translate(-113.567 -115.742)" fill="#585858" fill-rule="evenodd"/>
    <path id="Path_1688" data-name="Path 1688" d="M223.8,363.781c-.468,1.118-.353,1.47-1.415,2.253-1.433,1.055-5.265,2-.3,6,2.7,2.176,4.868,4.2,8.768,5.523,13.534,4.584,19.625-1.978,14.2-7.645-2.1-3.964-13.637-11.329-18.8-11.445-.877,3.767-2.406,3.343-2.454,5.314" transform="translate(-121.043 -122.431)" fill="#fedeb6" fill-rule="evenodd"/>
    <path id="Path_1689" data-name="Path 1689" d="M418.114,603.4c6.068-1.578,20.769-11.571,22.612-17.767a16.573,16.573,0,0,0,.4-6.3c-.259-2.759-.636-3.647-3.052-2.555-4.745,2.145-13.21,7.807-16.242,10.8a28.723,28.723,0,0,0-6.038,7.459c-2.762,5.121-.319,5.55,2.317,8.367" transform="translate(-169.851 -176.971)" fill="#fedeb6" fill-rule="evenodd"/>
    <path id="Path_1690" data-name="Path 1690" d="M243.046,371.687c5.424,5.667-.667,12.229-14.2,7.645-3.9-1.321-6.064-3.346-8.768-5.523-4.969-4-1.137-4.945.3-6,1.063-.783.948-1.135,1.415-2.253-.1.073-.242.067-.289.238l-1.318,1.439c-.057.064-.134.153-.192.214l-.413.4a27.029,27.029,0,0,1-8,5.885c1.436,2.145,6.607,4.952,8.991,6.541,6.721,4.478,22.953,11.847,29.18,5.063,1.454-1.585,2.566-2.726,3.111-5.064-1.1-1.641-1.744-1.487-1.674-4.489.059-2.583.857-3.146.857-5.73-3.9-2.615-5.653-4.087-11.036-4.087.084,1,2.4,4.727,3.27,5.722-.475.292.461.433-1.224,0" transform="translate(-119.027 -124.205)" fill="#ecb482" fill-rule="evenodd"/>
    <path id="Path_1691" data-name="Path 1691" d="M265.668,178.555a12.611,12.611,0,0,0-4.926,1.075c.663,1.985,5.353,5.505,7.727,11.443-6.158,3.753-18.871,6.729-30.763,12.948-1.684.881-3.154,1.641-4.709,2.635l-3.17,2.154c-1.672.558-.307.506-1.353-.073a12.905,12.905,0,0,0,2.044,4c2.02-.168,7.274-4.06,10.352-5.589a133.233,133.233,0,0,1,33.553-11c4.933-.873,5.565,1.885-2.7-11.947-.876-1.466-1.6-2.336-2.377-3.707l-.373-.663-.674-.481-.238-.8-.085-.144-1.2-.408c-.54.676.891.481-1.11.56" transform="translate(-123.259 -77.249)" fill="#e25800" fill-rule="evenodd"/>
    <path id="Path_1692" data-name="Path 1692" d="M392.761,291.42l.946.721c.07.066.317.4.406.505.469-.439,2.128-4.308,2.7-5.341,2.677-4.793,7.589-12.311,11.051-15.934,8.415-8.806,19.971,1.891,18.757,9.829.139-.6-.05-.037.879-.406,1.326-1.026,3.1-6.062,2.87-8.984-.226-2.861-2.972-5.513-5.034-7.248a38.044,38.044,0,0,0-7.3-4.961c-7.568-3.714-11.875,6.512-16.344,12.549l-4.719,7.543c-.849,1.433-1.446,2.4-2.3,3.83-1.9,3.168-4.583,6.483-1.915,7.9" transform="translate(-164.108 -97.481)" fill="#fedeb6" fill-rule="evenodd"/>
    <path id="Path_1693" data-name="Path 1693" d="M377.573,542.207c2.1,1.662,9.568-.917,14.676,2.307.995.628,7.4,8.035,7.617,9.2l-.346.424-.393.37-.894.371-.4.409-.37.815c1.1,0,.87.208.37-.815,1.083.545.94.672.4-.409,1.06.206.721.994.894-.371l.393-.37.346-.424c4.1-3.153,7.61-6.193,13.488-6.193v-1.226a10.863,10.863,0,0,1-4.6-3.166c-.774-.786-1.284-1.244-2.053-2.035a9.4,9.4,0,0,1-1.706-2.381l-4.707-7.556c-.687-1.339-.483-1.61-2.056-2.03-1.064,3.982-8.767,8.38-12.716,10.173-3.065,1.391-7.138,2.382-7.942,2.906" transform="translate(-160.586 -165.156)" fill="#585858" fill-rule="evenodd"/>
    <path id="Path_1694" data-name="Path 1694" d="M264.163,434.69l-.085.2-.367.762-.4.409-.4.415c0,.587.145.439-.445.439l-.4.4-.409.4-.48.373c-1.442.872-10.916,9.425-11.445,11.4,2.628-.059,3.182-1.193,6.906-.78,2.565.284,3.615,1.63,5.766,1.924,1.725-.32,3.373-2.408,4.873-3.613a18,18,0,0,1,5.754-3.6c1.742.575,2.984.274,4.894.454,2.64.25,2.159.347,1.79-2.224-.581-4.056.688-6.181.632-9.327-.156-.849.058-.469-.367-.918-6.107.321-10.47,2.722-15.821,3.293" transform="translate(-128.582 -140.689)" fill="#fa8a00" fill-rule="evenodd"/>
    <path id="Path_1695" data-name="Path 1695" d="M420.532,319.264c.939.944.843-1.195.8,1.153a144.458,144.458,0,0,1,24.215-16.194c6.329-3.1,10.807-.005,13.527,3.881,4.149,5.929-.927,10.4-4.039,13.368l1.464-1.086c1.185-.171,1.181-.295,2.622-1.771.059-.06.142-.148.2-.209,4.7-4.974,6.337-9.008,2.717-15.719a13.232,13.232,0,0,0-4.317-4.675c-8.984-5.7-22.405,6.862-30,12.09l-5.237,4.164a15.887,15.887,0,0,0-3.179,2.952c.264,1.132.3,1.555,1.226,2.046m34.029,2.859h0Z" transform="translate(-171.034 -106.931)" fill="#fedeb6" fill-rule="evenodd"/>
    <path id="Path_1696" data-name="Path 1696" d="M416.84,601.821c-2.636-2.816-5.08-3.246-2.317-8.367A28.724,28.724,0,0,1,420.561,586c3.031-2.99,11.5-8.651,16.242-10.8,2.415-1.092,2.792-.2,3.052,2.555a16.561,16.561,0,0,1-.4,6.3c-1.843,6.194-16.543,16.188-22.612,17.766m-7.348-3.6c0,3.727,4.095,5.722,8.583,5.722,2.858,0,5.943-2,7.847-3.19l13.232-10.065c.462-.441.358-.325.834-.8a7.569,7.569,0,0,0,1.321-1.54c3.439-5.053,1.278-13.119.064-18.329-2.272.05-8,3.608-9.939,4.775-7.149,4.3-6.631,3.626-13.42,9.06a20.63,20.63,0,0,0-3.8,3.966c-1.9,2.535-4.724,7-4.724,10.4" transform="translate(-168.577 -175.394)" fill="#ecb482" fill-rule="evenodd"/>
    <path id="Path_1697" data-name="Path 1697" d="M251.584,221.559c3.168.28,7.29,2.606,9.35,4.08,3.346,2.394,5.355,6.093,6.532,6.956,3.051-.815,1.822-2.453,6.948-2.453,0-6.3.681-11.736,4.443-16.394,1.007-1.247.891-.436,1.28-2.148a127.268,127.268,0,0,0-16.6,3.974c-2.931.9-13.47,5.074-14.824,5.17a5.927,5.927,0,0,1,1.572.088l.994.5c.063-.094.213.139.3.229" transform="translate(-128.327 -85.662)" fill="#fedeb6" fill-rule="evenodd"/>
    <path id="Path_1698" data-name="Path 1698" d="M332.169,315.471c-1.057.063-.783-.214-.783.862,1.076,0,.783.257.783-.862.572-.337-.067-.17.613.277a4.7,4.7,0,0,0,1.592.864,29.281,29.281,0,0,1,3.379,1.226l-.268.666-.784.286-.409.409-.409.409c-.7,0-.409-.126-.409.816,1.141,0,.929.228.409-.816l.409-.409c1.087.543.951.679.409-.409,1.008.2.857.947.784-.286.63-.179.484.014.268-.666.094-.038.228-.231.263-.157l1.4-1.486c1.889-2.171,6.071-6.948,6.286-9.679.115-1.448-.861-4.766-.839-8.568.019-3.27.005-6.544.005-9.814-1.262.337-3.711,3.507-5.825,5.62-1.965,1.965-3.563,4.111-6.029,5.415,0,6.382.48,3.747,1.226,6.948-2.181-.582-1.635-2.613-1.635-5.313a3.731,3.731,0,0,0-2.526,1.152c-.894.686-1.482,1.109-2.379,1.709,0,5.466,4.641,6.974,6.131,6.539,1.607-1.076,2.839-2.814,4.493-4.091a44.837,44.837,0,0,0,4.908-4.083c.785.561.6,0-2.146,2.759-4.59,4.616-6.581,5.045-5.34,8.805.833,2.526.681.728,2.991,2.333-3.135,0-4.088-.953-4.088-4.088l-1.809,1.485c-.929,1.246-.965.831-.677,2.147" transform="translate(-148.102 -104.822)" fill="#585858" fill-rule="evenodd"/>
    <path id="Path_1699" data-name="Path 1699" d="M294.992,494.364c0,2.367,5.009,1.158,1.774,13.219a29.629,29.629,0,0,0-1.366,6.808c4.784,0,7.754-1.631,9.925-6.017,3.954-7.991,4.954-12.068,1.258-19.471-1.278-2.56-2.1-3.253-5.051-3.941Z" transform="translate(-139.912 -154.099)" fill="#585858" fill-rule="evenodd"/>
    <path id="Path_1700" data-name="Path 1700" d="M382.362,518.486a5.968,5.968,0,0,1,2.121,4.074c-.118,2.637-4.43,5.805-5.99,7.17-1.172,1.026-2.466,2.385-3.371,3.089h-3.8c.715,1.049-1.152.66,1.64.879,2.461.193,1.689-.394,2.155-.879,3.831,1.512,23.885-7.737,22.776-20.855-.283-3.346-3.476-8.3-6.134-9.008-1.719,3.582-3.572,9.048-6.426,11.967-1.731,1.771-2.18,1.609-2.975,3.562" transform="translate(-159.022 -158.604)" fill="#585858" fill-rule="evenodd"/>
    <path id="Path_1701" data-name="Path 1701" d="M356.251,289.536c-.358-5.835,1.454-19.239,3.993-23.615,2.507-4.32,9.226-7.059,13.51-7.278,3.018-.154,3.244.985,4.081,3.023.053-3.311.057-.988.7-1.917,0-6.726-2.053-7.285-9.819-6.607-4.606.4-9.229,1.624-11.578,6-1.714,3.2-2.756,10.024-3.1,14.479-.229,2.981-.626,5.224-.828,7.757-.115,1.443.058,3.029-.019,4.475-.1,1.851-.411,1.934-.411,4.086a21.835,21.835,0,0,1,3.463-.409" transform="translate(-154.381 -96.007)" fill="#fedeb6" fill-rule="evenodd"/>
    <path id="Path_1702" data-name="Path 1702" d="M343.851,150.855l-.629,1.705,16.046,6.739c-2.365-2.378-5.674-3.8-6.983-6.939,6.9.666,16.446,9.313,21.455,11.524a8.238,8.238,0,0,0,1.913.606c1.5.254.966.238,1.454-.148-.831-5.585-25.454-22.111-28.759-21.254a10.65,10.65,0,0,0-2.783,3.346,13.275,13.275,0,0,0-1.259,2.035Z" transform="translate(-151.986 -68.502)" fill="#ffc800" fill-rule="evenodd"/>
    <path id="Path_1703" data-name="Path 1703" d="M406.8,564.2l-.424.424.029.393-.338.894-.394.416c0,.66.127.409-.7.409-2.2,1.938-4.962,7.436-5.281,10a22.227,22.227,0,0,0,.78,6.909c.455,1.944.645,4.69,2.049,5.718.838-.615,4.446-8.174,8.882-12.781.825-.858,1.415-1.4,2.256-2.24l4.4-4.19c0-.966-.293-.816.487-.816-.559-2.373-1.741-2.963-4.4-3.821-2.24-.722-5.427-1.956-7.34-1.32" transform="translate(-166.109 -173.891)" fill="#8c8c8c" fill-rule="evenodd"/>
    <path id="Path_1704" data-name="Path 1704" d="M213.535,197.484c-1.659,3.731.331,12.117.879,15.473,2.9,17.72,3.185,21.878,3.208,40.527,0,3.483-.409,5.5-.409,8.616,3.454-3.916,5.99-26.834,5.137-33.4-1.295-9.966-6.906-18.216-8.145-31.617.325.555.091.049-.67.406" transform="translate(-119.357 -82.026)" fill="#ffc800" fill-rule="evenodd"/>
    <path id="Path_1705" data-name="Path 1705" d="M248.427,219.663c-.089-.09-.239-.323-.3-.229l-.994-.5a5.926,5.926,0,0,0-1.572-.088c1.354-.1,11.893-4.27,14.824-5.17a127.267,127.267,0,0,1,16.6-3.974c1.87-.81,2.636-2.5,5.313-3.12-.3-3.555-2.19-2.478-4.982-2.124-8.685,1.1-16.917,4.028-24.917,6.967l-10.979,4.961c-1.567.814-3.64,2.478-5.308,2.867,0,2.27.349,2.369,1.226,3.678,4.26-2.254,4.42-3.27,11.095-3.27" transform="translate(-125.17 -83.766)" fill="#ecb482" fill-rule="evenodd"/>
    <path id="Path_1706" data-name="Path 1706" d="M350.061,227.841c1.42,1.157,2.015,2.307,3.977,3.639a20.721,20.721,0,0,0,5.032,2.848l-1.65-4.591c.271-1.116.159-.392-.054-1.568a6.026,6.026,0,0,1-.338-1.709c-.169-2.022.319-2.561-.426-4.49,2.2-9.586,11.3.445,10.628,4.819l.064-5.228c.943-2.9-1.062-8.02-2.17-9.749-4.416-6.889-11.321-2.637-13.131,5.142-1.2,5.174-1.932,3.487-1.932,10.886" transform="translate(-153.699 -84.847)" fill="#fedeb6" fill-rule="evenodd"/>
    <path id="Path_1707" data-name="Path 1707" d="M319.44,95.116c-3.064,0-1.137-.141-1.865.816,2.24-.112,1.219-.217,1.865-.816m-12.086,38.421-.815,1.076c-1.37-1.583-3.954-8.826-4.813-11.4-1.75-5.249-2.268-8.666.612-13.087,2.555-3.924,8.751-9.108,12.742-11.781,1.247-.834,3.972-2.156,4.879-3.227h2.52c-.474,1.772-2.148,2.756-3.378,3.98-4.992,4.963-11.407,15.652-12.81,22.768a18.622,18.622,0,0,0-.347,5.692c.453,3.427-.549,4.682,1.409,5.981" transform="translate(-141.24 -56.498)" fill="#e49600" fill-rule="evenodd"/>
    <path id="Path_1708" data-name="Path 1708" d="M329.067,337.249c1.061.387.458-.306,1.383.755l7.971-4.96c2.733-1.837,4.605-4.472,6.592-7.286,1.914-2.711,4.245-13.318,4.186-16.773-.047-2.722.265-4.217-1.463-5.726-1-.589-.319-.373-1.911-.409,0,2.316-.006,4.633,0,6.949,0,.9.389,4.31-.269,4.505a1.94,1.94,0,0,1-.421-.07c-.612-.133.572-.182-.945-.349-3.614,6.83-4.159,6.912-8,12.03-2.276,3.034-7.206,7.882-11.212,8.815a5.078,5.078,0,0,0,1.7,1.587Z" transform="translate(-147.42 -108.504)" fill="#8c8c8c" fill-rule="evenodd"/>
    <path id="Path_1709" data-name="Path 1709" d="M307.79,335.656c.706-.708.646-.615.96-2.368.127-.71.217-1.353.35-2.1.711-3.99,2.414-7.392,7.409-6.721.343,1.91.683,3.677,1.038,5.515.669,3.459,1.288,3.2,1.282,4.445,2.153-.716,4.863-3.424,6.128-5.314-3.092-1.484-6.479-2.168-3.7-7.372.818-1.529,1.512-1.568,1.652-3.255-5.838-1.36-.766-4.708-8.871,1.347-1.979,1.478-3.539,1.66-3.8,4.784-.984-1.037-.658-.838-2.007-.446-3.9,1.133-4.547,0-9.03-.372-.215,2.587-1.979,4.032-3.161,5.411l-1.124,2.345c-.714-.46-.688-.759-.526.1-.671-.115-.534-.253-.409.417-.667-.124-.521-.264-.448.409-.618-.125-.474-.251-.432.378-.589-.084-.466-.208-.362.377-.651-.041-.521-.19-.385.448-.68-.094-.492-.241-.565.44-1.3-.219-.549-.278-.356.714-1.042-.52-.815-.732-.815.409.942,0,.815.294.815-.409l.356-.714c.705,0,.565.2.565-.44l.385-.448.362-.377.432-.378.448-.409.409-.417.526-.1a34.219,34.219,0,0,1,3.864-1.25c.3-.088,1.683-.506,1.952-.534,1.871-.2.872-.438,1.159.569.984-1.092.6-2.292,1.807-3.679-.133,1.6-.546,1.96-.817,3.676.828-.689.942-.817,2.044-.675.842,1.227-1.113,6.275-1.07,8.443l-1.162.817c1.954-.037,2.052-.409,4.275-.409-.179-2.155-.508-1.015-.06-3.3l2.771-9.934c.03-.055.094-.176.151-.258-.2,2.411-1.972,6.1-2.044,10.625M303.7,325.44l.122.121c-.008-.008-.163-.081-.122-.121" transform="translate(-138.813 -111.883)" fill="#585858" fill-rule="evenodd"/>
    <path id="Path_1710" data-name="Path 1710" d="M298.113,299.091l.321.023c.13.915-.131.681.8.681,0-.957.22-.681-.8-.681l-.321-.023c1.3-5.063,15.908-13.78,22.9-9.7l.015.661-.358.352-.466.382-.436.423-.4.119c-1,0-.768-.26-.768.7,1,0,.772.262.768-.7.5.358.42.5.4-.119l.436-.423.466-.382.358-.352c.691-.118.451.019-.015-.661,1.29-.331.427.02,1.244-.6,3.514-2.673,1.995-8.012-.688-9.172-3.72-1.609-10.349,1.925-12.422,3l-4.659,3.107c-3.113,2.136-5.225,5.116-7.276,8.258-1.868,2.861-1.364,3.155.9,5.108" transform="translate(-140.182 -102.587)" fill="#c52900" fill-rule="evenodd"/>
    <path id="Path_1711" data-name="Path 1711" d="M260.1,463.291c.963,1.532-.28.046.726.826.625.485,4.089,1.791,6.7,3.6,1.194.83,2.061,1.49,3.37,2.352,2.383,1.572,10.433,8.565,12.158,10.731a10.492,10.492,0,0,0,2.8,2.922c1.338-.9,3.1-2.46,3.27-4.5-.293-3.283-13.382-13.29-17.734-16.191a45.208,45.208,0,0,0-7.466-4.246c-.3,1.273-.825,1.185-1.779,2.451-.884,1.174-.581,1.795-2.041,2.047" transform="translate(-131.176 -147.547)" fill="#b8b8b8" fill-rule="evenodd"/>
    <path id="Path_1712" data-name="Path 1712" d="M406.987,595.209c1.186-2.472,1.067-5.135,5.068-10.464,7.083-9.434,25.63-17,27.223-19.375-.765-3.28-2.223-2.745-4.908-1.637-6.856,2.828-6.824,1.9-14.247,7.416l-2.873,2.442-.206.2-5.562,5.883c-1.894,2.447-5.767,7.488-6.921,10.294-.708,1.72.831,4.661,2.427,5.239" transform="translate(-167.298 -173.606)" fill="#585858" fill-rule="evenodd"/>
    <path id="Path_1713" data-name="Path 1713" d="M430.151,606.867c.87.669.464,1.146.7,2.7.094.615.277,1.209.358,1.711.276,1.7.1.849-.038,1.023l-1.2.777c1.655,0,.609.241,1.2-.777.87.226.144.165,1.088,0a4.287,4.287,0,0,0,1.21-.365A32.269,32.269,0,0,0,447.9,600.992a28.748,28.748,0,0,0,4.9-9.409,17.8,17.8,0,0,0-.045-6.422,28.858,28.858,0,0,0-.721-2.957c-.467-1.631-.015-1.671-1.855-1.824,1.776,7.622-2.126,12.946-6.3,16.183l-13.258,9.768c-.073.073-.178.2-.237.263a2.439,2.439,0,0,0-.235.274" transform="translate(-173.704 -177.987)" fill="#585858" fill-rule="evenodd"/>
    <path id="Path_1714" data-name="Path 1714" d="M195.214,135.053c.98-1.057.815,1.54.815-1.71-.283,5.328,1.386,16.643,3.821,20.374,1.639,2.51,7.493,7.713,10.275,8.068,2.535.323,2-2.2,2.254-4.249-1.508,1.19-.147-.645-.675.888a3.753,3.753,0,0,0-.14,1.564h-.409a30.132,30.132,0,0,1,.817-8.175c-6.969-1.623-11.778-12.285-14.015-18.274-.681-1.823-.3-2.547-1.926-2.98Z" transform="translate(-114.932 -65.373)" fill="#e49600" fill-rule="evenodd"/>
    <path id="Path_1715" data-name="Path 1715" d="M273.912,316.208c1.263.031,1.219.76,2.165,1.921a30.006,30.006,0,0,0,2.229,2.271c.846.845,1.394,1.424,2.241,2.256a21.832,21.832,0,0,1,2.358,2.139,3.675,3.675,0,0,1-2.263-.409.589.589,0,0,1,.249.346c.036.174.374.444.5.5-2.328.8-2.189,2.263-3.8,2,1.515,1.765,3.342,1.648,5.742.438,2.793-1.409,12.736-8.315,13.468-11.057a58.214,58.214,0,0,1-12.054-2.252c-2.1-.69-3.8-1.1-5.586-1.771l-5.657-2.107c.628.888-.694.922.69.739a3.783,3.783,0,0,0-1.244,3.731c.368,1.112.157.627.96,1.25m.409.645c-.836,0-.62.205-.62-.643.836,0,.62-.205.62.643" transform="translate(-134.363 -110.419)" fill="#585858" fill-rule="evenodd"/>
    <path id="Path_1716" data-name="Path 1716" d="M306.3,385.749c-.289,2.016-.876,4.559-1.157,6.61-.417,3.042-.886,4.231-.886,7.7l10.221-3.27c0-1.1-.226-.721,1.065-.721.723-.215,1.493-1.695,2.229-2.524,2.846-3.213,5.34-4.284,5.93-9.22-14.429,2.34-9.09.208-16.584-.143-.242,2.958-.037.635-.817,1.571" transform="translate(-142.232 -128.867)" fill="#8c8c8c" fill-rule="evenodd"/>
    <path id="Path_1717" data-name="Path 1717" d="M303.118,553.753c-.37,1.523,1.084,3.742,2.382,4.569,3.565,2.274,17.755.415,19.285-1.3.622-1.026-1.011-.816,1.287-.816-2.226-1.88-1.951-5.334-2.7-8.715-5.511.18-17.986,6.07-20.4,5.221Z" transform="translate(-141.909 -169.753)" fill="#fedeb6" fill-rule="evenodd"/>
    <path id="Path_1718" data-name="Path 1718" d="M257.782,427.97c1.72-.934,2.769-2.305,4.882-3.685,5.594-3.653,13.246-5.673,20.169-6.448l.292-3.27c.6-1.376.409-1.876.409-3.757l-9.309,2.137c-1.219.376-2.809.883-4.339,1.382L259.7,418.863c-.724.5-1.33.891-1.939,1.331a4.747,4.747,0,0,0,.018,7.776" transform="translate(-130.087 -135.535)" fill="#8c8c8c" fill-rule="evenodd"/>
    <path id="Path_1719" data-name="Path 1719" d="M309.713,515.625c2.86-.064,3-1.635,14.715-1.635,5.367,0,2.691,2.163,2.456-7.362-.049-2.011-.373-1.894-.412-3.674-7.555-.169-9.329-3.094-11.445-3.27,0,6.526-5.174,14.263-5.313,15.94" transform="translate(-143.597 -157.785)" fill="#585858" fill-rule="evenodd"/>
    <path id="Path_1720" data-name="Path 1720" d="M255.859,471.33l1.463.89a53.275,53.275,0,0,1,15.371,10.387l7.6,8.342a25.514,25.514,0,0,0,3.678-4.087c-3.071-4.586-17.3-16.992-24.141-19.558L257,466.425l.636.584a1.834,1.834,0,0,0,.466.234,10.374,10.374,0,0,0-2.243,4.087" transform="translate(-130.115 -149.458)" fill="#b8b8b8" fill-rule="evenodd"/>
    <path id="Path_1721" data-name="Path 1721" d="M397.127,560.472l.37-.815.4-.409.894-.371.393-.37.346-.424c-.218-1.165-6.622-8.571-7.617-9.2-5.107-3.224-12.574-.646-14.676-2.307-1.169.248-.719-.262-1.005.818,2.49,1.316,8.134,5.842,10.449,7.945l.81.825c.4.46.718.878,1.1,1.348,4.4,5.37,2.831,7.648,4.8,9.093l3.416-5.15c.406-.841.243-.3.311-.981" transform="translate(-160.251 -169.524)" fill="#8c8c8c" fill-rule="evenodd"/>
    <path id="Path_1722" data-name="Path 1722" d="M293.059,363.418l2.8,2.044c-.826-.822-.245-.08-.963-1-1.065-1.362-2.652-3.837-2.51-5.9.221-3.213,4.23-3.155,7.718-3.546,10.1-1.133,10.706-2.151,16.916-3.143,1.912-.3,1.647-.232,2.328-.906-.642-.249-1.6-.326-2.172-1.453-.33-.622-.675-.766-1.282-1.142-3.08-1.911-3.359-1.076-7.472-.252a71.737,71.737,0,0,1-11.273,1.807c-7.67.324-8.472.429-8.2,4.9.18,2.984,2.121,7.53,4.113,8.586" transform="translate(-138.388 -119.613)" fill="#fedeb6" fill-rule="evenodd"/>
    <path id="Path_1723" data-name="Path 1723" d="M290.63,239.867c0,.675,1.621,2.5,2.162,3.152.9,1.082,1.44,2.02,3.151,2.162.459-1.972,1.021-3.771,1.537-5.412.62-1.968,1.075-3.841,1.735-5.621.588-1.583,3.267-9.565,3.267-11.039,0-1.569-1.69-4.562-2.6-6.8-.63-1.547-.745-1.516-1.487-1.784l-3.728,12.622c-.532,1.852-4.038,11.844-4.038,12.72" transform="translate(-138.82 -86.394)" fill="#fefefe" fill-rule="evenodd"/>
    <path id="Path_1724" data-name="Path 1724" d="M368.731,538.006h3.8c.9-.7,2.2-2.064,3.37-3.09,1.56-1.364,5.871-4.532,5.99-7.169a5.968,5.968,0,0,0-2.121-4.074c-1.956-.12-8.451,5.724-18.8,5.724.19,2.282,3.148,5.829,4.786,7.48,1.094,1.1,1.334,1.654,2.981,1.129" transform="translate(-156.428 -163.79)" fill="#8c8c8c" fill-rule="evenodd"/>
    <path id="Path_1725" data-name="Path 1725" d="M189.625,342.234l1.2.909c2.691-4.9,7.145-4.124,4.639-7.042.33-3.116-1.047-2.487,1.277-6.37,1.5-2.5.375-3.981,2.016-6.567.01-.015.891-1.117.909-1.134,2.642-2.47,1.109.026,2.118-4.013a7.53,7.53,0,0,1,3.778-4.805,40.7,40.7,0,0,1,.409-4.9c-2.415.563-5.759,3.478-7.475,5.2-1.951,1.952-1.044,1.533-1.684,4.448L192.6,326.4c-1.008,2.217-.135,3.453-.756,5.783-1.087,4.075-2.625,2.712-2.625,10.046Z" transform="translate(-113.431 -109.873)" fill="#8c8c8c" fill-rule="evenodd"/>
    <path id="Path_1726" data-name="Path 1726" d="M338.882,545.4c.5,1.346-.638,1.879.819,3.3l-.221.346c-.868,0-.6-.19-.6.777,1.083,0,.889.262.6-.777.959.562.714.518.221-.346,1.964-.223,2.706-1.735,3.28-3.771,1.391-4.936.542-14.748-.183-19.87-.822-5.813-1.427-12.324-3.376-18.287-.7-2.13-.675-1.876-1.451-2.228a22.069,22.069,0,0,0-3.178-.5c0,1.789.44,10.595.777,11.485.967,2.559,2.983.669,4.589,8.083a33.663,33.663,0,0,1,.786,5.358c.2,5.292-.816,2.624-.858,5.713-.058,4.164,1.77,5.773-1.206,10.714" transform="translate(-149.877 -158.877)" fill="#585858" fill-rule="evenodd"/>
    <path id="Path_1727" data-name="Path 1727" d="M302.837,552.251l-.15-1.041c2.415.849,14.889-5.041,20.4-5.221.753,3.381.478,6.835,2.7,8.715-2.3,0-.665-.21-1.287.816,1.957,0,.88.252,1.287-.816,1.986.711,4.453-1.81,4.775-3.767.413-2.508-.75-5.911-.75-8.5-3.063-.714-4.667-1.285-8.9-.721-4.854.648-16.935,6.98-18.4,8.669-1.583,1.828.089,1.689.316,1.862" transform="translate(-141.628 -168.251)" fill="#ecb482" fill-rule="evenodd"/>
    <path id="Path_1728" data-name="Path 1728" d="M408.584,562.113l-.424.424.029.393c-.838.322-.694.037-.338.894-.91-.334-.779-.473-.394.416-.9-.331-.7-.519-.7.409.825,0,.7.25.7-.409l.394-.416.338-.894-.029-.393.424-.424c1.912-.636,5.1.6,7.34,1.32,2.663.858,3.845,1.448,4.4,3.821-.78,0-.487-.15-.487.816,1.12,0,.913.243.487-.816,1.392-.022.253.316,1.861-.507,1.795-.918,8.24-6,13.59-6.443-.373-1.4-1.091-1.478-2.446-2.05l-5.071-1.878c-2.228-.871-3.733-.833-6.5-.274-3,.606-4.962.774-7.487,1.914-2.291,1.035-3.619,2.425-5.7,4.1" transform="translate(-167.889 -171.808)" fill="#585858" fill-rule="evenodd"/>
    <path id="Path_1729" data-name="Path 1729" d="M319.791,532.036l1.259-1.635a3.127,3.127,0,0,0-1.9-1.136c-4.569-1.293-12.907-2.305-17.084-.91-2.086,1.614-1.635,9.483-1.635,13.491h1.226c1.087-4.071,14.232-8.507,18.135-9.81" transform="translate(-141.263 -164.794)" fill="#8c8c8c" fill-rule="evenodd"/>
    <path id="Path_1730" data-name="Path 1730" d="M246.551,470.906a10.375,10.375,0,0,1,2.243-4.087,1.833,1.833,0,0,1-.466-.234l-.636-.584c-.911-1.154-5.52-2.025-8.874-.283-10.661,5.536-11.988,6.979-18.864,16.711-.557.787-2.5,3.381-.112,2.409.781-.318,2.13-1.98,3.081-2.725,1.305-1.022,1.872-1.505,3.262-2.46,1.292-.886,2.366-1.656,3.577-2.554,2.34-1.735,8.123-5.446,11.33-6.256,2.4-.6,2.948.063,5.459.063" transform="translate(-120.807 -149.034)" fill="#fefefe" fill-rule="evenodd"/>
    <path id="Path_1731" data-name="Path 1731" d="M302.625,526.72c4.176-1.4,12.515-.383,17.084.91a3.127,3.127,0,0,1,1.9,1.136l-1.259,1.635c2.421-.16,2.888-1.12,5.976-.834,2.523.234,2.4,1.5,4.5,2.059-.055-2.421-1.349-7.177-2.541-8.495-3.143-3.478-19.251-2.056-24.163,1.79-1.611,1.261-.709,0-1.5,1.8" transform="translate(-141.823 -163.159)" fill="#585858" fill-rule="evenodd"/>
    <path id="Path_1732" data-name="Path 1732" d="M290.424,335.991l-.526.1-.409.416-.448.409-.433.377-.361.378-.386.448c0,.637.14.44-.565.44l-.356.714c0,.7.126.409-.816.409-.947.139-2.561,1.415-3.327,1.988a19.025,19.025,0,0,1-3.61,2.112c-4.4,2.167-5.421.037-6.552,4.894,2.533,0,4.006-.654,6.157-.792,4.457-.286,2.513.724,5.18-1.768,1.8-1.681,9.5-2.289,11.961-2.344.069-3.073,1.813-6.574,1.463-8.993-.286-1.007.713-.766-1.158-.569-.27.029-1.649.446-1.953.534a34.265,34.265,0,0,0-3.863,1.251" transform="translate(-134.315 -116.312)" fill="#8c8c8c" fill-rule="evenodd"/>
    <path id="Path_1733" data-name="Path 1733" d="M298.8,302.14l.321.023c1.025,0,.8-.277.8.681,2.54,2.1,8.827-.663,11.015-1.765,2.267-1.142,7.206-4.2,8.352-6,0-.962-.23-.7.768-.7l.4-.119.436-.423.466-.382.358-.352-.015-.661c-6.992-4.08-21.6,4.637-22.9,9.7" transform="translate(-140.864 -105.636)" fill="#e13333" fill-rule="evenodd"/>
    <path id="Path_1734" data-name="Path 1734" d="M298.809,249.139c0,2.1,5.486,3.237,6.948,3.27.058-2.636,1.1-4.975,1.724-7.268.295-1.075.51-2.252.9-3.6,1.594-5.55,1.185-3.23.462-4.886l-2.349-6.235c-.484-1.229-.367-1.586-1.96-1.718-.436,5.242-5.722,18.512-5.722,20.437" transform="translate(-140.868 -89.943)" fill="#fefefe" fill-rule="evenodd"/>
    <path id="Path_1735" data-name="Path 1735" d="M433.261,358.048c-1.225,1.822-.441.424,0,.954a124.08,124.08,0,0,1,17.833,1.26c7.787,1.41,4.668,7.32,2.356,11.682,3.033-1.006,9.868-12.237,3.123-15.138-4.643-1.995-15.548-1.62-22.5-1.62-.477,1.786-.175.019-.663,1.4-.394,1.11-.434.325-.157,1.465" transform="translate(-174.364 -121.602)" fill="#fedeb6" fill-rule="evenodd"/>
    <path id="Path_1736" data-name="Path 1736" d="M303.716,412.984c1.812.454,2.648-.786,4.66-1.666,7.124-3.12,10.606-2.292,17.113-3.225-.146-1.882.325-1.481-3.523-3.747-1.644-.969-3.064-2.012-5.17-1.826-1.75-.572-5.046.729-6.591,1.224-2.21.708-4.626,1.109-6.489,2.094Z" transform="translate(-142.096 -133.423)" fill="#8c8c8c" fill-rule="evenodd"/>
    <path id="Path_1737" data-name="Path 1737" d="M399.539,350.686c.047-.765.241-.094-.2-1.05-.883-1.927-11.392-12.936-14.185-14.362-.722-.368-.1-.1-.743-.295-2.1-.432-.707.112-1.224-1.052h-.411c-1.088,0-.816.271-.816-.816l0,.062c-2.217-.334-.493.128-1.224-.88v.031c-2.258-.466-.428.121-1.225-.849v.265c-4.453-2.012-2.394-2.487-4.882-2.726.406,2.193,4.9,5.26,6.379,6.688l12.648,13.921c1.947,2.33,3.543,6.978,7.054,4.772.3-1.627.4-.544-.058-1.941l-.695-1.181c-.06-.09-.157-.22-.206-.293a3.386,3.386,0,0,1-.211-.295" transform="translate(-159.849 -115.057)" fill="#8c8c8c" fill-rule="evenodd"/>
    <path id="Path_1738" data-name="Path 1738" d="M331.786,563.635c0-.966-.271-.777.6-.777l.22-.346c-1.457-1.424-.322-1.958-.819-3.3-1.136.485-1.213.718-2.337,1.268a41.355,41.355,0,0,1-15.638,3.577c-3.005-.006-4.9-.419-7.367-.419.4,1.5,2.926,4.331,4.243,5.158,5.212,3.274,20.138-3.342,21.1-5.158" transform="translate(-142.778 -172.687)" fill="#8c8c8c" fill-rule="evenodd"/>
    <path id="Path_1739" data-name="Path 1739" d="M266.64,375.8c4.552-3.743,10.574-2.781,13.189-7.82,1.325-2.553,2.232-3.852,1.936-5.017.233-.842.7.018,0-1.226-2.974,0-11.255.94-12.418,2.3-1.3,1.515-2.7,8.579-2.7,11.767" transform="translate(-132.814 -123.25)" fill="#8c8c8c" fill-rule="evenodd"/>
    <path id="Path_1740" data-name="Path 1740" d="M365.02,191.346c-1.575-.74,1.415-5.817-6-10.8-1.27-.852-1.666-.266-.538-.954-.422-.635.665-.514-.817-.514a110.7,110.7,0,0,1-.921,13.385c-.749,5.694-3.061,6.643,6.234,6.643Z" transform="translate(-155.169 -77.518)" fill="#e25800" fill-rule="evenodd"/>
    <path id="Path_1741" data-name="Path 1741" d="M256.778,343.859l-.438.4-.4.379-.385.421-.4.432-.433.415-.427.385-.385.391-.391.433-.415.426-.433.4-.421.385-.379.4-.4.439-.415.42-.445.4-.4.373-.379.415-.4.438-.427.415-.432.391-.4.385-.379.421-.125.438c-.749.224-.606,0-.268.751-.894-.242-.758-.4-.427.462-.875-.315-.735-.454-.421.421-.854-.328-.644-.48-.644.433.779,0,.644.229.644-.433l.421-.421c.583,0,.427.14.427-.462l.268-.751.125-.438.379-.421.4-.385.432-.391.427-.415.4-.438.379-.415.4-.373.445-.4.415-.42.4-.439.379-.4.421-.385.433-.4.415-.426.391-.433.385-.391.427-.385.433-.415.4-.432.385-.421.4-.379.438-.4c1.121-.18.534-.168.986.159-.064,2.784-.255,6.5-1.69,8.508-.838,1.172-4.4,3.47-6.481,3.595l.558.352c.286.14.6.29.9.4,4.2,1.566,4.458,1.084,8.65,4.015,1.139.8-.086.552,1.747.705.124-1.492.4-7.18.951-8.041,1.61-2.535,3.137-.347,3.137-5.855a7.7,7.7,0,0,1-4.417-1.305c-1.46-1.229-1.305-2.318-1.305-4.826-1.469.392-1.76,1.256-3.032,2.293" transform="translate(-127.619 -118.199)" fill="#e25800" fill-rule="evenodd"/>
    <path id="Path_1742" data-name="Path 1742" d="M300.99,545.467l.409,2.452c1.756-.146,1.341-.406,2.632-1.456,4.858-3.953,14.13-8.763,20.258-8.763,2.321,0,4.388,1.047,6.54,1.226,0-2.031.031-2.85-1.208-3.7-3.345-2.289-9.219-.953-12.455.253-3.777,1.408-8.052,2.588-11.807,5.36-1.094.807-4.369,3.236-4.369,4.624" transform="translate(-141.414 -166.371)" fill="#585858" fill-rule="evenodd"/>
    <path id="Path_1743" data-name="Path 1743" d="M294.693,405.04c-.813.34-.99-.941-.84,4.1.061,2.068.394,2.372.433,4.075,2.337,0,1.451.126,3.088-.589,1.024-.448,1.785-.638,2.633-1.046,0-2.893-.66-5.444-.389-8.974.512-6.671,4.4-22.824,4.478-23.724a4.9,4.9,0,0,1-2.836-.505c-1.2-.446-.863-.6-1.844-.1a.73.73,0,0,0-.225.19,4.466,4.466,0,0,1,1.571,2.484l-2.243,10.758a148.368,148.368,0,0,0-1.025,16.1l-2.858,1.175Z" transform="translate(-139.615 -127.312)" fill="#585858" fill-rule="evenodd"/>
    <path id="Path_1744" data-name="Path 1744" d="M362.364,506.99c0-1.01-.252-.757.757-.757a8.885,8.885,0,0,0-1.514-2.213c-.858-1.142-.664-1.391-2.148-1.119-1.721-.577-4.63.568-6.6.762a76.956,76.956,0,0,1-7.709.466c.166,1.986,4.132,6,5.314,7.766,2.748-.229,10.917-3.344,11.9-4.9" transform="translate(-152.47 -158.549)" fill="#fefefe" fill-rule="evenodd"/>
    <path id="Path_1745" data-name="Path 1745" d="M270.726,338.154c-3.539,0-4.087-5.432-4.087,3.27,0,3.842,9.35.484,10.873-.163,2.924-1.243,6.839-4.691,9.054-6.886a22.017,22.017,0,0,0,1.986-2.1c.914-1.133,1.263-1.235,1.386-2.7-2.843.236-4.468,3.369-8.937,4.96-3.61,1.286-5.7,3.623-10.275,3.623m-2.452-2.042c1.088,0,.816-.271.816.816-1.088,0-.816.271-.816-.816" transform="translate(-132.814 -115.196)" fill="#585858" fill-rule="evenodd"/>
    <path id="Path_1746" data-name="Path 1746" d="M313.394,338.345c-.058,1.591-.271.792-.409,2.455,2.648,0,10.451-2.391,11.446-3.679.007-1.245-.612-.986-1.281-4.445-.355-1.838-.7-3.605-1.038-5.515-4.995-.671-6.7,2.73-7.409,6.721-.133.742-.223,1.385-.35,2.1-.313,1.753-.253,1.66-.96,2.368" transform="translate(-144.417 -114.571)" fill="#8c8c8c" fill-rule="evenodd"/>
    <path id="Path_1747" data-name="Path 1747" d="M258.461,429.225c.377,1.59,1.713,2.025,3.325,1.337,2.647-1.127,5-2.914,10.921-5.067l8.2-2.428c4.239-.777,2.9.878,2.9-7.245l-.292,3.27c-6.923.774-14.575,2.795-20.168,6.448-2.113,1.379-3.162,2.75-4.882,3.685" transform="translate(-130.766 -136.79)" fill="#585858" fill-rule="evenodd"/>
    <path id="Path_1748" data-name="Path 1748" d="M203.112,343.334c.481,1.978-2.3,5.893,1.457,6.76,2.165.5,10.509-4.932,7.4-10.71a7.394,7.394,0,0,0-6.168-3.816c-.762,2.78.579,2.8-1.557,6.014Zm-.817.818c0-1.087-.272-.816.815-.816,0,1.087.272.816-.815.816" transform="translate(-116.697 -116.698)" fill="#ecb482" fill-rule="evenodd"/>
    <path id="Path_1749" data-name="Path 1749" d="M216.7,329.157c-.548.363-1.434-.087-.619,2.166.658,1.819,3.9,3.119,6.438,2.019s3.993-4.915,3.993-7.863c.064.073.157.1.184.224s.148.178.186.223.14.166.187.222.134.161.187.222c1.3,1.517,1.6,1.972,3.344,2.379.807-1.683.945-4.48.879-6.569-.08-2.56-.246-2-.877-2.424l-.029,1.262c-2.8-2.849-4.521,1.571-6.73,4.234-2.077,2.5-6.517,4.656-7.143,3.906" transform="translate(-120.075 -112.739)" fill="#ecb482" fill-rule="evenodd"/>
    <path id="Path_1750" data-name="Path 1750" d="M374.8,360.841c.523-1.562-.42-3.872-.9-5.641-.429-1.577-1.061-3.487-1.725-5.224-.786-2.056-3.337-8.015-4.733-8.757-1.137-.517-.665.886-1-1.224l.179,0c-.109-.075-.262-.327-.315-.243l-2.175-2.638c-1.623-2.008-.728-1.647-1.794-1.818.87,4.451,6.364,14.746,8.609,22.875a8.7,8.7,0,0,0,1.6,3.738c1.1,1.148,2.7,1.472,2.253-1.067" transform="translate(-156.772 -116.629)" fill="#8c8c8c" fill-rule="evenodd"/>
    <path id="Path_1751" data-name="Path 1751" d="M276.2,327.1c1.606.259,1.467-1.208,3.8-2-.123-.059-.461-.329-.5-.5a.591.591,0,0,0-.248-.346c-1.1-1.13-2.245-2.155-3.369-3.361-1.3-1.4-1.629-2.93-2.952-4.17-.836,0-.62.205-.62-.643l.211,0c-.8-.623-.591-.138-.96-1.25a3.783,3.783,0,0,1,1.244-3.731c-1.385.183-.062.149-.69-.739-1.1-.491-.392-.372-2.046-.409-2.193,3.277-4.171,5.683-1.527,10.111,1.166,1.954,5.466,6.484,7.658,7.048" transform="translate(-132.972 -110.282)" fill="#8c8c8c" fill-rule="evenodd"/>
    <path id="Path_1752" data-name="Path 1752" d="M254.364,462.6c1.46-.253,1.157-.873,2.041-2.047.954-1.266,1.482-1.178,1.779-2.451-.9-1.04-3.951-2-5.869-2.072a15.325,15.325,0,0,0-11.542,4.831c-1.358,1.365-3.044,2.606-3.576,4.6,3.454-.287,6.4-5.407,12.687-3.7.854.232,1.31.455,2.2.693,1.61.431,1.207.406,2.28.145" transform="translate(-125.443 -146.852)" fill="#fefefe" fill-rule="evenodd"/>
    <path id="Path_1753" data-name="Path 1753" d="M306.031,316.482c-.271,3.253-2.2,2.433-2.861,4.9,9.013,0,4.419,2.864,15.242-5.2a7.449,7.449,0,0,1,3.152-1.753,24.691,24.691,0,0,0-.818-4.5c-2.3.614-7.855,6.54-14.714,6.54" transform="translate(-141.959 -110.282)" fill="#ecb482" fill-rule="evenodd"/>
    <path id="Path_1754" data-name="Path 1754" d="M369.144,507.039l1.675-.827c.834,1.639,1.63,1.894,2.609,3.533l-.757.159c-.947,0-.665-.214-.665.816,1.094,0,.865.266.665-.816.712.517.479.637.757-.159,1.079-.069,4.576-2.48,5.709-3.338,8.487-6.425,4.37-5.186,3.086-9.994h-1.635c-.388,1.451-1.36,1.983-2.349,2.964Z" transform="translate(-158.476 -156.966)" fill="#b8b8b8" fill-rule="evenodd"/>
    <path id="Path_1755" data-name="Path 1755" d="M375.61,521.454c0-.868-.2-.612.739-.612-.4-.808-3.059-4.055-4.075-4.394-1.262-.161-3.324,1.308-5.643,2.633l-4.392,2.147c-.813.356-1.033.257-1.819.634.455,1.7,2.361,3.2,3.679,4.088,2.515-.209,10.569-3.115,11.511-4.5" transform="translate(-156.292 -161.979)" fill="#fefefe" fill-rule="evenodd"/>
    <path id="Path_1756" data-name="Path 1756" d="M364.237,499.268c1.484-.272,1.289-.023,2.148,1.12A8.917,8.917,0,0,1,367.9,502.6c-1.01,0-.757-.253-.757.757,1.026,0,.78.259.757-.757,1.478.221.226.387,1.606-.492,3.345-2.13,8.06-6.086,10.265-9.378-2.288-4.324-1.1-4.439-3.678-4.5-.5,2.147-3.126,4.969-4.594,6.442-4.548,4.566-5.495,2.21-7.26,4.592" transform="translate(-157.248 -154.918)" fill="#b8b8b8" fill-rule="evenodd"/>
    <path id="Path_1757" data-name="Path 1757" d="M216.924,327.511c.626.75,5.065-1.4,7.143-3.906,2.208-2.663,3.932-7.083,6.73-4.234l.029-1.262c.64-1.909-2.572-9.26-7.857-1.315l-5.76,8.985c-.871,1.649-.56.6-.285,1.731" transform="translate(-120.295 -111.093)" fill="#fedeb6" fill-rule="evenodd"/>
    <path id="Path_1758" data-name="Path 1758" d="M376.232,513.484c1.016.339,3.674,3.586,4.076,4.394-.937,0-.74-.256-.74.612.948,0,.756.261.74-.612,3.385-.074,7.374-8.116,8.595-10.424a8.865,8.865,0,0,1-1.634-2.861c-1.712.142-1.9.828-2.966,1.939a18.666,18.666,0,0,1-2.582,2.322l-4.2,3.14c-1.3.985-.507-.127-1.293,1.49" transform="translate(-160.251 -159.013)" fill="#b8b8b8" fill-rule="evenodd"/>
    <path id="Path_1759" data-name="Path 1759" d="M266.64,376.213c0,1.765.088,1.045.409,1.469,3.653,0,4.685-.909,7.614-1.786a37.46,37.46,0,0,1,4-.9c1.833-.355,2.436-.647,3.913-.991.431-1.848.937-3.8,1.3-5.7.268-1.407.343-1.32-.351-2.557l-1.765-2.37c.3,1.164-.612,2.463-1.936,5.017-2.615,5.039-8.637,4.077-13.189,7.82" transform="translate(-132.814 -123.659)" fill="#585858" fill-rule="evenodd"/>
    <path id="Path_1760" data-name="Path 1760" d="M365.185,510.311c-1.288-.313-4.625,1.792-8.733,3.122a28.263,28.263,0,0,0-3.121.967,17.1,17.1,0,0,0,4.088,4.5,43.592,43.592,0,0,0,5.547-2.218c1.335-.526,4.45-1.87,5.081-2.687,0-1.029-.282-.816.665-.816l.757-.159c-.979-1.639-1.776-1.894-2.609-3.533Z" transform="translate(-154.518 -160.238)" fill="#fefefe" fill-rule="evenodd"/>
    <path id="Path_1761" data-name="Path 1761" d="M380.787,317.023a10.837,10.837,0,0,0-.456,1.463c2,1.2,3.074-1.221,5.5-4.34,1.162-1.5,4.442-5.1,4.606-6.524-.136-1.816-1.609-3.034-2.14-5.313h-1.226c-.642,2.756-5.608,8.959-6.282,14.715" transform="translate(-161.277 -108.371)" fill="#8c8c8c" fill-rule="evenodd"/>
    <path id="Path_1762" data-name="Path 1762" d="M284.087,276.04c-.821.358-.329-.112-.945.478-.894.855.1-.341-.689.964Zm.426,1.439c-1.048,1.027-.018.161-1.244.817l.439-.651c1.341-1.2-1.2-.414.805-.166.293-1.038-.465-1.048.888-.531.912-2.275,7.62-5.166,9.853-6.284,4.194-2.1,7.759-3.468,12.131-.54l-3.589,2.961c-.87.415-.652.352-1.443.311.169,1.083.4.816-.688.816,0-1.038-.28-.816.688-.816-4.388-.268-13.05,2.044-16.952,3.553Z" transform="translate(-136.773 -99.893)" fill="#b8b8b8" fill-rule="evenodd"/>
    <path id="Path_1763" data-name="Path 1763" d="M256.784,344.586l-.438.4-.4.379-.385.421-.4.432-.433.415-.427.385-.385.391-.391.433-.415.426-.433.4-.421.385-.379.4-.4.439-.415.42-.445.4-.4.373-.379.415-.4.438-.427.415-.432.391-.4.385-.379.421-.125.438-.268.751c0,.6.157.462-.427.462l-.421.421c0,.662.135.433-.644.433,0,1.855-.079.311.409.954l3.27-.159c2.084-.124,5.643-2.422,6.481-3.595,1.436-2.007,1.626-5.724,1.69-8.508-.451-.327.136-.339-.986-.159" transform="translate(-127.625 -118.926)" fill="#fe8d00" fill-rule="evenodd"/>
    <path id="Path_1764" data-name="Path 1764" d="M292.941,259.514l-1.633-1.369c.624,1.489-.3,1.119,1.633,1.369m-14.306,3.129c.856,1.027.807-1.529.817,2.03,1.2-.42,9.846-6.916,12.671-5.17,2.873,1.776-.641,3.918-.681,4.985-.145,3.883.139-.78.275,1.436l-1.229.359c.379-.813.285-.784,0-1.19-2.14.5-8.608,2.557-10.82,1.028-.98-.677-.965-1.349-1.033-3.478" transform="translate(-135.817 -97.314)" fill="#ecb482" fill-rule="evenodd"/>
    <path id="Path_1765" data-name="Path 1765" d="M425.526,621.9l1.2-.777c.139-.174.313.68.037-1.023-.081-.5-.264-1.1-.358-1.711-.236-1.555.169-2.031-.7-2.7-1.121-.143-.4-.133-1.4.306-1.031.455-.232.223-1.33.719-6.368,2.873-8.769.448-10.76.282.145,1.735.822,1.87,1.936,2.969.92.908,1.346,1.693,2.733,2.172,2.1.724,7.069.773,8.639-.235" transform="translate(-169.26 -186.805)" fill="#8c8c8c" fill-rule="evenodd"/>
    <path id="Path_1766" data-name="Path 1766" d="M284.991,278.6l-.888.531c-1.047,1.026-.018.161-1.243.817l-.412,0c-.661,1.579.194,1.018-1.633,1.633,1.7,3.257,15.883-3.065,19.432-5.1,1.073-.616.209.277,1.007-.615,0-1.038-.281-.816.687-.816-4.388-.268-13.049,2.044-16.952,3.553" transform="translate(-136.363 -101.539)" fill="#fefefe" fill-rule="evenodd"/>
    <path id="Path_1767" data-name="Path 1767" d="M272.092,524.35l6.03-2.553c1.353-.746.782.047,1.356-1.505.849-2.3,1.2-6.95,1.2-10.248-2,.535-3.76,4.325-4.91,6.535-1.44,2.769-3.51,5.807-3.673,7.772" transform="translate(-134.179 -160.378)" fill="#b8b8b8" fill-rule="evenodd"/>
    <path id="Path_1768" data-name="Path 1768" d="M283.542,518.761a11.19,11.19,0,0,0,3.271-1.633c1.5-.929,1.542-.963,1.654-3.25.156-3.169.388-6.092.388-9.83-1.738.145-1.848.813-2.98,1.925-3.035,2.982-.751,3.3-1.675,8.134-.409,2.144-.658,1.963-.658,4.655" transform="translate(-137.045 -158.877)" fill="#b8b8b8" fill-rule="evenodd"/>
    <path id="Path_1769" data-name="Path 1769" d="M408.677,331.885l-1.1.816c-.792.786-.22,1.751.968,2.039,2.916.7,7.832-3.593,9.37-2.023l-.346-1.241c.226-1.328-.2-1.592-.876-2.861a10.465,10.465,0,0,1-1.233-2.861c-1.774.473-.466.262-3.37,3.169-.612.614-.993,1.061-1.658,1.621-.762.64-1.039.692-1.756,1.34" transform="translate(-168.007 -114.241)" fill="#8c8c8c" fill-rule="evenodd"/>
    <path id="Path_1770" data-name="Path 1770" d="M267.98,433.222l-.085.2-.367.762c-.644-.085-.516-.226-.4.409-.657-.085-.531-.23-.4.415-.678-.094-.531-.241-.445.439-.64-.136-.5-.257-.4.4-.641-.118-.5-.249-.409.4-.624-.1-.48-.242-.48.373l.48-.373.409-.4.4-.4c.59,0,.445.148.445-.439l.4-.415.4-.409.367-.762.085-.2c5.351-.571,9.714-2.972,15.821-3.293.426.449.211.068.367.918l.612-1.063c.849-1.649,1.434-2.5,1.474-4.251-2.506.056-9.13,3.021-11.9,4.041-2.072.762-5.223,1.951-6.372,3.649" transform="translate(-132.399 -139.22)" fill="#e25800" fill-rule="evenodd"/>
    <path id="Path_1771" data-name="Path 1771" d="M268.658,336.112c1.088,0,.816-.271.816.816,0,.858,3.979.334,4.63.133,3.61-1.115,3.422-1.092,3.546-2.586-3.4-.283-5.041-4.678-7.766-4.9a16.009,16.009,0,0,1-1.244,3.268c-.325.8-.873,2.479.017,3.274" transform="translate(-133.198 -115.196)" fill="#8c8c8c" fill-rule="evenodd"/>
    <path id="Path_1772" data-name="Path 1772" d="M290.63,501.592a28.271,28.271,0,0,1,.409,11.853c1.668-.038,1.5.181,2.233-1.037.747-1.232,2.74-8.58,1.2-11.795-.611-1.273-.744-1.352-2.2-1.474-.412,1.544-.789,1.189-1.635,2.452" transform="translate(-138.82 -157.648)" fill="#b8b8b8" fill-rule="evenodd"/>
    <path id="Path_1773" data-name="Path 1773" d="M217.053,312.665c1.124.615,3.1,1.929,4.473,2.044a15.716,15.716,0,0,1,1.678-2.819c1.1-1.462,1.645-1.453,2.409-2.5a11.837,11.837,0,0,0-5.533-3.27c-1.361,1.816-2.945,2.973-3.028,6.54" transform="translate(-120.4 -109.326)" fill="#ecb482" fill-rule="evenodd"/>
    <path id="Path_1774" data-name="Path 1774" d="M201.622,344.151c0-1.087-.272-.816.815-.816l0,0,1.129-1.752c2.137-3.218.8-3.234,1.557-6.014-5.551,0-5.549,1.948-5.549,7.358,1.02.681.805,1.048,2.046,1.226" transform="translate(-116.024 -116.698)" fill="#fedeb6" fill-rule="evenodd"/>
    <path id="Path_1775" data-name="Path 1775" d="M365.648,191.521a37.973,37.973,0,0,0,1.152-3.754,14.7,14.7,0,0,0,.483-4.831c-1.606-1.075-5.759-3.225-8.175-3.164-1.129.688-.732.1.538.954,7.418,4.979,4.427,10.056,6,10.8" transform="translate(-155.797 -77.693)" fill="#fa8a00" fill-rule="evenodd"/>
    <path id="Path_1776" data-name="Path 1776" d="M272.425,359.6l2.041-1.056c3.79-1.411,3.627-1.852,6.186-3.261l-3.112-.252c-1.789-.571-4.418.271-5.74.872-2.264,1.029-2.434,1.33-2.434,4.514a11.133,11.133,0,0,0,3.059-.818" transform="translate(-133.496 -121.524)" fill="#8c8c8c" fill-rule="evenodd"/>
    <path id="Path_1777" data-name="Path 1777" d="M208.3,322.753a35.677,35.677,0,0,1,4.055.046c1.587.235,1.082.621,2.892.771a10.8,10.8,0,0,0,2.861-4.5c-2.119-.494-2.84-1.62-5.121-2.044.1,2.112-1.286,1.637-.95,4.906-2.4,0-2.845-.253-3.737.816" transform="translate(-118.209 -112.057)" fill="#ecb482" fill-rule="evenodd"/>
    <path id="Path_1778" data-name="Path 1778" d="M424.471,356.52c-1.484.148-1.041-.106-1.808,1.093a7.086,7.086,0,0,0-.685,2.235c-.037,2.026,1.115,2.409,2.9,2.631,0-.876-.186-.588.816-.588.612-.575.471-1.156,1.625-2.887.654-.98,1.749-2.122,2.053-3.262-2.678,0-2.55.815-4.9.778" transform="translate(-171.703 -121.748)" fill="#8c8c8c" fill-rule="evenodd"/>
    <path id="Path_1779" data-name="Path 1779" d="M215.953,312.49c.083-3.567,1.667-4.724,3.028-6.54-1.66-1.151-4.044-.208-5.006.9-1.328,1.535-1.314,2.876-1.314,5.635Z" transform="translate(-119.3 -109.151)" fill="#fedeb6" fill-rule="evenodd"/>
    <path id="Path_1780" data-name="Path 1780" d="M207.211,331.213c3.573.209,2.08,1.026,4.494,1.226.476-2.044,1.484-3.1,1.635-4.9l-4.268-1.112c-2.338.045-.655-.5-1.454.7l1.244-.242-1.423,4.006c-.033-.065-.151.218-.228.325" transform="translate(-117.936 -114.386)" fill="#ecb482" fill-rule="evenodd"/>
    <path id="Path_1781" data-name="Path 1781" d="M306.441,334.778c-.379,2.644-1.4,5.727-1.635,8.586h1.447l1.162-.818c-.043-2.168,1.912-7.215,1.07-8.443-1.1-.142-1.215-.014-2.044.675" transform="translate(-142.369 -116.318)" fill="#8c8c8c" fill-rule="evenodd"/>
    <path id="Path_1782" data-name="Path 1782" d="M208.165,322.623c.892-1.069,1.333-.816,3.737-.816-.337-3.269,1.045-2.794.95-4.906-1.3-.894-3.1-.075-3.93.759-1.159,1.157-1.168,2.68-1.168,4.963Z" transform="translate(-118.072 -111.927)" fill="#fedeb6" fill-rule="evenodd"/>
    <path id="Path_1783" data-name="Path 1783" d="M333.286,324.541c0,1.119.293.862-.783.862a2.392,2.392,0,0,0,.551,3.122c1.02.842,2.4.833,3.536,1.376v-.409c0-.942-.293-.816.409-.816l.409-.409.409-.409.784-.286.268-.666a29.283,29.283,0,0,0-3.379-1.226,4.7,4.7,0,0,1-1.592-.864c-.681-.447-.041-.613-.613-.277" transform="translate(-149.219 -113.892)" fill="#8c8c8c" fill-rule="evenodd"/>
    <path id="Path_1784" data-name="Path 1784" d="M273.446,359.384c3.385,0,6.433-1.226,9.612-1.226-.147-.63-.4-3.359-.764-3.738-.4-.415-.813-.475-1.673-.452-2.587.069-1.5.071-2.059.848l3.112.252c-2.559,1.409-2.4,1.85-6.186,3.261Z" transform="translate(-134.518 -121.303)" fill="#585858" fill-rule="evenodd"/>
    <path id="Path_1785" data-name="Path 1785" d="M278.36,249.516c.349-.649,5.257-2.489,6.133-2.454-.593-1.783-.52-3.108-4.954-1.274-1.334.552-.677.516-1.994.868,0,3,.052,2.258.816,2.861" transform="translate(-135.544 -94)" fill="#ecb482" fill-rule="evenodd"/>
    <path id="Path_1786" data-name="Path 1786" d="M205.982,331.367c.077-.107.195-.391.228-.325l1.423-4.006-1.244.242c-1.026-.25.3-.629-1.521.087-1.858.729-2.52,2.313-2.567,4.411a24.547,24.547,0,0,1,3.681-.409" transform="translate(-116.706 -114.54)" fill="#fedeb6" fill-rule="evenodd"/>
    <path id="Path_1787" data-name="Path 1787" d="M292.811,431.235c.671-.572.206-.469,1.23-.646.011,0,1.657,0,1.773,0l-.283,2.577c.481-.564.421-.115.574-1.208.022-.157-.012-1.394-.016-1.646-.017-1.228-.008-2.457-.008-3.685-1.189.1-.538-.229-1.3.336-.852.634-1.626,3.343-1.971,4.278" transform="translate(-139.366 -139.491)" fill="#e25800" fill-rule="evenodd"/>
    <path id="Path_1788" data-name="Path 1788" d="M364.8,490.5c-3.834,0-5.757-.07-8.175-3.679,5.775.481,6.67,1.505,14.228-3.348,8.008-5.142,19.289-12.168,19.289-22.4h.409c0,5.664,2.151,6.708-2.939,14.636a30.765,30.765,0,0,1-5.739,6.931,33.666,33.666,0,0,1-3.522,2.609,31.844,31.844,0,0,1-3.871,2.261c-2.332,1.175-6.454,2.992-9.679,2.992m-103-220.308c-1.357-2.565-3.19-2.83-6.891-7.415l-4.145-4.847c0,3.188,1.478,5.107,3.732,8.121,1.956,2.615,3.956,4.921,7.3,4.141m53.136-75.616c0,3.1.82,10.092,4.9,7.357-.587-2.2-2.286-1.53-1.214-4.439a40.236,40.236,0,0,0,2.032-4.963,5.417,5.417,0,0,0-3.27,2.044,6.159,6.159,0,0,1,.492-3.259c1.689-4.557-2.945-.839-2.945,3.259M332.1,302.893c2.232-2.672-3.484-18.56-8.486-24.622-.809-.981-4.439-5.87-5.447-4.861-.526.525-.471.137,1.768,2.817,4.346,5.2,7.257,12.038,9.132,18.663.858,3.034,1.131,6.729,3.033,8m-5.722-33.517v-.817c7.451.62,29.02,16.967,29.02,26.159-2.28-.609-4.2-4.894-6.448-7.449-2.273-2.584-4.028-4.567-6.522-6.967-.894-.861-1.132-.9-2.027-1.651-.773-.649-1-.917-1.759-1.511-2.908-2.266-8.922-6.984-12.265-7.763m-51.5-16.758a6.552,6.552,0,0,1-6.131-3.269,31.582,31.582,0,0,1,6.592-8.532c4.606-3.7,10.366-8.226,17.524-8.226.581,0,2.208,2.156,2.553,2.781,3.523,6.381-15.768,17.246-20.537,17.246m-16.35-16.758c5.466,0,21.593-7.333,23.707-10.218-1.368-.319-3.182-1.226-4.5-1.226-3.632,0-23.941,11.445-19.211,11.445m-4.087,1.226c.72-3.092,7.074-7.308,9.728-9.073,11.488-7.643,15.252-8.192,26.814-.493,2.524,1.681,8.01,5.533,8.01,9.157,0,6.846-10.326,14.177-16.479,17.036-11.844,5.505-14.764-.427-21.236-9.159-1.674-2.258-4.917-6.956-6.837-7.469M360.712,483.554c3.463,0,6.236-1.98,8.506-3.347,24.958-15.027,15.609-20.48,15.609-29.76l-11.574,6.41a67.211,67.211,0,0,0-10.393,7.182c-3.386,3-5.967,5.724-7.763,10.222-1.083,2.715-2.053,4.229-.031,6.348,1.247,1.307,3.268,2.945,5.645,2.945m-9.4-7.766c2.845-2.084-1.43-8.682,22.4-22.97,1.749-1.049,8.3-4.863,9.891-5.233a5.861,5.861,0,0,0-1.226-2.453c-1.922,1.017-3.765,1.327-5.963,2.213a47.925,47.925,0,0,0-5.483,2.691,41.8,41.8,0,0,0-9.094,6.847,56.373,56.373,0,0,0-7.34,8.6c-6.23,9.314-4.062,6.535-3.184,10.3m-2.044-6.131c1.935-8.306,16.378-20.985,24.986-24.472l4.852-2.1c-2.591-.6-6.026-2.861-8.992-2.861-6.316,0-11.582,1.491-16.048,5.614l-4.478,5.741c-3.553,5.638-3.325,10.032-1.4,16.3.559,1.823-.124.893,1.084,1.777m-75.616-31.064c2.8-4.176,23.795-13.045,26.358-7.965.512,1.015.618,5.856.618,7.556,0,3.642-15.386,7.525-22.321,5.972-2.7-.6-4.074-3.062-4.656-5.562m56-5.723c3.978-.331,13.537-4.826,16.869-8.063,1.143-1.11,3.036-3.71,4.385-4.2.862,1.629,1.529,2.917,2.471,4.478,2.04,3.38,6.574,10.523,10.609,11.464v.817c-8.542,0-17.054,9.9-17.985,13.9h-.817c-.2-8.971-14.5-16.986-15.532-18.393m-56.814,3.27c3.827-2.562,4.4-3.635,9.4-6.135,7.343-3.677,11.312-4.6,18.806-2.857,0-2.042.356-1.313-.659-2.2-5.4-4.728-26.142,5.094-27.58,9.414-.311.936-.1.16.037,1.78m-.818-4.5c1.125-.753,1.724-1.6,2.852-2.463,3.383-2.6,5.923-3.5,9.994-5.129,3.7-1.485,8.23-3.1,12.25-2.747,2.016.178,2.2.652,3.516,1.346-.53-2.275-.954-5.573-2.454-6.947-3.622-3.315-18.8-1.13-22.971,1.96-3.292,2.442-3.187,8.323-3.187,13.98m54.771-2.044c6.218,0,16.74-5.541,20.615-11.266,2.793-4.125,3.092-5.672,3.092-9.988,0-2.17-2.853-6.7-5.313-7.357-.115,1.386-1.708,4.719-2.37,5.8-3.618,5.927-4.757,8.219-12.066,11.64-10.719,5.017-14.872.909-11.575,5.692,2.322,3.37,3.954,5.475,7.619,5.475m-47.414-17.166a29.594,29.594,0,0,0,3.043-6.358,34.944,34.944,0,0,0,1.19-3.715,28.36,28.36,0,0,1,1.081-3.825c1.489.4,3.694,2.453,9.81,2.453a80.74,80.74,0,0,1,1.226,10.218c-7.077,0-3.808-1.7-16.35,1.226m-16.349,0a19.325,19.325,0,0,0-3.27,1.634l.409-9.809a7.289,7.289,0,0,0,.739-.487c1.314-1.023,1.194-1.479,2.531-2.374,0,1.9.04,3.841.017,5.739-.029,2.325-.425,2.818-.425,5.3m-11.853,5.722c1.6-2.385,5.772-11.1,7.357-12.262a40.464,40.464,0,0,1-1.28,8.529c-.514,1.617-.959,1.633-2.518,2.387a13.92,13.92,0,0,1-3.559,1.346M305.055,404.6a88.17,88.17,0,0,0,7.334,10.378,15.93,15.93,0,0,0,2.954,3.178c-2.54,3.792-.454,6.506,2.206,10.055,4.956,6.608,7.583,3.478,10.377,6.382,2.85,2.962,6.074,5.243,8.985,8.181,8.374,8.451,4.087,22.047,10.855,34.515,2.523,4.648,4.786,10.2,8.541,13.94,10.349,10.315,38.33-9.527,38.33-24.025a35.736,35.736,0,0,0-3.678-15.941c-.65-1.327-1.026-2.567-1.764-3.96a15.953,15.953,0,0,0-5.415-5.619c-2.508-1.721-4.763-2.155-7.655-3.381-9.012-3.818-14.686-5.1-19.362-13.746-.8-1.484-1.306-2.163-2.049-3.673a21.212,21.212,0,0,0-.965-1.9c-.475-.773-.7-.889-1.212-1.649,1.117-4.793,1.635-2.756,1.635-8.992,0-3.016-2.571-6.851-4.177-8.493-3.16-3.232-5.307-3.067-9.311-2.133-1.062-2.008-2.214-3.584-3.4-5.592s-2.328-3.619-3.549-5.444c6.811-12.871,5.781-11.738-1.771-26.84l-4.883-11.057a26.293,26.293,0,0,1-1.52-4.2c3.516,0,4.14-1.064,5.561-3.431,3.291-5.486,3.133-11.465-2.7-15.371l1.635-13.9c1.944,0,4.209-.666,5.506-.221,2.7.929,6.319,5.126,14.931,5.126,4.578,0,7.428-2.546,9.884-4.831,1.925-1.792,8.329-.073,13-.073,9.3,0,20.408.157,24.8-8.712a20.048,20.048,0,0,0,2.172-10.09c0-6.967-14.741-6.948-22.48-6.948.592-.515.122-.166.963-.672.531-.32.759-.407,1.312-.732.934-.549,1.386-.795,2.347-1.332a137.507,137.507,0,0,0,13.6-8.473c10.384-7.512,17.014-15.824,8.122-27.807-2.382-3.211-6.961-5.128-11.63-5.128-4.513,0-19.94,9.286-22.48,13.08l3.352-5.64c7.5-11.276,14.514-19.9,1.909-29.867-15.105-11.941-19.125-5.152-27.819,9.271-2.894,4.8-6.013,9.75-8.506,14.791l-2.861,4.9a36.548,36.548,0,0,1,.935-6.014c1.018-6.17,5.056-26.091.333-30.813-2.633-2.632-6.7-2.412-11.895-2.412a28.129,28.129,0,0,0,2.819-6.173c1.782-5.7,1.284-12.757-.508-18.209a12.884,12.884,0,0,0-5.172-7.09c.132-1.591,1.245-4.584,1.755-6.42s.139-1.565,1.609-2.478a14.525,14.525,0,0,1,2.7-1.391c11-4.492,14.532-.764,7.427-11.374h4.5c.691-1.032,1.226-1.226,1.226-2.452,0-2.595-4.37-6.4-5.723-8.175-1.938-2.544-4.769-4.586-7.262-6.634-3.819-3.139-13.388-9.6-18.488-9.715,1.241-4.649,15.934-10.67,3.1-12.909-9.382-1.637-20.463-1.738-29.387,1.746a38.012,38.012,0,0,1-4.368,1.762c2.849-5.936,3.077-8.08,7.11-14.144,2.049-3.082,8.642-9.449,9.239-12.015-1.094-1.635-2.163-1.635-4.087-1.635-5.26,0-12.646,1.726-17.086,2.942a80.5,80.5,0,0,0-27.475,13.4c-1.1.834-1.507,1.45-2.565,2.34-2.542,2.138-7.2,7.557-7.645,7.887,0-2.592-.37-3.716-.4-6.552-.016-1.568-.3-2.367-.3-3.258s.284-1.7.3-3.253c.091-7.394,4.016-18.749-3.062-13.284-3.9,3.011-7.921,8.877-10.685,13.022l-3.712,6.1A106.778,106.778,0,0,0,209.071,139.4c-6.193-3.277-9.164-10.366-11.507-16.7-.768-2.076-1.458-4.673-3.208-6.194-3.259.759-3.466,4.379-4.126,7.728-2.979,15.122.076,35.014,10.15,46.333,1.23,1.382,1.813,2.636,3.786,3.163,0,12.87,6.1,33.525,4.517,52.748-.309,3.762-.325,7.65-.919,11.356-1.406,8.77,4.511,1.612,5.5.578,2.69-2.825,8.565-11.731,8.889-15.635,2.06,1.379,2.795,4.616,10.1,9.111,1.738,1.07,2.439,4.328,3.213,6.188a77.605,77.605,0,0,0,4.744,9.562c1.654,2.763,4.352,5.72,7.694,6.612-.693,2.978-5.137,5.837-1.571,11.789a7.347,7.347,0,0,0,2.388,2.926l-2.071,3.243c-.376.687-.129.179-.439.787a7.985,7.985,0,0,1-1.684,2.813L238.6,280.92c-3.827,3.4-8.886,6.662-11.134,11.347-4.176-2.211-6.781-2.5-11.853-3.679,1.882-2.81,3.785-2.252,7.362-9.4a30.379,30.379,0,0,0,2.315-5.86c1.7-5.864,2.413-15.395-4.424-18.2-1.739-.713-1.282-.427-2.344-1.743a25.674,25.674,0,0,0-1.981-2.106c-5.072-5.128-12.1-1.669-16.987,2.034-2.257,1.708-4.334,3.174-5.912,5.532a5.966,5.966,0,0,0-.1,6.032c-1.931,1.293-5.2,6.082-5.579,9.158-.415,3.329,1.823,1.792-.543,5.145-4.3,6.089-1.443,9.931,2.277,15.294,2.487,3.585,7.081,9.259,11.043,11.437,2.433,1.338,2.3.068,5.01,2.347,7.578,6.362,19.793,14.251,30.71,14.251,2.753,0,3.347-.768,5.314-1.226a35.794,35.794,0,0,0-1.074,3.423c-1.329,4.078-2.831,9.269-1.788,13.744-5.53,1.477-3.453,12.963,2.861,13.488-.609,2.281-3.607,3.813-5.22,5.408-4.484,4.436-9.258,8.854-13.294,13.682L210.538,385.7c-8.643,12.478-10.566,12.555-4.331,21.426.566.807.861,1.312,1.541,2.138,1.2,1.454,2.147,2.6,3.307,4.05,5.625,7.028,13.462,12.61,24.585,12.61,3.434,0,7.692-.031,10.275-1.578a10.329,10.329,0,0,0,2.439-2.058c1.677-1.987.493-.865,3.275-1.629,5.34-1.466,8.71-3.484,13.031-5.771.076,3.437,2.231,3.678,5.722,3.678-.46,5.531-1.226,2.739-1.226,13.488a12.212,12.212,0,0,0,1.984,7.008l.589,1.456a12.8,12.8,0,0,0,.565,1.887,54.859,54.859,0,0,0,4.67,8.818c5.543,7.2,18.755,1.136,24.209-1.867,4.978-2.743,7.631-6.507,7.631-14.032a122.707,122.707,0,0,0-1.154-16.014c-.647-4.466-.981-9.125-2.552-13.389Zm15.6,13.965c-.584,0-2.516-2.345-2.861-2.861,1.892-1,3.835-1.6,5.853-2.73a82.325,82.325,0,0,0,10.6-6.98,52.1,52.1,0,0,1,4.805-4.187c.778,2.913,2.336.464-.944,6-2.555,4.314-5.6,6.6-10.321,8.482-1.35.539-5.825,2.273-7.128,2.273M297.767,401.4c.77,1.722.818,7.814.818,10.627,2.513,1.33,3.451,2.738,4.262,5.956,3.286,13.041.147,10.778.493,13.765.833,7.177,2.152,10.193-7.562,13.442a43.857,43.857,0,0,1-13.135,2.4l-5.314-.409c1.162,1.736,2.919,4.5,5.723,4.5,6.574,0,10.468-1.771,15.126-4.084,4.3-2.133,7.354-4.173,7.354-10.63a120.58,120.58,0,0,0-1.458-20.205c-1.4-9.529-1.705-7.88-3.447-15.355ZM266.7,397.72c-3.57,2.391.557,5.017-1.226,12.671,1.183-.478.641.146,1.18-1.681,1.21-4.1,2.206-7.763.046-10.99m48.64,15.532a9.8,9.8,0,0,1-2.861-3.678c6.628-.148,21.508-10.256,22.48-13.9h.817c.479,2.054,1.517,2.231,2.044,4.5-3.3,2.211-5.469,4.807-10.218,7.359-3.132,1.682-8.739,4.9-12.262,5.721m-69.894-3.678c1.007-3.771,11.548-6.105,15.123-11.445-.723-2.711-16.9-18.8-24.524-18.8-6.724,0-18.785,9.691-24.353,14.068-.841.661-.98.91-1.711,1.56-4.187,3.721-5.5,3.588,1.888,12.636,6.332,7.754,12.419,13.836,23.768,13.836,7.919,0,8.117.22,12.087-5.08,2.035-2.716,3.661-5.271,5.488-8-3.265.761-3.476,1.226-7.766,1.226m22.889-14.306c1.136-1.7,5.209-6.254,5.722-8.174,2.332.193,3.48,1.589,4.375,3.391,2.026,4.076,2.165,3.673,2.165,8.053,0,4.5-4.227,16.35-10.218,16.35h-1.635c.1-4.649,4.116-11.469,1.52-16.643-.779-1.552-.627-.5-1.928-2.977m42.917,12.671c-.576,0-2.06-2.172-2.547-2.766a18.44,18.44,0,0,1-2.358-3.365c7.173-.6,17.093-1.308,21.544-6.659,1.072-1.289,3.388-4.07,3.8-5.6h.817a15.04,15.04,0,0,0,1.635,3.678c-3.61,5.392-17.646,14.715-22.889,14.715M211.864,389.2c-.02-.156.633-.31,1.472-1.525l6.24-8.066a18.919,18.919,0,0,1,3.4-2.326c10.4-6.9,12.333-7.323,23.687-.805,3.475,2,12.949,9.661,15.548,13.063.968,1.268,2.026,2.023,2.861,3.27a6.209,6.209,0,0,1-2.861,3.27c-.5-1.855-3.625-5.059-5.008-6.438-5.554-5.54-14.567-13.181-23.2-13.181-4.852,0-19.953,10.745-21.663,13.079Zm13.9-16.758,1.178-1c.635-.7.425-.636,1.054-1.4,2.414-2.924,5.24-3.878,9.243-4.688,7.3-1.476,23,11.874,28.453,17.024l4.283,5.119c-.986,1.472-1.468,1.41-2.452,3.27a23.5,23.5,0,0,1-3.373-3.167c-7.239-7.2-9.234-9.374-19.342-14.993-2.127-1.182-7.511-3.5-10.393-3.5-2.757,0-7.046,2.139-8.175,3.679Zm41.35-13.557c-1.085-.52-.437-.373-2.044-.409,0-4.311.385-10.377,2.745-14.013.489-.752.17-.293.525-.7,0,8.9-1.226,11.356-1.226,15.123m3.679-16.349,11.431-4.1,13.907-1.644,14.069,1.49a46.056,46.056,0,0,1,5.911,1.855c1.795.68,3.691,1.915,5.775,2.4,0,5.8,6.4,19.4,9.48,24.445,4.4,7.217,3.993,9.9-.309,17.015-3.671,6.076-5.719,10.879-12.024,12.5-7.739,1.99-10.1,1.627-17.992,1.627-4.719,0-12.319-.625-14.39-3.185-2.1-2.6-4.257-8.857-5.642-12.342-1.68-4.227-3.023-8.443-4.728-12.847-1.994-5.149-1.732-9.1-7.53-10.455.169-2.031,1.166-4.987,1.525-7.059.386-2.235,1.512-7.477.52-9.7M262.616,354.8l.478,3.258c-1.564-.109-4.006-.824-6.346-.133-1.461.431-1.074-.186-1.49,1.371a42.707,42.707,0,0,1,8.5,1.716c8.212,2.217,6.606,2.668,10.959,15.2a32.752,32.752,0,0,1,1.383,3.93l-4.5,4.906c-1.05-3.933-24.22-22.481-32.7-22.481a16.7,16.7,0,0,0-4.087.818,58.2,58.2,0,0,1,6.251-6.419c.827-.691.991-.667,1.825-1.444l5.068-4.743c2.357-3.059,1.454-2.235,7.876-4.795,2.017-.8,7.778-3.29,9.635-3.445-.283,1.211-3.574,8.044-2.861,12.262m2.044-16.758c0,1.54.269.773.409,2.452-6.108.509-18.825,5.862-22.889,8.583-2.61-1.747-3.27-3.266-3.27-6.131,0-4.3,21.3-11.04,26.159-11.444,0,2.858-.409,3.907-.409,6.539m10.218-9.81c5.516-2.646,24.614-6.539,30.247-6.539,8.988,0,24.932,4.987,24.932,11.853,0,3.963-2.276,7.766-3.678,7.766-1.02,0-5-1.954-6.124-2.46a59.361,59.361,0,0,0-6.387-2.606c-8.365-2.764-20.395-2.9-29.355-1.241a31.982,31.982,0,0,0-4.891,1.241c-1.8.594-3.3,1.46-4.745,1.8Zm50.274-4.9c-1.478-.345-4-1.944-7.353-2.866-13.636-3.745-22.666-.752-35.892,2.947l-6.621,2.371c0-1.243,1.9-17.984,3.27-17.984,1.792,0,.5.274,2.236.154,5.8-.4,12.606-1.5,17.792-4.242,4.952,3.316,12.257,9.4,19.619,9.4,1.954,0,6.584-.25,7.766-.818,0,4.1-.818,6.58-.818,11.036m-52.726,15.94a18.064,18.064,0,0,0-3.069,1.117c-2.217.841-1.836-.326-1.836-3.978a86.447,86.447,0,0,1,1.807-15.359c.448-2.469.881-5.093,1.382-7.2a36.348,36.348,0,0,0,1.307-7.276A32.321,32.321,0,0,1,276.1,307.8c-1.109,4.765-2.547,9.589-3.251,14.732-.437,3.188-1.919,13.632-.427,16.74m-6.948-10.218c-9.664,0-21.091,6.731-23.707,6.948.976-4.191.852-5.76,2.45-11.856.463-1.766,1.068-3.739,1.586-5.362,2.527-7.909.444-6.442,6.13-8.176,1.769-.54,3.884-1.167,5.8-1.555,4.352-.877,7.621-1.333,7.738-6.568,1.861.984,3.2,2.707,5.314,3.269-1.615,6.93-4.7,15.971-5.314,23.3m-17.985-20.028c-2.059,0,.993-10.074,1.438-11.233.629-1.633.958-1.692,4.575-2.373,8.727-1.646,7.5-.479,8.456,1.609,1.163,2.529,1.027,1.637.164,6.192-.277,1.46-.178,1.765-1.772,2.316-1.523.526-6.453,1.233-9.712,2.549a8.027,8.027,0,0,1-3.149.939M235.23,297.988c6.29,0,7.566,3.08,9.809,3.678a17.517,17.517,0,0,0-1.226,6.54c0,1.857.873,2.132,1.635,3.27a10.142,10.142,0,0,1-7.93,7.221c-3.3.5-9.8-1.543-12.275-2.548a87.115,87.115,0,0,1-10.182-4.942c-1.757-.955-8.441-5.154-9.26-6.272,4.483-1.045,11.332-8.683,12.262-12.671,5.842.486,11.255,5.107,15.244,8.462,2.266,1.907,2.942,2.962,4.783,3.391,0-3.443-1.562-4.192-2.861-6.131m134.882,9.81c-.25-.938-1.635-3.23-1.635-5.314,0-3.3,2.916-13.08,5.314-13.08,4.11,0,22.89-.577,22.89,4.5,0,6.427-3.047,10.771-7.867,12.571-2.17.81-11.682,1.9-13.765,1.723a40.447,40.447,0,0,0-4.936-.4M248.719,293.492c.209-2.513,1.991-3.116,4.072-3.694a24.734,24.734,0,0,1,6.963-.8c.132,1.588.369,1.064.409,2.861a35.781,35.781,0,0,0-5.9.64c-1.017.147-1.908.22-2.849.42a16.517,16.517,0,0,1-2.695.575m15.123-6.131,17.584-2.444c7.239-1.755,4.7-2.281,9.394.807,5.618,3.7,4.9,5.849,4.9,15.534-4.791.4-18.394,7.849-28.318-2.337-2.18-2.238-4.475-7.645-3.563-11.56m-17.985,5.313c0,3.092.5,2.744,0,4.9-2.1-.175-6.827-4.9-14.305-4.9a37.724,37.724,0,0,1,2.822-3.308c.058-.062.142-.148.2-.21l9.24-9.153c.1,4.447,2.486,5.314,5.722,5.314v2.861a4.7,4.7,0,0,0-3.679,4.5M196.4,279.6a4.532,4.532,0,0,1,5.821-4.633c4.1,1,9.047,6.006,2.075,11.3-2.062,1.566-5.443,3.2-5.443-.13,0-2.3,1.448-3.062,1.635-5.314-1.831.427-1.313.813-2.861,1.226A4.846,4.846,0,0,1,196.4,279.6m51.909-4.087c0-2.984.736-2.8,1.226-4.9.938.627,2.181,1.736,3.173,2.55,2.017,1.654,2.529,1.153,2.959,2.764-1.513.352-7.358,2.658-7.358-.409m-1.635,5.313c0-5.041,1.069-1.635,3.27-1.635,4.158,0,12.161-4.116,16.135-6.755,1.327-.882.976-.227,1.85-1.42.834.6.739-.327-1.64,2.448-.789.92-1.38,1.183-2.35,2.146a24.439,24.439,0,0,1-5.014,3.979c-2.744,1.577-12.251,5.676-12.251,1.238M205.8,272.647c-1.367-.319-2.823-1.226-4.5-1.226-1.539,0-.773.269-2.452.409.218-2.626,3.044-3.678,4.5-3.678,1.759,0,2.216.476,3.679.817-.418,1.794-1.062,1.708-1.226,3.678m67.85,9.4c-4.388,1.022-11.945-.16-13.08,4.088-3.681,0-5.723.754-8.583.817.3-3.64,3.451-.463,12.326-7.7,2.382-1.944,8.643-7.677,8.928-11.1a24.525,24.525,0,0,1,3.679.409c-1.054,2.2-3.27,10.265-3.27,13.488m6.131-.817c-1.29.3-2.8.517-4.088.817,0-4.655,2.354-9.074,2.453-13.488,3.57.855,1.616.262,4.5-.409a39.425,39.425,0,0,0-2.861,13.079M299.81,270.6c-6.535-1.523-2.657-4.242-2.044-6.54h.818c.214,2.574,1.488,2.759,3.678,3.27-.984,1.86-1.467,1.8-2.453,3.27m-87.469,5.313c-1.232,0-3.269-1.666-3.269-2.861,0-1.976,3.508-6.386,4.576-8.095,2.07-3.31,2.951-5.6,5.643-7.028,4.831,2.556,4.355,8.011,3.27,12.671-3.947-2.089-1.331-3.041-4.088-3.27-.3,3.609-1.834,8.583-6.131,8.583m-3.269-9.81c-4.108-.957-1.3-.817-6.54-.817.178-8,8.061-2.669,8.992-2.452a10.757,10.757,0,0,1-2.452,3.269m84.2,1.635c0,2.762,1.287,4.672,4.087,4.9-1.016,3.8-10.671,7.77-15.532,8.175,0-3.146,1.651-10,2.484-12.638.913-2.9,2.409-3.274,5.46-5.576,1.02-.769,1.381-1.216,2.274-1.814,1.514.4,1.922,1.226,3.679,1.635-.691,1.306-2.452,3.625-2.452,5.313m-45.779-6.131a6.959,6.959,0,0,1,.8-3.285c.706-1.451,1.28-1.461,1.649-2.846,4.391,2.324,17.114,6.54,23.707,6.54-.925,2.555-11.69,9.716-13.657,10.5-2.445.97-3.92-.391-5.87-2.005-2.31-1.913-6.631-5.652-6.631-8.9M361.529,265.7a23.986,23.986,0,0,1,3.562-2.978l11.15-8.469c5.9-4.159,17.773-13.476,24.826-5.2,3.175,3.726,3.379,5.472,3.379,9.7,0,4.871-6.064,9.354-9.167,11.679l-6.08,4.139c-2.36,1.431-4.266,2.539-6.647,3.981a59.913,59.913,0,0,1-6.586,3.643c-1.3.335-2.194-.65-3.291-1.478-4.334-3.276-10.077-11.007-11.146-15.014m-87.06.409c6.715,0,4.643,1.542,9.4-2.043,1.483-1.118,5.643-4.506,7.356-4.906-.04-1.8-.277-1.273-.409-2.861l-6.408,3.81a16.054,16.054,0,0,1-7.489,2.321c-.169,2.031-1.4,2.107-2.452,3.678m29.02-.409c-4.39-1.023-3.752-3.923-1.13-6.444,2.361-2.271,3.7-3.979,6.445-5.818l.409,3.679c0,1.927-4.43,7.718-5.723,8.583m-103.41,0a7.592,7.592,0,0,0-3.016,2.706c-1.312,2.352-.645,2.379-1.122,5.009-.258,1.424-3.679,4.449-1.582,8.626,1.325,2.639,1.355.2,1.67,4.058.52,6.35,5.233,4.885,6.584,5.678,1.773,1.04.124,2.257,2.37,3.76,2.338-1.712.841-4.541,0-6.131,3.576-2.394,6.131-5.308,6.131-10.218,4.559,0,8.465-1.655,8.583-6.948a18.356,18.356,0,0,0,2.044,1.226c-.487,2.087-3.18,6.666-4.427,8.244-2.939,3.721-6.119,3.22-6.2,6.879-2.256,0-1.971-.1-2.861,1.226a49.122,49.122,0,0,0,6.131,1.226c-.341,4.093-7.717,10.985-11.445,11.853-5.907-3.956-11.383-8.771-13.878-15.58-.963-2.626.729-5.074,1.621-7.3,2.5-6.245-.161-3.446,1.487-7.495a59.7,59.7,0,0,1,3.3-6.521c2.238-3.923-.88-3.089,2.954-6.855,1.154-1.134,4.093-3.625,5.743-4.066,0,4.207-.349,2.62-2.344,5.014-1.31,1.571-1.744,2.834-1.744,5.613m13.08-5.722c-2.219-1.174-3.542-2.044-6.948-2.044.133-5.954,4.356-6.329,7.6-4.334,1.067.655,1.582.926,2.615,1.473-.4,1.5-.762,1.255-1.7,2.388a14.105,14.105,0,0,0-1.571,2.517m116.49,3.679c0,1.845,2.567,2.159,3.688-2.035.669-2.5.426-2.133,1.6-4.119l3.439-6.372c.51-.838.146-.358.672-.963,1.107,4.751,9.18,15.378,15.94,15.94-.528,1.978-2.493,2.574-4.238,5.162-.9,1.334-.666.442-.666,2.6,5.566.463,4.882-2.7,9.4-5.722.8,1.508,1.361,3.2,2.214,4.734a34.866,34.866,0,0,0,4.021,6.2c.8.886.93,1.19,1.644,2.035a11.927,11.927,0,0,0,3.975,2.974l-6.233,3.985c-1.038,1.028-.716.669-.716,2.555,2.876.762,1.023.4,4.5-.409-.509.76-.737.876-1.212,1.649-.385.625-.582,1.109-.97,1.891-2.071,4.179-3.718,9-1.5,13.626-4.408,0-5.14-.057-7.463,2.347-8.36,8.652-18.758-1.938-22.783-1.938-13.278,0-17.315,4.759-31.311-4.658a42.42,42.42,0,0,0-4.658-2.7c1.182-2.466.171-9.441-.644-11.619-.941-2.516-4.254-5.709-6.714-6.366v-.817c7.88-1.837,17.362-19.273,18.393-20.028.139,1.667.083,1.63,1.226,2.044l.409-13.08c3.253.271,15.006,3.227,20.028.818,0,3.13-2.044,8.14-2.044,12.262m-32.29-3.679c.959,0,4.7-3.777,5.661-4.557,3.558-2.891,2.666-1.939,5.784-4.026V239.948c-1.448.97-5.287,6-8.115,8.235-4.7,3.709-1.695,4.383-1.695,8.932-2.98-.067-2.861-1.866-2.861-4.9a13.66,13.66,0,0,1-3.27,2.044c0,1.827.271,3.146,1.175,4.139a5.344,5.344,0,0,0,3.321,1.584m38.421-11.036.122.122c-.008-.008-.163-.081-.122-.122m22.072,13.9a27.842,27.842,0,0,1-5.814-2.361c-3.488-2.22-11.353-10.795-11.353-13.171,0,0,15.673-29.838,22.072-29.838,5.222,0,15.532,9.019,15.532,13.08,0,5.775-17.579,30.376-20.437,32.29m-25.342-15.123-20.845.817c0-4,.65-8.434.815-12.265a80.528,80.528,0,0,1,1.6-11.889c1.792-8.966,6.812-11.406,15.979-11.406,4.425,0,5.534,1.207,6.042,5.005.288,2.152-.447,8.045-.693,10.153a187.411,187.411,0,0,1-2.9,19.585m-56-30.655c-2.807-.234-4.371-1.683-5.722-2.044.99-2.065,5.676-17.945,5.722-20.028,1.288,1.481,1.632,3.247,2.331,5.026.868,2.211,1.624,2.933.876,5.516Zm-36.787,13.9a12.6,12.6,0,0,1-7.766-2.452c1.3-5.592,2.723-11.061,4.174-16.671.671-2.595,1.286-5.348,2.1-8.116l1.9-8.73c2.154.179,6.614,4.007,6.808,5.364l-4.813,20.336c-.457,1.52-.768,3.295-1.172,4.959a38.532,38.532,0,0,0-1.232,5.309m36.787,28.2c-8.736,0-20.267-3.81-26.3-6.81-7.972-3.967-8.317-8.061-12.657-15.954-.6-1.092-.981-1.984-1.511-2.987,5.041.42,7.427,1.471,12.844-2.279,2.569-1.778,3.316-3.22,4.732-5.9,1.553,1.039,2.137,2.044,4.9,2.044a15.517,15.517,0,0,0,6.142-1.216c1.533-.717,3.61-1.942,4.077-3.689-4.523,0-3.128,1.635-11.036,1.635-1.515,0-1.5-1.38-1.682-2.814-.718-5.721.094-6.847-1.179-12.309,8.752-5.861,3.678,4.731,17.036,10.35,5.284,2.223,8.877,1.478,14.028.277a4.689,4.689,0,0,0,.817,2.5c.9,1.276,2.447,1.69,3.216-1.329,1.584-6.224.592-3.127,4.245-7.2a18.027,18.027,0,0,0,3.66-7.376c.36-1.639-.051-2.072,1.142-2.945a29.4,29.4,0,0,0,2.044,8.174c2.434-.2,2.445-1.858,3.974-5.427a39.234,39.234,0,0,0,2.566-6.835l1.635,1.635c0-6.262.807-8.1,2.12-13,2.121-7.93,9.182-11.764,12.729-3.48,3.086,7.209,3.476,23.788-5.7,26.453-3.582,1.04-2.919.361-3.235,1.733l-.043.525c-.613,2.571-3.589.608-5.709,15.731-.382,2.727.028,4.309-.991,6.367-2.255,4.556-12.683,13.721-17.567,17.175-3.434,2.427-10.021,6.949-14.3,6.949m-45.779-31.881c-3.508-.937-3.877-3.265-2.915-6.592.765-2.645,6.384-24.819,6.593-27.334a24.519,24.519,0,0,1,3.679.409l-5.727,24.929a58.7,58.7,0,0,0-1.63,8.588m38.421-13.9c-5.8-3.885-3.917-5.535-2.3-10.479,1.045-3.2,5.108-15.615,5.164-18.133.842.617,2.72,4.949,3.195,6.244.648,1.766-.5,4.008-1.508,7.3-1,3.258-4.364,12.862-4.548,15.072m-11.036-14.306c-4.173,0-3.97,1.767-6.54,2.453a23.814,23.814,0,0,0-7-7.3,17.317,17.317,0,0,0-15.758-2.784c-1.949.678-2.256,1.457-4.217,1.914l-.84-1.623a25.352,25.352,0,0,0,2.4-1.315c8.928-5.833,37.646-16.187,42.585-13.411-.581,1.6-8.1,4.209-10.271,14.661-.7,3.386-.418,4.641-.356,7.41M219.7,190.082a19.906,19.906,0,0,0-1.469-3.436c-.813-2.017-3.844-10.685-3.844-12.1,0-4.346,26.723-13.533,30.294-14.666l11.805-3.319c.776,1.467,1.606,2.622,2.472,4.068,1.573,2.626,6.862,10.643,7.338,12.69-7.989.665-17.549,3.761-25.094,6.379a107.688,107.688,0,0,0-18.635,9.16,4.721,4.721,0,0,1-2.867,1.22m100.14-13.488c-2.155,0-3.8-.657-5.722-.817,0-4.786,1.28-9.235,1.233-13.891-.041-4.146-.645-4.581,2.723-3.174a57.827,57.827,0,0,1,5.444,2.35,36.731,36.731,0,0,1-1.682,7.718c-.576,1.962-1.948,5.613-2,7.814m-43.326-53.544c0-8.148,7.844-19.941,13.6-25.642a14.3,14.3,0,0,0,2.344-2.969,76.023,76.023,0,0,0-11.535,1.954,90.7,90.7,0,0,0-28.36,12.1c-3.391,2.251-12.443,9.5-14.078,12.914-1.6,3.337,6.176,15.02,6.559,19.624-3.144-2.106-6.691-9.64-8.3-13.77-1.712-4.389-3.143-12.578-3.143-18.52,0-4.547.864-8.724,1.226-13.08-4.375,2.93-10.153,12.961-13.006,17.65-5.462,8.978-12.336,26.921-12.336,38.347h-.818c-.7-3.025-.252-6.372,0-9.4-9.294-2.165-12.494-17.242-14.714-20.436-.355,4.26-2.073,10.32-1.54,14.586,1.145,9.169.779,11.448,3.737,20.411,1.389,4.21,5.309,12.991,8.43,15.277a5.794,5.794,0,0,1,1.183-2.544c.517-.489,1.446-1.048,2.071-.424.583.584-.139,1.142-.631,2.292-1.72,4.016.051,9.814.7,13.7.563,3.352,1.124,6.526,1.65,10.2,1.609,11.262,2.892,25.173,1.632,36.928-.174,1.621-.451,3.6-.478,4.835,1.292-.947,4.846-6.46,5.728-8.168,5.073-9.823,4.438-7.35,2.764-14.22-1.307-5.362-.992-12.29,2.053-16.932.668-1.019,1.184-1.288,1.308-2.78-2.085-1-3.7-1.083-5.165-3.01-2.589-3.409-5.871-13.363-5.871-17.427,0-2.387.8-1.579-.516-3.952-1.375-2.475-4.206-12.18-1.119-14.441.54,1.126,1.184,5.565,1.55,7.033l2.128,6.455c1.492-.124,3.614-1.6,5.041-2.316,9.133-4.56,27.1-11.777,36.649-11.989-.9-3.385-6.678-7.784-6.948-11.036,3.307.883,10.2,12.089,12.616,15.587,1.941,2.812,3.63,5.562,5.391,8.505a136.739,136.739,0,0,1,7.579,13.676c2.534,5.673,13.539,29.9,13.653,34.987,1.3-.949.621-.193.96-2.311.866-5.429.959-11.08,1.257-13.048,1.352-8.937-.907-26.169-1.841-34.472-.512-4.545-1.5-9.113-2.314-13.219-.753-3.795-2.557-8.67-2.557-12.566h.817a26.694,26.694,0,0,0,1.58,3.734c.543,1.442.928,2.391,1.443,3.869a70.668,70.668,0,0,1,2.188,8.03,146.366,146.366,0,0,1,2.953,17.485c.57,6.748-.292,7.185,2.738,12.795,2.289,4.241,6.978,13.59,7.083,18.258h.817c.14-1.679,1.684-4.871,2.3-6.689a124.938,124.938,0,0,0,5.579-20.988A150.432,150.432,0,0,0,312.89,153.7l1.226-8.175a34.091,34.091,0,0,1,1.226,8.992,35.225,35.225,0,0,1,7.092,2.31c5.463,2.636,4.052,3.475,3.944,8.318,3.333-1.764,6.12-2.316,10.218-3.271-1.028-1.534-3.217-3.583-3.678-5.313a23.42,23.42,0,0,1-6.948.818c2.256-3.369,7.915-4.5,12.262-4.5-1.451-2.742-3.829-4.851-6.029-7.051-5.114-5.116-10.754-8.8-17.094-12.334a22.155,22.155,0,0,0-2.207-1.064c-1.325-.6-2.805-1.347-4.1-2.032-6.093,9.1-5.663,15.217-7.766,16.758-.213-2.559-.369-1.773-.041-4.526.694-5.841,2.5-10.8,6.276-14.989,1.013-1.124,1.388-1.805,2.443-2.87,1.331-1.346,4.835-3.971,5.219-5.408-2.237,0-4.32-.658-6.553-.8-10.394-.677-21.013.036-29.415,4.482a69.453,69.453,0,0,1-.817,11.445c-2.42-2.784-1.635-8.007-1.635-11.445" transform="translate(-112.441 -55.411)" fill-rule="evenodd"/>
  </g>
</svg>
