<svg xmlns="http://www.w3.org/2000/svg" xmlns:xlink="http://www.w3.org/1999/xlink" width="353" height="301.183" viewBox="0 0 353 301.183">
  <defs>
    <clipPath id="clip-path">
      <rect id="Rectangle_111" data-name="Rectangle 111" width="353" height="301" fill="none"/>
    </clipPath>
  </defs>
  <g id="Group_157" data-name="Group 157" transform="translate(-1950 -1989)">
    <g id="Group_89" data-name="Group 89" transform="translate(1950 1989)">
      <g id="Group_88" data-name="Group 88" clip-path="url(#clip-path)">
        <path id="Path_1384" data-name="Path 1384" d="M435.724,344.6H89.824a3.553,3.553,0,0,1-3.55-3.555V47.158a3.553,3.553,0,0,1,3.55-3.555h345.9a3.553,3.553,0,0,1,3.55,3.555v293.89a3.553,3.553,0,0,1-3.55,3.555" transform="translate(-86.274 -43.603)" fill="#3a854c"/>
        <rect id="Rectangle_110" data-name="Rectangle 110" width="239.021" height="148.565" rx="4.715" transform="translate(43.985 16.227)" fill="none"/>
      </g>
    </g>
    <g id="Group_91" data-name="Group 91" transform="translate(1952.758 1992.183)">
      <g id="Group_90" data-name="Group 90" transform="translate(-2.758 -3)" clip-path="url(#clip-path)">
        <path id="Path_1385" data-name="Path 1385" d="M19.808,88.721l133.809,49.049-55.254-24.6Z" transform="translate(-69.852 -54.714)" fill="#74d383"/>
        <path id="Path_1386" data-name="Path 1386" d="M283.139,390.616l9.535-12.878L261.5,411.27Z" transform="translate(-129.565 -125.885)" fill="#74d383"/>
        <path id="Path_1387" data-name="Path 1387" d="M252.345,397.779,198.894,448.6h.773L248.4,403.11Z" transform="translate(-114.097 -130.82)" fill="#74d383"/>
        <path id="Path_1388" data-name="Path 1388" d="M396.4,307.042a19.926,19.926,0,0,0-2.031-1.03Z" transform="translate(-162.39 -108.222)" fill="#74d383"/>
        <path id="Path_1389" data-name="Path 1389" d="M607.237,426.339h12.192v-6.212L397.064,307.378c16.178,8.7,125.546,70.816,210.173,118.961" transform="translate(-163.056 -108.559)" fill="#74d383"/>
        <path id="Path_1390" data-name="Path 1390" d="M632.759,401.792v-23.81L451.018,316.85Z" transform="translate(-176.386 -110.891)" fill="#74d383"/>
        <path id="Path_1391" data-name="Path 1391" d="M614.175,264.025v-1.219l-238.38-19.091Z" transform="translate(-157.801 -92.882)" fill="#74d383"/>
        <path id="Path_1392" data-name="Path 1392" d="M483.247,431.541h2.559L391.266,328.5Z" transform="translate(-161.624 -113.76)" fill="#74d383"/>
        <path id="Path_1393" data-name="Path 1393" d="M403.278,355.7l6.227,4.773-23.157-25.227Z" transform="translate(-160.409 -115.422)" fill="#74d383"/>
        <path id="Path_1394" data-name="Path 1394" d="M464.486,429.253,421.108,380.19l19.247,26.377Z" transform="translate(-168.996 -126.489)" fill="#74d383"/>
        <path id="Path_1395" data-name="Path 1395" d="M372.247,342.572l26.875,32.318L356.61,319.577Z" transform="translate(-153.062 -111.563)" fill="#74d383"/>
        <path id="Path_1396" data-name="Path 1396" d="M543.29,306.293l9.925,1.688-26.4-8.182Z" transform="translate(-195.112 -106.692)" fill="#74d383"/>
        <path id="Path_1397" data-name="Path 1397" d="M401.349,271.5l6.811,1.85-15.179-5.6Z" transform="translate(-162.048 -98.801)" fill="#74d383"/>
        <path id="Path_1398" data-name="Path 1398" d="M312.98,320.489l17.513-15.779-10.7,7.6Z" transform="translate(-142.282 -107.902)" fill="#74d383"/>
        <path id="Path_1399" data-name="Path 1399" d="M351.626,72.078,339.172,0s5.06,44.414,5.06,45.584,7.395,26.493,7.395,26.493" transform="translate(-148.754 -32.866)" fill="#74d383"/>
        <path id="Path_1400" data-name="Path 1400" d="M382.89,93.054l-7.779,21.159L422.455,18.02Z" transform="translate(-157.632 -37.303)" fill="#74d383"/>
        <path id="Path_1401" data-name="Path 1401" d="M126,269.569,185.3,262.43l-49.056,3.216Z" transform="translate(-96.089 -97.49)" fill="#74d383"/>
        <path id="Path_1402" data-name="Path 1402" d="M528.278,281.089,440.118,264.14l51.962,13.442Z" transform="translate(-173.693 -97.911)" fill="#74d383"/>
        <path id="Path_1403" data-name="Path 1403" d="M432.568,202.623,388.2,208.467s23.546-1.364,24.13-1.364,20.238-4.48,20.238-4.48" transform="translate(-160.866 -82.762)" fill="#74d383"/>
        <path id="Path_1404" data-name="Path 1404" d="M465.748,224.017l26.561,1.753,38.237-3.506s-63.922,1.753-64.8,1.753" transform="translate(-180.025 -87.599)" fill="#74d383"/>
        <path id="Path_1405" data-name="Path 1405" d="M396.108,224.178l7.642.43,7.563-.484Z" transform="translate(-162.82 -88.057)" fill="#74d383"/>
        <path id="Path_1406" data-name="Path 1406" d="M324.505,241.671l3.279-.21-6.592.023Z" transform="translate(-144.312 -92.326)" fill="#74d383"/>
        <path id="Path_1407" data-name="Path 1407" d="M389.615,217.527l-9.34.26,6.746.39Z" transform="translate(-158.908 -86.432)" fill="#74d383"/>
        <path id="Path_1408" data-name="Path 1408" d="M385.512,225.561l-3.73-.065,2.368.357Z" transform="translate(-159.281 -88.395)" fill="#74d383"/>
        <path id="Path_1409" data-name="Path 1409" d="M423.56,236.157l-3.73-.065,2.368.357Z" transform="translate(-168.681 -91.004)" fill="#74d383"/>
        <path id="Path_1410" data-name="Path 1410" d="M400.935,249.533l-7.135-.39,2.529.519Z" transform="translate(-162.25 -94.218)" fill="#74d383"/>
        <path id="Path_1411" data-name="Path 1411" d="M204.973,101.1l23.352,13.246-62.66-47.922Z" transform="translate(-105.887 -49.222)" fill="#74d383"/>
        <path id="Path_1412" data-name="Path 1412" d="M151.134,0h-5.5L283.7,108.505S195.39,36.374,151.134,0" transform="translate(-100.939 -32.866)" fill="#74d383"/>
        <path id="Path_1413" data-name="Path 1413" d="M226.253,0h-.5l94.085,104.22S260.3,37.792,226.253,0" transform="translate(-120.734 -32.866)" fill="#74d383"/>
        <path id="Path_1414" data-name="Path 1414" d="M639.942,169.21l1.719-.384-69.912,11.208s67.684-10.6,68.193-10.824" transform="translate(-206.213 -74.44)" fill="#74d383"/>
        <path id="Path_1415" data-name="Path 1415" d="M0,216.965v13.773c47.649.675,162.877,3.663,162.877,3.663Z" transform="translate(-64.959 -86.294)" fill="#74d383"/>
        <path id="Path_1416" data-name="Path 1416" d="M59.351,308.174l76.671-16.753S54.545,305.477,0,314.828v10.081l174.553-37.773Z" transform="translate(-64.959 -103.574)" fill="#74d383"/>
        <path id="Path_1417" data-name="Path 1417" d="M0,358.571v1.143l180.391-62.758Z" transform="translate(-64.959 -105.992)" fill="#74d383"/>
        <path id="Path_1418" data-name="Path 1418" d="M0,422.441v1.09l93.99-42.838S38.882,405.065,0,422.441" transform="translate(-64.959 -126.613)" fill="#74d383"/>
        <path id="Path_1419" data-name="Path 1419" d="M0,175.359v2.355L204.131,210.52Z" transform="translate(-64.959 -76.048)" fill="#74d383"/>
        <path id="Path_1420" data-name="Path 1420" d="M445.958,92.727l-67.141,39.748-33.3,21.615L606.694.37V0H582.9L398.434,119.74Z" transform="translate(-150.321 -32.866)" fill="#74d383"/>
        <path id="Path_1421" data-name="Path 1421" d="M580.187,96.4,391.818,173.933l13.233-3.9Z" transform="translate(-161.76 -56.605)" fill="#74d383"/>
        <path id="Path_1422" data-name="Path 1422" d="M382.17,232.344l3.47.487,33.243-.227Z" transform="translate(-159.376 -90.081)" fill="#74d383"/>
        <path id="Path_1423" data-name="Path 1423" d="M397.074,241.476l138.688,10.062L408.21,241.9Z" transform="translate(-163.058 -92.33)" fill="#74d383"/>
        <path id="Path_1424" data-name="Path 1424" d="M147.847,335.678,247.87,292.821l-137,52.986Z" transform="translate(-92.351 -104.974)" fill="#74d383"/>
        <path id="Path_1425" data-name="Path 1425" d="M461.986,106.451l-3.912,4.54L510.2,77.073Z" transform="translate(-178.129 -51.845)" fill="#74d383"/>
        <path id="Path_1426" data-name="Path 1426" d="M365.809,166.869l-7.33,5.974,9.53-5.642,19.617-12.734Z" transform="translate(-153.524 -70.904)" fill="#74d383"/>
        <path id="Path_1427" data-name="Path 1427" d="M409.361,150.035l-19.617,12.734,67.141-39.747Z" transform="translate(-161.248 -63.16)" fill="#74d383"/>
        <path id="Path_1428" data-name="Path 1428" d="M450.4,285.922,441.268,283l54.616,18.572Z" transform="translate(-173.977 -102.556)" fill="#74d383"/>
        <path id="Path_1429" data-name="Path 1429" d="M340.177,261.457a.125.125,0,0,0-.029-.009l.029.009" transform="translate(-148.995 -97.248)" fill="#74d383"/>
        <path id="Path_1430" data-name="Path 1430" d="M341.116,261.962l4.534.858s-5.06-1.248-5.463-1.36c.169.066.929.5.929.5" transform="translate(-149.004 -97.251)" fill="#74d383"/>
      </g>
    </g>
  </g>
</svg>
