<svg xmlns="http://www.w3.org/2000/svg" width="236.682" height="26.704" viewBox="0 0 236.682 26.704">
  <g id="Group_157" data-name="Group 157" transform="translate(-55.634 -25.322)">
    <path id="Path_1379" data-name="Path 1379" d="M252.823,59.2H88.208a11.43,11.43,0,1,1,0-22.86H252.823Z" transform="translate(-19.221 -9.098)" fill="#fff"/>
    <path id="Path_1380" data-name="Path 1380" d="M252.823,59.2H88.208a11.43,11.43,0,1,1,0-22.86H252.823Z" transform="translate(-19.221 -9.098)" fill="none" stroke="#000" stroke-miterlimit="10" stroke-width="3.844"/>
    <path id="Path_1381" data-name="Path 1381" d="M316.951,59.2H134.568a11.43,11.43,0,0,1,0-22.86H283.662A46.3,46.3,0,0,1,311.568,45.7l7.907,5.972a4.189,4.189,0,0,1-2.525,7.532" transform="translate(-30.828 -9.098)" fill="#edd545"/>
    <path id="Path_1382" data-name="Path 1382" d="M316.951,59.2H134.568a11.43,11.43,0,0,1,0-22.86H283.662A46.3,46.3,0,0,1,311.568,45.7l7.907,5.972A4.189,4.189,0,0,1,316.951,59.2Z" transform="translate(-30.828 -9.098)" fill="none" stroke="#000" stroke-miterlimit="10" stroke-width="3.844"/>
  </g>
</svg>
