<svg width="556" height="668" viewBox="0 0 556 668" fill="none" xmlns="http://www.w3.org/2000/svg">
<path d="M556 164.731V635.034C556 643.777 552.519 652.162 546.324 658.344C540.129 664.526 531.726 668 522.964 668H124.757C119.425 668 114.172 666.712 109.448 664.246C104.723 661.781 100.666 658.21 97.6244 653.841L5.90312 522.085C2.05974 516.563 -2.64945e-05 510.001 2.47724e-07 503.278V32.97C-0.000531105 28.6402 0.853731 24.3526 2.51401 20.3523C4.17429 16.352 6.60807 12.7172 9.67632 9.65551C12.7446 6.59385 16.3872 4.16532 20.3962 2.50861C24.4051 0.851902 28.7019 -0.000529963 33.041 2.4719e-07H431.247C436.579 3.53195e-05 441.832 1.2879 446.557 3.75359C451.282 6.21928 455.339 9.78953 458.381 14.1594L550.098 145.923C553.941 151.445 556.001 158.008 556 164.731Z" fill="black"/>
</svg>
