<svg xmlns="http://www.w3.org/2000/svg" xmlns:xlink="http://www.w3.org/1999/xlink" width="266.129" height="40.77" viewBox="0 0 266.129 40.77">
  <defs>
    <clipPath id="clip-path">
      <rect id="Rectangle_10" data-name="Rectangle 10" width="266.129" height="40.77" fill="none"/>
    </clipPath>
  </defs>
  <g id="Group_12" data-name="Group 12" transform="translate(0 0)">
    <path id="Path_232" data-name="Path 232" d="M532.947,3.336V1.762h6.307V3.336h-2.308v6.878H535.22V3.336Z" transform="translate(-282.149 -0.933)"/>
    <path id="Path_233" data-name="Path 233" d="M554.576,1.787,552,6.345,549.423,1.81h-1.586V10.2h1.586V4.958l1.946,3.463h1.282l1.9-3.427V10.2h1.609V1.787Z" transform="translate(-290.032 -0.946)"/>
    <g id="Group_11" data-name="Group 11" transform="translate(0 0)">
      <g id="Group_10" data-name="Group 10" clip-path="url(#clip-path)">
        <path id="Path_234" data-name="Path 234" d="M15.634,0a17.374,17.374,0,0,1,6.409,1.132,14.576,14.576,0,0,1,4.943,3.176,14.029,14.029,0,0,1,3.2,4.917,17.33,17.33,0,0,1,1.135,6.409,16.947,16.947,0,0,1-1.162,6.408,14.371,14.371,0,0,1-7.982,8.093A15.243,15.243,0,0,1,16.3,31.268a10.9,10.9,0,0,1-5.3-1.132A9.266,9.266,0,0,1,7.68,27.069v13.7H0V15.634A17.321,17.321,0,0,1,1.133,9.225,13.924,13.924,0,0,1,9.225,1.132,17.368,17.368,0,0,1,15.634,0m0,23.534a7.841,7.841,0,0,0,5.8-2.155,7.759,7.759,0,0,0,2.154-5.744,7.762,7.762,0,0,0-2.154-5.746,7.841,7.841,0,0,0-5.8-2.155A7.766,7.766,0,0,0,9.888,9.888a7.769,7.769,0,0,0-2.154,5.746,7.766,7.766,0,0,0,2.154,5.744,7.766,7.766,0,0,0,5.746,2.155" transform="translate(0 0)"/>
        <path id="Path_235" data-name="Path 235" d="M89.826,0a17.418,17.418,0,0,1,6.38,1.132,13.864,13.864,0,0,1,8.123,8.093,17.359,17.359,0,0,1,1.131,6.409,17.35,17.35,0,0,1-1.131,6.408,13.864,13.864,0,0,1-8.123,8.093,17.418,17.418,0,0,1-6.38,1.132,17.569,17.569,0,0,1-6.434-1.132,13.864,13.864,0,0,1-8.123-8.093,17.35,17.35,0,0,1-1.131-6.408,17.359,17.359,0,0,1,1.131-6.409,13.864,13.864,0,0,1,8.123-8.093A17.569,17.569,0,0,1,89.826,0m0,23.534a7.764,7.764,0,0,0,5.745-2.155,7.761,7.761,0,0,0,2.154-5.744,7.763,7.763,0,0,0-2.154-5.746,8.808,8.808,0,0,0-11.544,0,7.764,7.764,0,0,0-2.157,5.746,7.761,7.761,0,0,0,2.157,5.744,7.833,7.833,0,0,0,5.8,2.155" transform="translate(-39.25 0)"/>
        <path id="Path_236" data-name="Path 236" d="M151.463,1.173l5.3,7.789,5.3-7.789h9.007L161.295,16.2l9.781,15.137h-9.007l-5.3-7.789-5.3,7.789H142.4L152.18,16.2,142.4,1.173Z" transform="translate(-75.39 -0.621)"/>
        <path id="Path_237" data-name="Path 237" d="M315.884,0a12.807,12.807,0,0,1,4.974.967,10.624,10.624,0,0,1,4.005,2.928,14.721,14.721,0,0,1,2.68,4.889,21.149,21.149,0,0,1,.992,6.795V30.716H320.8V15.578a10.263,10.263,0,0,0-1.41-5.69,5.041,5.041,0,0,0-4.559-2.154,4.984,4.984,0,0,0-4.5,2.154,10.263,10.263,0,0,0-1.41,5.69V30.716h-7.678V15.578a10.1,10.1,0,0,0-1.437-5.69,5.869,5.869,0,0,0-9.088,0,10.267,10.267,0,0,0-1.407,5.69V30.716h-7.681V.552h7.681V4.2a7.436,7.436,0,0,1,2.928-3.066A9.257,9.257,0,0,1,296.992,0a10.39,10.39,0,0,1,9.669,5.8q2.65-5.8,9.224-5.8" transform="translate(-149.1 0)"/>
        <path id="Path_238" data-name="Path 238" d="M406.212,0a17.418,17.418,0,0,1,6.38,1.132,13.87,13.87,0,0,1,8.12,8.093,17.369,17.369,0,0,1,1.135,6.409,17.36,17.36,0,0,1-1.135,6.408,13.87,13.87,0,0,1-8.12,8.093,17.418,17.418,0,0,1-6.38,1.132,17.585,17.585,0,0,1-6.438-1.132,13.87,13.87,0,0,1-8.12-8.093,17.283,17.283,0,0,1-1.135-6.408,17.292,17.292,0,0,1,1.135-6.409,13.87,13.87,0,0,1,8.12-8.093A17.585,17.585,0,0,1,406.212,0m0,23.534a7.77,7.77,0,0,0,5.745-2.155,7.761,7.761,0,0,0,2.154-5.744,7.763,7.763,0,0,0-2.154-5.746,8.812,8.812,0,0,0-11.547,0,7.762,7.762,0,0,0-2.154,5.746,7.759,7.759,0,0,0,2.154,5.744,7.841,7.841,0,0,0,5.8,2.155" transform="translate(-206.746 0)"/>
        <path id="Path_239" data-name="Path 239" d="M482.952,0a11.063,11.063,0,0,1,4.916,1.077,10.484,10.484,0,0,1,3.758,3.094,14.985,14.985,0,0,1,2.4,4.917,22.912,22.912,0,0,1,.856,6.491V30.716h-7.678V15.578a10.1,10.1,0,0,0-1.437-5.69,5.869,5.869,0,0,0-9.088,0,10.268,10.268,0,0,0-1.406,5.69V30.716h-7.681V.552h7.681V4.2A7.429,7.429,0,0,1,478.2,1.132,9.254,9.254,0,0,1,482.952,0" transform="translate(-247.55 0)"/>
        <path id="Path_240" data-name="Path 240" d="M238.656,1.163V6.811A22.8,22.8,0,0,1,237.8,13.3a15.022,15.022,0,0,1-2.4,4.905,10.364,10.364,0,0,1-3.757,3.1c-.226.1-.435.208-.661.3a11.328,11.328,0,0,1-4.262.783,10.607,10.607,0,0,1-1.7-.122,10.839,10.839,0,0,1-1.722.122,11.175,11.175,0,0,1-4.244-.783c-.226-.087-.452-.191-.661-.3a10.223,10.223,0,0,1-3.757-3.1,14.707,14.707,0,0,1-2.418-4.905,23.438,23.438,0,0,1-.852-6.488V1.163h7.688V6.811a11.427,11.427,0,0,0,.8,4.522,8.19,8.19,0,0,0,.608,1.166,4.676,4.676,0,0,0,.818.939,4.134,4.134,0,0,0,1.043.678,3.657,3.657,0,0,0,.609.226,6.417,6.417,0,0,0,2.088.313,6.567,6.567,0,0,0,2.087-.313,4.338,4.338,0,0,0,2.47-1.844A8.935,8.935,0,0,0,230.9,8.481a16.69,16.69,0,0,0,.087-1.67V1.163Z" transform="translate(-111.899 -0.616)"/>
        <rect id="Rectangle_9" data-name="Rectangle 9" width="7.68" height="11.314" transform="translate(109.272 19.954)"/>
      </g>
    </g>
  </g>
</svg>
