<?xml version="1.0" encoding="UTF-8"?>
<svg version="1.1" xmlns="http://www.w3.org/2000/svg" width="100" height="100">
<path d="M0 0 C29.7 0 59.4 0 90 0 C90 30.69 90 61.38 90 93 C89.67 93 89.34 93 89 93 C88.91363281 91.9584375 88.82726562 90.916875 88.73828125 89.84375 C86.80726613 69.20010535 80.05212328 51.35415447 67 35 C66.43539062 34.28199219 65.87078125 33.56398437 65.2890625 32.82421875 C50.23440917 14.62434442 26.82896355 3.98405741 3.6875 1.3125 C2.470625 1.209375 1.25375 1.10625 0 1 C0 0.67 0 0.34 0 0 Z " fill="#070707" transform="translate(10,0)"/>
</svg>
