<svg xmlns="http://www.w3.org/2000/svg" xmlns:xlink="http://www.w3.org/1999/xlink" width="189.413" height="222.779" viewBox="0 0 189.413 222.779">
  <defs>
    <clipPath id="clip-path">
      <rect id="Rectangle_150" data-name="Rectangle 150" width="90.906" height="103.582" fill="none"/>
    </clipPath>
  </defs>
  <g id="Group_157" data-name="Group 157" transform="translate(-490.263 -307.88)">
    <g id="Group_117" data-name="Group 117" transform="translate(588.77 327.747)">
      <g id="Group_111" data-name="Group 111" transform="translate(0 0)" clip-path="url(#clip-path)">
        <path id="Path_1795" data-name="Path 1795" d="M53.839.524C29.172-3.511,5.42,16.171.789,44.485S12.4,99.022,37.068,103.057,85.487,87.41,90.118,59.1,78.507,4.559,53.839.524M76,34.649,73.139,49.1,36.194,69.03h33.1l-1.924,9.915-52.73-.1L17.6,64.1,54.79,41.851,56.368,34.4l-13.22.2-.986,4.834-19.78.1,1.085-5.081q1.973-9.717,16.574-9.767l24.811-.049Q78.022,24.588,76,34.649" transform="translate(0 0)"/>
      </g>
    </g>
    <g id="Group_118" data-name="Group 118" transform="translate(490.263 307.88)">
      <g id="Group_113" data-name="Group 113" transform="translate(0)" clip-path="url(#clip-path)">
        <path id="Path_1796" data-name="Path 1796" d="M53.838.524C29.171-3.511,5.419,16.171.788,44.485S12.4,99.023,37.067,103.057,85.486,87.41,90.117,59.1,78.506,4.559,53.838.524M49.917,78.9H30.137L39.065,34.4l-5.081-.1L36.5,24.686H60.769Z" transform="translate(0 0)"/>
      </g>
    </g>
    <g id="Group_116" data-name="Group 116" transform="translate(530.206 427.077)">
      <g id="Group_109" data-name="Group 109" transform="translate(0 0)" clip-path="url(#clip-path)">
        <path id="Path_1794" data-name="Path 1794" d="M53.838.524C29.171-3.511,5.419,16.171.788,44.485S12.4,99.023,37.067,103.057,85.486,87.41,90.117,59.1,78.506,4.559,53.838.524m17.363,34L59.412,46.908l9.224-.049L64.394,69.1Q62.371,78.97,45.009,78.92H17.681l1.924-9.767,14.7.1q10.359.1,11.395-5.032l1.628-8.138-25.009-.1,1.825-9.224H40.076L52.211,34.576l-25.6.1,2.072-9.866,44.542-.148Z" transform="translate(0 0)"/>
      </g>
    </g>
  </g>
</svg>
